G04 DipTrace 3.3.0.0*
G04 BottomSilk.gbr*
%MOIN*%
G04 #@! TF.FileFunction,Legend,Bot*
G04 #@! TF.Part,Single*
%ADD26C,0.008*%
%ADD123C,0.006176*%
%FSLAX26Y26*%
G04*
G70*
G90*
G75*
G01*
G04 BotSilk*
%LPD*%
X2406516Y2744016D2*
D26*
X3119016D1*
Y2419016D1*
X2406516D1*
Y2744016D1*
X3055309Y2672976D2*
D123*
Y2713168D1*
X3070608Y2672976D1*
X3085907Y2713168D1*
Y2672976D1*
X3042958Y2692121D2*
X3025714D1*
X3020010Y2694023D1*
X3018065Y2695968D1*
X3016163Y2699771D1*
Y2705519D1*
X3018065Y2709321D1*
X3020010Y2711267D1*
X3025714Y2713168D1*
X3042958D1*
Y2672976D1*
X2975116Y2703617D2*
X2977017Y2707420D1*
X2980864Y2711267D1*
X2984666Y2713168D1*
X2992316D1*
X2996163Y2711267D1*
X2999965Y2707420D1*
X3001911Y2703617D1*
X3003812Y2697869D1*
Y2688275D1*
X3001911Y2682571D1*
X2999965Y2678724D1*
X2996163Y2674921D1*
X2992316Y2672976D1*
X2984666D1*
X2980864Y2674921D1*
X2977017Y2678724D1*
X2975116Y2682571D1*
X2935970Y2713168D2*
Y2672976D1*
X2962765Y2713168D1*
Y2672976D1*
X2894922Y2703617D2*
X2896824Y2707420D1*
X2900671Y2711267D1*
X2904473Y2713168D1*
X2912122D1*
X2915969Y2711267D1*
X2919772Y2707420D1*
X2921717Y2703617D1*
X2923618Y2697869D1*
Y2688275D1*
X2921717Y2682571D1*
X2919772Y2678724D1*
X2915969Y2674921D1*
X2912122Y2672976D1*
X2904473D1*
X2900671Y2674921D1*
X2896824Y2678724D1*
X2894922Y2682571D1*
X2801305Y2703617D2*
X2803207Y2707420D1*
X2807053Y2711267D1*
X2810856Y2713168D1*
X2818505D1*
X2822352Y2711267D1*
X2826155Y2707420D1*
X2828100Y2703617D1*
X2830001Y2697869D1*
Y2688275D1*
X2828100Y2682571D1*
X2826155Y2678724D1*
X2822352Y2674921D1*
X2818505Y2672976D1*
X2810856D1*
X2807053Y2674921D1*
X2803207Y2678724D1*
X2801305Y2682571D1*
Y2688275D1*
X2810856D1*
X2788954Y2699771D2*
Y2672976D1*
Y2688275D2*
X2787008Y2694023D1*
X2783206Y2697869D1*
X2779359Y2699771D1*
X2773611D1*
X2761260Y2713168D2*
Y2672976D1*
Y2694023D2*
X2757413Y2697869D1*
X2753610Y2699771D1*
X2747862D1*
X2744060Y2697869D1*
X2740213Y2694023D1*
X2738312Y2688275D1*
Y2684472D1*
X2740213Y2678724D1*
X2744060Y2674921D1*
X2747862Y2672976D1*
X2753610D1*
X2757413Y2674921D1*
X2761260Y2678724D1*
X2725960Y2713168D2*
Y2672976D1*
X2713609Y2666344D2*
X2677264D1*
X2640063Y2713168D2*
X2664912D1*
Y2672976D1*
X2640063D1*
X2664912Y2694023D2*
X2649614D1*
X2600917Y2707420D2*
X2604720Y2711267D1*
X2610468Y2713168D1*
X2618117D1*
X2623865Y2711267D1*
X2627712Y2707420D1*
Y2703617D1*
X2625766Y2699771D1*
X2623865Y2697869D1*
X2620062Y2695968D1*
X2608566Y2692121D1*
X2604720Y2690220D1*
X2602818Y2688275D1*
X2600917Y2684472D1*
Y2678724D1*
X2604720Y2674921D1*
X2610468Y2672976D1*
X2618117D1*
X2623865Y2674921D1*
X2627712Y2678724D1*
X2588566Y2692121D2*
X2571322D1*
X2565618Y2694023D1*
X2563672Y2695968D1*
X2561771Y2699771D1*
Y2705519D1*
X2563672Y2709321D1*
X2565618Y2711267D1*
X2571322Y2713168D1*
X2588566D1*
Y2672976D1*
X2545573Y2713124D2*
X2524570D1*
X2536022Y2697825D1*
X2530274D1*
X2526472Y2695924D1*
X2524570Y2694023D1*
X2522625Y2688275D1*
Y2684472D1*
X2524570Y2678724D1*
X2528373Y2674877D1*
X2534121Y2672976D1*
X2539869D1*
X2545573Y2674877D1*
X2547474Y2676823D1*
X2549420Y2680625D1*
X2508328Y2703573D2*
Y2705474D1*
X2506427Y2709321D1*
X2504526Y2711222D1*
X2500679Y2713124D1*
X2493030D1*
X2489227Y2711222D1*
X2487326Y2709321D1*
X2485380Y2705474D1*
Y2701672D1*
X2487326Y2697825D1*
X2491128Y2692121D1*
X2510274Y2672976D1*
X2483479D1*
X3040011Y2628617D2*
X3041912Y2632420D1*
X3045759Y2636267D1*
X3049561Y2638168D1*
X3057211D1*
X3061057Y2636267D1*
X3064860Y2632420D1*
X3066805Y2628617D1*
X3068707Y2622869D1*
Y2613275D1*
X3066805Y2607571D1*
X3064860Y2603724D1*
X3061057Y2599921D1*
X3057211Y2597976D1*
X3049561D1*
X3045759Y2599921D1*
X3041912Y2603724D1*
X3040011Y2607571D1*
X3018109Y2624771D2*
X3021911Y2622869D1*
X3025758Y2619023D1*
X3027659Y2613275D1*
Y2609472D1*
X3025758Y2603724D1*
X3021911Y2599921D1*
X3018109Y2597976D1*
X3012361D1*
X3008514Y2599921D1*
X3004711Y2603724D1*
X3002766Y2609472D1*
Y2613275D1*
X3004711Y2619023D1*
X3008514Y2622869D1*
X3012361Y2624771D1*
X3018109D1*
X2990415D2*
Y2597976D1*
Y2617121D2*
X2984667Y2622869D1*
X2980820Y2624771D1*
X2975116D1*
X2971269Y2622869D1*
X2969368Y2617121D1*
Y2597976D1*
X2951268Y2638168D2*
Y2605625D1*
X2949367Y2599921D1*
X2945520Y2597976D1*
X2941718D1*
X2957017Y2624771D2*
X2943619D1*
X2929367D2*
Y2597976D1*
Y2613275D2*
X2927421Y2619023D1*
X2923618Y2622869D1*
X2919772Y2624771D1*
X2914024D1*
X2892122D2*
X2895924Y2622869D1*
X2899771Y2619023D1*
X2901672Y2613275D1*
Y2609472D1*
X2899771Y2603724D1*
X2895924Y2599921D1*
X2892122Y2597976D1*
X2886374D1*
X2882527Y2599921D1*
X2878724Y2603724D1*
X2876779Y2609472D1*
Y2613275D1*
X2878724Y2619023D1*
X2882527Y2622869D1*
X2886374Y2624771D1*
X2892122D1*
X2864427Y2638168D2*
Y2597976D1*
X2852076Y2638168D2*
Y2597976D1*
X2839725Y2613275D2*
X2816777D1*
Y2617121D1*
X2818678Y2620968D1*
X2820579Y2622869D1*
X2824426Y2624771D1*
X2830174D1*
X2833977Y2622869D1*
X2837823Y2619023D1*
X2839725Y2613275D1*
Y2609472D1*
X2837823Y2603724D1*
X2833977Y2599921D1*
X2830174Y2597976D1*
X2824426D1*
X2820579Y2599921D1*
X2816777Y2603724D1*
X2804425Y2624771D2*
Y2597976D1*
Y2613275D2*
X2802480Y2619023D1*
X2798677Y2622869D1*
X2794831Y2624771D1*
X2789083D1*
X2737850Y2638168D2*
X2722552Y2597976D1*
X2707253Y2638168D1*
X2694902Y2630474D2*
X2691055Y2632420D1*
X2685307Y2638124D1*
Y2597976D1*
X2671054Y2601823D2*
X2672956Y2599877D1*
X2671054Y2597976D1*
X2669109Y2599877D1*
X2671054Y2601823D1*
X2656757Y2630474D2*
X2652911Y2632420D1*
X2647163Y2638124D1*
Y2597976D1*
X3085906Y2562271D2*
X3078257Y2535476D1*
X3070608Y2562271D1*
X3062959Y2535476D1*
X3055309Y2562271D1*
X3042958D2*
X3035309Y2535476D1*
X3027659Y2562271D1*
X3020010Y2535476D1*
X3012361Y2562271D1*
X3000009D2*
X2992360Y2535476D1*
X2984711Y2562271D1*
X2977061Y2535476D1*
X2969412Y2562271D1*
X2955159Y2539323D2*
X2957061Y2537377D1*
X2955159Y2535476D1*
X2953214Y2537377D1*
X2955159Y2539323D1*
X2940862Y2575668D2*
Y2535476D1*
Y2556523D2*
X2937016Y2560369D1*
X2933213Y2562271D1*
X2927465D1*
X2923663Y2560369D1*
X2919816Y2556523D1*
X2917915Y2550775D1*
Y2546972D1*
X2919816Y2541224D1*
X2923663Y2537421D1*
X2927465Y2535476D1*
X2933213D1*
X2937016Y2537421D1*
X2940862Y2541224D1*
X2905563Y2562271D2*
Y2543125D1*
X2903662Y2537421D1*
X2899815Y2535476D1*
X2894067D1*
X2890265Y2537421D1*
X2884516Y2543125D1*
Y2562271D2*
Y2535476D1*
X2872165Y2575668D2*
X2870264Y2573767D1*
X2868318Y2575668D1*
X2870264Y2577613D1*
X2872165Y2575668D1*
X2870264Y2562271D2*
Y2535476D1*
X2855967Y2575668D2*
Y2535476D1*
X2820668Y2575668D2*
Y2535476D1*
Y2556523D2*
X2824470Y2560369D1*
X2828317Y2562271D1*
X2834065D1*
X2837868Y2560369D1*
X2841714Y2556523D1*
X2843616Y2550775D1*
Y2546972D1*
X2841714Y2541224D1*
X2837868Y2537421D1*
X2834065Y2535476D1*
X2828317D1*
X2824470Y2537421D1*
X2820668Y2541224D1*
X2808316Y2575668D2*
Y2535476D1*
X2786414Y2562271D2*
X2790217Y2560369D1*
X2794064Y2556523D1*
X2795965Y2550775D1*
Y2546972D1*
X2794064Y2541224D1*
X2790217Y2537421D1*
X2786414Y2535476D1*
X2780666D1*
X2776819Y2537421D1*
X2773017Y2541224D1*
X2771071Y2546972D1*
Y2550775D1*
X2773017Y2556523D1*
X2776819Y2560369D1*
X2780666Y2562271D1*
X2786414D1*
X2735772Y2560369D2*
Y2529728D1*
X2737673Y2524024D1*
X2739575Y2522079D1*
X2743421Y2520177D1*
X2749169D1*
X2752972Y2522079D1*
X2735772Y2554621D2*
X2739575Y2558424D1*
X2743421Y2560369D1*
X2749169D1*
X2752972Y2558424D1*
X2756819Y2554621D1*
X2758720Y2548873D1*
Y2545027D1*
X2756819Y2539323D1*
X2752972Y2535476D1*
X2749169Y2533575D1*
X2743421D1*
X2739575Y2535476D1*
X2735772Y2539323D1*
X2721519D2*
X2723421Y2537377D1*
X2721519Y2535476D1*
X2719574Y2537377D1*
X2721519Y2539323D1*
X2707223Y2562271D2*
Y2535476D1*
Y2554621D2*
X2701475Y2560369D1*
X2697628Y2562271D1*
X2691924D1*
X2688077Y2560369D1*
X2686176Y2554621D1*
Y2535476D1*
X2673825Y2550775D2*
X2650877D1*
Y2554621D1*
X2652778Y2558468D1*
X2654679Y2560369D1*
X2658526Y2562271D1*
X2664274D1*
X2668077Y2560369D1*
X2671923Y2556523D1*
X2673825Y2550775D1*
Y2546972D1*
X2671923Y2541224D1*
X2668077Y2537421D1*
X2664274Y2535476D1*
X2658526D1*
X2654679Y2537421D1*
X2650877Y2541224D1*
X2632777Y2575668D2*
Y2543125D1*
X2630876Y2537421D1*
X2627029Y2535476D1*
X2623227D1*
X2638525Y2562271D2*
X2625128D1*
X2610875Y2535476D2*
X2584081Y2575624D1*
X2571729Y2575668D2*
Y2535476D1*
Y2556523D2*
X2567882Y2560369D1*
X2564080Y2562271D1*
X2558332D1*
X2554529Y2560369D1*
X2550683Y2556523D1*
X2548781Y2550775D1*
Y2546972D1*
X2550683Y2541224D1*
X2554529Y2537421D1*
X2558332Y2535476D1*
X2564080D1*
X2567882Y2537421D1*
X2571729Y2541224D1*
X2536430Y2575668D2*
Y2535476D1*
X2514528Y2562271D2*
X2518330Y2560369D1*
X2522177Y2556523D1*
X2524078Y2550775D1*
Y2546972D1*
X2522177Y2541224D1*
X2518330Y2537421D1*
X2514528Y2535476D1*
X2508780D1*
X2504933Y2537421D1*
X2501131Y2541224D1*
X2499185Y2546972D1*
Y2550775D1*
X2501131Y2556523D1*
X2504933Y2560369D1*
X2508780Y2562271D1*
X2514528D1*
X2463886Y2560369D2*
Y2529728D1*
X2465787Y2524024D1*
X2467688Y2522079D1*
X2471535Y2520177D1*
X2477283D1*
X2481086Y2522079D1*
X2463886Y2554621D2*
X2467688Y2558424D1*
X2471535Y2560369D1*
X2477283D1*
X2481086Y2558424D1*
X2484932Y2554621D1*
X2486834Y2548873D1*
Y2545027D1*
X2484932Y2539323D1*
X2481086Y2535476D1*
X2477283Y2533575D1*
X2471535D1*
X2467688Y2535476D1*
X2463886Y2539323D1*
X3064860Y2491073D2*
X3070608D1*
X3074410Y2489172D1*
X3076356Y2487271D1*
X3078257Y2483424D1*
Y2475775D1*
X3076356Y2473873D1*
X3072509D1*
X3064860Y2475775D1*
X3062958Y2471972D1*
X3061057D1*
X3057210Y2475775D1*
X3055309Y2485325D1*
X3057210Y2491073D1*
X3059112Y2494920D1*
X3062958Y2498722D1*
X3066761Y2500624D1*
X3074410D1*
X3078257Y2498722D1*
X3082060Y2494920D1*
X3084005Y2491073D1*
X3085906Y2485325D1*
Y2475775D1*
X3084005Y2470027D1*
X3082060Y2466224D1*
X3078257Y2462377D1*
X3074410Y2460476D1*
X3066761D1*
X3062958Y2462377D1*
X3059112Y2466224D1*
X3064860Y2492974D2*
Y2475775D1*
X3042958Y2500668D2*
Y2460476D1*
Y2481523D2*
X3039111Y2485369D1*
X3035308Y2487271D1*
X3029560D1*
X3025758Y2485369D1*
X3021911Y2481523D1*
X3020010Y2475775D1*
Y2471972D1*
X3021911Y2466224D1*
X3025758Y2462421D1*
X3029560Y2460476D1*
X3035308D1*
X3039111Y2462421D1*
X3042958Y2466224D1*
X3007658Y2487271D2*
Y2468125D1*
X3005757Y2462421D1*
X3001910Y2460476D1*
X2996162D1*
X2992360Y2462421D1*
X2986612Y2468125D1*
Y2487271D2*
Y2460476D1*
X2974260Y2500668D2*
X2972359Y2498767D1*
X2970414Y2500668D1*
X2972359Y2502613D1*
X2974260Y2500668D1*
X2972359Y2487271D2*
Y2460476D1*
X2958062Y2500668D2*
Y2460476D1*
X2922763Y2500668D2*
Y2460476D1*
Y2481523D2*
X2926565Y2485369D1*
X2930412Y2487271D1*
X2936160D1*
X2939963Y2485369D1*
X2943810Y2481523D1*
X2945711Y2475775D1*
Y2471972D1*
X2943810Y2466224D1*
X2939963Y2462421D1*
X2936160Y2460476D1*
X2930412D1*
X2926565Y2462421D1*
X2922763Y2466224D1*
X2910411Y2500668D2*
Y2460476D1*
X2888510Y2487271D2*
X2892312Y2485369D1*
X2896159Y2481523D1*
X2898060Y2475775D1*
Y2471972D1*
X2896159Y2466224D1*
X2892312Y2462421D1*
X2888510Y2460476D1*
X2882761D1*
X2878915Y2462421D1*
X2875112Y2466224D1*
X2873167Y2471972D1*
Y2475775D1*
X2875112Y2481523D1*
X2878915Y2485369D1*
X2882761Y2487271D1*
X2888510D1*
X2837867Y2485369D2*
Y2454728D1*
X2839769Y2449024D1*
X2841670Y2447079D1*
X2845517Y2445177D1*
X2851265D1*
X2855067Y2447079D1*
X2837867Y2479621D2*
X2841670Y2483424D1*
X2845517Y2485369D1*
X2851265D1*
X2855067Y2483424D1*
X2858914Y2479621D1*
X2860815Y2473873D1*
Y2470027D1*
X2858914Y2464323D1*
X2855067Y2460476D1*
X2851265Y2458575D1*
X2845517D1*
X2841670Y2460476D1*
X2837867Y2464323D1*
M02*
