G04 DipTrace 3.3.0.0*
G04 TopMask.gbr*
%MOIN*%
G04 #@! TF.FileFunction,Soldermask,Top*
G04 #@! TF.Part,Single*
%ADD35C,0.11811*%
%ADD60C,0.03937*%
%ADD71R,0.14622X0.111181*%
%ADD73R,0.032047X0.071024*%
%ADD75R,0.051339X0.031654*%
%ADD77C,0.067031*%
%ADD79R,0.067031X0.067031*%
%ADD81C,0.068031*%
%ADD83C,0.128031*%
%ADD85R,0.128031X0.128031*%
%ADD87R,0.059213X0.067087*%
%ADD89R,0.039528X0.043465*%
%ADD91C,0.208031*%
%ADD93R,0.100551X0.145827*%
%ADD95R,0.084803X0.084803*%
%ADD97C,0.084803*%
%ADD99R,0.06315X0.039528*%
%ADD101R,0.06315X0.055276*%
%ADD103R,0.086772X0.055276*%
%ADD105R,0.059213X0.035591*%
%ADD107C,0.067087*%
%ADD109R,0.067087X0.067087*%
%ADD111C,0.047402*%
%ADD113R,0.106457X0.074961*%
%ADD115R,0.074961X0.106457*%
%ADD117R,0.071024X0.078898*%
%ADD119R,0.071024X0.171417*%
%ADD121R,0.067087X0.059213*%
%FSLAX26Y26*%
G04*
G70*
G90*
G75*
G01*
G04 TopMask*
%LPD*%
D121*
X2886724Y1816570D3*
Y1741766D3*
D119*
X944016Y1044016D3*
Y1292047D3*
X1644016Y1044016D3*
Y1292047D3*
X2394016Y1044016D3*
Y1292047D3*
X3094016Y1044016D3*
Y1292047D3*
X3844016Y1094016D3*
Y1342047D3*
D121*
X1794016Y2869016D3*
Y2943819D3*
X1994016Y2869016D3*
Y2943819D3*
X2194016Y2869016D3*
Y2943819D3*
X894016Y2869016D3*
Y2943819D3*
X1094016Y2869016D3*
Y2943819D3*
X1294016Y2869016D3*
Y2943819D3*
X1594016Y2869016D3*
Y2943819D3*
D117*
X2875766Y1650765D3*
X2765530D3*
D121*
X2710724Y2031570D3*
Y2106373D3*
D117*
X3106516Y1694016D3*
X3216752D3*
D115*
X3003724Y1830534D3*
Y1673054D3*
X3293064Y2479589D3*
Y2637070D3*
D113*
X485214Y2858130D3*
X642694D3*
D35*
X531811Y708976D3*
D111*
D3*
D109*
X1494016Y3044016D3*
D107*
X1594016D3*
X1694016D3*
X1794016D3*
X1894016D3*
X1994016D3*
X2094016D3*
X2194016D3*
D109*
X794016Y544016D3*
D107*
X894016D3*
X994016D3*
X1094016D3*
D109*
X1494016D3*
D107*
X1594016D3*
X1694016D3*
X1794016D3*
D109*
X2244016D3*
D107*
X2344016D3*
X2444016D3*
X2544016D3*
D109*
X2944016D3*
D107*
X3044016D3*
X3144016D3*
X3244016D3*
D109*
X3669016D3*
D107*
X3769016D3*
X3869016D3*
X3969016D3*
D109*
X2594016Y3044016D3*
D107*
X2694016D3*
X2794016D3*
X2894016D3*
D109*
X794016D3*
D107*
Y3144016D3*
X894016Y3044016D3*
Y3144016D3*
X994016Y3044016D3*
Y3144016D3*
X1094016Y3044016D3*
Y3144016D3*
X1194016Y3044016D3*
Y3144016D3*
D109*
X494016Y2694016D3*
D107*
X594016D3*
X694016D3*
X794016D3*
X894016D3*
X994016D3*
X1094016D3*
X1194016D3*
X1294016D3*
X1394016D3*
X1494016D3*
X1594016D3*
X1694016D3*
X1794016D3*
X1894016D3*
X1994016D3*
X2094016D3*
X2194016D3*
X2294016D3*
D109*
X3906516Y2213701D3*
D107*
Y2113701D3*
D105*
X943992Y2043765D3*
Y2087072D3*
Y2130379D3*
Y2173686D3*
Y2216993D3*
Y2260301D3*
Y2303608D3*
Y2346915D3*
Y2390222D3*
D103*
X528638Y1855576D3*
D101*
X910528D3*
D99*
Y2433529D3*
D103*
X528638D3*
D60*
X512890Y2322899D3*
Y2007938D3*
D97*
X4156516Y2620886D3*
D95*
X4077776Y2857106D3*
D97*
Y2384665D3*
X3597461Y2857106D3*
Y2384665D3*
D93*
X2925471Y2055430D3*
X3163660D3*
D91*
X531811Y531811D3*
X4193228D3*
Y3169606D3*
X531811D3*
D89*
X3331516Y2819016D3*
X3256713D3*
X3294114Y2740276D3*
D121*
X1694016Y2419016D3*
Y2493819D3*
X1894016Y2494016D3*
Y2419213D3*
X1994016Y2494016D3*
Y2419213D3*
X2094016Y2494016D3*
Y2419213D3*
D87*
X2619724Y1654570D3*
X2694528D3*
D121*
X2619724Y2031570D3*
Y2106373D3*
X1694016Y2944016D3*
Y2869213D3*
X1894016Y2944016D3*
Y2869213D3*
X2094016Y2944016D3*
Y2869213D3*
X794016Y2944016D3*
Y2869213D3*
X994016Y2944016D3*
Y2869213D3*
X1194016Y2944016D3*
Y2869213D3*
X1494016Y2944016D3*
Y2869213D3*
D87*
X3256516Y2894016D3*
X3331319D3*
D121*
X2528724Y2109570D3*
Y2034766D3*
D87*
Y1953570D3*
X2603528D3*
D121*
X2794016Y2869016D3*
Y2943819D3*
X1806516Y2493819D3*
Y2419016D3*
D87*
X1153190Y1799523D3*
X1078387D3*
D85*
X4144016Y1919016D3*
D83*
Y1722165D3*
D85*
X3790079Y3142441D3*
D83*
X3593228D3*
D81*
X494016Y2594016D3*
X594016D3*
X694016D3*
X794016D3*
X894016D3*
X994016D3*
X1094016D3*
X1194016D3*
X1294016D3*
X1394016D3*
X1494016D3*
X1594016D3*
X1694016D3*
X1794016D3*
X1894016D3*
X1994016D3*
X2094016D3*
X2194016D3*
X2294016D3*
X494016Y1694016D3*
X594016D3*
X694016D3*
X794016D3*
X894016D3*
X994016D3*
X1094016D3*
X1194016D3*
X1294016D3*
X1394016D3*
X1494016D3*
X1594016D3*
X1694016D3*
X1794016D3*
X1894016D3*
X1994016D3*
X2094016D3*
X2194016D3*
X2294016D3*
D79*
X694016Y1394016D3*
D77*
Y1294016D3*
Y1194016D3*
Y1094016D3*
Y994016D3*
Y894016D3*
Y794016D3*
Y694016D3*
X1194016D3*
Y794016D3*
Y894016D3*
Y994016D3*
Y1094016D3*
Y1194016D3*
Y1294016D3*
Y1394016D3*
D79*
X1394016D3*
D77*
Y1294016D3*
Y1194016D3*
Y1094016D3*
Y994016D3*
Y894016D3*
Y794016D3*
Y694016D3*
X1894016D3*
Y794016D3*
Y894016D3*
Y994016D3*
Y1094016D3*
Y1194016D3*
Y1294016D3*
Y1394016D3*
D79*
X2144016D3*
D77*
Y1294016D3*
Y1194016D3*
Y1094016D3*
Y994016D3*
Y894016D3*
Y794016D3*
Y694016D3*
X2644016D3*
Y794016D3*
Y894016D3*
Y994016D3*
Y1094016D3*
Y1194016D3*
Y1294016D3*
Y1394016D3*
D79*
X2844016D3*
D77*
Y1294016D3*
Y1194016D3*
Y1094016D3*
Y994016D3*
Y894016D3*
Y794016D3*
Y694016D3*
X3344016D3*
Y794016D3*
Y894016D3*
Y994016D3*
Y1094016D3*
Y1194016D3*
Y1294016D3*
Y1394016D3*
D79*
X3594016Y1444016D3*
D77*
Y1344016D3*
Y1244016D3*
Y1144016D3*
Y1044016D3*
Y944016D3*
Y844016D3*
Y744016D3*
X4094016D3*
Y844016D3*
Y944016D3*
Y1044016D3*
Y1144016D3*
Y1244016D3*
Y1344016D3*
Y1444016D3*
D75*
X1775266Y2181516D3*
Y2144114D3*
Y2106713D3*
X1881566D3*
Y2144114D3*
Y2181516D3*
D73*
X2810354Y1955442D3*
X2760354D3*
X2710354D3*
X2660354D3*
Y1742844D3*
X2710354D3*
X2760354D3*
X2810354D3*
D71*
X2735354Y1849143D3*
D35*
X4016063Y3169606D3*
D111*
D3*
M02*
