G04 DipTrace 3.3.1.3*
G04 BottomMask.gbr*
%MOIN*%
G04 #@! TF.FileFunction,Soldermask,Bot*
G04 #@! TF.Part,Single*
%ADD61C,0.03937*%
%ADD78C,0.067*%
%ADD80R,0.067X0.067*%
%ADD82C,0.068*%
%ADD84C,0.128*%
%ADD86R,0.128X0.128*%
%ADD92C,0.208*%
%ADD96R,0.084772X0.084772*%
%ADD98C,0.084772*%
%ADD108C,0.067055*%
%ADD110R,0.067055X0.067055*%
%FSLAX26Y26*%
G04*
G70*
G90*
G75*
G01*
G04 BotMask*
%LPD*%
D110*
X1493700Y3043700D3*
D108*
X1593700D3*
X1693700D3*
X1793700D3*
X1893700D3*
X1993700D3*
X2093700D3*
X2193700D3*
D110*
X793700Y543700D3*
D108*
X893700D3*
X993700D3*
X1093700D3*
D110*
X793700Y3043700D3*
D108*
Y3143700D3*
X893700Y3043700D3*
Y3143700D3*
X993700Y3043700D3*
Y3143700D3*
X1093700Y3043700D3*
Y3143700D3*
X1193700Y3043700D3*
Y3143700D3*
D110*
X1493700Y543700D3*
D108*
X1593700D3*
X1693700D3*
X1793700D3*
D110*
X493700Y2693700D3*
D108*
X593700D3*
X693700D3*
X793700D3*
X893700D3*
X993700D3*
X1093700D3*
X1193700D3*
X1293700D3*
X1393700D3*
X1493700D3*
X1593700D3*
X1693700D3*
X1793700D3*
X1893700D3*
X1993700D3*
X2093700D3*
X2193700D3*
X2293700D3*
D110*
X2243700Y543700D3*
D108*
X2343700D3*
X2443700D3*
X2543700D3*
D110*
X2943700D3*
D108*
X3043700D3*
X3143700D3*
X3243700D3*
D110*
X3468700Y2224951D3*
D108*
Y2124951D3*
D110*
X3668700Y543700D3*
D108*
X3768700D3*
X3868700D3*
X3968700D3*
D61*
X512574Y2322583D3*
Y2007623D3*
D110*
X2593700Y3043700D3*
D108*
X2693700D3*
X2793700D3*
X2893700D3*
D98*
X3284645Y2645570D3*
D96*
X3363385Y2409350D3*
D98*
Y2881791D3*
X3843700Y2409350D3*
Y2881791D3*
D92*
X531495Y531495D3*
X4192913D3*
X531495Y3169291D3*
X4192913D3*
D86*
X4206200Y2737450D3*
D84*
Y2540600D3*
D86*
X4143700Y1918700D3*
D84*
Y1721850D3*
D82*
X493700Y2593700D3*
X593700D3*
X693700D3*
X793700D3*
X893700D3*
X993700D3*
X1093700D3*
X1193700D3*
X1293700D3*
X1393700D3*
X1493700D3*
X1593700D3*
X1693700D3*
X1793700D3*
X1893700D3*
X1993700D3*
X2093700D3*
X2193700D3*
X2293700D3*
X493700Y1693700D3*
X593700D3*
X693700D3*
X793700D3*
X893700D3*
X993700D3*
X1093700D3*
X1193700D3*
X1293700D3*
X1393700D3*
X1493700D3*
X1593700D3*
X1693700D3*
X1793700D3*
X1893700D3*
X1993700D3*
X2093700D3*
X2193700D3*
X2293700D3*
D80*
X693700Y1393700D3*
D78*
Y1293700D3*
Y1193700D3*
Y1093700D3*
Y993700D3*
Y893700D3*
Y793700D3*
Y693700D3*
X1193700D3*
Y793700D3*
Y893700D3*
Y993700D3*
Y1093700D3*
Y1193700D3*
Y1293700D3*
Y1393700D3*
D80*
X1393700D3*
D78*
Y1293700D3*
Y1193700D3*
Y1093700D3*
Y993700D3*
Y893700D3*
Y793700D3*
Y693700D3*
X1893700D3*
Y793700D3*
Y893700D3*
Y993700D3*
Y1093700D3*
Y1193700D3*
Y1293700D3*
Y1393700D3*
D80*
X2143700D3*
D78*
Y1293700D3*
Y1193700D3*
Y1093700D3*
Y993700D3*
Y893700D3*
Y793700D3*
Y693700D3*
X2643700D3*
Y793700D3*
Y893700D3*
Y993700D3*
Y1093700D3*
Y1193700D3*
Y1293700D3*
Y1393700D3*
D80*
X2843700D3*
D78*
Y1293700D3*
Y1193700D3*
Y1093700D3*
Y993700D3*
Y893700D3*
Y793700D3*
Y693700D3*
X3343700D3*
Y793700D3*
Y893700D3*
Y993700D3*
Y1093700D3*
Y1193700D3*
Y1293700D3*
Y1393700D3*
D80*
X3593700Y1443700D3*
D78*
Y1343700D3*
Y1243700D3*
Y1143700D3*
Y1043700D3*
Y943700D3*
Y843700D3*
Y743700D3*
X4093700D3*
Y843700D3*
Y943700D3*
Y1043700D3*
Y1143700D3*
Y1243700D3*
Y1343700D3*
Y1443700D3*
M02*
