G04 DipTrace 3.3.1.3*
G04 Bottom.gbr*
%MOIN*%
G04 #@! TF.FileFunction,Copper,L2,Bot*
G04 #@! TF.Part,Single*
G04 #@! TA.AperFunction,Conductor*
%ADD14C,0.016*%
%ADD15C,0.012008*%
%ADD16C,0.012*%
G04 #@! TA.AperFunction,CopperBalancing*
%ADD17C,0.025*%
G04 #@! TA.AperFunction,Conductor*
%ADD18C,0.015*%
G04 #@! TA.AperFunction,ViaPad*
%ADD20C,0.04*%
G04 #@! TA.AperFunction,Conductor*
%ADD23C,0.025199*%
G04 #@! TA.AperFunction,ComponentPad*
%ADD26C,0.06*%
%ADD38R,0.059055X0.059055*%
%ADD39C,0.059055*%
%ADD44C,0.076772*%
%ADD45R,0.076772X0.076772*%
%ADD47C,0.2*%
%ADD50R,0.12X0.12*%
%ADD51C,0.12*%
%ADD52R,0.059X0.059*%
%ADD53C,0.059*%
G04 #@! TA.AperFunction,ViaPad*
%ADD60C,0.03*%
%FSLAX26Y26*%
G04*
G70*
G90*
G75*
G01*
G04 Bottom*
%LPD*%
X2143700Y1293700D2*
D14*
X2243700D1*
X2348170Y1398170D1*
Y1739587D1*
X2302067Y1785690D1*
Y2593700D1*
X2293700D1*
X1774951Y2231200D2*
D15*
X1768700D1*
Y2393700D1*
X1243700Y1578739D2*
D18*
Y2343700D1*
X1093700D2*
Y2593700D1*
X1393700D2*
Y1893700D1*
X1039369D2*
Y1618109D1*
X2843700Y793700D2*
D16*
X2793700D1*
X2743700Y843700D1*
Y1468700D1*
X2631200Y1581200D1*
X1793700D2*
Y1693700D1*
X2143700Y693700D2*
D18*
X2050393D1*
X1993700Y750393D1*
Y1543700D1*
X1943700Y1593700D1*
Y1943700D1*
X1493700D2*
Y2593700D1*
X2943700Y793700D2*
D20*
X2993700Y843700D1*
X3343700Y1193700D1*
X2993700Y843700D2*
D3*
X1512449Y812451D2*
X1568700Y868700D1*
X1893700Y1193700D1*
X1568700Y868700D2*
D3*
X3343700Y1093700D2*
X2943700Y693700D1*
Y543700D1*
X793700D2*
Y793700D1*
X1193700Y1193700D1*
X893700Y543700D2*
Y793700D1*
X1193700Y1093700D1*
X993700Y543700D2*
Y793700D1*
X1193700Y993700D1*
X1093700Y543700D2*
Y793700D1*
X1193700Y893700D1*
X2593700Y2181200D2*
D16*
Y3043700D1*
X3593700Y843700D2*
D14*
X3543700D1*
X3474949Y912451D1*
Y1912451D1*
X3387449Y1999951D1*
Y2049949D1*
X1293700Y2443700D2*
Y2593700D1*
X2093700Y2693700D2*
D16*
Y3043700D1*
X1993700Y2693700D2*
Y2845783D1*
X1893700Y2945783D1*
Y3043700D1*
X3593700Y743700D2*
D14*
X3518700D1*
X3418700Y843700D1*
Y1862449D1*
X3331200Y1949949D1*
Y2112449D1*
X1593700Y2268700D2*
Y2593700D1*
X1693700D2*
D15*
Y2306200D1*
X1956200D2*
Y2143798D1*
X1893700Y2693700D2*
D16*
Y2794373D1*
X1739680Y2948393D1*
X1738260D1*
X1693700Y2992953D1*
Y3043700D1*
X2362451Y1843700D2*
X2368700Y1849949D1*
Y2237451D1*
X2456200Y2324949D1*
Y2868700D1*
X2193700Y1693700D2*
D15*
Y1987451D1*
X1104927Y1993058D2*
Y2124949D1*
X1356200Y2086756D2*
Y1756200D1*
X1393700Y1718700D1*
Y1693700D1*
X1893700Y1093700D2*
D20*
X1493700Y693700D1*
Y543700D1*
X793700Y1693700D2*
D16*
Y2466342D1*
X842037Y2514679D1*
Y2862812D1*
X1549949Y2303292D2*
D15*
Y1831200D1*
X1599949Y1781200D1*
X1593700Y1774951D1*
Y1693700D1*
X893700Y3043700D2*
D16*
Y2969487D1*
X1030926Y2832262D1*
Y2829062D1*
X1045821Y2814167D1*
Y2390037D1*
X1292695D2*
Y2078045D1*
X1293700Y2077040D1*
Y1693700D1*
X3143700Y543700D2*
D20*
Y793700D1*
X3343700Y993700D1*
X1681200Y2106397D2*
D15*
Y1793700D1*
X2143700Y793700D2*
D18*
X2068700D1*
X2043700Y818700D1*
Y2031200D1*
X1193700D2*
Y2593700D1*
X3243700Y543700D2*
D20*
Y793700D1*
X3343700Y893700D1*
X3218700Y2068700D2*
D16*
X3217146Y2070254D1*
X2593409D1*
X2476409Y1953254D1*
X3218700Y2118700D2*
Y2093700D1*
D17*
Y2068700D1*
Y2118700D2*
D23*
Y2174951D1*
X3268700Y2224951D1*
X3363385Y2319636D1*
Y2409350D1*
X3468700Y2224951D2*
D17*
X3268700D1*
X1493700Y3043700D2*
D16*
Y3001082D1*
X1793700Y2701082D1*
Y2693700D1*
X1693700Y543700D2*
D20*
Y793700D1*
X1893700Y993700D1*
X2243700Y543700D2*
Y793700D1*
X2643700Y1193700D1*
X2343700Y543700D2*
Y793700D1*
X2643700Y1093700D1*
X2443700Y543700D2*
Y793700D1*
X2643700Y993700D1*
X2543700Y543700D2*
Y793700D1*
X2643700Y893700D1*
X1093700Y3043700D2*
D16*
Y2982294D1*
X1141346Y2934649D1*
Y1741346D1*
X1093700Y1693700D1*
X1393700Y793700D2*
X1343700D1*
X1293700Y843700D1*
Y1618700D1*
X1443700Y2216678D2*
D15*
Y1881200D1*
X1493700Y1831200D1*
Y1693700D1*
X3668700Y543700D2*
D20*
Y818700D1*
X4093700Y1243700D1*
X3768700Y543700D2*
Y818700D1*
X4093700Y1143700D1*
X3868700Y543700D2*
Y818700D1*
X4093700Y1043700D1*
X3968700Y543700D2*
Y818700D1*
X4093700Y943700D1*
X1793700Y543700D2*
Y793700D1*
X1893700Y893700D1*
X693700Y1393700D2*
D18*
Y1506200D1*
X843700Y1656200D1*
Y1956200D1*
X893700Y2006200D1*
Y2593700D1*
D20*
X1774951Y2231200D3*
X1768700Y2393700D3*
X1243700Y1578739D3*
Y2343700D3*
X1093700D3*
X1393700Y1893700D3*
X1039369D3*
Y1618109D3*
X2631200Y1581200D3*
X1793700D3*
X1943700Y1943700D3*
X1493700D3*
X2943700Y793700D3*
X1512449Y812451D3*
X2593700Y2181200D3*
X3387449Y2049949D3*
X1293700Y2443700D3*
X3331200Y2112449D3*
X1593700Y2268700D3*
X1693700Y2306200D3*
X1956200D3*
Y2143798D3*
X2362451Y1843700D3*
X2456200Y2868700D3*
X2193700Y1987451D3*
X1104927Y1993058D3*
Y2124949D3*
X1356200Y2086756D3*
X842037Y2862812D3*
X1549949Y2303292D3*
X1045821Y2390037D3*
X1292695D3*
X1681200Y2106397D3*
Y1793700D3*
X2043700Y2031200D3*
X1193700D3*
X1293700Y1618700D3*
X1443700Y2216678D3*
X1568700Y868700D3*
X2993700Y843700D3*
D60*
X2775409Y1875254D3*
Y1849254D3*
Y1823254D3*
X2736409Y1875254D3*
Y1849254D3*
Y1823254D3*
X2697409Y1875254D3*
Y1849254D3*
Y1823254D3*
X3126700Y1627700D3*
X3087700D3*
D20*
X2476409Y1953254D3*
X3218700Y2068700D3*
Y1656200D3*
X1593700Y1093700D3*
Y1043700D3*
Y993700D3*
X893700Y1093700D3*
Y1043700D3*
Y993700D3*
X2343700Y1093700D3*
Y1043700D3*
Y993700D3*
X3043700Y1093700D3*
Y1043700D3*
Y993700D3*
X3793700Y1143700D3*
Y1093700D3*
Y1043700D3*
X3218700Y2118700D3*
X593700Y2431200D3*
Y1856200D3*
X2924949Y2818700D3*
X1643700Y2418700D3*
X1718700Y2143700D3*
X1543700Y843700D3*
X2968700Y818700D3*
X428403Y3231331D2*
D17*
X3141199D1*
X428403Y3206462D2*
X3141199D1*
X428403Y3181594D2*
X3141199D1*
X428403Y3156725D2*
X3141199D1*
X428403Y3131856D2*
X3141199D1*
X428403Y3106987D2*
X3141199D1*
X428403Y3082119D2*
X735165D1*
X936954D2*
X950434D1*
X1036963D2*
X1050443D1*
X1136972D2*
X1150417D1*
X1236981D2*
X1435193D1*
X1552224D2*
X1650427D1*
X1736956D2*
X1850445D1*
X1936974D2*
X2050428D1*
X2136957D2*
X2535187D1*
X2736976D2*
X2750421D1*
X2836985D2*
X3141199D1*
X428403Y3057250D2*
X735165D1*
X1250546D2*
X1435193D1*
X1552224D2*
X1636827D1*
X1750556D2*
X1836845D1*
X1950538D2*
X2036828D1*
X2150557D2*
X2535187D1*
X2850550D2*
X3141199D1*
X428403Y3032381D2*
X735165D1*
X1251048D2*
X1435193D1*
X1552224D2*
X1636324D1*
X1751058D2*
X1836343D1*
X1951077D2*
X2036325D1*
X2151059D2*
X2535187D1*
X2851052D2*
X3141199D1*
X428403Y3007512D2*
X735165D1*
X1238955D2*
X1435193D1*
X1552224D2*
X1648453D1*
X1738965D2*
X1848436D1*
X1938948D2*
X2048454D1*
X2138966D2*
X2535187D1*
X2838959D2*
X3141199D1*
X428403Y2982644D2*
X858714D1*
X1141816D2*
X1464439D1*
X1560585D2*
X1660403D1*
X1752458D2*
X1858699D1*
X1928685D2*
X2058717D1*
X2128703D2*
X2558691D1*
X2628678D2*
X3141199D1*
X428403Y2957775D2*
X860903D1*
X1166684D2*
X1488553D1*
X1585453D2*
X1680426D1*
X1778761D2*
X1858699D1*
X1930156D2*
X2058717D1*
X2128703D2*
X2558691D1*
X2628678D2*
X3141199D1*
X428403Y2932906D2*
X881823D1*
X1176337D2*
X1513421D1*
X1610320D2*
X1705294D1*
X1803629D2*
X1861354D1*
X1955024D2*
X2058717D1*
X2128703D2*
X2558691D1*
X2628678D2*
X3141199D1*
X428403Y2908037D2*
X828751D1*
X855317D2*
X906691D1*
X1176337D2*
X1538289D1*
X1635188D2*
X1731597D1*
X1828496D2*
X1882992D1*
X1979892D2*
X2058717D1*
X2128703D2*
X2428934D1*
X2483490D2*
X2558691D1*
X2628678D2*
X3141199D1*
X428403Y2883169D2*
X797747D1*
X886321D2*
X931559D1*
X1176337D2*
X1563157D1*
X1660056D2*
X1756465D1*
X1853364D2*
X1907860D1*
X2004759D2*
X2058717D1*
X2128703D2*
X2409521D1*
X2502868D2*
X2558691D1*
X2628678D2*
X3141199D1*
X428403Y2858300D2*
X793261D1*
X890807D2*
X956427D1*
X1176337D2*
X1588024D1*
X1684924D2*
X1781332D1*
X1878232D2*
X1932728D1*
X2026182D2*
X2058717D1*
X2128703D2*
X2408373D1*
X2504016D2*
X2558691D1*
X2628678D2*
X3141199D1*
X428403Y2833431D2*
X803488D1*
X880580D2*
X981294D1*
X1176337D2*
X1612892D1*
X1709791D2*
X1806200D1*
X1903100D2*
X1957595D1*
X2028694D2*
X2058717D1*
X2128703D2*
X2421219D1*
X2491205D2*
X2558691D1*
X2628678D2*
X3141199D1*
X428403Y2808562D2*
X807041D1*
X877027D2*
X1003220D1*
X1176337D2*
X1637760D1*
X1734659D2*
X1831068D1*
X1925419D2*
X1958708D1*
X2028694D2*
X2058717D1*
X2128703D2*
X2421219D1*
X2491205D2*
X2558691D1*
X2628678D2*
X3141199D1*
X428403Y2783693D2*
X807041D1*
X877027D2*
X1010827D1*
X1176337D2*
X1662627D1*
X1759527D2*
X1855936D1*
X1928685D2*
X1958708D1*
X2028694D2*
X2058717D1*
X2128703D2*
X2421219D1*
X2491205D2*
X2558691D1*
X2628678D2*
X3130685D1*
X428403Y2758825D2*
X807041D1*
X877027D2*
X1010827D1*
X1176337D2*
X1687495D1*
X1784395D2*
X1858699D1*
X1928685D2*
X1958708D1*
X2028694D2*
X2058717D1*
X2128703D2*
X2421219D1*
X2491205D2*
X2558691D1*
X2628678D2*
X3129142D1*
X635168Y2733956D2*
X652236D1*
X735141D2*
X752246D1*
X935159D2*
X1010827D1*
X1235151D2*
X1252256D1*
X1335160D2*
X1352229D1*
X1435170D2*
X1452238D1*
X1535143D2*
X1552248D1*
X1635152D2*
X1652257D1*
X1835171D2*
X1852240D1*
X1935144D2*
X1952249D1*
X2035153D2*
X2052258D1*
X2135163D2*
X2152231D1*
X2235172D2*
X2252241D1*
X2335145D2*
X2421219D1*
X2491205D2*
X2558691D1*
X2628678D2*
X3129142D1*
X950051Y2709087D2*
X1010827D1*
X2350073D2*
X2421219D1*
X2491205D2*
X2558691D1*
X2628678D2*
X3129142D1*
X951415Y2684218D2*
X1010827D1*
X2351401D2*
X2421219D1*
X2491205D2*
X2558691D1*
X2628678D2*
X3129142D1*
X940434Y2659350D2*
X1010827D1*
X2340456D2*
X2421219D1*
X2491205D2*
X2558691D1*
X2628678D2*
X3129142D1*
X428403Y2634481D2*
X452110D1*
X935303D2*
X1010827D1*
X2335289D2*
X2421219D1*
X2491205D2*
X2558691D1*
X2628678D2*
X3129142D1*
X950410Y2609612D2*
X1010827D1*
X2350396D2*
X2421219D1*
X2491205D2*
X2558691D1*
X2628678D2*
X3129142D1*
X951989Y2584743D2*
X1010827D1*
X2351975D2*
X2421219D1*
X2491205D2*
X2558691D1*
X2628678D2*
X3129142D1*
X428403Y2559875D2*
X445938D1*
X941439D2*
X1010827D1*
X2341461D2*
X2421219D1*
X2491205D2*
X2558691D1*
X2628678D2*
X3129142D1*
X428403Y2535006D2*
X807041D1*
X930207D2*
X1010827D1*
X1630703D2*
X1658716D1*
X1728702D2*
X2265087D1*
X2339056D2*
X2421219D1*
X2491205D2*
X2558691D1*
X2628678D2*
X3129142D1*
X428403Y2510137D2*
X789027D1*
X930207D2*
X1010827D1*
X1630703D2*
X1658716D1*
X1728702D2*
X2265087D1*
X2339056D2*
X2421219D1*
X2491205D2*
X2558691D1*
X2628678D2*
X3129394D1*
X428403Y2485268D2*
X764805D1*
X930207D2*
X1010827D1*
X1630703D2*
X1658716D1*
X1728702D2*
X2265087D1*
X2339056D2*
X2421219D1*
X2491205D2*
X2558691D1*
X2628678D2*
X3136319D1*
X428403Y2460399D2*
X758705D1*
X930207D2*
X1010827D1*
X1630703D2*
X1658716D1*
X1728702D2*
X2265087D1*
X2339056D2*
X2421219D1*
X2491205D2*
X2558691D1*
X2628678D2*
X3141199D1*
X428403Y2435531D2*
X758705D1*
X930207D2*
X1010827D1*
X1630703D2*
X1658716D1*
X1728702D2*
X1745915D1*
X1791500D2*
X2265087D1*
X2339056D2*
X2421219D1*
X2491205D2*
X2558691D1*
X2628678D2*
X3141199D1*
X428403Y2410662D2*
X758705D1*
X930207D2*
X1001641D1*
X1630703D2*
X1658716D1*
X1814501D2*
X2265087D1*
X2339056D2*
X2421219D1*
X2491205D2*
X2558691D1*
X2628678D2*
X3141199D1*
X428403Y2385793D2*
X758705D1*
X930207D2*
X997012D1*
X1630703D2*
X1658716D1*
X1817013D2*
X2265087D1*
X2339056D2*
X2421219D1*
X2491205D2*
X2558691D1*
X2628678D2*
X3141199D1*
X428403Y2360924D2*
X474933D1*
X550194D2*
X758705D1*
X930207D2*
X1007059D1*
X1630703D2*
X1658716D1*
X1804167D2*
X2265087D1*
X2339056D2*
X2421219D1*
X2491205D2*
X2558691D1*
X2628678D2*
X3141199D1*
X428403Y2336056D2*
X459861D1*
X565301D2*
X758705D1*
X930207D2*
X1045348D1*
X1630703D2*
X1655558D1*
X1803700D2*
X1918051D1*
X1994353D2*
X2265087D1*
X2339056D2*
X2418851D1*
X2491205D2*
X2558691D1*
X2628678D2*
X3141199D1*
X428403Y2311187D2*
X459323D1*
X565804D2*
X758705D1*
X930207D2*
X1057979D1*
X1630703D2*
X1644972D1*
X1803700D2*
X1907465D1*
X2004939D2*
X2265087D1*
X2339056D2*
X2393983D1*
X2488119D2*
X2558691D1*
X2628678D2*
X3141199D1*
X428403Y2286318D2*
X472816D1*
X552347D2*
X758705D1*
X930207D2*
X1106351D1*
X1803700D2*
X1911664D1*
X2000740D2*
X2265087D1*
X2339056D2*
X2369115D1*
X2466015D2*
X2558691D1*
X2628678D2*
X3141199D1*
X428403Y2261449D2*
X758705D1*
X930207D2*
X1106351D1*
X1642114D2*
X1678596D1*
X1708823D2*
X1733714D1*
X1812743D2*
X1921209D1*
X1991195D2*
X2265087D1*
X2441147D2*
X2558691D1*
X2628678D2*
X3141235D1*
X428403Y2236581D2*
X758705D1*
X930207D2*
X1106351D1*
X1629806D2*
X1726286D1*
X1823616D2*
X1921209D1*
X1991195D2*
X2265087D1*
X2416279D2*
X2558691D1*
X2628678D2*
X3222549D1*
X3527218D2*
X3578699D1*
X428403Y2211712D2*
X758705D1*
X930207D2*
X1106351D1*
X1584950D2*
X1730233D1*
X1819669D2*
X1921209D1*
X1991195D2*
X2265087D1*
X2403684D2*
X2556108D1*
X2631261D2*
X3197681D1*
X3527218D2*
X3578699D1*
X428403Y2186843D2*
X758705D1*
X930207D2*
X1106351D1*
X1584950D2*
X1758510D1*
X1791392D2*
X1921209D1*
X1991195D2*
X2265087D1*
X2403684D2*
X2545055D1*
X2642350D2*
X3178950D1*
X3527218D2*
X3578699D1*
X428403Y2161974D2*
X758705D1*
X930207D2*
X1074306D1*
X1584950D2*
X1910910D1*
X2001494D2*
X2265087D1*
X2403684D2*
X2548859D1*
X2638546D2*
X3177120D1*
X3263505D2*
X3578699D1*
X428403Y2137106D2*
X758705D1*
X930207D2*
X1057548D1*
X1584950D2*
X1643788D1*
X1718619D2*
X1907681D1*
X2004724D2*
X2265087D1*
X2403684D2*
X2576454D1*
X2610951D2*
X3173495D1*
X3263900D2*
X3289294D1*
X3373131D2*
X3578699D1*
X428403Y2112237D2*
X758705D1*
X930207D2*
X1057692D1*
X1584950D2*
X1632592D1*
X1729815D2*
X1919558D1*
X1992846D2*
X2265087D1*
X2403684D2*
X3170158D1*
X3267237D2*
X3282224D1*
X3380200D2*
X3578699D1*
X428403Y2087368D2*
X758705D1*
X930207D2*
X1069928D1*
X1584950D2*
X1636288D1*
X1726119D2*
X2265087D1*
X2403684D2*
X2562065D1*
X3263792D2*
X3289545D1*
X3417556D2*
X4272484D1*
X428403Y2062499D2*
X758705D1*
X930207D2*
X1069928D1*
X1584950D2*
X1646193D1*
X1716179D2*
X2006829D1*
X2080583D2*
X2265087D1*
X2403684D2*
X2537197D1*
X3267273D2*
X3294210D1*
X3434708D2*
X4272520D1*
X428403Y2037630D2*
X467612D1*
X557550D2*
X758705D1*
X930207D2*
X1069928D1*
X1584950D2*
X1646193D1*
X1716179D2*
X1995166D1*
X2092245D2*
X2265087D1*
X2403684D2*
X2512329D1*
X2609229D2*
X3181605D1*
X3255790D2*
X3294210D1*
X3434780D2*
X4272592D1*
X428403Y2012762D2*
X458318D1*
X566808D2*
X758705D1*
X930207D2*
X1060311D1*
X1584950D2*
X1646193D1*
X1716179D2*
X1998503D1*
X2088872D2*
X2152195D1*
X2235208D2*
X2265087D1*
X2403684D2*
X2487461D1*
X2584361D2*
X3294210D1*
X3425917D2*
X4272664D1*
X428403Y1987893D2*
X461978D1*
X563184D2*
X758705D1*
X924825D2*
X1056221D1*
X1584950D2*
X1646193D1*
X1716179D2*
X1926771D1*
X1960622D2*
X2007223D1*
X2080188D2*
X2144696D1*
X2242707D2*
X2265087D1*
X2403684D2*
X2442893D1*
X2559493D2*
X3294210D1*
X3450784D2*
X4272700D1*
X428403Y1963024D2*
X483330D1*
X541833D2*
X758705D1*
X901105D2*
X1066950D1*
X1584950D2*
X1646193D1*
X1716179D2*
X1898925D1*
X1988468D2*
X2007223D1*
X2080188D2*
X2151657D1*
X2235746D2*
X2265087D1*
X2403684D2*
X2428468D1*
X2534625D2*
X3294210D1*
X3475652D2*
X4272771D1*
X428403Y1938155D2*
X758705D1*
X880185D2*
X1023243D1*
X1055479D2*
X1106351D1*
X1584950D2*
X1646193D1*
X1716179D2*
X1895049D1*
X1992343D2*
X2007223D1*
X2080188D2*
X2158690D1*
X2228713D2*
X2265087D1*
X2403684D2*
X2429939D1*
X2522891D2*
X3296291D1*
X3500520D2*
X4272843D1*
X428403Y1913287D2*
X758705D1*
X880185D2*
X994715D1*
X1084043D2*
X1106351D1*
X1584950D2*
X1646193D1*
X1716179D2*
X1906030D1*
X1981363D2*
X2007223D1*
X2080188D2*
X2158690D1*
X2228713D2*
X2265087D1*
X2403684D2*
X2450142D1*
X2502652D2*
X3316566D1*
X3511931D2*
X4272879D1*
X428403Y1888418D2*
X758705D1*
X880185D2*
X990696D1*
X1088062D2*
X1106351D1*
X1584950D2*
X1646193D1*
X1716179D2*
X1907214D1*
X1980179D2*
X2007223D1*
X2080188D2*
X2158690D1*
X2228713D2*
X2265087D1*
X2403684D2*
X3341469D1*
X3511931D2*
X4272951D1*
X428403Y1863549D2*
X758705D1*
X880185D2*
X1001497D1*
X1077261D2*
X1106351D1*
X1584950D2*
X1646193D1*
X1716179D2*
X1907214D1*
X1980179D2*
X2007223D1*
X2080188D2*
X2158690D1*
X2228713D2*
X2265087D1*
X2406985D2*
X3366337D1*
X3511931D2*
X4272987D1*
X428403Y1838680D2*
X758705D1*
X880185D2*
X1002861D1*
X1075861D2*
X1106351D1*
X1590943D2*
X1646193D1*
X1716179D2*
X1907214D1*
X1980179D2*
X2007223D1*
X2080188D2*
X2158690D1*
X2228713D2*
X2265087D1*
X2411184D2*
X3381695D1*
X3511931D2*
X4273058D1*
X428403Y1813812D2*
X758705D1*
X880185D2*
X1002861D1*
X1075861D2*
X1106351D1*
X1615811D2*
X1636791D1*
X1725616D2*
X1907214D1*
X1980179D2*
X2007223D1*
X2080188D2*
X2158690D1*
X2228713D2*
X2265087D1*
X2400562D2*
X3381695D1*
X3511931D2*
X4273130D1*
X428403Y1788943D2*
X758705D1*
X880185D2*
X1002861D1*
X1075861D2*
X1106351D1*
X1729958D2*
X1907214D1*
X1980179D2*
X2007223D1*
X2080188D2*
X2158690D1*
X2228713D2*
X2265087D1*
X2350109D2*
X3381695D1*
X3511931D2*
X4086604D1*
X4200800D2*
X4273166D1*
X428403Y1764074D2*
X758705D1*
X880185D2*
X1002861D1*
X1075861D2*
X1106351D1*
X1630057D2*
X1642855D1*
X1719516D2*
X1907214D1*
X1980179D2*
X2007223D1*
X2080188D2*
X2158690D1*
X2228713D2*
X2272695D1*
X2374977D2*
X3381695D1*
X3511931D2*
X4065720D1*
X4221684D2*
X4273238D1*
X428403Y1739205D2*
X457708D1*
X529668D2*
X557717D1*
X629677D2*
X657727D1*
X729687D2*
X757736D1*
X929669D2*
X957719D1*
X1629662D2*
X1757721D1*
X1829680D2*
X1857730D1*
X2129672D2*
X2157722D1*
X2229681D2*
X2297275D1*
X2385168D2*
X3381695D1*
X3511931D2*
X4056462D1*
X4230943D2*
X4273274D1*
X1648788Y1714336D2*
X1738594D1*
X2248772D2*
X2311162D1*
X2385168D2*
X3381695D1*
X3511931D2*
X4055026D1*
X4232378D2*
X4273346D1*
X1652520Y1689468D2*
X1734862D1*
X2252540D2*
X2311162D1*
X2385168D2*
X3183722D1*
X3253673D2*
X3381695D1*
X3511931D2*
X4060983D1*
X4226385D2*
X4273417D1*
X428403Y1664599D2*
X442780D1*
X1644626D2*
X1742793D1*
X2244609D2*
X2311162D1*
X2385168D2*
X3170481D1*
X3266914D2*
X3381695D1*
X3511931D2*
X4076377D1*
X4211027D2*
X4273453D1*
X428403Y1639730D2*
X474502D1*
X512874D2*
X574511D1*
X612884D2*
X674521D1*
X712893D2*
X774494D1*
X912875D2*
X974512D1*
X1112894D2*
X1174495D1*
X1337672D2*
X1374513D1*
X1412886D2*
X1474523D1*
X1512895D2*
X1574496D1*
X1612904D2*
X1758725D1*
X1828676D2*
X1874524D1*
X2112878D2*
X2174515D1*
X2212888D2*
X2311162D1*
X2385168D2*
X3172706D1*
X3264689D2*
X3381695D1*
X3511931D2*
X4114056D1*
X4173348D2*
X4273525D1*
X428403Y1614861D2*
X751779D1*
X852949D2*
X990481D1*
X1088241D2*
X1207221D1*
X1342517D2*
X1758725D1*
X1828676D2*
X1907214D1*
X2080188D2*
X2311162D1*
X2385168D2*
X2596621D1*
X2665782D2*
X3194918D1*
X3242477D2*
X3381695D1*
X3511931D2*
X4273597D1*
X428403Y1589993D2*
X726911D1*
X828081D2*
X999847D1*
X1078912D2*
X1196097D1*
X1332756D2*
X1745556D1*
X1841845D2*
X1907394D1*
X2080188D2*
X2311162D1*
X2385168D2*
X2583057D1*
X2679346D2*
X3381695D1*
X3511931D2*
X4273633D1*
X428403Y1565124D2*
X702044D1*
X803213D2*
X1196743D1*
X1328701D2*
X1747565D1*
X1839836D2*
X1921711D1*
X2080188D2*
X2311162D1*
X2385168D2*
X2585066D1*
X2695709D2*
X3381695D1*
X3511931D2*
X4273704D1*
X428403Y1540255D2*
X677176D1*
X778310D2*
X1215116D1*
X1328701D2*
X1769168D1*
X1818233D2*
X1946579D1*
X2080188D2*
X2311162D1*
X2385168D2*
X2606669D1*
X2720613D2*
X3381695D1*
X3511931D2*
X4273740D1*
X428403Y1515386D2*
X658480D1*
X753442D2*
X1258715D1*
X1328701D2*
X1957201D1*
X2080188D2*
X2311162D1*
X2385168D2*
X2648545D1*
X2745481D2*
X3381695D1*
X3511931D2*
X4273812D1*
X428403Y1490518D2*
X657224D1*
X730189D2*
X1258715D1*
X1328701D2*
X1957201D1*
X2080188D2*
X2311162D1*
X2385168D2*
X2673449D1*
X2770277D2*
X3381695D1*
X3511931D2*
X3535208D1*
X3652202D2*
X4060481D1*
X4126914D2*
X4273884D1*
X428403Y1465649D2*
X657224D1*
X730189D2*
X1258715D1*
X1328701D2*
X1957201D1*
X2080188D2*
X2311162D1*
X2385168D2*
X2698317D1*
X2778710D2*
X3381695D1*
X3511931D2*
X3535208D1*
X3652202D2*
X4039704D1*
X4147727D2*
X4273920D1*
X428403Y1440780D2*
X635191D1*
X752186D2*
X1160895D1*
X1226503D2*
X1258715D1*
X1452179D2*
X1860888D1*
X1926496D2*
X1957201D1*
X2202194D2*
X2311162D1*
X2385168D2*
X2610903D1*
X2676511D2*
X2708723D1*
X2902187D2*
X3310896D1*
X3511931D2*
X3535208D1*
X3652202D2*
X4035290D1*
X4152105D2*
X4273991D1*
X428403Y1415911D2*
X635191D1*
X752186D2*
X1139795D1*
X1452179D2*
X1839788D1*
X2202194D2*
X2311162D1*
X2385168D2*
X2589803D1*
X2902187D2*
X3289796D1*
X3511931D2*
X3535208D1*
X3652202D2*
X4042574D1*
X4144821D2*
X4274063D1*
X428403Y1391043D2*
X635191D1*
X752186D2*
X1135273D1*
X1452179D2*
X1835266D1*
X2202194D2*
X2289775D1*
X2384414D2*
X2585282D1*
X2902187D2*
X3285274D1*
X3511931D2*
X3535208D1*
X3652202D2*
X4072179D1*
X4115252D2*
X4274099D1*
X428403Y1366174D2*
X635191D1*
X752186D2*
X1142450D1*
X1244948D2*
X1258715D1*
X1452179D2*
X1842443D1*
X2202194D2*
X2264908D1*
X2367441D2*
X2592459D1*
X2694956D2*
X2708723D1*
X2902187D2*
X3292451D1*
X3511931D2*
X3539909D1*
X3647502D2*
X4274171D1*
X428403Y1341305D2*
X635191D1*
X752186D2*
X1171445D1*
X1215953D2*
X1258715D1*
X1452179D2*
X1871438D1*
X1915946D2*
X1957201D1*
X2202194D2*
X2240040D1*
X2342573D2*
X2621453D1*
X2665961D2*
X2708723D1*
X2902187D2*
X3321446D1*
X3365954D2*
X3381695D1*
X3511931D2*
X3535244D1*
X3652131D2*
X4274207D1*
X428403Y1316436D2*
X640036D1*
X747378D2*
X1258715D1*
X1447370D2*
X1957201D1*
X2317705D2*
X2708723D1*
X2897379D2*
X3381695D1*
X3511931D2*
X3542277D1*
X3645097D2*
X4274279D1*
X428403Y1291567D2*
X635263D1*
X752150D2*
X1258715D1*
X1452143D2*
X1957201D1*
X2292838D2*
X2708723D1*
X2902151D2*
X3381695D1*
X3511931D2*
X3562157D1*
X3625253D2*
X4062167D1*
X4125264D2*
X4274350D1*
X428403Y1266699D2*
X642153D1*
X745260D2*
X1258715D1*
X1328701D2*
X1342146D1*
X1445253D2*
X1957201D1*
X2267647D2*
X2708723D1*
X2778710D2*
X2792154D1*
X2895261D2*
X3381695D1*
X3511931D2*
X3540160D1*
X3647250D2*
X4040134D1*
X4147261D2*
X4274386D1*
X428403Y1241830D2*
X662571D1*
X724806D2*
X1162581D1*
X1224817D2*
X1258715D1*
X1328701D2*
X1362600D1*
X1424799D2*
X1862574D1*
X1924809D2*
X1957201D1*
X2080188D2*
X2112579D1*
X2174815D2*
X2612590D1*
X2674825D2*
X2708723D1*
X2778710D2*
X2812572D1*
X2874807D2*
X3312582D1*
X3511931D2*
X3535244D1*
X3652167D2*
X4023592D1*
X4152177D2*
X4274458D1*
X428403Y1216961D2*
X640251D1*
X747126D2*
X1140261D1*
X1447119D2*
X1840254D1*
X2197135D2*
X2590270D1*
X2897127D2*
X3290262D1*
X3511931D2*
X3541990D1*
X3645384D2*
X3998724D1*
X4145395D2*
X4274494D1*
X428403Y1192092D2*
X635227D1*
X752186D2*
X1123826D1*
X1452179D2*
X1823855D1*
X2202158D2*
X2573835D1*
X2902151D2*
X3273827D1*
X3511931D2*
X3563018D1*
X3624356D2*
X3973856D1*
X4124367D2*
X4274566D1*
X428403Y1167224D2*
X641866D1*
X745547D2*
X1098959D1*
X1245522D2*
X1258715D1*
X1328701D2*
X1341841D1*
X1445540D2*
X1798987D1*
X2195520D2*
X2548967D1*
X2695530D2*
X2708723D1*
X2778710D2*
X2791867D1*
X2895548D2*
X3248960D1*
X3511931D2*
X3540375D1*
X3646999D2*
X3948988D1*
X4147009D2*
X4274637D1*
X428403Y1142355D2*
X663504D1*
X723909D2*
X1074091D1*
X1223920D2*
X1258715D1*
X1328701D2*
X1363497D1*
X1423902D2*
X1774120D1*
X1923912D2*
X1957201D1*
X2080188D2*
X2113476D1*
X2173917D2*
X2524099D1*
X2673892D2*
X2708723D1*
X2778710D2*
X2813505D1*
X2873910D2*
X3224092D1*
X3511931D2*
X3535208D1*
X3652167D2*
X3924121D1*
X4152177D2*
X4274673D1*
X428403Y1117486D2*
X640502D1*
X746875D2*
X1049223D1*
X1446904D2*
X1749252D1*
X2196883D2*
X2499231D1*
X2896876D2*
X3199224D1*
X3511931D2*
X3541739D1*
X3645671D2*
X3899253D1*
X4145682D2*
X4274745D1*
X428403Y1092617D2*
X635227D1*
X752186D2*
X1024355D1*
X1452179D2*
X1724384D1*
X2202194D2*
X2474364D1*
X2902187D2*
X3174356D1*
X3511931D2*
X3563951D1*
X3623459D2*
X3874385D1*
X4123434D2*
X4274817D1*
X428403Y1067749D2*
X641579D1*
X745799D2*
X999488D1*
X1245809D2*
X1258715D1*
X1328701D2*
X1341555D1*
X1445827D2*
X1699516D1*
X2195807D2*
X2449496D1*
X2695817D2*
X2708723D1*
X2778710D2*
X2791580D1*
X2895800D2*
X3149489D1*
X3511931D2*
X3540626D1*
X3646748D2*
X3849482D1*
X4146758D2*
X4274853D1*
X428403Y1042880D2*
X664437D1*
X722976D2*
X974620D1*
X1222951D2*
X1258715D1*
X1328701D2*
X1364430D1*
X1422969D2*
X1674613D1*
X1922979D2*
X1957201D1*
X2080188D2*
X2114445D1*
X2172984D2*
X2424628D1*
X2672959D2*
X2708723D1*
X2778710D2*
X2814438D1*
X2872977D2*
X3124621D1*
X3511931D2*
X3535208D1*
X3652202D2*
X3824614D1*
X4152177D2*
X4274924D1*
X428403Y1018011D2*
X640753D1*
X746624D2*
X949752D1*
X1446653D2*
X1649745D1*
X2196632D2*
X2399760D1*
X2896625D2*
X3099753D1*
X3511931D2*
X3541452D1*
X3645959D2*
X3799746D1*
X4145969D2*
X4274960D1*
X428403Y993142D2*
X635227D1*
X752186D2*
X924884D1*
X1452179D2*
X1624877D1*
X2202194D2*
X2374893D1*
X2902187D2*
X3074886D1*
X3511931D2*
X3564920D1*
X3622490D2*
X3774878D1*
X4122465D2*
X4275032D1*
X428403Y968273D2*
X641328D1*
X746086D2*
X900017D1*
X1246096D2*
X1258737D1*
X1328701D2*
X1341340D1*
X1446079D2*
X1600010D1*
X2196094D2*
X2350025D1*
X2696068D2*
X2708723D1*
X2778710D2*
X2791329D1*
X2896087D2*
X3050018D1*
X3511931D2*
X3540878D1*
X3646497D2*
X3750011D1*
X4146507D2*
X4275104D1*
X428403Y943405D2*
X665406D1*
X721972D2*
X875149D1*
X1221982D2*
X1258715D1*
X1328701D2*
X1365435D1*
X1421964D2*
X1575142D1*
X1921975D2*
X1957201D1*
X2080188D2*
X2115414D1*
X2171980D2*
X2325157D1*
X2671990D2*
X2708723D1*
X2778710D2*
X2815407D1*
X2871973D2*
X3025150D1*
X3511931D2*
X3535208D1*
X3652202D2*
X3725143D1*
X4152177D2*
X4275140D1*
X428403Y918536D2*
X641005D1*
X746373D2*
X850281D1*
X1446366D2*
X1550274D1*
X2196381D2*
X2300289D1*
X2896374D2*
X3000282D1*
X3520149D2*
X3541165D1*
X3646210D2*
X3700275D1*
X4146220D2*
X4275212D1*
X428403Y893667D2*
X635191D1*
X752186D2*
X825414D1*
X1452179D2*
X1525406D1*
X2202194D2*
X2275422D1*
X2902187D2*
X2975415D1*
X3545016D2*
X3565925D1*
X3621450D2*
X3675407D1*
X4121460D2*
X4275247D1*
X428403Y868798D2*
X641041D1*
X746337D2*
X800546D1*
X1446366D2*
X1500539D1*
X2196345D2*
X2250554D1*
X2896338D2*
X2950547D1*
X4146256D2*
X4275319D1*
X428403Y843930D2*
X665549D1*
X721864D2*
X775678D1*
X1221838D2*
X1258715D1*
X1341907D2*
X1365542D1*
X1421857D2*
X1475743D1*
X1921867D2*
X1957201D1*
X2080188D2*
X2115558D1*
X2171836D2*
X2225686D1*
X2671846D2*
X2708723D1*
X2791915D2*
X2815550D1*
X2871865D2*
X2925679D1*
X4152177D2*
X4275391D1*
X428403Y819061D2*
X641292D1*
X1246132D2*
X1269875D1*
X1446114D2*
X1463937D1*
X2696104D2*
X2719883D1*
X4146471D2*
X4275427D1*
X428403Y794192D2*
X635227D1*
X1252196D2*
X1294743D1*
X1452179D2*
X1467202D1*
X2702204D2*
X2744751D1*
X3402197D2*
X3416934D1*
X4017683D2*
X4065038D1*
X4122357D2*
X4275499D1*
X428403Y769323D2*
X640789D1*
X1246598D2*
X1319718D1*
X1446617D2*
X1492572D1*
X2696607D2*
X2769726D1*
X3396599D2*
X3441801D1*
X4017683D2*
X4275570D1*
X428403Y744455D2*
X664545D1*
X1142678D2*
X1164555D1*
X1222843D2*
X1364538D1*
X1422861D2*
X1476209D1*
X1842706D2*
X1864548D1*
X1922836D2*
X1957739D1*
X2592686D2*
X2614563D1*
X2672851D2*
X2814546D1*
X2872834D2*
X2926217D1*
X3292679D2*
X3314556D1*
X3372844D2*
X3466669D1*
X4017683D2*
X4275606D1*
X428403Y719586D2*
X641543D1*
X1142678D2*
X1341536D1*
X1842706D2*
X1973923D1*
X2592686D2*
X2791544D1*
X3292679D2*
X3491537D1*
X4017683D2*
X4275678D1*
X428403Y694717D2*
X635227D1*
X1142678D2*
X1335220D1*
X1842706D2*
X1998791D1*
X2592686D2*
X2785228D1*
X3292679D2*
X3564059D1*
X4017683D2*
X4275714D1*
X428403Y669848D2*
X640538D1*
X1142678D2*
X1340531D1*
X1842706D2*
X2023658D1*
X2592686D2*
X2790539D1*
X3292679D2*
X3619715D1*
X4017683D2*
X4275786D1*
X428403Y644980D2*
X663612D1*
X723802D2*
X744710D1*
X1142678D2*
X1363605D1*
X1423794D2*
X1444703D1*
X1842706D2*
X2113620D1*
X2173810D2*
X2194718D1*
X2592686D2*
X2813613D1*
X2873803D2*
X2894711D1*
X3292679D2*
X3619715D1*
X4017683D2*
X4275857D1*
X428403Y620111D2*
X744710D1*
X1142678D2*
X1444703D1*
X1842706D2*
X2194718D1*
X2592686D2*
X2894711D1*
X3292679D2*
X3619715D1*
X4017683D2*
X4275893D1*
X428403Y595242D2*
X735165D1*
X1142678D2*
X1435193D1*
X1842706D2*
X2185173D1*
X2592686D2*
X2885166D1*
X3292679D2*
X3610170D1*
X4017683D2*
X4275965D1*
X428403Y570373D2*
X735165D1*
X1145477D2*
X1435193D1*
X1845470D2*
X2185173D1*
X2595449D2*
X2885166D1*
X3295478D2*
X3610170D1*
X4020446D2*
X4276001D1*
X428403Y545504D2*
X735165D1*
X1152187D2*
X1435193D1*
X1852180D2*
X2185173D1*
X2602195D2*
X2885166D1*
X3302188D2*
X3610170D1*
X4027192D2*
X4276073D1*
X428403Y520636D2*
X735165D1*
X1147235D2*
X1435193D1*
X1847264D2*
X2185173D1*
X2597243D2*
X2885166D1*
X3297236D2*
X3610170D1*
X4022240D2*
X4276145D1*
X428403Y495767D2*
X735165D1*
X925184D2*
X962204D1*
X1025193D2*
X1062213D1*
X1125202D2*
X1435193D1*
X1625176D2*
X1662197D1*
X1725186D2*
X1762206D1*
X1825195D2*
X2185173D1*
X2375192D2*
X2412212D1*
X2475201D2*
X2512221D1*
X2575210D2*
X2885166D1*
X3075185D2*
X3112205D1*
X3175194D2*
X3212214D1*
X3275203D2*
X3610170D1*
X3800189D2*
X3837209D1*
X3900198D2*
X3937218D1*
X4000207D2*
X4276180D1*
X428403Y470898D2*
X4276252D1*
X428403Y446029D2*
X4276324D1*
X1446867Y3099720D2*
X1549720D1*
Y2991026D1*
X1791095Y2749638D1*
X1798095Y2749547D1*
X1806778Y2748172D1*
X1815138Y2745455D1*
X1822970Y2741465D1*
X1830082Y2736298D1*
X1836298Y2730082D1*
X1841465Y2722970D1*
X1843786Y2719132D1*
X1848379Y2726628D1*
X1854088Y2733312D1*
X1860772Y2739021D1*
X1861208Y2739632D1*
Y2780934D1*
X1721283Y2920689D1*
X1717158Y2923686D1*
X1670725Y2969978D1*
X1667413Y2973855D1*
X1664749Y2978202D1*
X1662798Y2982913D1*
X1661608Y2987870D1*
X1661208Y2992953D1*
Y2998085D1*
X1657318Y3001102D1*
X1651102Y3007318D1*
X1645935Y3014430D1*
X1641945Y3022262D1*
X1639228Y3030622D1*
X1637853Y3039305D1*
Y3048095D1*
X1639228Y3056778D1*
X1641945Y3065138D1*
X1645935Y3072970D1*
X1651102Y3080082D1*
X1657318Y3086298D1*
X1664430Y3091465D1*
X1672262Y3095455D1*
X1680622Y3098172D1*
X1689305Y3099547D1*
X1698095D1*
X1706778Y3098172D1*
X1715138Y3095455D1*
X1722970Y3091465D1*
X1730082Y3086298D1*
X1736298Y3080082D1*
X1741465Y3072970D1*
X1745455Y3065138D1*
X1748172Y3056778D1*
X1749547Y3048095D1*
Y3039305D1*
X1748172Y3030622D1*
X1745455Y3022262D1*
X1741465Y3014430D1*
X1736298Y3007318D1*
X1730826Y3001790D1*
X1756657Y2976097D1*
X1760782Y2973100D1*
X1808126Y2925898D1*
X1918407Y2815475D1*
X1921404Y2811350D1*
X1923719Y2806807D1*
X1925295Y2801958D1*
X1926092Y2796923D1*
X1926192Y2739363D1*
X1933312Y2733312D1*
X1939021Y2726628D1*
X1943693Y2718961D1*
X1948379Y2726628D1*
X1954088Y2733312D1*
X1960772Y2739021D1*
X1961208Y2739632D1*
Y2832321D1*
X1868993Y2924681D1*
X1865996Y2928806D1*
X1863681Y2933348D1*
X1862106Y2938198D1*
X1861308Y2943233D1*
X1861208Y2998066D1*
X1854088Y3004088D1*
X1848379Y3010772D1*
X1843786Y3018268D1*
X1840422Y3026389D1*
X1838370Y3034937D1*
X1837680Y3043700D1*
X1838370Y3052463D1*
X1840422Y3061011D1*
X1843786Y3069132D1*
X1848379Y3076628D1*
X1854088Y3083312D1*
X1860772Y3089021D1*
X1868268Y3093614D1*
X1876389Y3096978D1*
X1884937Y3099030D1*
X1893700Y3099720D1*
X1902463Y3099030D1*
X1911011Y3096978D1*
X1919132Y3093614D1*
X1926628Y3089021D1*
X1933312Y3083312D1*
X1939021Y3076628D1*
X1943614Y3069132D1*
X1946978Y3061011D1*
X1949030Y3052463D1*
X1949720Y3043700D1*
X1949030Y3034937D1*
X1946978Y3026389D1*
X1943614Y3018268D1*
X1939021Y3010772D1*
X1933312Y3004088D1*
X1926628Y2998379D1*
X1926192Y2997768D1*
Y2959265D1*
X2018407Y2866885D1*
X2021404Y2862760D1*
X2023719Y2858217D1*
X2025294Y2853368D1*
X2026092Y2848332D1*
X2026192Y2781478D1*
Y2739314D1*
X2030082Y2736298D1*
X2036298Y2730082D1*
X2041465Y2722970D1*
X2043786Y2719132D1*
X2048379Y2726628D1*
X2054088Y2733312D1*
X2060772Y2739021D1*
X2061208Y2739632D1*
Y2998034D1*
X2054088Y3004088D1*
X2048379Y3010772D1*
X2043786Y3018268D1*
X2040422Y3026389D1*
X2038370Y3034937D1*
X2037680Y3043700D1*
X2038370Y3052463D1*
X2040422Y3061011D1*
X2043786Y3069132D1*
X2048379Y3076628D1*
X2054088Y3083312D1*
X2060772Y3089021D1*
X2068268Y3093614D1*
X2076389Y3096978D1*
X2084937Y3099030D1*
X2093700Y3099720D1*
X2102463Y3099030D1*
X2111011Y3096978D1*
X2119132Y3093614D1*
X2126628Y3089021D1*
X2133312Y3083312D1*
X2139021Y3076628D1*
X2143614Y3069132D1*
X2146978Y3061011D1*
X2149030Y3052463D1*
X2149720Y3043700D1*
X2149030Y3034937D1*
X2146978Y3026389D1*
X2143614Y3018268D1*
X2139021Y3010772D1*
X2133312Y3004088D1*
X2126628Y2998379D1*
X2126192Y2997768D1*
Y2739366D1*
X2133312Y2733312D1*
X2139021Y2726628D1*
X2143693Y2718961D1*
X2148379Y2726628D1*
X2154088Y2733312D1*
X2160772Y2739021D1*
X2168268Y2743614D1*
X2176389Y2746978D1*
X2184937Y2749030D1*
X2193700Y2749720D1*
X2202463Y2749030D1*
X2211011Y2746978D1*
X2219132Y2743614D1*
X2226628Y2739021D1*
X2233312Y2733312D1*
X2239021Y2726628D1*
X2243693Y2718961D1*
X2248379Y2726628D1*
X2254088Y2733312D1*
X2260772Y2739021D1*
X2268268Y2743614D1*
X2276389Y2746978D1*
X2284937Y2749030D1*
X2293700Y2749720D1*
X2302463Y2749030D1*
X2311011Y2746978D1*
X2319132Y2743614D1*
X2326628Y2739021D1*
X2333312Y2733312D1*
X2339021Y2726628D1*
X2343614Y2719132D1*
X2346978Y2711011D1*
X2349030Y2702463D1*
X2349720Y2693700D1*
X2349030Y2684937D1*
X2346978Y2676389D1*
X2343614Y2668268D1*
X2339021Y2660772D1*
X2333312Y2654088D1*
X2326628Y2648379D1*
X2319477Y2643979D1*
X2326905Y2639403D1*
X2333646Y2633646D1*
X2339403Y2626905D1*
X2344035Y2619347D1*
X2347427Y2611157D1*
X2349497Y2602537D1*
X2350192Y2593700D1*
X2349497Y2584863D1*
X2347427Y2576243D1*
X2344035Y2568053D1*
X2339403Y2560495D1*
X2336551Y2556897D1*
X2336608Y2242534D1*
X2337798Y2247492D1*
X2339749Y2252202D1*
X2342413Y2256549D1*
X2345725Y2260426D1*
X2423699Y2338400D1*
X2423708Y2835474D1*
X2418587Y2841373D1*
X2414775Y2847593D1*
X2411983Y2854333D1*
X2410280Y2861427D1*
X2409708Y2868700D1*
X2410280Y2875973D1*
X2411983Y2883067D1*
X2414775Y2889807D1*
X2418587Y2896027D1*
X2423325Y2901575D1*
X2428873Y2906313D1*
X2435093Y2910125D1*
X2441833Y2912917D1*
X2448927Y2914620D1*
X2456200Y2915192D1*
X2463473Y2914620D1*
X2470567Y2912917D1*
X2477307Y2910125D1*
X2483527Y2906313D1*
X2489075Y2901575D1*
X2493813Y2896027D1*
X2497625Y2889807D1*
X2500417Y2883067D1*
X2502120Y2875973D1*
X2502692Y2868700D1*
X2502120Y2861427D1*
X2500417Y2854333D1*
X2497625Y2847593D1*
X2493813Y2841373D1*
X2488687Y2835467D1*
X2488592Y2322400D1*
X2487794Y2317364D1*
X2486219Y2312515D1*
X2483904Y2307972D1*
X2480907Y2303847D1*
X2433705Y2256504D1*
X2401201Y2224000D1*
X2401192Y1869387D1*
X2403875Y1864807D1*
X2406667Y1858067D1*
X2408370Y1850973D1*
X2408943Y1843700D1*
X2408370Y1836427D1*
X2406667Y1829333D1*
X2403875Y1822593D1*
X2400064Y1816373D1*
X2395326Y1810825D1*
X2389778Y1806087D1*
X2383558Y1802275D1*
X2376818Y1799483D1*
X2369724Y1797780D1*
X2362451Y1797208D1*
X2355178Y1797780D1*
X2348084Y1799483D1*
X2341344Y1802275D1*
X2336558Y1805128D1*
X2336560Y1799978D1*
X2374398Y1761988D1*
X2377579Y1757609D1*
X2380036Y1752787D1*
X2381709Y1747639D1*
X2382556Y1742293D1*
X2382662Y1684469D1*
X2382556Y1395464D1*
X2381709Y1390118D1*
X2380036Y1384970D1*
X2377579Y1380148D1*
X2374398Y1375769D1*
X2333585Y1334806D1*
X2266101Y1267472D1*
X2261722Y1264291D1*
X2256900Y1261833D1*
X2251752Y1260161D1*
X2246406Y1259314D1*
X2187828Y1259208D1*
X2183292Y1254108D1*
X2176611Y1248401D1*
X2168886Y1243703D1*
X2176611Y1238999D1*
X2183292Y1233292D1*
X2188999Y1226611D1*
X2193589Y1219120D1*
X2196952Y1211003D1*
X2199003Y1202459D1*
X2199692Y1193700D1*
X2199003Y1184941D1*
X2196952Y1176397D1*
X2193589Y1168280D1*
X2188999Y1160789D1*
X2183292Y1154108D1*
X2176611Y1148401D1*
X2168886Y1143703D1*
X2176611Y1138999D1*
X2183292Y1133292D1*
X2188999Y1126611D1*
X2193589Y1119120D1*
X2196952Y1111003D1*
X2199003Y1102459D1*
X2199692Y1093700D1*
X2199003Y1084941D1*
X2196952Y1076397D1*
X2193589Y1068280D1*
X2188999Y1060789D1*
X2183292Y1054108D1*
X2176611Y1048401D1*
X2168886Y1043703D1*
X2176611Y1038999D1*
X2183292Y1033292D1*
X2188999Y1026611D1*
X2193589Y1019120D1*
X2196952Y1011003D1*
X2199003Y1002459D1*
X2199692Y993700D1*
X2199003Y984941D1*
X2196952Y976397D1*
X2193589Y968280D1*
X2188999Y960789D1*
X2183292Y954108D1*
X2176611Y948401D1*
X2168886Y943703D1*
X2176611Y938999D1*
X2183292Y933292D1*
X2188999Y926611D1*
X2193589Y919120D1*
X2196952Y911003D1*
X2199003Y902459D1*
X2199692Y893700D1*
X2199003Y884941D1*
X2196952Y876397D1*
X2193589Y868280D1*
X2188999Y860789D1*
X2183292Y854108D1*
X2176611Y848401D1*
X2168886Y843703D1*
X2176611Y838999D1*
X2183292Y833292D1*
X2188999Y826611D1*
X2193589Y819120D1*
X2196952Y811003D1*
X2198544Y804767D1*
X2200747Y811492D1*
X2204059Y817992D1*
X2208347Y823894D1*
X2230312Y846062D1*
X2588770Y1204520D1*
X2590448Y1211003D1*
X2593811Y1219120D1*
X2598401Y1226611D1*
X2604108Y1233292D1*
X2610789Y1238999D1*
X2618280Y1243589D1*
X2626397Y1246952D1*
X2634941Y1249003D1*
X2643700Y1249692D1*
X2652459Y1249003D1*
X2661003Y1246952D1*
X2669120Y1243589D1*
X2676611Y1238999D1*
X2683292Y1233292D1*
X2688999Y1226611D1*
X2693589Y1219120D1*
X2696952Y1211003D1*
X2699003Y1202459D1*
X2699692Y1193700D1*
X2699003Y1184941D1*
X2696952Y1176397D1*
X2693589Y1168280D1*
X2688999Y1160789D1*
X2683292Y1154108D1*
X2676611Y1148401D1*
X2668886Y1143703D1*
X2676611Y1138999D1*
X2683292Y1133292D1*
X2688999Y1126611D1*
X2693589Y1119120D1*
X2696952Y1111003D1*
X2699003Y1102459D1*
X2699692Y1093700D1*
X2699003Y1084941D1*
X2696952Y1076397D1*
X2693589Y1068280D1*
X2688999Y1060789D1*
X2683292Y1054108D1*
X2676611Y1048401D1*
X2668886Y1043703D1*
X2676611Y1038999D1*
X2683292Y1033292D1*
X2688999Y1026611D1*
X2693589Y1019120D1*
X2696952Y1011003D1*
X2699003Y1002459D1*
X2699692Y993700D1*
X2699003Y984941D1*
X2696952Y976397D1*
X2693589Y968280D1*
X2688999Y960789D1*
X2683292Y954108D1*
X2676611Y948401D1*
X2668886Y943703D1*
X2676611Y938999D1*
X2683292Y933292D1*
X2688999Y926611D1*
X2693589Y919120D1*
X2696952Y911003D1*
X2699003Y902459D1*
X2699692Y893700D1*
X2699003Y884941D1*
X2696952Y876397D1*
X2693589Y868280D1*
X2688999Y860789D1*
X2683292Y854108D1*
X2676611Y848401D1*
X2668886Y843703D1*
X2676611Y838999D1*
X2683292Y833292D1*
X2688999Y826611D1*
X2693589Y819120D1*
X2696952Y811003D1*
X2699003Y802459D1*
X2699692Y793700D1*
X2699003Y784941D1*
X2696952Y776397D1*
X2693589Y768280D1*
X2688999Y760789D1*
X2683292Y754108D1*
X2676611Y748401D1*
X2669120Y743811D1*
X2661003Y740448D1*
X2652459Y738397D1*
X2643700Y737708D1*
X2634941Y738397D1*
X2626397Y740448D1*
X2618280Y743811D1*
X2610789Y748401D1*
X2604108Y754108D1*
X2598401Y760789D1*
X2593811Y768280D1*
X2590906Y775157D1*
X2590192Y766141D1*
Y574986D1*
X2593614Y569132D1*
X2596978Y561011D1*
X2599030Y552463D1*
X2599720Y543700D1*
X2599030Y534937D1*
X2596978Y526389D1*
X2593614Y518268D1*
X2589021Y510772D1*
X2583312Y504088D1*
X2576628Y498379D1*
X2569132Y493786D1*
X2561011Y490422D1*
X2552463Y488370D1*
X2543700Y487680D1*
X2534937Y488370D1*
X2526389Y490422D1*
X2518268Y493786D1*
X2510772Y498379D1*
X2504088Y504088D1*
X2498379Y510772D1*
X2493707Y518439D1*
X2489021Y510772D1*
X2483312Y504088D1*
X2476628Y498379D1*
X2469132Y493786D1*
X2461011Y490422D1*
X2452463Y488370D1*
X2443700Y487680D1*
X2434937Y488370D1*
X2426389Y490422D1*
X2418268Y493786D1*
X2410772Y498379D1*
X2404088Y504088D1*
X2398379Y510772D1*
X2393707Y518439D1*
X2389021Y510772D1*
X2383312Y504088D1*
X2376628Y498379D1*
X2369132Y493786D1*
X2361011Y490422D1*
X2352463Y488370D1*
X2343700Y487680D1*
X2334937Y488370D1*
X2326389Y490422D1*
X2318268Y493786D1*
X2310772Y498379D1*
X2304088Y504088D1*
X2299730Y509059D1*
X2299720Y487680D1*
X2187680D1*
Y599720D1*
X2197190D1*
X2197208Y677225D1*
X2195430Y672273D1*
X2191441Y664444D1*
X2186277Y657336D1*
X2180064Y651123D1*
X2172956Y645959D1*
X2165127Y641970D1*
X2156771Y639255D1*
X2148093Y637880D1*
X2139307D1*
X2130629Y639255D1*
X2122273Y641970D1*
X2114444Y645959D1*
X2107336Y651123D1*
X2101123Y657336D1*
X2099263Y659696D1*
X2047726Y659813D1*
X2042458Y660647D1*
X2037385Y662295D1*
X2032632Y664717D1*
X2028317Y667852D1*
X1987382Y708638D1*
X1967852Y728317D1*
X1964717Y732632D1*
X1962295Y737385D1*
X1960647Y742458D1*
X1959813Y747726D1*
X1959708Y805511D1*
Y1529618D1*
X1917852Y1571624D1*
X1914717Y1575939D1*
X1912295Y1580692D1*
X1910647Y1585765D1*
X1909813Y1591033D1*
X1909708Y1639524D1*
X1902537Y1637903D1*
X1893700Y1637208D1*
X1884863Y1637903D1*
X1876243Y1639973D1*
X1868053Y1643365D1*
X1860495Y1647997D1*
X1853754Y1653754D1*
X1847997Y1660495D1*
X1843712Y1667433D1*
X1839403Y1660495D1*
X1833646Y1653754D1*
X1826905Y1647997D1*
X1826199Y1647525D1*
X1826192Y1614432D1*
X1831313Y1608527D1*
X1835125Y1602307D1*
X1837917Y1595567D1*
X1839620Y1588473D1*
X1840192Y1581200D1*
X1839620Y1573927D1*
X1837917Y1566833D1*
X1835125Y1560093D1*
X1831313Y1553873D1*
X1826575Y1548325D1*
X1821027Y1543587D1*
X1814807Y1539775D1*
X1808067Y1536983D1*
X1800973Y1535280D1*
X1793700Y1534708D1*
X1786427Y1535280D1*
X1779333Y1536983D1*
X1772593Y1539775D1*
X1766373Y1543587D1*
X1760825Y1548325D1*
X1756087Y1553873D1*
X1752275Y1560093D1*
X1749483Y1566833D1*
X1747780Y1573927D1*
X1747208Y1581200D1*
X1747780Y1588473D1*
X1749483Y1595567D1*
X1752275Y1602307D1*
X1756087Y1608527D1*
X1761213Y1614433D1*
X1761208Y1647478D1*
X1757011Y1650743D1*
X1750743Y1657011D1*
X1745533Y1664183D1*
X1741508Y1672081D1*
X1738769Y1680512D1*
X1737382Y1689268D1*
Y1698132D1*
X1738769Y1706888D1*
X1741508Y1715319D1*
X1745533Y1723217D1*
X1750743Y1730389D1*
X1757011Y1736657D1*
X1764183Y1741867D1*
X1772081Y1745892D1*
X1780512Y1748631D1*
X1789268Y1750018D1*
X1798132D1*
X1806888Y1748631D1*
X1815319Y1745892D1*
X1823217Y1741867D1*
X1830389Y1736657D1*
X1836657Y1730389D1*
X1841867Y1723217D1*
X1843688Y1719967D1*
X1847997Y1726905D1*
X1853754Y1733646D1*
X1860495Y1739403D1*
X1868053Y1744035D1*
X1876243Y1747427D1*
X1884863Y1749497D1*
X1893700Y1750192D1*
X1902537Y1749497D1*
X1909706Y1747836D1*
X1909708Y1911957D1*
X1906087Y1916373D1*
X1902275Y1922593D1*
X1899483Y1929333D1*
X1897780Y1936427D1*
X1897208Y1943700D1*
X1897780Y1950973D1*
X1899483Y1958067D1*
X1902275Y1964807D1*
X1906087Y1971027D1*
X1910825Y1976575D1*
X1916373Y1981313D1*
X1922593Y1985125D1*
X1929333Y1987917D1*
X1936427Y1989620D1*
X1943700Y1990192D1*
X1950973Y1989620D1*
X1958067Y1987917D1*
X1964807Y1985125D1*
X1971027Y1981313D1*
X1976575Y1976575D1*
X1981313Y1971027D1*
X1985125Y1964807D1*
X1987917Y1958067D1*
X1989620Y1950973D1*
X1990192Y1943700D1*
X1989620Y1936427D1*
X1987917Y1929333D1*
X1985125Y1922593D1*
X1981313Y1916373D1*
X1977688Y1912029D1*
X1977692Y1747880D1*
X1984863Y1749497D1*
X1993700Y1750192D1*
X2002537Y1749497D1*
X2009706Y1747836D1*
X2009708Y1999469D1*
X2006087Y2003873D1*
X2002275Y2010093D1*
X1999483Y2016833D1*
X1997780Y2023927D1*
X1997208Y2031200D1*
X1997780Y2038473D1*
X1999483Y2045567D1*
X2002275Y2052307D1*
X2006087Y2058527D1*
X2010825Y2064075D1*
X2016373Y2068813D1*
X2022593Y2072625D1*
X2029333Y2075417D1*
X2036427Y2077120D1*
X2043700Y2077692D1*
X2050973Y2077120D1*
X2058067Y2075417D1*
X2064807Y2072625D1*
X2071027Y2068813D1*
X2076575Y2064075D1*
X2081313Y2058527D1*
X2085125Y2052307D1*
X2087917Y2045567D1*
X2089620Y2038473D1*
X2090192Y2031200D1*
X2089620Y2023927D1*
X2087917Y2016833D1*
X2085125Y2010093D1*
X2081313Y2003873D1*
X2077688Y1999529D1*
X2077692Y1747894D1*
X2084863Y1749497D1*
X2093700Y1750192D1*
X2102537Y1749497D1*
X2111157Y1747427D1*
X2119347Y1744035D1*
X2126905Y1739403D1*
X2133646Y1733646D1*
X2139403Y1726905D1*
X2143688Y1719967D1*
X2147997Y1726905D1*
X2153754Y1733646D1*
X2160495Y1739403D1*
X2161201Y1739875D1*
X2161204Y1954183D1*
X2156087Y1960123D1*
X2152275Y1966344D1*
X2149483Y1973084D1*
X2147780Y1980178D1*
X2147208Y1987451D1*
X2147780Y1994724D1*
X2149483Y2001818D1*
X2152275Y2008558D1*
X2156087Y2014778D1*
X2160825Y2020326D1*
X2166373Y2025064D1*
X2172593Y2028875D1*
X2179333Y2031667D1*
X2186427Y2033370D1*
X2193700Y2033943D1*
X2200973Y2033370D1*
X2208067Y2031667D1*
X2214807Y2028875D1*
X2221027Y2025064D1*
X2226575Y2020326D1*
X2231313Y2014778D1*
X2235125Y2008558D1*
X2237917Y2001818D1*
X2239620Y1994724D1*
X2240192Y1987451D1*
X2239620Y1980178D1*
X2237917Y1973084D1*
X2235125Y1966344D1*
X2231313Y1960123D1*
X2226187Y1954218D1*
X2226196Y1739886D1*
X2230389Y1736657D1*
X2236657Y1730389D1*
X2241867Y1723217D1*
X2245892Y1715319D1*
X2248631Y1706888D1*
X2250018Y1698132D1*
Y1689268D1*
X2248631Y1680512D1*
X2245892Y1672081D1*
X2241867Y1664183D1*
X2236657Y1657011D1*
X2230389Y1650743D1*
X2223217Y1645533D1*
X2215319Y1641508D1*
X2206888Y1638769D1*
X2198132Y1637382D1*
X2189268D1*
X2180512Y1638769D1*
X2172081Y1641508D1*
X2164183Y1645533D1*
X2157011Y1650743D1*
X2150743Y1657011D1*
X2145533Y1664183D1*
X2143712Y1667433D1*
X2139403Y1660495D1*
X2133646Y1653754D1*
X2126905Y1647997D1*
X2119347Y1643365D1*
X2111157Y1639973D1*
X2102537Y1637903D1*
X2093700Y1637208D1*
X2084863Y1637903D1*
X2077694Y1639564D1*
X2077692Y832776D1*
X2082783Y827689D1*
X2099237Y827692D1*
X2104108Y833292D1*
X2110789Y838999D1*
X2118514Y843697D1*
X2110789Y848401D1*
X2104108Y854108D1*
X2098401Y860789D1*
X2093811Y868280D1*
X2090448Y876397D1*
X2088397Y884941D1*
X2087708Y893700D1*
X2088397Y902459D1*
X2090448Y911003D1*
X2093811Y919120D1*
X2098401Y926611D1*
X2104108Y933292D1*
X2110789Y938999D1*
X2118514Y943697D1*
X2110789Y948401D1*
X2104108Y954108D1*
X2098401Y960789D1*
X2093811Y968280D1*
X2090448Y976397D1*
X2088397Y984941D1*
X2087708Y993700D1*
X2088397Y1002459D1*
X2090448Y1011003D1*
X2093811Y1019120D1*
X2098401Y1026611D1*
X2104108Y1033292D1*
X2110789Y1038999D1*
X2118514Y1043697D1*
X2110789Y1048401D1*
X2104108Y1054108D1*
X2098401Y1060789D1*
X2093811Y1068280D1*
X2090448Y1076397D1*
X2088397Y1084941D1*
X2087708Y1093700D1*
X2088397Y1102459D1*
X2090448Y1111003D1*
X2093811Y1119120D1*
X2098401Y1126611D1*
X2104108Y1133292D1*
X2110789Y1138999D1*
X2118514Y1143697D1*
X2110789Y1148401D1*
X2104108Y1154108D1*
X2098401Y1160789D1*
X2093811Y1168280D1*
X2090448Y1176397D1*
X2088397Y1184941D1*
X2087708Y1193700D1*
X2088397Y1202459D1*
X2090448Y1211003D1*
X2093811Y1219120D1*
X2098401Y1226611D1*
X2104108Y1233292D1*
X2110789Y1238999D1*
X2118514Y1243697D1*
X2110789Y1248401D1*
X2104108Y1254108D1*
X2098401Y1260789D1*
X2093811Y1268280D1*
X2090448Y1276397D1*
X2088397Y1284941D1*
X2087708Y1293700D1*
X2088397Y1302459D1*
X2090448Y1311003D1*
X2093811Y1319120D1*
X2098401Y1326611D1*
X2104108Y1333292D1*
X2109157Y1337712D1*
X2087708Y1337708D1*
Y1449692D1*
X2199692D1*
Y1337708D1*
X2178341D1*
X2183292Y1333292D1*
X2187755Y1328189D1*
X2229427Y1328192D1*
X2313676Y1412455D1*
X2313678Y1725326D1*
X2275839Y1763289D1*
X2272658Y1767667D1*
X2270201Y1772490D1*
X2268528Y1777637D1*
X2267682Y1782983D1*
X2267575Y1840808D1*
Y2543599D1*
X2260495Y2547997D1*
X2253754Y2553754D1*
X2247997Y2560495D1*
X2243712Y2567433D1*
X2239403Y2560495D1*
X2233646Y2553754D1*
X2226905Y2547997D1*
X2219347Y2543365D1*
X2211157Y2539973D1*
X2202537Y2537903D1*
X2193700Y2537208D1*
X2184863Y2537903D1*
X2176243Y2539973D1*
X2168053Y2543365D1*
X2160495Y2547997D1*
X2153754Y2553754D1*
X2147997Y2560495D1*
X2143712Y2567433D1*
X2139403Y2560495D1*
X2133646Y2553754D1*
X2126905Y2547997D1*
X2119347Y2543365D1*
X2111157Y2539973D1*
X2102537Y2537903D1*
X2093700Y2537208D1*
X2084863Y2537903D1*
X2076243Y2539973D1*
X2068053Y2543365D1*
X2060495Y2547997D1*
X2053754Y2553754D1*
X2047997Y2560495D1*
X2043712Y2567433D1*
X2039403Y2560495D1*
X2033646Y2553754D1*
X2026905Y2547997D1*
X2019347Y2543365D1*
X2011157Y2539973D1*
X2002537Y2537903D1*
X1993700Y2537208D1*
X1984863Y2537903D1*
X1976243Y2539973D1*
X1968053Y2543365D1*
X1960495Y2547997D1*
X1953754Y2553754D1*
X1947997Y2560495D1*
X1943712Y2567433D1*
X1939403Y2560495D1*
X1933646Y2553754D1*
X1926905Y2547997D1*
X1919347Y2543365D1*
X1911157Y2539973D1*
X1902537Y2537903D1*
X1893700Y2537208D1*
X1884863Y2537903D1*
X1876243Y2539973D1*
X1868053Y2543365D1*
X1860495Y2547997D1*
X1853754Y2553754D1*
X1847997Y2560495D1*
X1843712Y2567433D1*
X1839403Y2560495D1*
X1833646Y2553754D1*
X1826905Y2547997D1*
X1819347Y2543365D1*
X1811157Y2539973D1*
X1802537Y2537903D1*
X1793700Y2537208D1*
X1784863Y2537903D1*
X1776243Y2539973D1*
X1768053Y2543365D1*
X1760495Y2547997D1*
X1753754Y2553754D1*
X1747997Y2560495D1*
X1743712Y2567433D1*
X1739403Y2560495D1*
X1733646Y2553754D1*
X1726905Y2547997D1*
X1726199Y2547525D1*
X1726196Y2412521D1*
X1729059Y2417992D1*
X1733347Y2423894D1*
X1738506Y2429053D1*
X1744408Y2433341D1*
X1750908Y2436653D1*
X1757847Y2438908D1*
X1765052Y2440049D1*
X1772348D1*
X1779553Y2438908D1*
X1786492Y2436653D1*
X1792992Y2433341D1*
X1798894Y2429053D1*
X1804053Y2423894D1*
X1808341Y2417992D1*
X1811653Y2411492D1*
X1813908Y2404553D1*
X1815049Y2397348D1*
Y2390052D1*
X1813908Y2382847D1*
X1811653Y2375908D1*
X1808341Y2369408D1*
X1804053Y2363506D1*
X1801187Y2360467D1*
X1801196Y2269577D1*
X1805145Y2266553D1*
X1810304Y2261394D1*
X1814592Y2255492D1*
X1817904Y2248992D1*
X1820158Y2242053D1*
X1821299Y2234848D1*
Y2227552D1*
X1820158Y2220347D1*
X1817904Y2213408D1*
X1814592Y2206908D1*
X1810304Y2201006D1*
X1805145Y2195847D1*
X1799243Y2191559D1*
X1792742Y2188247D1*
X1785804Y2185992D1*
X1778598Y2184851D1*
X1771303D1*
X1764097Y2185992D1*
X1757159Y2188247D1*
X1750659Y2191559D1*
X1744756Y2195847D1*
X1739598Y2201006D1*
X1735310Y2206908D1*
X1731998Y2213408D1*
X1729743Y2220347D1*
X1728602Y2227552D1*
Y2234848D1*
X1729743Y2242053D1*
X1731998Y2248992D1*
X1735310Y2255492D1*
X1736205Y2256832D1*
X1736204Y2287359D1*
X1733341Y2281908D1*
X1729053Y2276006D1*
X1723894Y2270847D1*
X1717992Y2266559D1*
X1711492Y2263247D1*
X1704553Y2260992D1*
X1697348Y2259851D1*
X1690052D1*
X1682847Y2260992D1*
X1675908Y2263247D1*
X1669408Y2266559D1*
X1663506Y2270847D1*
X1658347Y2276006D1*
X1654059Y2281908D1*
X1650747Y2288408D1*
X1648492Y2295347D1*
X1647351Y2302552D1*
Y2309848D1*
X1648492Y2317053D1*
X1650747Y2323992D1*
X1654059Y2330492D1*
X1658347Y2336394D1*
X1661213Y2339433D1*
X1661204Y2547521D1*
X1657011Y2550743D1*
X1650743Y2557011D1*
X1645533Y2564183D1*
X1643712Y2567433D1*
X1639403Y2560495D1*
X1633646Y2553754D1*
X1628198Y2549016D1*
X1628192Y2299844D1*
X1631313Y2296027D1*
X1635125Y2289807D1*
X1637917Y2283067D1*
X1639620Y2275973D1*
X1640192Y2268700D1*
X1639620Y2261427D1*
X1637917Y2254333D1*
X1635125Y2247593D1*
X1631313Y2241373D1*
X1626575Y2235825D1*
X1621027Y2231087D1*
X1614807Y2227275D1*
X1608067Y2224483D1*
X1600973Y2222780D1*
X1593700Y2222208D1*
X1586427Y2222780D1*
X1582449Y2223605D1*
X1582446Y1844656D1*
X1624660Y1802305D1*
X1627657Y1798179D1*
X1629972Y1793636D1*
X1631548Y1788786D1*
X1632345Y1783750D1*
Y1778650D1*
X1631548Y1773614D1*
X1629972Y1768764D1*
X1627657Y1764221D1*
X1626233Y1762091D1*
X1626196Y1739892D1*
X1630389Y1736657D1*
X1636657Y1730389D1*
X1641867Y1723217D1*
X1645892Y1715319D1*
X1648631Y1706888D1*
X1650018Y1698132D1*
Y1689268D1*
X1648631Y1680512D1*
X1645892Y1672081D1*
X1641867Y1664183D1*
X1636657Y1657011D1*
X1630389Y1650743D1*
X1623217Y1645533D1*
X1615319Y1641508D1*
X1606888Y1638769D1*
X1598132Y1637382D1*
X1589268D1*
X1580512Y1638769D1*
X1572081Y1641508D1*
X1564183Y1645533D1*
X1557011Y1650743D1*
X1550743Y1657011D1*
X1545533Y1664183D1*
X1543712Y1667433D1*
X1539403Y1660495D1*
X1533646Y1653754D1*
X1526905Y1647997D1*
X1519347Y1643365D1*
X1511157Y1639973D1*
X1502537Y1637903D1*
X1493700Y1637208D1*
X1484863Y1637903D1*
X1476243Y1639973D1*
X1468053Y1643365D1*
X1460495Y1647997D1*
X1453754Y1653754D1*
X1447997Y1660495D1*
X1443712Y1667433D1*
X1439403Y1660495D1*
X1433646Y1653754D1*
X1426905Y1647997D1*
X1419347Y1643365D1*
X1411157Y1639973D1*
X1402537Y1637903D1*
X1393700Y1637208D1*
X1384863Y1637903D1*
X1376243Y1639973D1*
X1368053Y1643365D1*
X1360495Y1647997D1*
X1353754Y1653754D1*
X1347997Y1660495D1*
X1343712Y1667433D1*
X1339403Y1660495D1*
X1333646Y1653754D1*
X1328633Y1649359D1*
X1333341Y1642992D1*
X1336653Y1636492D1*
X1338908Y1629553D1*
X1340049Y1622348D1*
Y1615052D1*
X1338908Y1607847D1*
X1336653Y1600908D1*
X1333341Y1594408D1*
X1329053Y1588506D1*
X1326187Y1585467D1*
X1326192Y857130D1*
X1352123Y831228D1*
X1357336Y836277D1*
X1364444Y841441D1*
X1368514Y843697D1*
X1360789Y848401D1*
X1354108Y854108D1*
X1348401Y860789D1*
X1343811Y868280D1*
X1340448Y876397D1*
X1338397Y884941D1*
X1337708Y893700D1*
X1338397Y902459D1*
X1340448Y911003D1*
X1343811Y919120D1*
X1348401Y926611D1*
X1354108Y933292D1*
X1360789Y938999D1*
X1368514Y943697D1*
X1360789Y948401D1*
X1354108Y954108D1*
X1348401Y960789D1*
X1343811Y968280D1*
X1340448Y976397D1*
X1338397Y984941D1*
X1337708Y993700D1*
X1338397Y1002459D1*
X1340448Y1011003D1*
X1343811Y1019120D1*
X1348401Y1026611D1*
X1354108Y1033292D1*
X1360789Y1038999D1*
X1368514Y1043697D1*
X1360789Y1048401D1*
X1354108Y1054108D1*
X1348401Y1060789D1*
X1343811Y1068280D1*
X1340448Y1076397D1*
X1338397Y1084941D1*
X1337708Y1093700D1*
X1338397Y1102459D1*
X1340448Y1111003D1*
X1343811Y1119120D1*
X1348401Y1126611D1*
X1354108Y1133292D1*
X1360789Y1138999D1*
X1368514Y1143697D1*
X1360789Y1148401D1*
X1354108Y1154108D1*
X1348401Y1160789D1*
X1343811Y1168280D1*
X1340448Y1176397D1*
X1338397Y1184941D1*
X1337708Y1193700D1*
X1338397Y1202459D1*
X1340448Y1211003D1*
X1343811Y1219120D1*
X1348401Y1226611D1*
X1354108Y1233292D1*
X1360789Y1238999D1*
X1368514Y1243697D1*
X1360789Y1248401D1*
X1354108Y1254108D1*
X1348401Y1260789D1*
X1343811Y1268280D1*
X1340448Y1276397D1*
X1338397Y1284941D1*
X1337708Y1293700D1*
X1338397Y1302459D1*
X1340448Y1311003D1*
X1343811Y1319120D1*
X1348401Y1326611D1*
X1354108Y1333292D1*
X1359157Y1337712D1*
X1337708Y1337708D1*
Y1449692D1*
X1449692D1*
Y1337708D1*
X1428341D1*
X1433292Y1333292D1*
X1438999Y1326611D1*
X1443589Y1319120D1*
X1446952Y1311003D1*
X1449003Y1302459D1*
X1449692Y1293700D1*
X1449003Y1284941D1*
X1446952Y1276397D1*
X1443589Y1268280D1*
X1438999Y1260789D1*
X1433292Y1254108D1*
X1426611Y1248401D1*
X1418886Y1243703D1*
X1426611Y1238999D1*
X1433292Y1233292D1*
X1438999Y1226611D1*
X1443589Y1219120D1*
X1446952Y1211003D1*
X1449003Y1202459D1*
X1449692Y1193700D1*
X1449003Y1184941D1*
X1446952Y1176397D1*
X1443589Y1168280D1*
X1438999Y1160789D1*
X1433292Y1154108D1*
X1426611Y1148401D1*
X1418886Y1143703D1*
X1426611Y1138999D1*
X1433292Y1133292D1*
X1438999Y1126611D1*
X1443589Y1119120D1*
X1446952Y1111003D1*
X1449003Y1102459D1*
X1449692Y1093700D1*
X1449003Y1084941D1*
X1446952Y1076397D1*
X1443589Y1068280D1*
X1438999Y1060789D1*
X1433292Y1054108D1*
X1426611Y1048401D1*
X1418886Y1043703D1*
X1426611Y1038999D1*
X1433292Y1033292D1*
X1438999Y1026611D1*
X1443589Y1019120D1*
X1446952Y1011003D1*
X1449003Y1002459D1*
X1449692Y993700D1*
X1449003Y984941D1*
X1446952Y976397D1*
X1443589Y968280D1*
X1438999Y960789D1*
X1433292Y954108D1*
X1426611Y948401D1*
X1418886Y943703D1*
X1426611Y938999D1*
X1433292Y933292D1*
X1438999Y926611D1*
X1443589Y919120D1*
X1446952Y911003D1*
X1449003Y902459D1*
X1449692Y893700D1*
X1449003Y884941D1*
X1446952Y876397D1*
X1443589Y868280D1*
X1438999Y860789D1*
X1433292Y854108D1*
X1426611Y848401D1*
X1418886Y843703D1*
X1426611Y838999D1*
X1433292Y833292D1*
X1438999Y826611D1*
X1443589Y819120D1*
X1446952Y811003D1*
X1449003Y802459D1*
X1449692Y793700D1*
X1449003Y784941D1*
X1446952Y776397D1*
X1443589Y768280D1*
X1438999Y760789D1*
X1433292Y754108D1*
X1426611Y748401D1*
X1418886Y743703D1*
X1426611Y738999D1*
X1433292Y733292D1*
X1438999Y726611D1*
X1443589Y719120D1*
X1446952Y711003D1*
X1448544Y704767D1*
X1450747Y711492D1*
X1454059Y717992D1*
X1458347Y723894D1*
X1480312Y746062D1*
X1501499Y767249D1*
X1494657Y769498D1*
X1488157Y772810D1*
X1482255Y777098D1*
X1477096Y782257D1*
X1472808Y788159D1*
X1469496Y794659D1*
X1467242Y801598D1*
X1466100Y808803D1*
X1466101Y816099D1*
X1467242Y823305D1*
X1469496Y830243D1*
X1472809Y836743D1*
X1477097Y842645D1*
X1499062Y864813D1*
X1838765Y1204515D1*
X1840448Y1211003D1*
X1843811Y1219120D1*
X1848401Y1226611D1*
X1854108Y1233292D1*
X1860789Y1238999D1*
X1868280Y1243589D1*
X1876397Y1246952D1*
X1884941Y1249003D1*
X1893700Y1249692D1*
X1902459Y1249003D1*
X1911003Y1246952D1*
X1919120Y1243589D1*
X1926611Y1238999D1*
X1933292Y1233292D1*
X1938999Y1226611D1*
X1943589Y1219120D1*
X1946952Y1211003D1*
X1949003Y1202459D1*
X1949692Y1193700D1*
X1949003Y1184941D1*
X1946952Y1176397D1*
X1943589Y1168280D1*
X1938999Y1160789D1*
X1933292Y1154108D1*
X1926611Y1148401D1*
X1918886Y1143703D1*
X1926611Y1138999D1*
X1933292Y1133292D1*
X1938999Y1126611D1*
X1943589Y1119120D1*
X1946952Y1111003D1*
X1949003Y1102459D1*
X1949692Y1093700D1*
X1949003Y1084941D1*
X1946952Y1076397D1*
X1943589Y1068280D1*
X1938999Y1060789D1*
X1933292Y1054108D1*
X1926611Y1048401D1*
X1918886Y1043703D1*
X1926611Y1038999D1*
X1933292Y1033292D1*
X1938999Y1026611D1*
X1943589Y1019120D1*
X1946952Y1011003D1*
X1949003Y1002459D1*
X1949692Y993700D1*
X1949003Y984941D1*
X1946952Y976397D1*
X1943589Y968280D1*
X1938999Y960789D1*
X1933292Y954108D1*
X1926611Y948401D1*
X1918886Y943703D1*
X1926611Y938999D1*
X1933292Y933292D1*
X1938999Y926611D1*
X1943589Y919120D1*
X1946952Y911003D1*
X1949003Y902459D1*
X1949692Y893700D1*
X1949003Y884941D1*
X1946952Y876397D1*
X1943589Y868280D1*
X1938999Y860789D1*
X1933292Y854108D1*
X1926611Y848401D1*
X1918886Y843703D1*
X1926611Y838999D1*
X1933292Y833292D1*
X1938999Y826611D1*
X1943589Y819120D1*
X1946952Y811003D1*
X1949003Y802459D1*
X1949692Y793700D1*
X1949003Y784941D1*
X1946952Y776397D1*
X1943589Y768280D1*
X1938999Y760789D1*
X1933292Y754108D1*
X1926611Y748401D1*
X1919120Y743811D1*
X1911003Y740448D1*
X1902459Y738397D1*
X1893700Y737708D1*
X1884941Y738397D1*
X1876397Y740448D1*
X1868280Y743811D1*
X1860789Y748401D1*
X1854108Y754108D1*
X1848401Y760789D1*
X1843811Y768280D1*
X1840906Y775157D1*
X1840192Y766141D1*
Y574986D1*
X1843614Y569132D1*
X1846978Y561011D1*
X1849030Y552463D1*
X1849720Y543700D1*
X1849030Y534937D1*
X1846978Y526389D1*
X1843614Y518268D1*
X1839021Y510772D1*
X1833312Y504088D1*
X1826628Y498379D1*
X1819132Y493786D1*
X1811011Y490422D1*
X1802463Y488370D1*
X1793700Y487680D1*
X1784937Y488370D1*
X1776389Y490422D1*
X1768268Y493786D1*
X1760772Y498379D1*
X1754088Y504088D1*
X1748379Y510772D1*
X1743707Y518439D1*
X1739021Y510772D1*
X1733312Y504088D1*
X1726628Y498379D1*
X1719132Y493786D1*
X1711011Y490422D1*
X1702463Y488370D1*
X1693700Y487680D1*
X1684937Y488370D1*
X1676389Y490422D1*
X1668268Y493786D1*
X1660772Y498379D1*
X1654088Y504088D1*
X1648379Y510772D1*
X1643707Y518439D1*
X1639021Y510772D1*
X1633312Y504088D1*
X1626628Y498379D1*
X1619132Y493786D1*
X1611011Y490422D1*
X1602463Y488370D1*
X1593700Y487680D1*
X1584937Y488370D1*
X1576389Y490422D1*
X1568268Y493786D1*
X1560772Y498379D1*
X1554088Y504088D1*
X1549730Y509059D1*
X1549720Y487680D1*
X1437680D1*
Y599720D1*
X1447190D1*
X1447208Y677225D1*
X1445430Y672273D1*
X1441441Y664444D1*
X1436277Y657336D1*
X1430064Y651123D1*
X1422956Y645959D1*
X1415127Y641970D1*
X1406771Y639255D1*
X1398093Y637880D1*
X1389307D1*
X1380629Y639255D1*
X1372273Y641970D1*
X1364444Y645959D1*
X1357336Y651123D1*
X1351123Y657336D1*
X1345959Y664444D1*
X1341970Y672273D1*
X1339255Y680629D1*
X1337880Y689307D1*
Y698093D1*
X1339255Y706771D1*
X1341970Y715127D1*
X1345959Y722956D1*
X1351123Y730064D1*
X1357336Y736277D1*
X1364444Y741441D1*
X1368514Y743697D1*
X1360789Y748401D1*
X1354108Y754108D1*
X1348125Y761203D1*
X1341151Y761308D1*
X1336115Y762106D1*
X1331266Y763681D1*
X1326723Y765996D1*
X1322598Y768993D1*
X1275254Y816195D1*
X1268993Y822598D1*
X1265996Y826723D1*
X1263681Y831266D1*
X1262106Y836115D1*
X1261308Y841151D1*
X1261208Y908004D1*
Y1535655D1*
X1254553Y1533532D1*
X1247348Y1532391D1*
X1240052D1*
X1232847Y1533532D1*
X1225908Y1535786D1*
X1219408Y1539098D1*
X1213506Y1543386D1*
X1208347Y1548545D1*
X1204059Y1554447D1*
X1200747Y1560948D1*
X1198492Y1567886D1*
X1197351Y1575092D1*
Y1582387D1*
X1198492Y1589593D1*
X1200747Y1596531D1*
X1204059Y1603031D1*
X1208347Y1608934D1*
X1209712Y1610410D1*
X1209708Y1639491D1*
X1202537Y1637903D1*
X1193700Y1637208D1*
X1184863Y1637903D1*
X1176243Y1639973D1*
X1168053Y1643365D1*
X1160495Y1647997D1*
X1153754Y1653754D1*
X1147997Y1660495D1*
X1143712Y1667433D1*
X1139403Y1660495D1*
X1133646Y1653754D1*
X1126905Y1647997D1*
X1119347Y1643365D1*
X1111157Y1639973D1*
X1102537Y1637903D1*
X1093700Y1637208D1*
X1084863Y1637903D1*
X1081073Y1638657D1*
X1083586Y1632476D1*
X1085289Y1625382D1*
X1085861Y1618109D1*
X1085289Y1610836D1*
X1083586Y1603743D1*
X1080794Y1597002D1*
X1076982Y1590782D1*
X1072244Y1585235D1*
X1066697Y1580497D1*
X1060476Y1576685D1*
X1053736Y1573893D1*
X1046642Y1572190D1*
X1039369Y1571617D1*
X1032096Y1572190D1*
X1025002Y1573893D1*
X1018262Y1576685D1*
X1012042Y1580497D1*
X1006494Y1585235D1*
X1001756Y1590782D1*
X997945Y1597002D1*
X995153Y1603743D1*
X993450Y1610836D1*
X992877Y1618109D1*
X993450Y1625382D1*
X995153Y1632476D1*
X997067Y1637313D1*
X989268Y1637382D1*
X980512Y1638769D1*
X972081Y1641508D1*
X964183Y1645533D1*
X957011Y1650743D1*
X950743Y1657011D1*
X945533Y1664183D1*
X943712Y1667433D1*
X939403Y1660495D1*
X933646Y1653754D1*
X926905Y1647997D1*
X919347Y1643365D1*
X911157Y1639973D1*
X902537Y1637903D1*
X893700Y1637208D1*
X884863Y1637903D1*
X876243Y1639973D1*
X874016Y1640794D1*
X871200Y1636220D1*
X867736Y1632164D1*
X727697Y1492125D1*
X727692Y1449682D1*
X749692Y1449692D1*
Y1337708D1*
X728341D1*
X733292Y1333292D1*
X738999Y1326611D1*
X743589Y1319120D1*
X746952Y1311003D1*
X749003Y1302459D1*
X749692Y1293700D1*
X749003Y1284941D1*
X746952Y1276397D1*
X743589Y1268280D1*
X738999Y1260789D1*
X733292Y1254108D1*
X726611Y1248401D1*
X718886Y1243703D1*
X726611Y1238999D1*
X733292Y1233292D1*
X738999Y1226611D1*
X743589Y1219120D1*
X746952Y1211003D1*
X749003Y1202459D1*
X749692Y1193700D1*
X749003Y1184941D1*
X746952Y1176397D1*
X743589Y1168280D1*
X738999Y1160789D1*
X733292Y1154108D1*
X726611Y1148401D1*
X718886Y1143703D1*
X726611Y1138999D1*
X733292Y1133292D1*
X738999Y1126611D1*
X743589Y1119120D1*
X746952Y1111003D1*
X749003Y1102459D1*
X749692Y1093700D1*
X749003Y1084941D1*
X746952Y1076397D1*
X743589Y1068280D1*
X738999Y1060789D1*
X733292Y1054108D1*
X726611Y1048401D1*
X718886Y1043703D1*
X726611Y1038999D1*
X733292Y1033292D1*
X738999Y1026611D1*
X743589Y1019120D1*
X746952Y1011003D1*
X749003Y1002459D1*
X749692Y993700D1*
X749003Y984941D1*
X746952Y976397D1*
X743589Y968280D1*
X738999Y960789D1*
X733292Y954108D1*
X726611Y948401D1*
X718886Y943703D1*
X726611Y938999D1*
X733292Y933292D1*
X738999Y926611D1*
X743589Y919120D1*
X746952Y911003D1*
X749003Y902459D1*
X749692Y893700D1*
X749003Y884941D1*
X746952Y876397D1*
X743589Y868280D1*
X738999Y860789D1*
X733292Y854108D1*
X726611Y848401D1*
X718886Y843703D1*
X726611Y838999D1*
X733292Y833292D1*
X738999Y826611D1*
X743589Y819120D1*
X746952Y811003D1*
X748544Y804767D1*
X750747Y811492D1*
X754059Y817992D1*
X758347Y823894D1*
X780312Y846062D1*
X1138770Y1204520D1*
X1140448Y1211003D1*
X1143811Y1219120D1*
X1148401Y1226611D1*
X1154108Y1233292D1*
X1160789Y1238999D1*
X1168280Y1243589D1*
X1176397Y1246952D1*
X1184941Y1249003D1*
X1193700Y1249692D1*
X1202459Y1249003D1*
X1211003Y1246952D1*
X1219120Y1243589D1*
X1226611Y1238999D1*
X1233292Y1233292D1*
X1238999Y1226611D1*
X1243589Y1219120D1*
X1246952Y1211003D1*
X1249003Y1202459D1*
X1249692Y1193700D1*
X1249003Y1184941D1*
X1246952Y1176397D1*
X1243589Y1168280D1*
X1238999Y1160789D1*
X1233292Y1154108D1*
X1226611Y1148401D1*
X1218886Y1143703D1*
X1226611Y1138999D1*
X1233292Y1133292D1*
X1238999Y1126611D1*
X1243589Y1119120D1*
X1246952Y1111003D1*
X1249003Y1102459D1*
X1249692Y1093700D1*
X1249003Y1084941D1*
X1246952Y1076397D1*
X1243589Y1068280D1*
X1238999Y1060789D1*
X1233292Y1054108D1*
X1226611Y1048401D1*
X1218886Y1043703D1*
X1226611Y1038999D1*
X1233292Y1033292D1*
X1238999Y1026611D1*
X1243589Y1019120D1*
X1246952Y1011003D1*
X1249003Y1002459D1*
X1249692Y993700D1*
X1249003Y984941D1*
X1246952Y976397D1*
X1243589Y968280D1*
X1238999Y960789D1*
X1233292Y954108D1*
X1226611Y948401D1*
X1218886Y943703D1*
X1226611Y938999D1*
X1233292Y933292D1*
X1238999Y926611D1*
X1243589Y919120D1*
X1246952Y911003D1*
X1249003Y902459D1*
X1249692Y893700D1*
X1249003Y884941D1*
X1246952Y876397D1*
X1243589Y868280D1*
X1238999Y860789D1*
X1233292Y854108D1*
X1226611Y848401D1*
X1218886Y843703D1*
X1226611Y838999D1*
X1233292Y833292D1*
X1238999Y826611D1*
X1243589Y819120D1*
X1246952Y811003D1*
X1249003Y802459D1*
X1249692Y793700D1*
X1249003Y784941D1*
X1246952Y776397D1*
X1243589Y768280D1*
X1238999Y760789D1*
X1233292Y754108D1*
X1226611Y748401D1*
X1219120Y743811D1*
X1211003Y740448D1*
X1202459Y738397D1*
X1193700Y737708D1*
X1184941Y738397D1*
X1176397Y740448D1*
X1168280Y743811D1*
X1160789Y748401D1*
X1154108Y754108D1*
X1148401Y760789D1*
X1143811Y768280D1*
X1140906Y775157D1*
X1140192Y766141D1*
Y574986D1*
X1143614Y569132D1*
X1146978Y561011D1*
X1149030Y552463D1*
X1149720Y543700D1*
X1149030Y534937D1*
X1146978Y526389D1*
X1143614Y518268D1*
X1139021Y510772D1*
X1133312Y504088D1*
X1126628Y498379D1*
X1119132Y493786D1*
X1111011Y490422D1*
X1102463Y488370D1*
X1093700Y487680D1*
X1084937Y488370D1*
X1076389Y490422D1*
X1068268Y493786D1*
X1060772Y498379D1*
X1054088Y504088D1*
X1048379Y510772D1*
X1043707Y518439D1*
X1039021Y510772D1*
X1033312Y504088D1*
X1026628Y498379D1*
X1019132Y493786D1*
X1011011Y490422D1*
X1002463Y488370D1*
X993700Y487680D1*
X984937Y488370D1*
X976389Y490422D1*
X968268Y493786D1*
X960772Y498379D1*
X954088Y504088D1*
X948379Y510772D1*
X943707Y518439D1*
X939021Y510772D1*
X933312Y504088D1*
X926628Y498379D1*
X919132Y493786D1*
X911011Y490422D1*
X902463Y488370D1*
X893700Y487680D1*
X884937Y488370D1*
X876389Y490422D1*
X868268Y493786D1*
X860772Y498379D1*
X854088Y504088D1*
X849730Y509059D1*
X849720Y487680D1*
X737680D1*
Y599720D1*
X747190D1*
X747208Y677225D1*
X745430Y672273D1*
X741441Y664444D1*
X736277Y657336D1*
X730064Y651123D1*
X722956Y645959D1*
X715127Y641970D1*
X706771Y639255D1*
X698093Y637880D1*
X689307D1*
X680629Y639255D1*
X672273Y641970D1*
X664444Y645959D1*
X657336Y651123D1*
X651123Y657336D1*
X645959Y664444D1*
X641970Y672273D1*
X639255Y680629D1*
X637880Y689307D1*
Y698093D1*
X639255Y706771D1*
X641970Y715127D1*
X645959Y722956D1*
X651123Y730064D1*
X657336Y736277D1*
X664444Y741441D1*
X668514Y743697D1*
X660789Y748401D1*
X654108Y754108D1*
X648401Y760789D1*
X643811Y768280D1*
X640448Y776397D1*
X638397Y784941D1*
X637708Y793700D1*
X638397Y802459D1*
X640448Y811003D1*
X643811Y819120D1*
X648401Y826611D1*
X654108Y833292D1*
X660789Y838999D1*
X668514Y843697D1*
X660789Y848401D1*
X654108Y854108D1*
X648401Y860789D1*
X643811Y868280D1*
X640448Y876397D1*
X638397Y884941D1*
X637708Y893700D1*
X638397Y902459D1*
X640448Y911003D1*
X643811Y919120D1*
X648401Y926611D1*
X654108Y933292D1*
X660789Y938999D1*
X668514Y943697D1*
X660789Y948401D1*
X654108Y954108D1*
X648401Y960789D1*
X643811Y968280D1*
X640448Y976397D1*
X638397Y984941D1*
X637708Y993700D1*
X638397Y1002459D1*
X640448Y1011003D1*
X643811Y1019120D1*
X648401Y1026611D1*
X654108Y1033292D1*
X660789Y1038999D1*
X668514Y1043697D1*
X660789Y1048401D1*
X654108Y1054108D1*
X648401Y1060789D1*
X643811Y1068280D1*
X640448Y1076397D1*
X638397Y1084941D1*
X637708Y1093700D1*
X638397Y1102459D1*
X640448Y1111003D1*
X643811Y1119120D1*
X648401Y1126611D1*
X654108Y1133292D1*
X660789Y1138999D1*
X668514Y1143697D1*
X660789Y1148401D1*
X654108Y1154108D1*
X648401Y1160789D1*
X643811Y1168280D1*
X640448Y1176397D1*
X638397Y1184941D1*
X637708Y1193700D1*
X638397Y1202459D1*
X640448Y1211003D1*
X643811Y1219120D1*
X648401Y1226611D1*
X654108Y1233292D1*
X660789Y1238999D1*
X668514Y1243697D1*
X660789Y1248401D1*
X654108Y1254108D1*
X648401Y1260789D1*
X643811Y1268280D1*
X640448Y1276397D1*
X638397Y1284941D1*
X637708Y1293700D1*
X638397Y1302459D1*
X640448Y1311003D1*
X643811Y1319120D1*
X648401Y1326611D1*
X654108Y1333292D1*
X659157Y1337712D1*
X637708Y1337708D1*
Y1449692D1*
X659705D1*
X659813Y1508867D1*
X660647Y1514135D1*
X662295Y1519208D1*
X664717Y1523961D1*
X667852Y1528276D1*
X708638Y1569211D1*
X778696Y1639268D1*
X772081Y1641508D1*
X764183Y1645533D1*
X757011Y1650743D1*
X750743Y1657011D1*
X745533Y1664183D1*
X743712Y1667433D1*
X739403Y1660495D1*
X733646Y1653754D1*
X726905Y1647997D1*
X719347Y1643365D1*
X711157Y1639973D1*
X702537Y1637903D1*
X693700Y1637208D1*
X684863Y1637903D1*
X676243Y1639973D1*
X668053Y1643365D1*
X660495Y1647997D1*
X653754Y1653754D1*
X647997Y1660495D1*
X643712Y1667433D1*
X639403Y1660495D1*
X633646Y1653754D1*
X626905Y1647997D1*
X619347Y1643365D1*
X611157Y1639973D1*
X602537Y1637903D1*
X593700Y1637208D1*
X584863Y1637903D1*
X576243Y1639973D1*
X568053Y1643365D1*
X560495Y1647997D1*
X553754Y1653754D1*
X547997Y1660495D1*
X543712Y1667433D1*
X539403Y1660495D1*
X533646Y1653754D1*
X526905Y1647997D1*
X519347Y1643365D1*
X511157Y1639973D1*
X502537Y1637903D1*
X493700Y1637208D1*
X484863Y1637903D1*
X476243Y1639973D1*
X468053Y1643365D1*
X460495Y1647997D1*
X453754Y1653754D1*
X447997Y1660495D1*
X443365Y1668053D1*
X439973Y1676243D1*
X437903Y1684863D1*
X437208Y1693700D1*
X437903Y1702537D1*
X439973Y1711157D1*
X443365Y1719347D1*
X447997Y1726905D1*
X453754Y1733646D1*
X460495Y1739403D1*
X468053Y1744035D1*
X476243Y1747427D1*
X484863Y1749497D1*
X493700Y1750192D1*
X502537Y1749497D1*
X511157Y1747427D1*
X519347Y1744035D1*
X526905Y1739403D1*
X533646Y1733646D1*
X539403Y1726905D1*
X543688Y1719967D1*
X547997Y1726905D1*
X553754Y1733646D1*
X560495Y1739403D1*
X568053Y1744035D1*
X576243Y1747427D1*
X584863Y1749497D1*
X593700Y1750192D1*
X602537Y1749497D1*
X611157Y1747427D1*
X619347Y1744035D1*
X626905Y1739403D1*
X633646Y1733646D1*
X639403Y1726905D1*
X643688Y1719967D1*
X647997Y1726905D1*
X653754Y1733646D1*
X660495Y1739403D1*
X668053Y1744035D1*
X676243Y1747427D1*
X684863Y1749497D1*
X693700Y1750192D1*
X702537Y1749497D1*
X711157Y1747427D1*
X719347Y1744035D1*
X726905Y1739403D1*
X733646Y1733646D1*
X739403Y1726905D1*
X743688Y1719967D1*
X747997Y1726905D1*
X753754Y1733646D1*
X760495Y1739403D1*
X761201Y1739875D1*
X761308Y2468891D1*
X762106Y2473927D1*
X763681Y2478776D1*
X765996Y2483319D1*
X768993Y2487444D1*
X809521Y2528114D1*
X809545Y2539475D1*
X802537Y2537903D1*
X793700Y2537208D1*
X784863Y2537903D1*
X776243Y2539973D1*
X768053Y2543365D1*
X760495Y2547997D1*
X753754Y2553754D1*
X747997Y2560495D1*
X743712Y2567433D1*
X739403Y2560495D1*
X733646Y2553754D1*
X726905Y2547997D1*
X719347Y2543365D1*
X711157Y2539973D1*
X702537Y2537903D1*
X693700Y2537208D1*
X684863Y2537903D1*
X676243Y2539973D1*
X668053Y2543365D1*
X660495Y2547997D1*
X653754Y2553754D1*
X647997Y2560495D1*
X643712Y2567433D1*
X639403Y2560495D1*
X633646Y2553754D1*
X626905Y2547997D1*
X619347Y2543365D1*
X611157Y2539973D1*
X602537Y2537903D1*
X593700Y2537208D1*
X584863Y2537903D1*
X576243Y2539973D1*
X568053Y2543365D1*
X560495Y2547997D1*
X553754Y2553754D1*
X547997Y2560495D1*
X543712Y2567433D1*
X539403Y2560495D1*
X533646Y2553754D1*
X526905Y2547997D1*
X519347Y2543365D1*
X511157Y2539973D1*
X502537Y2537903D1*
X493700Y2537208D1*
X484863Y2537903D1*
X476243Y2539973D1*
X468053Y2543365D1*
X460495Y2547997D1*
X453754Y2553754D1*
X447997Y2560495D1*
X443365Y2568053D1*
X439973Y2576243D1*
X437903Y2584863D1*
X437208Y2593700D1*
X437903Y2602537D1*
X439973Y2611157D1*
X443365Y2619347D1*
X447997Y2626905D1*
X453754Y2633646D1*
X458304Y2637676D1*
X437680Y2637680D1*
Y2749720D1*
X549720D1*
Y2728369D1*
X554088Y2733312D1*
X560772Y2739021D1*
X568268Y2743614D1*
X576389Y2746978D1*
X584937Y2749030D1*
X593700Y2749720D1*
X602463Y2749030D1*
X611011Y2746978D1*
X619132Y2743614D1*
X626628Y2739021D1*
X633312Y2733312D1*
X639021Y2726628D1*
X643693Y2718961D1*
X648379Y2726628D1*
X654088Y2733312D1*
X660772Y2739021D1*
X668268Y2743614D1*
X676389Y2746978D1*
X684937Y2749030D1*
X693700Y2749720D1*
X702463Y2749030D1*
X711011Y2746978D1*
X719132Y2743614D1*
X726628Y2739021D1*
X733312Y2733312D1*
X739021Y2726628D1*
X743693Y2718961D1*
X748379Y2726628D1*
X754088Y2733312D1*
X760772Y2739021D1*
X768268Y2743614D1*
X776389Y2746978D1*
X784937Y2749030D1*
X793700Y2749720D1*
X802463Y2749030D1*
X809539Y2747393D1*
X809545Y2829563D1*
X804424Y2835484D1*
X800612Y2841705D1*
X797821Y2848445D1*
X796118Y2855539D1*
X795545Y2862812D1*
X796118Y2870085D1*
X797821Y2877178D1*
X800612Y2883919D1*
X804424Y2890139D1*
X809162Y2895686D1*
X814710Y2900424D1*
X820930Y2904236D1*
X827670Y2907028D1*
X834764Y2908731D1*
X842037Y2909304D1*
X849310Y2908731D1*
X856404Y2907028D1*
X863144Y2904236D1*
X869365Y2900424D1*
X874912Y2895686D1*
X879650Y2890139D1*
X883462Y2883919D1*
X886254Y2877178D1*
X887957Y2870085D1*
X888529Y2862812D1*
X887957Y2855539D1*
X886254Y2848445D1*
X883462Y2841705D1*
X879650Y2835484D1*
X874525Y2829579D1*
X874530Y2746367D1*
X880622Y2748172D1*
X889305Y2749547D1*
X898095D1*
X906778Y2748172D1*
X915138Y2745455D1*
X922970Y2741465D1*
X930082Y2736298D1*
X936298Y2730082D1*
X941465Y2722970D1*
X945455Y2715138D1*
X948172Y2706778D1*
X949547Y2698095D1*
Y2689305D1*
X948172Y2680622D1*
X945455Y2672262D1*
X941465Y2664430D1*
X936298Y2657318D1*
X930082Y2651102D1*
X922970Y2645935D1*
X919477Y2643979D1*
X926905Y2639403D1*
X933646Y2633646D1*
X939403Y2626905D1*
X944035Y2619347D1*
X947427Y2611157D1*
X949497Y2602537D1*
X950192Y2593700D1*
X949497Y2584863D1*
X947427Y2576243D1*
X944035Y2568053D1*
X939403Y2560495D1*
X933646Y2553754D1*
X927681Y2548608D1*
X927587Y2003533D1*
X926753Y1998265D1*
X925105Y1993192D1*
X922683Y1988439D1*
X919548Y1984124D1*
X877671Y1942098D1*
X877692Y1747892D1*
X884863Y1749497D1*
X893700Y1750192D1*
X902537Y1749497D1*
X911157Y1747427D1*
X919347Y1744035D1*
X926905Y1739403D1*
X933646Y1733646D1*
X939403Y1726905D1*
X943688Y1719967D1*
X947997Y1726905D1*
X953754Y1733646D1*
X960495Y1739403D1*
X968053Y1744035D1*
X976243Y1747427D1*
X984863Y1749497D1*
X993700Y1750192D1*
X1002537Y1749497D1*
X1005375Y1748932D1*
X1005377Y1862014D1*
X1001756Y1866373D1*
X997945Y1872593D1*
X995153Y1879333D1*
X993450Y1886427D1*
X992877Y1893700D1*
X993450Y1900973D1*
X995153Y1908067D1*
X997945Y1914807D1*
X1001756Y1921027D1*
X1006494Y1926575D1*
X1012042Y1931313D1*
X1018262Y1935125D1*
X1025002Y1937917D1*
X1032096Y1939620D1*
X1039369Y1940192D1*
X1046642Y1939620D1*
X1053736Y1937917D1*
X1060476Y1935125D1*
X1066697Y1931313D1*
X1072244Y1926575D1*
X1076982Y1921027D1*
X1080794Y1914807D1*
X1083586Y1908067D1*
X1085289Y1900973D1*
X1085861Y1893700D1*
X1085289Y1886427D1*
X1083586Y1879333D1*
X1080794Y1872593D1*
X1076982Y1866373D1*
X1073357Y1862029D1*
X1073362Y1746395D1*
X1080512Y1748631D1*
X1089268Y1750018D1*
X1098132D1*
X1103370Y1749331D1*
X1108854Y1759718D1*
Y1946711D1*
X1101279Y1946709D1*
X1094074Y1947851D1*
X1087135Y1950105D1*
X1080635Y1953417D1*
X1074733Y1957705D1*
X1069574Y1962864D1*
X1065286Y1968766D1*
X1061974Y1975267D1*
X1059719Y1982205D1*
X1058578Y1989411D1*
Y1996706D1*
X1059719Y2003912D1*
X1061974Y2010850D1*
X1065286Y2017350D1*
X1069574Y2023252D1*
X1072440Y2026291D1*
X1072431Y2091704D1*
X1067314Y2097622D1*
X1063502Y2103842D1*
X1060710Y2110582D1*
X1059007Y2117676D1*
X1058435Y2124949D1*
X1059007Y2132222D1*
X1060710Y2139316D1*
X1063502Y2146056D1*
X1067314Y2152277D1*
X1072052Y2157824D1*
X1077600Y2162562D1*
X1083820Y2166374D1*
X1090560Y2169166D1*
X1097654Y2170869D1*
X1104927Y2171441D1*
X1108844Y2171266D1*
X1108854Y2299739D1*
X1100973Y2297780D1*
X1093700Y2297208D1*
X1086427Y2297780D1*
X1079333Y2299483D1*
X1072593Y2302275D1*
X1066373Y2306087D1*
X1060825Y2310825D1*
X1056087Y2316373D1*
X1052275Y2322593D1*
X1049483Y2329333D1*
X1047780Y2336427D1*
X1047213Y2343572D1*
X1042173Y2343688D1*
X1034967Y2344830D1*
X1028029Y2347084D1*
X1021529Y2350396D1*
X1015627Y2354684D1*
X1010468Y2359843D1*
X1006180Y2365745D1*
X1002868Y2372246D1*
X1000613Y2379184D1*
X999472Y2386390D1*
Y2393685D1*
X1000613Y2400891D1*
X1002868Y2407829D1*
X1006180Y2414329D1*
X1010468Y2420231D1*
X1013333Y2423270D1*
X1013329Y2800732D1*
X1006218Y2807960D1*
X1003222Y2812085D1*
X1001971Y2814320D1*
X994959Y2822278D1*
X868993Y2948385D1*
X865996Y2952510D1*
X863681Y2957053D1*
X862106Y2961902D1*
X861308Y2966938D1*
X861208Y2998087D1*
X857318Y3001102D1*
X851102Y3007318D1*
X849730Y3009059D1*
X849720Y2987680D1*
X737680D1*
Y3099720D1*
X849720D1*
Y3078369D1*
X854088Y3083312D1*
X860772Y3089021D1*
X868268Y3093614D1*
X876389Y3096978D1*
X884937Y3099030D1*
X893700Y3099720D1*
X902463Y3099030D1*
X911011Y3096978D1*
X919132Y3093614D1*
X926628Y3089021D1*
X933312Y3083312D1*
X939021Y3076628D1*
X943693Y3068961D1*
X948379Y3076628D1*
X954088Y3083312D1*
X960772Y3089021D1*
X968268Y3093614D1*
X976389Y3096978D1*
X984937Y3099030D1*
X993700Y3099720D1*
X1002463Y3099030D1*
X1011011Y3096978D1*
X1019132Y3093614D1*
X1026628Y3089021D1*
X1033312Y3083312D1*
X1039021Y3076628D1*
X1043693Y3068961D1*
X1048379Y3076628D1*
X1054088Y3083312D1*
X1060772Y3089021D1*
X1068268Y3093614D1*
X1076389Y3096978D1*
X1084937Y3099030D1*
X1093700Y3099720D1*
X1102463Y3099030D1*
X1111011Y3096978D1*
X1119132Y3093614D1*
X1126628Y3089021D1*
X1133312Y3083312D1*
X1139021Y3076628D1*
X1143693Y3068961D1*
X1148379Y3076628D1*
X1154088Y3083312D1*
X1160772Y3089021D1*
X1168268Y3093614D1*
X1176389Y3096978D1*
X1184937Y3099030D1*
X1193700Y3099720D1*
X1202463Y3099030D1*
X1211011Y3096978D1*
X1219132Y3093614D1*
X1226628Y3089021D1*
X1233312Y3083312D1*
X1239021Y3076628D1*
X1243614Y3069132D1*
X1246978Y3061011D1*
X1249030Y3052463D1*
X1249720Y3043700D1*
X1249030Y3034937D1*
X1246978Y3026389D1*
X1243614Y3018268D1*
X1239021Y3010772D1*
X1233312Y3004088D1*
X1226628Y2998379D1*
X1219132Y2993786D1*
X1211011Y2990422D1*
X1202463Y2988370D1*
X1193700Y2987680D1*
X1184937Y2988370D1*
X1176389Y2990422D1*
X1168268Y2993786D1*
X1160772Y2998379D1*
X1154088Y3004088D1*
X1148379Y3010772D1*
X1143707Y3018439D1*
X1139021Y3010772D1*
X1133312Y3004088D1*
X1126628Y2998379D1*
X1126192Y2997768D1*
Y2995723D1*
X1166053Y2955751D1*
X1169050Y2951626D1*
X1171364Y2947083D1*
X1172940Y2942234D1*
X1173738Y2937198D1*
X1173838Y2870344D1*
Y2746077D1*
X1180622Y2748172D1*
X1189305Y2749547D1*
X1198095D1*
X1206778Y2748172D1*
X1215138Y2745455D1*
X1222970Y2741465D1*
X1230082Y2736298D1*
X1236298Y2730082D1*
X1241465Y2722970D1*
X1243786Y2719132D1*
X1248379Y2726628D1*
X1254088Y2733312D1*
X1260772Y2739021D1*
X1268268Y2743614D1*
X1276389Y2746978D1*
X1284937Y2749030D1*
X1293700Y2749720D1*
X1302463Y2749030D1*
X1311011Y2746978D1*
X1319132Y2743614D1*
X1326628Y2739021D1*
X1333312Y2733312D1*
X1339021Y2726628D1*
X1343693Y2718961D1*
X1348379Y2726628D1*
X1354088Y2733312D1*
X1360772Y2739021D1*
X1368268Y2743614D1*
X1376389Y2746978D1*
X1384937Y2749030D1*
X1393700Y2749720D1*
X1402463Y2749030D1*
X1411011Y2746978D1*
X1419132Y2743614D1*
X1426628Y2739021D1*
X1433312Y2733312D1*
X1439021Y2726628D1*
X1443693Y2718961D1*
X1448379Y2726628D1*
X1454088Y2733312D1*
X1460772Y2739021D1*
X1468268Y2743614D1*
X1476389Y2746978D1*
X1484937Y2749030D1*
X1493700Y2749720D1*
X1502463Y2749030D1*
X1511011Y2746978D1*
X1519132Y2743614D1*
X1526628Y2739021D1*
X1533312Y2733312D1*
X1539021Y2726628D1*
X1543693Y2718961D1*
X1548379Y2726628D1*
X1554088Y2733312D1*
X1560772Y2739021D1*
X1568268Y2743614D1*
X1576389Y2746978D1*
X1584937Y2749030D1*
X1593700Y2749720D1*
X1602463Y2749030D1*
X1611011Y2746978D1*
X1619132Y2743614D1*
X1626628Y2739021D1*
X1633312Y2733312D1*
X1639021Y2726628D1*
X1643693Y2718961D1*
X1648379Y2726628D1*
X1654088Y2733312D1*
X1660772Y2739021D1*
X1668268Y2743614D1*
X1676389Y2746978D1*
X1684937Y2749030D1*
X1693700Y2749720D1*
X1699443Y2749387D1*
X1468993Y2979980D1*
X1465996Y2984105D1*
X1464745Y2986340D1*
X1457856Y2987680D1*
X1437680D1*
Y3099720D1*
X1446867D1*
X2896867Y599720D2*
X2897190D1*
X2897208Y677225D1*
X2895430Y672273D1*
X2891441Y664444D1*
X2886277Y657336D1*
X2880064Y651123D1*
X2872956Y645959D1*
X2865127Y641970D1*
X2856771Y639255D1*
X2848093Y637880D1*
X2839307D1*
X2830629Y639255D1*
X2822273Y641970D1*
X2814444Y645959D1*
X2807336Y651123D1*
X2801123Y657336D1*
X2795959Y664444D1*
X2791970Y672273D1*
X2789255Y680629D1*
X2787880Y689307D1*
Y698093D1*
X2789255Y706771D1*
X2791970Y715127D1*
X2795959Y722956D1*
X2801123Y730064D1*
X2807336Y736277D1*
X2814444Y741441D1*
X2818514Y743697D1*
X2810789Y748401D1*
X2804108Y754108D1*
X2798125Y761203D1*
X2791151Y761308D1*
X2786115Y762105D1*
X2781266Y763681D1*
X2776723Y765996D1*
X2772598Y768993D1*
X2725254Y816195D1*
X2718993Y822598D1*
X2715996Y826723D1*
X2713681Y831266D1*
X2712105Y836115D1*
X2711308Y841151D1*
X2711208Y908004D1*
Y1455274D1*
X2631738Y1534711D1*
X2623927Y1535280D1*
X2616833Y1536983D1*
X2610093Y1539775D1*
X2603873Y1543587D1*
X2598325Y1548325D1*
X2593587Y1553873D1*
X2589775Y1560093D1*
X2586983Y1566833D1*
X2585280Y1573927D1*
X2584708Y1581200D1*
X2585280Y1588473D1*
X2586983Y1595567D1*
X2589775Y1602307D1*
X2593587Y1608527D1*
X2598325Y1614075D1*
X2603873Y1618813D1*
X2610093Y1622625D1*
X2616833Y1625417D1*
X2623927Y1627120D1*
X2631200Y1627692D1*
X2638473Y1627120D1*
X2645567Y1625417D1*
X2652307Y1622625D1*
X2658527Y1618813D1*
X2664075Y1614075D1*
X2668813Y1608527D1*
X2672625Y1602307D1*
X2675417Y1595567D1*
X2677120Y1588473D1*
X2677671Y1580673D1*
X2768407Y1489802D1*
X2771404Y1485677D1*
X2773719Y1481134D1*
X2775295Y1476285D1*
X2776092Y1471249D1*
X2776192Y1404396D1*
Y857126D1*
X2802123Y831228D1*
X2807336Y836277D1*
X2814444Y841441D1*
X2818514Y843697D1*
X2810789Y848401D1*
X2804108Y854108D1*
X2798401Y860789D1*
X2793811Y868280D1*
X2790448Y876397D1*
X2788397Y884941D1*
X2787708Y893700D1*
X2788397Y902459D1*
X2790448Y911003D1*
X2793811Y919120D1*
X2798401Y926611D1*
X2804108Y933292D1*
X2810789Y938999D1*
X2818514Y943697D1*
X2810789Y948401D1*
X2804108Y954108D1*
X2798401Y960789D1*
X2793811Y968280D1*
X2790448Y976397D1*
X2788397Y984941D1*
X2787708Y993700D1*
X2788397Y1002459D1*
X2790448Y1011003D1*
X2793811Y1019120D1*
X2798401Y1026611D1*
X2804108Y1033292D1*
X2810789Y1038999D1*
X2818514Y1043697D1*
X2810789Y1048401D1*
X2804108Y1054108D1*
X2798401Y1060789D1*
X2793811Y1068280D1*
X2790448Y1076397D1*
X2788397Y1084941D1*
X2787708Y1093700D1*
X2788397Y1102459D1*
X2790448Y1111003D1*
X2793811Y1119120D1*
X2798401Y1126611D1*
X2804108Y1133292D1*
X2810789Y1138999D1*
X2818514Y1143697D1*
X2810789Y1148401D1*
X2804108Y1154108D1*
X2798401Y1160789D1*
X2793811Y1168280D1*
X2790448Y1176397D1*
X2788397Y1184941D1*
X2787708Y1193700D1*
X2788397Y1202459D1*
X2790448Y1211003D1*
X2793811Y1219120D1*
X2798401Y1226611D1*
X2804108Y1233292D1*
X2810789Y1238999D1*
X2818514Y1243697D1*
X2810789Y1248401D1*
X2804108Y1254108D1*
X2798401Y1260789D1*
X2793811Y1268280D1*
X2790448Y1276397D1*
X2788397Y1284941D1*
X2787708Y1293700D1*
X2788397Y1302459D1*
X2790448Y1311003D1*
X2793811Y1319120D1*
X2798401Y1326611D1*
X2804108Y1333292D1*
X2809157Y1337712D1*
X2787708Y1337708D1*
Y1449692D1*
X2899692D1*
Y1337708D1*
X2878341D1*
X2883292Y1333292D1*
X2888999Y1326611D1*
X2893589Y1319120D1*
X2896952Y1311003D1*
X2899003Y1302459D1*
X2899692Y1293700D1*
X2899003Y1284941D1*
X2896952Y1276397D1*
X2893589Y1268280D1*
X2888999Y1260789D1*
X2883292Y1254108D1*
X2876611Y1248401D1*
X2868886Y1243703D1*
X2876611Y1238999D1*
X2883292Y1233292D1*
X2888999Y1226611D1*
X2893589Y1219120D1*
X2896952Y1211003D1*
X2899003Y1202459D1*
X2899692Y1193700D1*
X2899003Y1184941D1*
X2896952Y1176397D1*
X2893589Y1168280D1*
X2888999Y1160789D1*
X2883292Y1154108D1*
X2876611Y1148401D1*
X2868886Y1143703D1*
X2876611Y1138999D1*
X2883292Y1133292D1*
X2888999Y1126611D1*
X2893589Y1119120D1*
X2896952Y1111003D1*
X2899003Y1102459D1*
X2899692Y1093700D1*
X2899003Y1084941D1*
X2896952Y1076397D1*
X2893589Y1068280D1*
X2888999Y1060789D1*
X2883292Y1054108D1*
X2876611Y1048401D1*
X2868886Y1043703D1*
X2876611Y1038999D1*
X2883292Y1033292D1*
X2888999Y1026611D1*
X2893589Y1019120D1*
X2896952Y1011003D1*
X2899003Y1002459D1*
X2899692Y993700D1*
X2899003Y984941D1*
X2896952Y976397D1*
X2893589Y968280D1*
X2888999Y960789D1*
X2883292Y954108D1*
X2876611Y948401D1*
X2868886Y943703D1*
X2876611Y938999D1*
X2883292Y933292D1*
X2888999Y926611D1*
X2893589Y919120D1*
X2896952Y911003D1*
X2899003Y902459D1*
X2899692Y893700D1*
X2899003Y884941D1*
X2896952Y876397D1*
X2893589Y868280D1*
X2888999Y860789D1*
X2883292Y854108D1*
X2876611Y848401D1*
X2868886Y843703D1*
X2876611Y838999D1*
X2883292Y833292D1*
X2888999Y826611D1*
X2893589Y819120D1*
X2896952Y811003D1*
X2898544Y804767D1*
X2900747Y811492D1*
X2904059Y817992D1*
X2908347Y823894D1*
X2930312Y846062D1*
X3288783Y1204533D1*
X3290448Y1211003D1*
X3293811Y1219120D1*
X3298401Y1226611D1*
X3304108Y1233292D1*
X3310789Y1238999D1*
X3318280Y1243589D1*
X3326397Y1246952D1*
X3334941Y1249003D1*
X3343700Y1249692D1*
X3352459Y1249003D1*
X3361003Y1246952D1*
X3369120Y1243589D1*
X3376611Y1238999D1*
X3383292Y1233292D1*
X3384213Y1232296D1*
X3384208Y1355014D1*
X3380064Y1351123D1*
X3372956Y1345959D1*
X3365127Y1341970D1*
X3356771Y1339255D1*
X3348093Y1337880D1*
X3339307D1*
X3330629Y1339255D1*
X3322273Y1341970D1*
X3314444Y1345959D1*
X3307336Y1351123D1*
X3301123Y1357336D1*
X3295959Y1364444D1*
X3291970Y1372273D1*
X3289255Y1380629D1*
X3287880Y1389307D1*
Y1398093D1*
X3289255Y1406771D1*
X3291970Y1415127D1*
X3295959Y1422956D1*
X3301123Y1430064D1*
X3307336Y1436277D1*
X3314444Y1441441D1*
X3322273Y1445430D1*
X3330629Y1448145D1*
X3339307Y1449520D1*
X3348093D1*
X3356771Y1448145D1*
X3365127Y1445430D1*
X3372956Y1441441D1*
X3380064Y1436277D1*
X3384213Y1432296D1*
X3384208Y1848134D1*
X3304972Y1927548D1*
X3301791Y1931927D1*
X3299333Y1936750D1*
X3297661Y1941897D1*
X3296814Y1947243D1*
X3296708Y2005067D1*
Y2081250D1*
X3291559Y2088157D1*
X3288247Y2094658D1*
X3285992Y2101596D1*
X3284851Y2108802D1*
Y2116097D1*
X3285992Y2123303D1*
X3288247Y2130241D1*
X3291559Y2136741D1*
X3295847Y2142644D1*
X3301006Y2147802D1*
X3306908Y2152090D1*
X3313408Y2155402D1*
X3320347Y2157657D1*
X3327552Y2158798D1*
X3334848D1*
X3342053Y2157657D1*
X3348992Y2155402D1*
X3355492Y2152090D1*
X3361394Y2147802D1*
X3366553Y2142644D1*
X3370841Y2136741D1*
X3374153Y2130241D1*
X3376408Y2123303D1*
X3377549Y2116097D1*
Y2108802D1*
X3376408Y2101596D1*
X3374064Y2094463D1*
X3380176Y2095869D1*
X3387449Y2096441D1*
X3394722Y2095869D1*
X3401816Y2094166D1*
X3408556Y2091374D1*
X3414777Y2087562D1*
X3420324Y2082824D1*
X3425062Y2077277D1*
X3428874Y2071056D1*
X3431666Y2064316D1*
X3433369Y2057222D1*
X3433941Y2049949D1*
X3433369Y2042676D1*
X3431666Y2035582D1*
X3428874Y2028842D1*
X3425062Y2022622D1*
X3421941Y2018823D1*
X3424830Y2011349D1*
X3501177Y1934852D1*
X3504359Y1930473D1*
X3506816Y1925650D1*
X3508488Y1920503D1*
X3509335Y1915157D1*
X3509442Y1857333D1*
Y926748D1*
X3553512Y882667D1*
X3557336Y886277D1*
X3564444Y891441D1*
X3568514Y893697D1*
X3560789Y898401D1*
X3554108Y904108D1*
X3548401Y910789D1*
X3543811Y918280D1*
X3540448Y926397D1*
X3538397Y934941D1*
X3537708Y943700D1*
X3538397Y952459D1*
X3540448Y961003D1*
X3543811Y969120D1*
X3548401Y976611D1*
X3554108Y983292D1*
X3560789Y988999D1*
X3568514Y993697D1*
X3560789Y998401D1*
X3554108Y1004108D1*
X3548401Y1010789D1*
X3543811Y1018280D1*
X3540448Y1026397D1*
X3538397Y1034941D1*
X3537708Y1043700D1*
X3538397Y1052459D1*
X3540448Y1061003D1*
X3543811Y1069120D1*
X3548401Y1076611D1*
X3554108Y1083292D1*
X3560789Y1088999D1*
X3568514Y1093697D1*
X3560789Y1098401D1*
X3554108Y1104108D1*
X3548401Y1110789D1*
X3543811Y1118280D1*
X3540448Y1126397D1*
X3538397Y1134941D1*
X3537708Y1143700D1*
X3538397Y1152459D1*
X3540448Y1161003D1*
X3543811Y1169120D1*
X3548401Y1176611D1*
X3554108Y1183292D1*
X3560789Y1188999D1*
X3568514Y1193697D1*
X3560789Y1198401D1*
X3554108Y1204108D1*
X3548401Y1210789D1*
X3543811Y1218280D1*
X3540448Y1226397D1*
X3538397Y1234941D1*
X3537708Y1243700D1*
X3538397Y1252459D1*
X3540448Y1261003D1*
X3543811Y1269120D1*
X3548401Y1276611D1*
X3554108Y1283292D1*
X3560789Y1288999D1*
X3568514Y1293697D1*
X3560789Y1298401D1*
X3554108Y1304108D1*
X3548401Y1310789D1*
X3543811Y1318280D1*
X3540448Y1326397D1*
X3538397Y1334941D1*
X3537708Y1343700D1*
X3538397Y1352459D1*
X3540448Y1361003D1*
X3543811Y1369120D1*
X3548401Y1376611D1*
X3554108Y1383292D1*
X3559157Y1387712D1*
X3537708Y1387708D1*
Y1499692D1*
X3649692D1*
Y1387708D1*
X3628341D1*
X3633292Y1383292D1*
X3638999Y1376611D1*
X3643589Y1369120D1*
X3646952Y1361003D1*
X3649003Y1352459D1*
X3649692Y1343700D1*
X3649003Y1334941D1*
X3646952Y1326397D1*
X3643589Y1318280D1*
X3638999Y1310789D1*
X3633292Y1304108D1*
X3626611Y1298401D1*
X3618886Y1293703D1*
X3626611Y1288999D1*
X3633292Y1283292D1*
X3638999Y1276611D1*
X3643589Y1269120D1*
X3646952Y1261003D1*
X3649003Y1252459D1*
X3649692Y1243700D1*
X3649003Y1234941D1*
X3646952Y1226397D1*
X3643589Y1218280D1*
X3638999Y1210789D1*
X3633292Y1204108D1*
X3626611Y1198401D1*
X3618886Y1193703D1*
X3626611Y1188999D1*
X3633292Y1183292D1*
X3638999Y1176611D1*
X3643589Y1169120D1*
X3646952Y1161003D1*
X3649003Y1152459D1*
X3649692Y1143700D1*
X3649003Y1134941D1*
X3646952Y1126397D1*
X3643589Y1118280D1*
X3638999Y1110789D1*
X3633292Y1104108D1*
X3626611Y1098401D1*
X3618886Y1093703D1*
X3626611Y1088999D1*
X3633292Y1083292D1*
X3638999Y1076611D1*
X3643589Y1069120D1*
X3646952Y1061003D1*
X3649003Y1052459D1*
X3649692Y1043700D1*
X3649003Y1034941D1*
X3646952Y1026397D1*
X3643589Y1018280D1*
X3638999Y1010789D1*
X3633292Y1004108D1*
X3626611Y998401D1*
X3618886Y993703D1*
X3626611Y988999D1*
X3633292Y983292D1*
X3638999Y976611D1*
X3643589Y969120D1*
X3646952Y961003D1*
X3649003Y952459D1*
X3649692Y943700D1*
X3649003Y934941D1*
X3646952Y926397D1*
X3643589Y918280D1*
X3638999Y910789D1*
X3633292Y904108D1*
X3626611Y898401D1*
X3618886Y893703D1*
X3626611Y888999D1*
X3633292Y883292D1*
X3638999Y876611D1*
X3643589Y869120D1*
X3646494Y862243D1*
X4038738Y1254488D1*
X4040448Y1261003D1*
X4043811Y1269120D1*
X4048401Y1276611D1*
X4054108Y1283292D1*
X4060789Y1288999D1*
X4068280Y1293589D1*
X4076397Y1296952D1*
X4084941Y1299003D1*
X4093700Y1299692D1*
X4102459Y1299003D1*
X4111003Y1296952D1*
X4119120Y1293589D1*
X4126611Y1288999D1*
X4133292Y1283292D1*
X4138999Y1276611D1*
X4143589Y1269120D1*
X4146952Y1261003D1*
X4149003Y1252459D1*
X4149692Y1243700D1*
X4149003Y1234941D1*
X4146952Y1226397D1*
X4143589Y1218280D1*
X4138999Y1210789D1*
X4133292Y1204108D1*
X4126611Y1198401D1*
X4118886Y1193703D1*
X4126611Y1188999D1*
X4133292Y1183292D1*
X4138999Y1176611D1*
X4143589Y1169120D1*
X4146952Y1161003D1*
X4149003Y1152459D1*
X4149692Y1143700D1*
X4149003Y1134941D1*
X4146952Y1126397D1*
X4143589Y1118280D1*
X4138999Y1110789D1*
X4133292Y1104108D1*
X4126611Y1098401D1*
X4118886Y1093703D1*
X4126611Y1088999D1*
X4133292Y1083292D1*
X4138999Y1076611D1*
X4143589Y1069120D1*
X4146952Y1061003D1*
X4149003Y1052459D1*
X4149692Y1043700D1*
X4149003Y1034941D1*
X4146952Y1026397D1*
X4143589Y1018280D1*
X4138999Y1010789D1*
X4133292Y1004108D1*
X4126611Y998401D1*
X4118886Y993703D1*
X4126611Y988999D1*
X4133292Y983292D1*
X4138999Y976611D1*
X4143589Y969120D1*
X4146952Y961003D1*
X4149003Y952459D1*
X4149692Y943700D1*
X4149003Y934941D1*
X4146952Y926397D1*
X4143589Y918280D1*
X4138999Y910789D1*
X4133292Y904108D1*
X4126611Y898401D1*
X4118886Y893703D1*
X4126611Y888999D1*
X4133292Y883292D1*
X4138999Y876611D1*
X4143589Y869120D1*
X4146952Y861003D1*
X4149003Y852459D1*
X4149692Y843700D1*
X4149003Y834941D1*
X4146952Y826397D1*
X4143589Y818280D1*
X4138999Y810789D1*
X4133292Y804108D1*
X4126611Y798401D1*
X4119120Y793811D1*
X4111003Y790448D1*
X4102459Y788397D1*
X4093700Y787708D1*
X4084941Y788397D1*
X4076397Y790448D1*
X4068280Y793811D1*
X4060789Y798401D1*
X4054108Y804108D1*
X4048401Y810789D1*
X4043811Y818280D1*
X4040906Y825157D1*
X4015209Y799459D1*
X4015192Y574939D1*
X4018614Y569132D1*
X4021978Y561011D1*
X4024030Y552463D1*
X4024720Y543700D1*
X4024030Y534937D1*
X4021978Y526389D1*
X4018614Y518268D1*
X4014021Y510772D1*
X4008312Y504088D1*
X4001628Y498379D1*
X3994132Y493786D1*
X3986011Y490422D1*
X3977463Y488370D1*
X3968700Y487680D1*
X3959937Y488370D1*
X3951389Y490422D1*
X3943268Y493786D1*
X3935772Y498379D1*
X3929088Y504088D1*
X3923379Y510772D1*
X3918707Y518439D1*
X3914021Y510772D1*
X3908312Y504088D1*
X3901628Y498379D1*
X3894132Y493786D1*
X3886011Y490422D1*
X3877463Y488370D1*
X3868700Y487680D1*
X3859937Y488370D1*
X3851389Y490422D1*
X3843268Y493786D1*
X3835772Y498379D1*
X3829088Y504088D1*
X3823379Y510772D1*
X3818707Y518439D1*
X3814021Y510772D1*
X3808312Y504088D1*
X3801628Y498379D1*
X3794132Y493786D1*
X3786011Y490422D1*
X3777463Y488370D1*
X3768700Y487680D1*
X3759937Y488370D1*
X3751389Y490422D1*
X3743268Y493786D1*
X3735772Y498379D1*
X3729088Y504088D1*
X3724730Y509059D1*
X3724720Y487680D1*
X3612680D1*
Y599720D1*
X3622190D1*
X3622208Y695526D1*
X3615127Y691970D1*
X3606771Y689255D1*
X3598093Y687880D1*
X3589307D1*
X3580629Y689255D1*
X3572273Y691970D1*
X3564444Y695959D1*
X3557336Y701123D1*
X3551123Y707336D1*
X3549645Y709211D1*
X3515994Y709314D1*
X3510648Y710161D1*
X3505500Y711833D1*
X3500678Y714291D1*
X3496299Y717472D1*
X3455336Y758285D1*
X3392465Y821307D1*
X3395430Y815127D1*
X3398145Y806771D1*
X3399520Y798093D1*
Y789307D1*
X3398145Y780629D1*
X3395430Y772273D1*
X3391441Y764444D1*
X3386277Y757336D1*
X3380064Y751123D1*
X3372956Y745959D1*
X3365127Y741970D1*
X3356771Y739255D1*
X3348093Y737880D1*
X3339307D1*
X3330629Y739255D1*
X3322273Y741970D1*
X3314444Y745959D1*
X3307336Y751123D1*
X3301123Y757336D1*
X3295959Y764444D1*
X3291970Y772273D1*
X3290906Y775157D1*
X3290192Y766141D1*
Y574986D1*
X3293614Y569132D1*
X3296978Y561011D1*
X3299030Y552463D1*
X3299720Y543700D1*
X3299030Y534937D1*
X3296978Y526389D1*
X3293614Y518268D1*
X3289021Y510772D1*
X3283312Y504088D1*
X3276628Y498379D1*
X3269132Y493786D1*
X3261011Y490422D1*
X3252463Y488370D1*
X3243700Y487680D1*
X3234937Y488370D1*
X3226389Y490422D1*
X3218268Y493786D1*
X3210772Y498379D1*
X3204088Y504088D1*
X3198379Y510772D1*
X3193707Y518439D1*
X3189021Y510772D1*
X3183312Y504088D1*
X3176628Y498379D1*
X3169132Y493786D1*
X3161011Y490422D1*
X3152463Y488370D1*
X3143700Y487680D1*
X3134937Y488370D1*
X3126389Y490422D1*
X3118268Y493786D1*
X3110772Y498379D1*
X3104088Y504088D1*
X3098379Y510772D1*
X3093707Y518439D1*
X3089021Y510772D1*
X3083312Y504088D1*
X3076628Y498379D1*
X3069132Y493786D1*
X3061011Y490422D1*
X3052463Y488370D1*
X3043700Y487680D1*
X3034937Y488370D1*
X3026389Y490422D1*
X3018268Y493786D1*
X3010772Y498379D1*
X3004088Y504088D1*
X2999730Y509059D1*
X2999720Y487680D1*
X2887680D1*
Y599720D1*
X2896867D1*
X3524720Y2249930D2*
Y2168931D1*
X3412680D1*
Y2185976D1*
X3285009Y2185958D1*
X3257799Y2158765D1*
X3257792Y2143839D1*
X3260125Y2139807D1*
X3262917Y2133067D1*
X3264620Y2125973D1*
X3265192Y2118700D1*
X3264620Y2111427D1*
X3262917Y2104333D1*
X3260125Y2097593D1*
X3257889Y2093732D1*
X3261653Y2086492D1*
X3263908Y2079553D1*
X3265049Y2072348D1*
Y2065052D1*
X3263908Y2057847D1*
X3261653Y2050908D1*
X3258341Y2044408D1*
X3254053Y2038506D1*
X3248894Y2033347D1*
X3242992Y2029059D1*
X3236492Y2025747D1*
X3229553Y2023492D1*
X3222348Y2022351D1*
X3215052D1*
X3207847Y2023492D1*
X3200908Y2025747D1*
X3194408Y2029059D1*
X3188506Y2033347D1*
X3184034Y2037762D1*
X2606864D1*
X2522881Y1953775D1*
X2522328Y1945981D1*
X2520625Y1938887D1*
X2517833Y1932147D1*
X2514022Y1925926D1*
X2509284Y1920379D1*
X2503736Y1915641D1*
X2497516Y1911829D1*
X2490776Y1909037D1*
X2483682Y1907334D1*
X2476409Y1906762D1*
X2469136Y1907334D1*
X2462042Y1909037D1*
X2455302Y1911829D1*
X2449081Y1915641D1*
X2443534Y1920379D1*
X2438796Y1925926D1*
X2434984Y1932147D1*
X2432192Y1938887D1*
X2430489Y1945981D1*
X2429917Y1953254D1*
X2430489Y1960527D1*
X2432192Y1967621D1*
X2434984Y1974361D1*
X2438796Y1980581D1*
X2443534Y1986129D1*
X2449081Y1990867D1*
X2455302Y1994679D1*
X2462042Y1997470D1*
X2469136Y1999174D1*
X2476936Y1999725D1*
X2572307Y2094961D1*
X2576431Y2097958D1*
X2580974Y2100273D1*
X2585823Y2101848D1*
X2590859Y2102646D1*
X2657713Y2102746D1*
X3175055D1*
X3173492Y2107847D1*
X3172351Y2115052D1*
Y2122348D1*
X3173492Y2129553D1*
X3175747Y2136492D1*
X3179059Y2142992D1*
X3179606Y2143810D1*
X3179729Y2178018D1*
X3180688Y2184076D1*
X3182584Y2189910D1*
X3185369Y2195376D1*
X3188974Y2200339D1*
X3223537Y2235071D1*
X3238421Y2249956D1*
X3154245Y2250105D1*
X3151416Y2250902D1*
X3148853Y2252338D1*
X3146695Y2254333D1*
X3145062Y2256776D1*
X3144045Y2259533D1*
X3143700Y2262455D1*
Y2477720D1*
X3139592Y2483768D1*
X3135130Y2494084D1*
X3133556Y2498934D1*
X3131919Y2510058D1*
X3131644Y2523464D1*
X3131746Y2772731D1*
X3133367Y2784673D1*
X3134816Y2789573D1*
X3139193Y2799919D1*
X3141861Y2804276D1*
X3143699Y2806690D1*
X3143700Y3256191D1*
X425885Y3255220D1*
Y445604D1*
X4278794Y445570D1*
X4274979Y2087477D1*
X3592719Y2087488D1*
X3589837Y2088062D1*
X3587169Y2089292D1*
X3584861Y2091111D1*
X3583042Y2093419D1*
X3581812Y2096087D1*
X3581238Y2098969D1*
X3581200Y2249982D1*
X3524695Y2249950D1*
X564415Y2318503D2*
X563139Y2310444D1*
X560617Y2302683D1*
X556912Y2295413D1*
X552116Y2288811D1*
X546346Y2283041D1*
X539745Y2278245D1*
X532474Y2274540D1*
X524713Y2272019D1*
X516654Y2270742D1*
X508494D1*
X500435Y2272019D1*
X492674Y2274540D1*
X485403Y2278245D1*
X478802Y2283041D1*
X473032Y2288811D1*
X468236Y2295413D1*
X464531Y2302683D1*
X462010Y2310444D1*
X460733Y2318503D1*
Y2326663D1*
X462010Y2334723D1*
X464531Y2342483D1*
X468236Y2349754D1*
X473032Y2356355D1*
X478802Y2362125D1*
X485403Y2366922D1*
X492674Y2370626D1*
X500435Y2373148D1*
X508494Y2374424D1*
X516654D1*
X524713Y2373148D1*
X532474Y2370626D1*
X539745Y2366922D1*
X546346Y2362125D1*
X552116Y2356355D1*
X556912Y2349754D1*
X560617Y2342483D1*
X563139Y2334723D1*
X564415Y2326663D1*
Y2318503D1*
Y2003543D2*
X563139Y1995483D1*
X560617Y1987723D1*
X556912Y1980452D1*
X552116Y1973850D1*
X546346Y1968080D1*
X539745Y1963284D1*
X532474Y1959580D1*
X524713Y1957058D1*
X516654Y1955782D1*
X508494D1*
X500435Y1957058D1*
X492674Y1959580D1*
X485403Y1963284D1*
X478802Y1968080D1*
X473032Y1973850D1*
X468236Y1980452D1*
X464531Y1987723D1*
X462010Y1995483D1*
X460733Y2003543D1*
Y2011703D1*
X462010Y2019762D1*
X464531Y2027523D1*
X468236Y2034793D1*
X473032Y2041395D1*
X478802Y2047165D1*
X485403Y2051961D1*
X492674Y2055666D1*
X500435Y2058187D1*
X508494Y2059464D1*
X516654D1*
X524713Y2058187D1*
X532474Y2055666D1*
X539745Y2051961D1*
X546346Y2047165D1*
X552116Y2041395D1*
X556912Y2034793D1*
X560617Y2027523D1*
X563139Y2019762D1*
X564415Y2011703D1*
Y2003543D1*
X2546867Y3099720D2*
X2649720D1*
Y3078368D1*
X2654088Y3083312D1*
X2660772Y3089021D1*
X2668268Y3093614D1*
X2676389Y3096978D1*
X2684937Y3099030D1*
X2693700Y3099720D1*
X2702463Y3099030D1*
X2711011Y3096978D1*
X2719132Y3093614D1*
X2726628Y3089021D1*
X2733312Y3083312D1*
X2739021Y3076628D1*
X2743693Y3068961D1*
X2748379Y3076628D1*
X2754088Y3083312D1*
X2760772Y3089021D1*
X2768268Y3093614D1*
X2776389Y3096978D1*
X2784937Y3099030D1*
X2793700Y3099720D1*
X2802463Y3099030D1*
X2811011Y3096978D1*
X2819132Y3093614D1*
X2826628Y3089021D1*
X2833312Y3083312D1*
X2839021Y3076628D1*
X2843614Y3069132D1*
X2846978Y3061011D1*
X2849030Y3052463D1*
X2849720Y3043700D1*
X2849030Y3034937D1*
X2846978Y3026389D1*
X2843614Y3018268D1*
X2839021Y3010772D1*
X2833312Y3004088D1*
X2826628Y2998379D1*
X2819132Y2993786D1*
X2811011Y2990422D1*
X2802463Y2988370D1*
X2793700Y2987680D1*
X2784937Y2988370D1*
X2776389Y2990422D1*
X2768268Y2993786D1*
X2760772Y2998379D1*
X2754088Y3004088D1*
X2748379Y3010772D1*
X2743707Y3018439D1*
X2739021Y3010772D1*
X2733312Y3004088D1*
X2726628Y2998379D1*
X2719132Y2993786D1*
X2711011Y2990422D1*
X2702463Y2988370D1*
X2693700Y2987680D1*
X2684937Y2988370D1*
X2676389Y2990422D1*
X2668268Y2993786D1*
X2660772Y2998379D1*
X2654088Y3004088D1*
X2649730Y3009059D1*
X2649720Y2987680D1*
X2626216D1*
X2626192Y2214452D1*
X2631313Y2208527D1*
X2635125Y2202307D1*
X2637917Y2195567D1*
X2639620Y2188473D1*
X2640192Y2181200D1*
X2639620Y2173927D1*
X2637917Y2166833D1*
X2635125Y2160093D1*
X2631313Y2153873D1*
X2626575Y2148325D1*
X2621027Y2143587D1*
X2614807Y2139775D1*
X2608067Y2136983D1*
X2600973Y2135280D1*
X2593700Y2134708D1*
X2586427Y2135280D1*
X2579333Y2136983D1*
X2572593Y2139775D1*
X2566373Y2143587D1*
X2560825Y2148325D1*
X2556087Y2153873D1*
X2552275Y2160093D1*
X2549483Y2166833D1*
X2547780Y2173927D1*
X2547208Y2181200D1*
X2547780Y2188473D1*
X2549483Y2195567D1*
X2552275Y2202307D1*
X2556087Y2208527D1*
X2561213Y2214433D1*
X2561208Y2987697D1*
X2537680Y2987680D1*
Y3099720D1*
X2546867D1*
X4229925Y1715064D2*
X4229127Y1708319D1*
X4227802Y1701658D1*
X4225959Y1695122D1*
X4223608Y1688751D1*
X4220765Y1682583D1*
X4217447Y1676658D1*
X4213674Y1671011D1*
X4209469Y1665677D1*
X4204859Y1660690D1*
X4199872Y1656080D1*
X4194539Y1651876D1*
X4188892Y1648103D1*
X4182967Y1644785D1*
X4176799Y1641941D1*
X4170428Y1639591D1*
X4163891Y1637747D1*
X4157230Y1636422D1*
X4150486Y1635624D1*
X4143700Y1635357D1*
X4136914Y1635624D1*
X4130170Y1636422D1*
X4123509Y1637747D1*
X4116972Y1639591D1*
X4110601Y1641941D1*
X4104433Y1644785D1*
X4098508Y1648103D1*
X4092861Y1651876D1*
X4087528Y1656080D1*
X4082541Y1660690D1*
X4077931Y1665677D1*
X4073726Y1671011D1*
X4069953Y1676658D1*
X4066635Y1682583D1*
X4063792Y1688751D1*
X4061441Y1695122D1*
X4059598Y1701658D1*
X4058273Y1708319D1*
X4057475Y1715064D1*
X4057208Y1721850D1*
X4057475Y1728636D1*
X4058273Y1735380D1*
X4059598Y1742041D1*
X4061441Y1748577D1*
X4063792Y1754949D1*
X4066635Y1761116D1*
X4069953Y1767042D1*
X4073726Y1772688D1*
X4077931Y1778022D1*
X4082541Y1783009D1*
X4087528Y1787619D1*
X4092861Y1791823D1*
X4098508Y1795596D1*
X4104433Y1798915D1*
X4110601Y1801758D1*
X4116972Y1804109D1*
X4123509Y1805952D1*
X4130170Y1807277D1*
X4136914Y1808075D1*
X4143700Y1808342D1*
X4150486Y1808075D1*
X4157230Y1807277D1*
X4163891Y1805952D1*
X4170428Y1804109D1*
X4176799Y1801758D1*
X4182967Y1798915D1*
X4188892Y1795596D1*
X4194539Y1791823D1*
X4199872Y1787619D1*
X4204859Y1783009D1*
X4209469Y1778022D1*
X4213674Y1772688D1*
X4217447Y1767042D1*
X4220765Y1761116D1*
X4223608Y1754949D1*
X4225959Y1748577D1*
X4227802Y1742041D1*
X4229127Y1735380D1*
X4229925Y1728636D1*
X4230192Y1721850D1*
X4229925Y1715064D1*
X1249520Y1389307D2*
X1248145Y1380629D1*
X1245430Y1372273D1*
X1241441Y1364444D1*
X1236277Y1357336D1*
X1230064Y1351123D1*
X1222956Y1345959D1*
X1215127Y1341970D1*
X1206771Y1339255D1*
X1198093Y1337880D1*
X1189307D1*
X1180629Y1339255D1*
X1172273Y1341970D1*
X1164444Y1345959D1*
X1157336Y1351123D1*
X1151123Y1357336D1*
X1145959Y1364444D1*
X1141970Y1372273D1*
X1139255Y1380629D1*
X1137880Y1389307D1*
Y1398093D1*
X1139255Y1406771D1*
X1141970Y1415127D1*
X1145959Y1422956D1*
X1151123Y1430064D1*
X1157336Y1436277D1*
X1164444Y1441441D1*
X1172273Y1445430D1*
X1180629Y1448145D1*
X1189307Y1449520D1*
X1198093D1*
X1206771Y1448145D1*
X1215127Y1445430D1*
X1222956Y1441441D1*
X1230064Y1436277D1*
X1236277Y1430064D1*
X1241441Y1422956D1*
X1245430Y1415127D1*
X1248145Y1406771D1*
X1249520Y1398093D1*
Y1389307D1*
X1949520D2*
X1948145Y1380629D1*
X1945430Y1372273D1*
X1941441Y1364444D1*
X1936277Y1357336D1*
X1930064Y1351123D1*
X1922956Y1345959D1*
X1915127Y1341970D1*
X1906771Y1339255D1*
X1898093Y1337880D1*
X1889307D1*
X1880629Y1339255D1*
X1872273Y1341970D1*
X1864444Y1345959D1*
X1857336Y1351123D1*
X1851123Y1357336D1*
X1845959Y1364444D1*
X1841970Y1372273D1*
X1839255Y1380629D1*
X1837880Y1389307D1*
Y1398093D1*
X1839255Y1406771D1*
X1841970Y1415127D1*
X1845959Y1422956D1*
X1851123Y1430064D1*
X1857336Y1436277D1*
X1864444Y1441441D1*
X1872273Y1445430D1*
X1880629Y1448145D1*
X1889307Y1449520D1*
X1898093D1*
X1906771Y1448145D1*
X1915127Y1445430D1*
X1922956Y1441441D1*
X1930064Y1436277D1*
X1936277Y1430064D1*
X1941441Y1422956D1*
X1945430Y1415127D1*
X1948145Y1406771D1*
X1949520Y1398093D1*
Y1389307D1*
X2699520D2*
X2698145Y1380629D1*
X2695430Y1372273D1*
X2691441Y1364444D1*
X2686277Y1357336D1*
X2680064Y1351123D1*
X2672956Y1345959D1*
X2665127Y1341970D1*
X2656771Y1339255D1*
X2648093Y1337880D1*
X2639307D1*
X2630629Y1339255D1*
X2622273Y1341970D1*
X2614444Y1345959D1*
X2607336Y1351123D1*
X2601123Y1357336D1*
X2595959Y1364444D1*
X2591970Y1372273D1*
X2589255Y1380629D1*
X2587880Y1389307D1*
Y1398093D1*
X2589255Y1406771D1*
X2591970Y1415127D1*
X2595959Y1422956D1*
X2601123Y1430064D1*
X2607336Y1436277D1*
X2614444Y1441441D1*
X2622273Y1445430D1*
X2630629Y1448145D1*
X2639307Y1449520D1*
X2648093D1*
X2656771Y1448145D1*
X2665127Y1445430D1*
X2672956Y1441441D1*
X2680064Y1436277D1*
X2686277Y1430064D1*
X2691441Y1422956D1*
X2695430Y1415127D1*
X2698145Y1406771D1*
X2699520Y1398093D1*
Y1389307D1*
X2898544Y782633D2*
X2896952Y776397D1*
X2893589Y768280D1*
X2888999Y760789D1*
X2883292Y754108D1*
X2876611Y748401D1*
X2868886Y743703D1*
X2876611Y738999D1*
X2883292Y733292D1*
X2888999Y726611D1*
X2893589Y719120D1*
X2896952Y711003D1*
X2898544Y704767D1*
X2900747Y711492D1*
X2904059Y717992D1*
X2908347Y723894D1*
X2932774Y748523D1*
X2925908Y750747D1*
X2919408Y754059D1*
X2913506Y758347D1*
X2908347Y763506D1*
X2904059Y769408D1*
X2900747Y775908D1*
X2899479Y779347D1*
X3368886Y843697D2*
X3376611Y838999D1*
X3383292Y833292D1*
X3388159Y827677D1*
X3385896Y833041D1*
X3384632Y838304D1*
X3384208Y843700D1*
Y855075D1*
X3380064Y851123D1*
X3372956Y845959D1*
X3368886Y843703D1*
X4149520Y1439307D2*
X4148145Y1430629D1*
X4145430Y1422273D1*
X4141441Y1414444D1*
X4136277Y1407336D1*
X4130064Y1401123D1*
X4122956Y1395959D1*
X4115127Y1391970D1*
X4106771Y1389255D1*
X4098093Y1387880D1*
X4089307D1*
X4080629Y1389255D1*
X4072273Y1391970D1*
X4064444Y1395959D1*
X4057336Y1401123D1*
X4051123Y1407336D1*
X4045959Y1414444D1*
X4041970Y1422273D1*
X4039255Y1430629D1*
X4037880Y1439307D1*
Y1448093D1*
X4039255Y1456771D1*
X4041970Y1465127D1*
X4045959Y1472956D1*
X4051123Y1480064D1*
X4057336Y1486277D1*
X4064444Y1491441D1*
X4072273Y1495430D1*
X4080629Y1498145D1*
X4089307Y1499520D1*
X4098093D1*
X4106771Y1498145D1*
X4115127Y1495430D1*
X4122956Y1491441D1*
X4130064Y1486277D1*
X4136277Y1480064D1*
X4141441Y1472956D1*
X4145430Y1465127D1*
X4148145Y1456771D1*
X4149520Y1448093D1*
Y1439307D1*
X3265049Y1652552D2*
X3263908Y1645347D1*
X3261653Y1638408D1*
X3258341Y1631908D1*
X3254053Y1626006D1*
X3248894Y1620847D1*
X3242992Y1616559D1*
X3236492Y1613247D1*
X3229553Y1610992D1*
X3222348Y1609851D1*
X3215052D1*
X3207847Y1610992D1*
X3200908Y1613247D1*
X3194408Y1616559D1*
X3188506Y1620847D1*
X3183347Y1626006D1*
X3179059Y1631908D1*
X3175747Y1638408D1*
X3173492Y1645347D1*
X3172351Y1652552D1*
Y1659848D1*
X3173492Y1667053D1*
X3175747Y1673992D1*
X3179059Y1680492D1*
X3183347Y1686394D1*
X3188506Y1691553D1*
X3194408Y1695841D1*
X3200908Y1699153D1*
X3207847Y1701408D1*
X3215052Y1702549D1*
X3222348D1*
X3229553Y1701408D1*
X3236492Y1699153D1*
X3242992Y1695841D1*
X3248894Y1691553D1*
X3254053Y1686394D1*
X3258341Y1680492D1*
X3261653Y1673992D1*
X3263908Y1667053D1*
X3265049Y1659848D1*
Y1652552D1*
X1988696Y2272935D2*
Y2177053D1*
X1993813Y2171126D1*
X1997625Y2164905D1*
X2000417Y2158165D1*
X2002120Y2151071D1*
X2002692Y2143798D1*
X2002120Y2136525D1*
X2000417Y2129432D1*
X1997625Y2122691D1*
X1993813Y2116471D1*
X1989075Y2110924D1*
X1983527Y2106186D1*
X1977307Y2102374D1*
X1970567Y2099582D1*
X1963473Y2097879D1*
X1956200Y2097306D1*
X1948927Y2097879D1*
X1941833Y2099582D1*
X1935093Y2102374D1*
X1928873Y2106186D1*
X1923325Y2110924D1*
X1918587Y2116471D1*
X1914775Y2122691D1*
X1911983Y2129432D1*
X1910280Y2136525D1*
X1909708Y2143798D1*
X1910280Y2151071D1*
X1911983Y2158165D1*
X1914775Y2164905D1*
X1918587Y2171126D1*
X1923713Y2177031D1*
X1923704Y2272946D1*
X1918587Y2278873D1*
X1914775Y2285093D1*
X1911983Y2291833D1*
X1910280Y2298927D1*
X1909708Y2306200D1*
X1910280Y2313473D1*
X1911983Y2320567D1*
X1914775Y2327307D1*
X1918587Y2333527D1*
X1923325Y2339075D1*
X1928873Y2343813D1*
X1935093Y2347625D1*
X1941833Y2350417D1*
X1948927Y2352120D1*
X1956200Y2352692D1*
X1963473Y2352120D1*
X1970567Y2350417D1*
X1977307Y2347625D1*
X1983527Y2343813D1*
X1989075Y2339075D1*
X1993813Y2333527D1*
X1997625Y2327307D1*
X2000417Y2320567D1*
X2002120Y2313473D1*
X2002692Y2306200D1*
X2002120Y2298927D1*
X2000417Y2291833D1*
X1997625Y2285093D1*
X1993813Y2278873D1*
X1988687Y2272967D1*
X1713696Y2073132D2*
Y1826967D1*
X1718813Y1821027D1*
X1722625Y1814807D1*
X1725417Y1808067D1*
X1727120Y1800973D1*
X1727692Y1793700D1*
X1727120Y1786427D1*
X1725417Y1779333D1*
X1722625Y1772593D1*
X1718813Y1766373D1*
X1714075Y1760825D1*
X1708527Y1756087D1*
X1702307Y1752275D1*
X1695567Y1749483D1*
X1688473Y1747780D1*
X1681200Y1747208D1*
X1673927Y1747780D1*
X1666833Y1749483D1*
X1660093Y1752275D1*
X1653873Y1756087D1*
X1648325Y1760825D1*
X1643587Y1766373D1*
X1639775Y1772593D1*
X1636983Y1779333D1*
X1635280Y1786427D1*
X1634708Y1793700D1*
X1635280Y1800973D1*
X1636983Y1808067D1*
X1639775Y1814807D1*
X1643587Y1821027D1*
X1648713Y1826933D1*
X1648704Y2073130D1*
X1643587Y2079069D1*
X1639775Y2085290D1*
X1636983Y2092030D1*
X1635280Y2099124D1*
X1634708Y2106397D1*
X1635280Y2113670D1*
X1636983Y2120764D1*
X1639775Y2127504D1*
X1643587Y2133724D1*
X1648325Y2139272D1*
X1653873Y2144010D1*
X1660093Y2147822D1*
X1666833Y2150613D1*
X1673927Y2152317D1*
X1681200Y2152889D1*
X1688473Y2152317D1*
X1695567Y2150613D1*
X1702307Y2147822D1*
X1708527Y2144010D1*
X1714075Y2139272D1*
X1718813Y2133724D1*
X1722625Y2127504D1*
X1725417Y2120764D1*
X1727120Y2113670D1*
X1727692Y2106397D1*
X1727120Y2099124D1*
X1725417Y2092030D1*
X1722625Y2085290D1*
X1718813Y2079069D1*
X1713687Y2073164D1*
D38*
X1493700Y3043700D3*
D39*
X1593700D3*
X1693700D3*
X1793700D3*
X1893700D3*
X1993700D3*
X2093700D3*
X2193700D3*
D38*
X793700Y543700D3*
D39*
X893700D3*
X993700D3*
X1093700D3*
D38*
X793700Y3043700D3*
D39*
Y3143700D3*
X893700Y3043700D3*
Y3143700D3*
X993700Y3043700D3*
Y3143700D3*
X1093700Y3043700D3*
Y3143700D3*
X1193700Y3043700D3*
Y3143700D3*
D38*
X1493700Y543700D3*
D39*
X1593700D3*
X1693700D3*
X1793700D3*
D38*
X493700Y2693700D3*
D39*
X593700D3*
X693700D3*
X793700D3*
X893700D3*
X993700D3*
X1093700D3*
X1193700D3*
X1293700D3*
X1393700D3*
X1493700D3*
X1593700D3*
X1693700D3*
X1793700D3*
X1893700D3*
X1993700D3*
X2093700D3*
X2193700D3*
X2293700D3*
D38*
X2243700Y543700D3*
D39*
X2343700D3*
X2443700D3*
X2543700D3*
D38*
X2943700D3*
D39*
X3043700D3*
X3143700D3*
X3243700D3*
D38*
X3468700Y2224951D3*
D39*
Y2124951D3*
D38*
X3668700Y543700D3*
D39*
X3768700D3*
X3868700D3*
X3968700D3*
D38*
X2593700Y3043700D3*
D39*
X2693700D3*
X2793700D3*
X2893700D3*
D44*
X3284645Y2645570D3*
D45*
X3363385Y2409350D3*
D44*
Y2881791D3*
X3843700Y2409350D3*
Y2881791D3*
D47*
X531495Y531495D3*
X4192913D3*
X531495Y3169291D3*
X4192913D3*
D50*
X4206200Y2737450D3*
D51*
Y2540600D3*
D50*
X4143700Y1918700D3*
D51*
Y1721850D3*
D26*
X493700Y2593700D3*
X593700D3*
X693700D3*
X793700D3*
X893700D3*
X993700D3*
X1093700D3*
X1193700D3*
X1293700D3*
X1393700D3*
X1493700D3*
X1593700D3*
X1693700D3*
X1793700D3*
X1893700D3*
X1993700D3*
X2093700D3*
X2193700D3*
X2293700D3*
X493700Y1693700D3*
X593700D3*
X693700D3*
X793700D3*
X893700D3*
X993700D3*
X1093700D3*
X1193700D3*
X1293700D3*
X1393700D3*
X1493700D3*
X1593700D3*
X1693700D3*
X1793700D3*
X1893700D3*
X1993700D3*
X2093700D3*
X2193700D3*
X2293700D3*
D52*
X693700Y1393700D3*
D53*
Y1293700D3*
Y1193700D3*
Y1093700D3*
Y993700D3*
Y893700D3*
Y793700D3*
Y693700D3*
X1193700D3*
Y793700D3*
Y893700D3*
Y993700D3*
Y1093700D3*
Y1193700D3*
Y1293700D3*
Y1393700D3*
D52*
X1393700D3*
D53*
Y1293700D3*
Y1193700D3*
Y1093700D3*
Y993700D3*
Y893700D3*
Y793700D3*
Y693700D3*
X1893700D3*
Y793700D3*
Y893700D3*
Y993700D3*
Y1093700D3*
Y1193700D3*
Y1293700D3*
Y1393700D3*
D52*
X2143700D3*
D53*
Y1293700D3*
Y1193700D3*
Y1093700D3*
Y993700D3*
Y893700D3*
Y793700D3*
Y693700D3*
X2643700D3*
Y793700D3*
Y893700D3*
Y993700D3*
Y1093700D3*
Y1193700D3*
Y1293700D3*
Y1393700D3*
D52*
X2843700D3*
D53*
Y1293700D3*
Y1193700D3*
Y1093700D3*
Y993700D3*
Y893700D3*
Y793700D3*
Y693700D3*
X3343700D3*
Y793700D3*
Y893700D3*
Y993700D3*
Y1093700D3*
Y1193700D3*
Y1293700D3*
Y1393700D3*
D52*
X3593700Y1443700D3*
D53*
Y1343700D3*
Y1243700D3*
Y1143700D3*
Y1043700D3*
Y943700D3*
Y843700D3*
Y743700D3*
X4093700D3*
Y843700D3*
Y943700D3*
Y1043700D3*
Y1143700D3*
Y1243700D3*
Y1343700D3*
Y1443700D3*
M02*
