G04 DipTrace 3.3.1.3*
G04 BottomSilk.gbr*
%MOIN*%
G04 #@! TF.FileFunction,Legend,Bot*
G04 #@! TF.Part,Single*
%ADD10C,0.009843*%
%ADD12C,0.003*%
%ADD27C,0.008*%
%ADD124C,0.006176*%
%ADD125C,0.015439*%
%FSLAX26Y26*%
G04*
G70*
G90*
G75*
G01*
G04 BotSilk*
%LPD*%
X3149950Y3268700D2*
D10*
X4293700D1*
Y2306200D1*
X3149950D1*
Y3268700D1*
X2393700Y2743700D2*
D27*
X3106200D1*
Y2418700D1*
X2393700D1*
Y2743700D1*
X3349200Y3234450D2*
D12*
X3370200D1*
X3346212Y3231450D2*
X3372163D1*
X3343317Y3228450D2*
X3374164D1*
X3340711Y3225450D2*
X3376202D1*
X3338535Y3222450D2*
X3378084D1*
X3336687Y3219450D2*
X3379800D1*
X3334940Y3216450D2*
X3381492D1*
X3333093Y3213450D2*
X3383318D1*
X3331126Y3210450D2*
X3385278D1*
X3329187Y3207450D2*
X3354725D1*
X3361778D2*
X3387214D1*
X3327209Y3204450D2*
X3353864D1*
X3362918D2*
X3389191D1*
X3325186Y3201450D2*
X3352599D1*
X3364519D2*
X3391214D1*
X3323311Y3198450D2*
X3350961D1*
X3366208D2*
X3393089D1*
X3321598Y3195450D2*
X3349089D1*
X3367846D2*
X3394802D1*
X3319907Y3192450D2*
X3347275D1*
X3369508D2*
X3396493D1*
X3318081Y3189450D2*
X3345586D1*
X3371324D2*
X3398319D1*
X3316122Y3186450D2*
X3343903D1*
X3373280D2*
X3400278D1*
X3314186Y3183450D2*
X3342080D1*
X3375215D2*
X3402214D1*
X3312209Y3180450D2*
X3340133D1*
X3377192D2*
X3404191D1*
X3310186Y3177450D2*
X3338291D1*
X3379214D2*
X3406214D1*
X3308311Y3174450D2*
X3336591D1*
X3381089D2*
X3408089D1*
X3306598Y3171450D2*
X3334905D1*
X3382802D2*
X3409802D1*
X3304907Y3168450D2*
X3333080D1*
X3384493D2*
X3411493D1*
X3303081Y3165450D2*
X3331121D1*
X3386319D2*
X3413319D1*
X3301134Y3162450D2*
X3329185D1*
X3388278D2*
X3415278D1*
X3299291Y3159450D2*
X3327209D1*
X3346200D2*
X3382200D1*
X3390214D2*
X3417214D1*
X3297591Y3156450D2*
X3325186D1*
X3344803D2*
X3380352D1*
X3392191D2*
X3419191D1*
X3295905Y3153450D2*
X3323311D1*
X3343836D2*
X3378734D1*
X3394214D2*
X3421214D1*
X3294080Y3150450D2*
X3321598D1*
X3343018D2*
X3377416D1*
X3396089D2*
X3423089D1*
X3292121Y3147450D2*
X3319907D1*
X3342094D2*
X3376303D1*
X3397802D2*
X3424802D1*
X3290185Y3144450D2*
X3318081D1*
X3341142D2*
X3375122D1*
X3399493D2*
X3426493D1*
X3288209Y3141450D2*
X3316122D1*
X3340206D2*
X3373802D1*
X3401319D2*
X3428319D1*
X3286186Y3138450D2*
X3314186D1*
X3339187D2*
X3372391D1*
X3403278D2*
X3430278D1*
X3284311Y3135450D2*
X3312209D1*
X3338182D2*
X3370926D1*
X3405214D2*
X3432214D1*
X3282598Y3132450D2*
X3310186D1*
X3337222D2*
X3369443D1*
X3407191D2*
X3434191D1*
X3280907Y3129450D2*
X3308311D1*
X3336205D2*
X3367958D1*
X3409214D2*
X3436214D1*
X3279081Y3126450D2*
X3306598D1*
X3335289D2*
X3366556D1*
X3411089D2*
X3438089D1*
X3277122Y3123450D2*
X3304907D1*
X3334605D2*
X3365343D1*
X3412802D2*
X3439802D1*
X3275174Y3120450D2*
X3303081D1*
X3333924D2*
X3364275D1*
X3414493D2*
X3441504D1*
X3273103Y3117450D2*
X3301122D1*
X3333058D2*
X3363112D1*
X3416319D2*
X3443424D1*
X3270792Y3114450D2*
X3299186D1*
X3332128D2*
X3361798D1*
X3418278D2*
X3445661D1*
X3268487Y3111450D2*
X3297209D1*
X3331202D2*
X3360390D1*
X3420214D2*
X3447945D1*
X3266447Y3108450D2*
X3295186D1*
X3330197D2*
X3358937D1*
X3422191D2*
X3450066D1*
X3264654Y3105450D2*
X3293311D1*
X3329287D2*
X3357548D1*
X3391200D2*
X3394200D1*
X3424214D2*
X3452131D1*
X3262928Y3102450D2*
X3291598D1*
X3328604D2*
X3356340D1*
X3385086D2*
X3393736D1*
X3426089D2*
X3454203D1*
X3261089Y3099450D2*
X3289907D1*
X3327923D2*
X3355274D1*
X3378713D2*
X3392981D1*
X3427802D2*
X3456186D1*
X3259136Y3096450D2*
X3288081D1*
X3327058D2*
X3354102D1*
X3372108D2*
X3392099D1*
X3429504D2*
X3458181D1*
X3257292Y3093450D2*
X3286122D1*
X3326128D2*
X3352712D1*
X3365794D2*
X3391191D1*
X3431424D2*
X3460210D1*
X3255591Y3090450D2*
X3284186D1*
X3325202D2*
X3351055D1*
X3360251D2*
X3390194D1*
X3433661D2*
X3462088D1*
X3253905Y3087450D2*
X3282209D1*
X3324197D2*
X3349200D1*
X3355200D2*
X3389285D1*
X3435933D2*
X3463801D1*
X3252080Y3084450D2*
X3280186D1*
X3323287D2*
X3388604D1*
X3437961D2*
X3465493D1*
X3250122Y3081450D2*
X3278311D1*
X3322604D2*
X3387923D1*
X3439749D2*
X3467319D1*
X3248185Y3078450D2*
X3276598D1*
X3321923D2*
X3387058D1*
X3441484D2*
X3469278D1*
X3246209Y3075450D2*
X3274896D1*
X3321058D2*
X3386128D1*
X3443417D2*
X3471214D1*
X3244186Y3072450D2*
X3272976D1*
X3320128D2*
X3358790D1*
X3363736D2*
X3385202D1*
X3445658D2*
X3473191D1*
X3242311Y3069450D2*
X3270739D1*
X3319202D2*
X3351035D1*
X3362993D2*
X3384197D1*
X3447932D2*
X3475214D1*
X3240598Y3066450D2*
X3268467D1*
X3318197D2*
X3344030D1*
X3362216D2*
X3383287D1*
X3449960D2*
X3477089D1*
X3238907Y3063450D2*
X3266439D1*
X3317298D2*
X3337543D1*
X3361690D2*
X3382604D1*
X3451749D2*
X3478802D1*
X3237081Y3060450D2*
X3264651D1*
X3316719D2*
X3331332D1*
X3361400D2*
X3381923D1*
X3453472D2*
X3480493D1*
X3235122Y3057450D2*
X3262928D1*
X3316404D2*
X3325246D1*
X3361167D2*
X3381058D1*
X3455311D2*
X3482319D1*
X3233186Y3054450D2*
X3261089D1*
X3316200D2*
X3319200D1*
X3360732D2*
X3380128D1*
X3457276D2*
X3484278D1*
X3231209Y3051450D2*
X3259124D1*
X3359993D2*
X3379202D1*
X3459214D2*
X3486214D1*
X3229186Y3048450D2*
X3257186D1*
X3359217D2*
X3378197D1*
X3461191D2*
X3488191D1*
X3227311Y3045450D2*
X3255209D1*
X3358691D2*
X3377287D1*
X3463225D2*
X3490214D1*
X3225598Y3042450D2*
X3253186D1*
X3358400D2*
X3376604D1*
X3465194D2*
X3492089D1*
X3223907Y3039450D2*
X3251311D1*
X3358167D2*
X3375923D1*
X3467184D2*
X3493802D1*
X3222081Y3036450D2*
X3249598D1*
X3357732D2*
X3375070D1*
X3469223D2*
X3495493D1*
X3220122Y3033450D2*
X3247907D1*
X3356993D2*
X3374234D1*
X3471193D2*
X3497319D1*
X3218186Y3030450D2*
X3246081D1*
X3356217D2*
X3373584D1*
X3473184D2*
X3499278D1*
X3216209Y3027450D2*
X3244122D1*
X3355689D2*
X3372916D1*
X3475211D2*
X3501214D1*
X3214186Y3024450D2*
X3242186D1*
X3343200D2*
X3346200D1*
X3355394D2*
X3372067D1*
X3477088D2*
X3503191D1*
X3212311Y3021450D2*
X3240209D1*
X3344226D2*
X3349200D1*
X3355200D2*
X3371237D1*
X3478801D2*
X3505214D1*
X3210610Y3018450D2*
X3238186D1*
X3345130D2*
X3370647D1*
X3480493D2*
X3507089D1*
X3209013Y3015450D2*
X3236311D1*
X3345804D2*
X3370200D1*
X3376200D2*
X3382200D1*
X3482319D2*
X3508802D1*
X3207464Y3012450D2*
X3234598D1*
X3346481D2*
X3379664D1*
X3484278D2*
X3510493D1*
X3205852Y3009450D2*
X3232907D1*
X3347331D2*
X3377419D1*
X3486214D2*
X3512319D1*
X3204060Y3006450D2*
X3231081D1*
X3348155D2*
X3375301D1*
X3488191D2*
X3514266D1*
X3202114Y3003450D2*
X3229122D1*
X3348711D2*
X3373209D1*
X3490214D2*
X3516109D1*
X3200183Y3000450D2*
X3227186D1*
X3349102D2*
X3371218D1*
X3492089D2*
X3517809D1*
X3198208Y2997450D2*
X3225209D1*
X3349614D2*
X3369220D1*
X3493802D2*
X3519495D1*
X3196174Y2994450D2*
X3223186D1*
X3350386D2*
X3367178D1*
X3495493D2*
X3521320D1*
X3194206Y2991450D2*
X3221311D1*
X3351176D2*
X3365195D1*
X3497319D2*
X3523279D1*
X3192216Y2988450D2*
X3219598D1*
X3351707D2*
X3363099D1*
X3499278D2*
X3525215D1*
X3190189Y2985450D2*
X3217907D1*
X3351988D2*
X3360680D1*
X3501214D2*
X3527180D1*
X3188324Y2982450D2*
X3216093D1*
X3352121D2*
X3357996D1*
X3503180D2*
X3529097D1*
X3186727Y2979450D2*
X3214250D1*
X3352200D2*
X3355200D1*
X3505097D2*
X3530578D1*
X3185524Y2976450D2*
X3212792D1*
X3506588D2*
X3531455D1*
X3184811Y2973450D2*
X3211864D1*
X3507529D2*
X3531889D1*
X3184456Y2970450D2*
X3532079D1*
X3184300Y2967450D2*
X3532155D1*
X3184237Y2964450D2*
X3532184D1*
X3184213Y2961450D2*
X3532195D1*
X3184204Y2958450D2*
X3532198D1*
X3184200Y2955450D2*
X3532200D1*
X3349200Y3234450D2*
X3346212Y3231450D1*
X3343317Y3228450D1*
X3340711Y3225450D1*
X3338535Y3222450D1*
X3336687Y3219450D1*
X3334940Y3216450D1*
X3333093Y3213450D1*
X3331126Y3210450D1*
X3329187Y3207450D1*
X3327209Y3204450D1*
X3325186Y3201450D1*
X3323311Y3198450D1*
X3321598Y3195450D1*
X3319907Y3192450D1*
X3318081Y3189450D1*
X3316122Y3186450D1*
X3314186Y3183450D1*
X3312209Y3180450D1*
X3310186Y3177450D1*
X3308311Y3174450D1*
X3306598Y3171450D1*
X3304907Y3168450D1*
X3303081Y3165450D1*
X3301134Y3162450D1*
X3299291Y3159450D1*
X3297591Y3156450D1*
X3295905Y3153450D1*
X3294080Y3150450D1*
X3292121Y3147450D1*
X3290185Y3144450D1*
X3288209Y3141450D1*
X3286186Y3138450D1*
X3284311Y3135450D1*
X3282598Y3132450D1*
X3280907Y3129450D1*
X3279081Y3126450D1*
X3277122Y3123450D1*
X3275174Y3120450D1*
X3273103Y3117450D1*
X3270792Y3114450D1*
X3268487Y3111450D1*
X3266447Y3108450D1*
X3264654Y3105450D1*
X3262928Y3102450D1*
X3261089Y3099450D1*
X3259136Y3096450D1*
X3257292Y3093450D1*
X3255591Y3090450D1*
X3253905Y3087450D1*
X3252080Y3084450D1*
X3250122Y3081450D1*
X3248185Y3078450D1*
X3246209Y3075450D1*
X3244186Y3072450D1*
X3242311Y3069450D1*
X3240598Y3066450D1*
X3238907Y3063450D1*
X3237081Y3060450D1*
X3235122Y3057450D1*
X3233186Y3054450D1*
X3231209Y3051450D1*
X3229186Y3048450D1*
X3227311Y3045450D1*
X3225598Y3042450D1*
X3223907Y3039450D1*
X3222081Y3036450D1*
X3220122Y3033450D1*
X3218186Y3030450D1*
X3216209Y3027450D1*
X3214186Y3024450D1*
X3212311Y3021450D1*
X3210610Y3018450D1*
X3209013Y3015450D1*
X3207464Y3012450D1*
X3205852Y3009450D1*
X3204060Y3006450D1*
X3202114Y3003450D1*
X3200183Y3000450D1*
X3198208Y2997450D1*
X3196174Y2994450D1*
X3194206Y2991450D1*
X3192216Y2988450D1*
X3190189Y2985450D1*
X3188324Y2982450D1*
X3186727Y2979450D1*
X3185524Y2976450D1*
X3184811Y2973450D1*
X3184456Y2970450D1*
X3184300Y2967450D1*
X3184237Y2964450D1*
X3184213Y2961450D1*
X3184204Y2958450D1*
X3184200Y2955450D1*
X3370200Y3234450D2*
X3372163Y3231450D1*
X3374164Y3228450D1*
X3376202Y3225450D1*
X3378084Y3222450D1*
X3379800Y3219450D1*
X3381492Y3216450D1*
X3383318Y3213450D1*
X3385278Y3210450D1*
X3387214Y3207450D1*
X3389191Y3204450D1*
X3391214Y3201450D1*
X3393089Y3198450D1*
X3394802Y3195450D1*
X3396493Y3192450D1*
X3398319Y3189450D1*
X3400278Y3186450D1*
X3402214Y3183450D1*
X3404191Y3180450D1*
X3406214Y3177450D1*
X3408089Y3174450D1*
X3409802Y3171450D1*
X3411493Y3168450D1*
X3413319Y3165450D1*
X3415278Y3162450D1*
X3417214Y3159450D1*
X3419191Y3156450D1*
X3421214Y3153450D1*
X3423089Y3150450D1*
X3424802Y3147450D1*
X3426493Y3144450D1*
X3428319Y3141450D1*
X3430278Y3138450D1*
X3432214Y3135450D1*
X3434191Y3132450D1*
X3436214Y3129450D1*
X3438089Y3126450D1*
X3439802Y3123450D1*
X3441504Y3120450D1*
X3443424Y3117450D1*
X3445661Y3114450D1*
X3447945Y3111450D1*
X3450066Y3108450D1*
X3452131Y3105450D1*
X3454203Y3102450D1*
X3456186Y3099450D1*
X3458181Y3096450D1*
X3460210Y3093450D1*
X3462088Y3090450D1*
X3463801Y3087450D1*
X3465493Y3084450D1*
X3467319Y3081450D1*
X3469278Y3078450D1*
X3471214Y3075450D1*
X3473191Y3072450D1*
X3475214Y3069450D1*
X3477089Y3066450D1*
X3478802Y3063450D1*
X3480493Y3060450D1*
X3482319Y3057450D1*
X3484278Y3054450D1*
X3486214Y3051450D1*
X3488191Y3048450D1*
X3490214Y3045450D1*
X3492089Y3042450D1*
X3493802Y3039450D1*
X3495493Y3036450D1*
X3497319Y3033450D1*
X3499278Y3030450D1*
X3501214Y3027450D1*
X3503191Y3024450D1*
X3505214Y3021450D1*
X3507089Y3018450D1*
X3508802Y3015450D1*
X3510493Y3012450D1*
X3512319Y3009450D1*
X3514266Y3006450D1*
X3516109Y3003450D1*
X3517809Y3000450D1*
X3519495Y2997450D1*
X3521320Y2994450D1*
X3523279Y2991450D1*
X3525215Y2988450D1*
X3527180Y2985450D1*
X3529097Y2982450D1*
X3530578Y2979450D1*
X3531455Y2976450D1*
X3531889Y2973450D1*
X3532079Y2970450D1*
X3532155Y2967450D1*
X3532184Y2964450D1*
X3532195Y2961450D1*
X3532198Y2958450D1*
X3532200Y2955450D1*
X3355200Y3210450D2*
X3354725Y3207450D1*
X3353864Y3204450D1*
X3352599Y3201450D1*
X3350961Y3198450D1*
X3349089Y3195450D1*
X3347275Y3192450D1*
X3345586Y3189450D1*
X3343903Y3186450D1*
X3342080Y3183450D1*
X3340133Y3180450D1*
X3338291Y3177450D1*
X3336591Y3174450D1*
X3334905Y3171450D1*
X3333080Y3168450D1*
X3331121Y3165450D1*
X3329185Y3162450D1*
X3327209Y3159450D1*
X3325186Y3156450D1*
X3323311Y3153450D1*
X3321598Y3150450D1*
X3319907Y3147450D1*
X3318081Y3144450D1*
X3316122Y3141450D1*
X3314186Y3138450D1*
X3312209Y3135450D1*
X3310186Y3132450D1*
X3308311Y3129450D1*
X3306598Y3126450D1*
X3304907Y3123450D1*
X3303081Y3120450D1*
X3301122Y3117450D1*
X3299186Y3114450D1*
X3297209Y3111450D1*
X3295186Y3108450D1*
X3293311Y3105450D1*
X3291598Y3102450D1*
X3289907Y3099450D1*
X3288081Y3096450D1*
X3286122Y3093450D1*
X3284186Y3090450D1*
X3282209Y3087450D1*
X3280186Y3084450D1*
X3278311Y3081450D1*
X3276598Y3078450D1*
X3274896Y3075450D1*
X3272976Y3072450D1*
X3270739Y3069450D1*
X3268467Y3066450D1*
X3266439Y3063450D1*
X3264651Y3060450D1*
X3262928Y3057450D1*
X3261089Y3054450D1*
X3259124Y3051450D1*
X3257186Y3048450D1*
X3255209Y3045450D1*
X3253186Y3042450D1*
X3251311Y3039450D1*
X3249598Y3036450D1*
X3247907Y3033450D1*
X3246081Y3030450D1*
X3244122Y3027450D1*
X3242186Y3024450D1*
X3240209Y3021450D1*
X3238186Y3018450D1*
X3236311Y3015450D1*
X3234598Y3012450D1*
X3232907Y3009450D1*
X3231081Y3006450D1*
X3229122Y3003450D1*
X3227186Y3000450D1*
X3225209Y2997450D1*
X3223186Y2994450D1*
X3221311Y2991450D1*
X3219598Y2988450D1*
X3217907Y2985450D1*
X3216093Y2982450D1*
X3214250Y2979450D1*
X3212792Y2976450D1*
X3211864Y2973450D1*
X3211200Y2970450D1*
X3361200Y3210450D2*
X3361778Y3207450D1*
X3362918Y3204450D1*
X3364519Y3201450D1*
X3366208Y3198450D1*
X3367846Y3195450D1*
X3369508Y3192450D1*
X3371324Y3189450D1*
X3373280Y3186450D1*
X3375215Y3183450D1*
X3377192Y3180450D1*
X3379214Y3177450D1*
X3381089Y3174450D1*
X3382802Y3171450D1*
X3384493Y3168450D1*
X3386319Y3165450D1*
X3388278Y3162450D1*
X3390214Y3159450D1*
X3392191Y3156450D1*
X3394214Y3153450D1*
X3396089Y3150450D1*
X3397802Y3147450D1*
X3399493Y3144450D1*
X3401319Y3141450D1*
X3403278Y3138450D1*
X3405214Y3135450D1*
X3407191Y3132450D1*
X3409214Y3129450D1*
X3411089Y3126450D1*
X3412802Y3123450D1*
X3414493Y3120450D1*
X3416319Y3117450D1*
X3418278Y3114450D1*
X3420214Y3111450D1*
X3422191Y3108450D1*
X3424214Y3105450D1*
X3426089Y3102450D1*
X3427802Y3099450D1*
X3429504Y3096450D1*
X3431424Y3093450D1*
X3433661Y3090450D1*
X3435933Y3087450D1*
X3437961Y3084450D1*
X3439749Y3081450D1*
X3441484Y3078450D1*
X3443417Y3075450D1*
X3445658Y3072450D1*
X3447932Y3069450D1*
X3449960Y3066450D1*
X3451749Y3063450D1*
X3453472Y3060450D1*
X3455311Y3057450D1*
X3457276Y3054450D1*
X3459214Y3051450D1*
X3461191Y3048450D1*
X3463225Y3045450D1*
X3465194Y3042450D1*
X3467184Y3039450D1*
X3469223Y3036450D1*
X3471193Y3033450D1*
X3473184Y3030450D1*
X3475211Y3027450D1*
X3477088Y3024450D1*
X3478801Y3021450D1*
X3480493Y3018450D1*
X3482319Y3015450D1*
X3484278Y3012450D1*
X3486214Y3009450D1*
X3488191Y3006450D1*
X3490214Y3003450D1*
X3492089Y3000450D1*
X3493802Y2997450D1*
X3495493Y2994450D1*
X3497319Y2991450D1*
X3499278Y2988450D1*
X3501214Y2985450D1*
X3503180Y2982450D1*
X3505097Y2979450D1*
X3506588Y2976450D1*
X3507529Y2973450D1*
X3508200Y2970450D1*
X3346200Y3159450D2*
X3344803Y3156450D1*
X3343836Y3153450D1*
X3343018Y3150450D1*
X3342094Y3147450D1*
X3341142Y3144450D1*
X3340206Y3141450D1*
X3339187Y3138450D1*
X3338182Y3135450D1*
X3337222Y3132450D1*
X3336205Y3129450D1*
X3335289Y3126450D1*
X3334605Y3123450D1*
X3333924Y3120450D1*
X3333058Y3117450D1*
X3332128Y3114450D1*
X3331202Y3111450D1*
X3330197Y3108450D1*
X3329287Y3105450D1*
X3328604Y3102450D1*
X3327923Y3099450D1*
X3327058Y3096450D1*
X3326128Y3093450D1*
X3325202Y3090450D1*
X3324197Y3087450D1*
X3323287Y3084450D1*
X3322604Y3081450D1*
X3321923Y3078450D1*
X3321058Y3075450D1*
X3320128Y3072450D1*
X3319202Y3069450D1*
X3318197Y3066450D1*
X3317298Y3063450D1*
X3316719Y3060450D1*
X3316404Y3057450D1*
X3316200Y3054450D1*
X3382200Y3159450D2*
X3380352Y3156450D1*
X3378734Y3153450D1*
X3377416Y3150450D1*
X3376303Y3147450D1*
X3375122Y3144450D1*
X3373802Y3141450D1*
X3372391Y3138450D1*
X3370926Y3135450D1*
X3369443Y3132450D1*
X3367958Y3129450D1*
X3366556Y3126450D1*
X3365343Y3123450D1*
X3364275Y3120450D1*
X3363112Y3117450D1*
X3361798Y3114450D1*
X3360390Y3111450D1*
X3358937Y3108450D1*
X3357548Y3105450D1*
X3356340Y3102450D1*
X3355274Y3099450D1*
X3354102Y3096450D1*
X3352712Y3093450D1*
X3351055Y3090450D1*
X3349200Y3087450D1*
X3391200Y3105450D2*
X3385086Y3102450D1*
X3378713Y3099450D1*
X3372108Y3096450D1*
X3365794Y3093450D1*
X3360251Y3090450D1*
X3355200Y3087450D1*
X3394200Y3105450D2*
X3393736Y3102450D1*
X3392981Y3099450D1*
X3392099Y3096450D1*
X3391191Y3093450D1*
X3390194Y3090450D1*
X3389285Y3087450D1*
X3388604Y3084450D1*
X3387923Y3081450D1*
X3387058Y3078450D1*
X3386128Y3075450D1*
X3385202Y3072450D1*
X3384197Y3069450D1*
X3383287Y3066450D1*
X3382604Y3063450D1*
X3381923Y3060450D1*
X3381058Y3057450D1*
X3380128Y3054450D1*
X3379202Y3051450D1*
X3378197Y3048450D1*
X3377287Y3045450D1*
X3376604Y3042450D1*
X3375923Y3039450D1*
X3375070Y3036450D1*
X3374234Y3033450D1*
X3373584Y3030450D1*
X3372916Y3027450D1*
X3372067Y3024450D1*
X3371237Y3021450D1*
X3370647Y3018450D1*
X3370200Y3015450D1*
X3367200Y3075450D2*
X3358790Y3072450D1*
X3351035Y3069450D1*
X3344030Y3066450D1*
X3337543Y3063450D1*
X3331332Y3060450D1*
X3325246Y3057450D1*
X3319200Y3054450D1*
X3364200Y3075450D2*
X3363736Y3072450D1*
X3362993Y3069450D1*
X3362216Y3066450D1*
X3361690Y3063450D1*
X3361400Y3060450D1*
X3361167Y3057450D1*
X3360732Y3054450D1*
X3359993Y3051450D1*
X3359217Y3048450D1*
X3358691Y3045450D1*
X3358400Y3042450D1*
X3358167Y3039450D1*
X3357732Y3036450D1*
X3356993Y3033450D1*
X3356217Y3030450D1*
X3355689Y3027450D1*
X3355394Y3024450D1*
X3355200Y3021450D1*
X3343200Y3024450D2*
X3344226Y3021450D1*
X3345130Y3018450D1*
X3345804Y3015450D1*
X3346481Y3012450D1*
X3347331Y3009450D1*
X3348155Y3006450D1*
X3348711Y3003450D1*
X3349102Y3000450D1*
X3349614Y2997450D1*
X3350386Y2994450D1*
X3351176Y2991450D1*
X3351707Y2988450D1*
X3351988Y2985450D1*
X3352121Y2982450D1*
X3352200Y2979450D1*
X3346200Y3024450D2*
X3349200Y3021450D1*
X3376200Y3015450D2*
X3382200D2*
X3379664Y3012450D1*
X3377419Y3009450D1*
X3375301Y3006450D1*
X3373209Y3003450D1*
X3371218Y3000450D1*
X3369220Y2997450D1*
X3367178Y2994450D1*
X3365195Y2991450D1*
X3363099Y2988450D1*
X3360680Y2985450D1*
X3357996Y2982450D1*
X3355200Y2979450D1*
X3042494Y2672660D2*
D124*
Y2712852D1*
X3057792Y2672660D1*
X3073091Y2712852D1*
Y2672660D1*
X3030142Y2691806D2*
X3012898D1*
X3007194Y2693707D1*
X3005249Y2695652D1*
X3003347Y2699455D1*
Y2705203D1*
X3005249Y2709005D1*
X3007194Y2710951D1*
X3012898Y2712852D1*
X3030142D1*
Y2672660D1*
X2962300Y2703302D2*
X2964201Y2707104D1*
X2968048Y2710951D1*
X2971851Y2712852D1*
X2979500D1*
X2983347Y2710951D1*
X2987149Y2707104D1*
X2989095Y2703302D1*
X2990996Y2697554D1*
Y2687959D1*
X2989095Y2682255D1*
X2987149Y2678408D1*
X2983347Y2674606D1*
X2979500Y2672660D1*
X2971851D1*
X2968048Y2674606D1*
X2964201Y2678408D1*
X2962300Y2682255D1*
X2923154Y2712852D2*
Y2672660D1*
X2949949Y2712852D1*
Y2672660D1*
X2882107Y2703302D2*
X2884008Y2707104D1*
X2887855Y2710951D1*
X2891657Y2712852D1*
X2899307D1*
X2903153Y2710951D1*
X2906956Y2707104D1*
X2908901Y2703302D1*
X2910803Y2697554D1*
Y2687959D1*
X2908901Y2682255D1*
X2906956Y2678408D1*
X2903153Y2674606D1*
X2899307Y2672660D1*
X2891657D1*
X2887855Y2674606D1*
X2884008Y2678408D1*
X2882107Y2682255D1*
X2788490Y2703302D2*
X2790391Y2707104D1*
X2794238Y2710951D1*
X2798040Y2712852D1*
X2805689D1*
X2809536Y2710951D1*
X2813339Y2707104D1*
X2815284Y2703302D1*
X2817186Y2697554D1*
Y2687959D1*
X2815284Y2682255D1*
X2813339Y2678408D1*
X2809536Y2674606D1*
X2805689Y2672660D1*
X2798040D1*
X2794238Y2674606D1*
X2790391Y2678408D1*
X2788490Y2682255D1*
Y2687959D1*
X2798040D1*
X2776138Y2699455D2*
Y2672660D1*
Y2687959D2*
X2774193Y2693707D1*
X2770390Y2697554D1*
X2766543Y2699455D1*
X2760795D1*
X2748444Y2712852D2*
Y2672660D1*
Y2693707D2*
X2744597Y2697554D1*
X2740795Y2699455D1*
X2735047D1*
X2731244Y2697554D1*
X2727397Y2693707D1*
X2725496Y2687959D1*
Y2684156D1*
X2727397Y2678408D1*
X2731244Y2674606D1*
X2735047Y2672660D1*
X2740795D1*
X2744597Y2674606D1*
X2748444Y2678408D1*
X2713145Y2712852D2*
Y2672660D1*
X2700793Y2666028D2*
X2664448D1*
X2627247Y2712852D2*
X2652097D1*
Y2672660D1*
X2627247D1*
X2652097Y2693707D2*
X2636798D1*
X2588101Y2707104D2*
X2591904Y2710951D1*
X2597652Y2712852D1*
X2605301D1*
X2611049Y2710951D1*
X2614896Y2707104D1*
Y2703302D1*
X2612951Y2699455D1*
X2611049Y2697554D1*
X2607247Y2695652D1*
X2595751Y2691806D1*
X2591904Y2689904D1*
X2590003Y2687959D1*
X2588101Y2684156D1*
Y2678408D1*
X2591904Y2674606D1*
X2597652Y2672660D1*
X2605301D1*
X2611049Y2674606D1*
X2614896Y2678408D1*
X2575750Y2691806D2*
X2558506D1*
X2552802Y2693707D1*
X2550857Y2695652D1*
X2548955Y2699455D1*
Y2705203D1*
X2550857Y2709005D1*
X2552802Y2710951D1*
X2558506Y2712852D1*
X2575750D1*
Y2672660D1*
X2532757Y2712808D2*
X2511755D1*
X2523207Y2697509D1*
X2517459D1*
X2513656Y2695608D1*
X2511755Y2693707D1*
X2509809Y2687959D1*
Y2684156D1*
X2511755Y2678408D1*
X2515557Y2674561D1*
X2521305Y2672660D1*
X2527053D1*
X2532757Y2674561D1*
X2534658Y2676507D1*
X2536604Y2680310D1*
X2495512Y2703257D2*
Y2705159D1*
X2493611Y2709005D1*
X2491710Y2710907D1*
X2487863Y2712808D1*
X2480214D1*
X2476411Y2710907D1*
X2474510Y2709005D1*
X2472564Y2705159D1*
Y2701356D1*
X2474510Y2697509D1*
X2478312Y2691806D1*
X2497458Y2672660D1*
X2470663D1*
X3051289Y2628302D2*
X3053190Y2632104D1*
X3057037Y2635951D1*
X3060840Y2637852D1*
X3068489D1*
X3072336Y2635951D1*
X3076138Y2632104D1*
X3078084Y2628302D1*
X3079985Y2622554D1*
Y2612959D1*
X3078084Y2607255D1*
X3076138Y2603408D1*
X3072336Y2599606D1*
X3068489Y2597660D1*
X3060840D1*
X3057037Y2599606D1*
X3053190Y2603408D1*
X3051289Y2607255D1*
X3029387Y2624455D2*
X3033190Y2622554D1*
X3037037Y2618707D1*
X3038938Y2612959D1*
Y2609156D1*
X3037037Y2603408D1*
X3033190Y2599606D1*
X3029387Y2597660D1*
X3023639D1*
X3019792Y2599606D1*
X3015990Y2603408D1*
X3014044Y2609156D1*
Y2612959D1*
X3015990Y2618707D1*
X3019792Y2622554D1*
X3023639Y2624455D1*
X3029387D1*
X3001693D2*
Y2597660D1*
Y2616806D2*
X2995945Y2622554D1*
X2992098Y2624455D1*
X2986394D1*
X2982548Y2622554D1*
X2980646Y2616806D1*
Y2597660D1*
X2962547Y2637852D2*
Y2605310D1*
X2960646Y2599606D1*
X2956799Y2597660D1*
X2952996D1*
X2968295Y2624455D2*
X2954898D1*
X2940645D2*
Y2597660D1*
Y2612959D2*
X2938699Y2618707D1*
X2934897Y2622554D1*
X2931050Y2624455D1*
X2925302D1*
X2903400D2*
X2907203Y2622554D1*
X2911049Y2618707D1*
X2912951Y2612959D1*
Y2609156D1*
X2911049Y2603408D1*
X2907203Y2599606D1*
X2903400Y2597660D1*
X2897652D1*
X2893805Y2599606D1*
X2890003Y2603408D1*
X2888057Y2609156D1*
Y2612959D1*
X2890003Y2618707D1*
X2893805Y2622554D1*
X2897652Y2624455D1*
X2903400D1*
X2875706Y2637852D2*
Y2597660D1*
X2863355Y2637852D2*
Y2597660D1*
X2851003Y2612959D2*
X2828055D1*
Y2616806D1*
X2829957Y2620652D1*
X2831858Y2622554D1*
X2835705Y2624455D1*
X2841453D1*
X2845255Y2622554D1*
X2849102Y2618707D1*
X2851003Y2612959D1*
Y2609156D1*
X2849102Y2603408D1*
X2845255Y2599606D1*
X2841453Y2597660D1*
X2835705D1*
X2831858Y2599606D1*
X2828055Y2603408D1*
X2815704Y2624455D2*
Y2597660D1*
Y2612959D2*
X2813758Y2618707D1*
X2809956Y2622554D1*
X2806109Y2624455D1*
X2800361D1*
X2749129Y2637852D2*
X2733830Y2597660D1*
X2718532Y2637852D1*
X2706180Y2630159D2*
X2702334Y2632104D1*
X2696585Y2637808D1*
Y2597660D1*
X2682333Y2601507D2*
X2684234Y2599561D1*
X2682333Y2597660D1*
X2680387Y2599561D1*
X2682333Y2601507D1*
X2666090Y2628257D2*
Y2630159D1*
X2664189Y2634005D1*
X2662288Y2635907D1*
X2658441Y2637808D1*
X2650792D1*
X2646989Y2635907D1*
X2645088Y2634005D1*
X2643143Y2630159D1*
Y2626356D1*
X2645088Y2622509D1*
X2648891Y2616806D1*
X2668036Y2597660D1*
X2641241D1*
X2626989Y2601507D2*
X2628890Y2599561D1*
X2626989Y2597660D1*
X2625043Y2599561D1*
X2626989Y2601507D1*
X2612692Y2630159D2*
X2608845Y2632104D1*
X2603097Y2637808D1*
Y2597660D1*
X3073091Y2561955D2*
X3065441Y2535160D1*
X3057792Y2561955D1*
X3050143Y2535160D1*
X3042493Y2561955D1*
X3030142D2*
X3022493Y2535160D1*
X3014843Y2561955D1*
X3007194Y2535160D1*
X2999545Y2561955D1*
X2987193D2*
X2979544Y2535160D1*
X2971895Y2561955D1*
X2964246Y2535160D1*
X2956596Y2561955D1*
X2942344Y2539007D2*
X2944245Y2537061D1*
X2942344Y2535160D1*
X2940398Y2537061D1*
X2942344Y2539007D1*
X2928047Y2575352D2*
Y2535160D1*
Y2556207D2*
X2924200Y2560054D1*
X2920397Y2561955D1*
X2914649D1*
X2910847Y2560054D1*
X2907000Y2556207D1*
X2905099Y2550459D1*
Y2546656D1*
X2907000Y2540908D1*
X2910847Y2537106D1*
X2914649Y2535160D1*
X2920397D1*
X2924200Y2537106D1*
X2928047Y2540908D1*
X2892747Y2561955D2*
Y2542810D1*
X2890846Y2537106D1*
X2886999Y2535160D1*
X2881251D1*
X2877449Y2537106D1*
X2871701Y2542810D1*
Y2561955D2*
Y2535160D1*
X2859349Y2575352D2*
X2857448Y2573451D1*
X2855503Y2575352D1*
X2857448Y2577298D1*
X2859349Y2575352D1*
X2857448Y2561955D2*
Y2535160D1*
X2843151Y2575352D2*
Y2535160D1*
X2807852Y2575352D2*
Y2535160D1*
Y2556207D2*
X2811654Y2560054D1*
X2815501Y2561955D1*
X2821249D1*
X2825052Y2560054D1*
X2828899Y2556207D1*
X2830800Y2550459D1*
Y2546656D1*
X2828899Y2540908D1*
X2825052Y2537106D1*
X2821249Y2535160D1*
X2815501D1*
X2811654Y2537106D1*
X2807852Y2540908D1*
X2795500Y2575352D2*
Y2535160D1*
X2773599Y2561955D2*
X2777401Y2560054D1*
X2781248Y2556207D1*
X2783149Y2550459D1*
Y2546656D1*
X2781248Y2540908D1*
X2777401Y2537106D1*
X2773599Y2535160D1*
X2767850D1*
X2764004Y2537106D1*
X2760201Y2540908D1*
X2758256Y2546656D1*
Y2550459D1*
X2760201Y2556207D1*
X2764004Y2560054D1*
X2767850Y2561955D1*
X2773599D1*
X2722956Y2560054D2*
Y2529412D1*
X2724858Y2523708D1*
X2726759Y2521763D1*
X2730606Y2519862D1*
X2736354D1*
X2740156Y2521763D1*
X2722956Y2554306D2*
X2726759Y2558108D1*
X2730606Y2560054D1*
X2736354D1*
X2740156Y2558108D1*
X2744003Y2554306D1*
X2745904Y2548558D1*
Y2544711D1*
X2744003Y2539007D1*
X2740156Y2535160D1*
X2736354Y2533259D1*
X2730606D1*
X2726759Y2535160D1*
X2722956Y2539007D1*
X2708704D2*
X2710605Y2537061D1*
X2708704Y2535160D1*
X2706758Y2537061D1*
X2708704Y2539007D1*
X2694407Y2561955D2*
Y2535160D1*
Y2554306D2*
X2688659Y2560054D1*
X2684812Y2561955D1*
X2679108D1*
X2675261Y2560054D1*
X2673360Y2554306D1*
Y2535160D1*
X2661009Y2550459D2*
X2638061D1*
Y2554306D1*
X2639962Y2558152D1*
X2641863Y2560054D1*
X2645710Y2561955D1*
X2651458D1*
X2655261Y2560054D1*
X2659108Y2556207D1*
X2661009Y2550459D1*
Y2546656D1*
X2659108Y2540908D1*
X2655261Y2537106D1*
X2651458Y2535160D1*
X2645710D1*
X2641863Y2537106D1*
X2638061Y2540908D1*
X2619961Y2575352D2*
Y2542810D1*
X2618060Y2537106D1*
X2614213Y2535160D1*
X2610411D1*
X2625709Y2561955D2*
X2612312D1*
X2598059Y2535160D2*
X2571265Y2575308D1*
X2558913Y2575352D2*
Y2535160D1*
Y2556207D2*
X2555067Y2560054D1*
X2551264Y2561955D1*
X2545516D1*
X2541714Y2560054D1*
X2537867Y2556207D1*
X2535966Y2550459D1*
Y2546656D1*
X2537867Y2540908D1*
X2541714Y2537106D1*
X2545516Y2535160D1*
X2551264D1*
X2555067Y2537106D1*
X2558913Y2540908D1*
X2523614Y2575352D2*
Y2535160D1*
X2501712Y2561955D2*
X2505515Y2560054D1*
X2509361Y2556207D1*
X2511263Y2550459D1*
Y2546656D1*
X2509361Y2540908D1*
X2505515Y2537106D1*
X2501712Y2535160D1*
X2495964D1*
X2492117Y2537106D1*
X2488315Y2540908D1*
X2486369Y2546656D1*
Y2550459D1*
X2488315Y2556207D1*
X2492117Y2560054D1*
X2495964Y2561955D1*
X2501712D1*
X2451070Y2560054D2*
Y2529412D1*
X2452971Y2523708D1*
X2454873Y2521763D1*
X2458719Y2519862D1*
X2464467D1*
X2468270Y2521763D1*
X2451070Y2554306D2*
X2454873Y2558108D1*
X2458719Y2560054D1*
X2464467D1*
X2468270Y2558108D1*
X2472117Y2554306D1*
X2474018Y2548558D1*
Y2544711D1*
X2472117Y2539007D1*
X2468270Y2535160D1*
X2464467Y2533259D1*
X2458719D1*
X2454873Y2535160D1*
X2451070Y2539007D1*
X3052044Y2490757D2*
X3057792D1*
X3061594Y2488856D1*
X3063540Y2486955D1*
X3065441Y2483108D1*
Y2475459D1*
X3063540Y2473558D1*
X3059693D1*
X3052044Y2475459D1*
X3050143Y2471656D1*
X3048241D1*
X3044395Y2475459D1*
X3042493Y2485009D1*
X3044395Y2490757D1*
X3046296Y2494604D1*
X3050143Y2498407D1*
X3053945Y2500308D1*
X3061594D1*
X3065441Y2498407D1*
X3069244Y2494604D1*
X3071189Y2490757D1*
X3073091Y2485009D1*
Y2475459D1*
X3071189Y2469711D1*
X3069244Y2465908D1*
X3065441Y2462061D1*
X3061594Y2460160D1*
X3053945D1*
X3050143Y2462061D1*
X3046296Y2465908D1*
X3052044Y2492659D2*
Y2475459D1*
X3030142Y2500352D2*
Y2460160D1*
Y2481207D2*
X3026295Y2485054D1*
X3022493Y2486955D1*
X3016745D1*
X3012942Y2485054D1*
X3009095Y2481207D1*
X3007194Y2475459D1*
Y2471656D1*
X3009095Y2465908D1*
X3012942Y2462106D1*
X3016745Y2460160D1*
X3022493D1*
X3026295Y2462106D1*
X3030142Y2465908D1*
X2994843Y2486955D2*
Y2467810D1*
X2992941Y2462106D1*
X2989095Y2460160D1*
X2983347D1*
X2979544Y2462106D1*
X2973796Y2467810D1*
Y2486955D2*
Y2460160D1*
X2961445Y2500352D2*
X2959543Y2498451D1*
X2957598Y2500352D1*
X2959543Y2502298D1*
X2961445Y2500352D1*
X2959543Y2486955D2*
Y2460160D1*
X2945246Y2500352D2*
Y2460160D1*
X2909947Y2500352D2*
Y2460160D1*
Y2481207D2*
X2913750Y2485054D1*
X2917596Y2486955D1*
X2923344D1*
X2927147Y2485054D1*
X2930994Y2481207D1*
X2932895Y2475459D1*
Y2471656D1*
X2930994Y2465908D1*
X2927147Y2462106D1*
X2923344Y2460160D1*
X2917596D1*
X2913750Y2462106D1*
X2909947Y2465908D1*
X2897596Y2500352D2*
Y2460160D1*
X2875694Y2486955D2*
X2879496Y2485054D1*
X2883343Y2481207D1*
X2885244Y2475459D1*
Y2471656D1*
X2883343Y2465908D1*
X2879496Y2462106D1*
X2875694Y2460160D1*
X2869946D1*
X2866099Y2462106D1*
X2862296Y2465908D1*
X2860351Y2471656D1*
Y2475459D1*
X2862296Y2481207D1*
X2866099Y2485054D1*
X2869946Y2486955D1*
X2875694D1*
X2825052Y2485054D2*
Y2454412D1*
X2826953Y2448708D1*
X2828854Y2446763D1*
X2832701Y2444862D1*
X2838449D1*
X2842252Y2446763D1*
X2825052Y2479306D2*
X2828854Y2483108D1*
X2832701Y2485054D1*
X2838449D1*
X2842252Y2483108D1*
X2846098Y2479306D1*
X2848000Y2473558D1*
Y2469711D1*
X2846098Y2464007D1*
X2842252Y2460160D1*
X2838449Y2458259D1*
X2832701D1*
X2828854Y2460160D1*
X2825052Y2464007D1*
X4136394Y3073752D2*
D125*
X4112408Y2973272D1*
X4088531Y3073752D1*
X4064655Y2973272D1*
X4040668Y3073752D1*
X3952419Y3040259D2*
Y2973272D1*
Y3025889D2*
X3961926Y3035506D1*
X3971543Y3040259D1*
X3985802D1*
X3995419Y3035506D1*
X4004925Y3025889D1*
X4009789Y3011519D1*
Y3002012D1*
X4004925Y2987642D1*
X3995419Y2978136D1*
X3985802Y2973272D1*
X3971543D1*
X3961926Y2978136D1*
X3952419Y2987642D1*
X3921541Y3040259D2*
Y2973272D1*
Y3011519D2*
X3916677Y3025889D1*
X3907171Y3035506D1*
X3897554Y3040259D1*
X3883184D1*
X3852305D2*
Y2973272D1*
Y3021136D2*
X3837935Y3035506D1*
X3828318Y3040259D1*
X3814059D1*
X3804442Y3035506D1*
X3799689Y3021136D1*
Y2973272D1*
X3768810Y3073752D2*
X3764057Y3068999D1*
X3759193Y3073752D1*
X3764057Y3078616D1*
X3768810Y3073752D1*
X3764057Y3040259D2*
Y2973272D1*
X3728315Y3040259D2*
Y2973272D1*
Y3021136D2*
X3713945Y3035506D1*
X3704328Y3040259D1*
X3690068D1*
X3680451Y3035506D1*
X3675698Y3021136D1*
Y2973272D1*
X3587450Y3035506D2*
Y2958902D1*
X3592203Y2944643D1*
X3596956Y2939779D1*
X3606573Y2935026D1*
X3620943D1*
X3630450Y2939779D1*
X3587450Y3021136D2*
X3596956Y3030642D1*
X3606573Y3035506D1*
X3620943D1*
X3630450Y3030642D1*
X3640067Y3021136D1*
X3644820Y3006766D1*
Y2997149D1*
X3640067Y2982889D1*
X3630450Y2973272D1*
X3620943Y2968519D1*
X3606573D1*
X3596956Y2973272D1*
X3587450Y2982889D1*
X3904175Y2786252D2*
Y2685772D1*
X3837189Y2786252D2*
Y2685772D1*
X3904175Y2738388D2*
X3837189D1*
X3806310Y2786252D2*
X3801557Y2781499D1*
X3796693Y2786252D1*
X3801557Y2791115D1*
X3806310Y2786252D1*
X3801557Y2752758D2*
Y2685772D1*
X3708445Y2748005D2*
Y2671402D1*
X3713198Y2657142D1*
X3717951Y2652278D1*
X3727568Y2647525D1*
X3741938D1*
X3751445Y2652278D1*
X3708445Y2733635D2*
X3717951Y2743142D1*
X3727568Y2748005D1*
X3741938D1*
X3751445Y2743142D1*
X3761061Y2733635D1*
X3765815Y2719265D1*
Y2709648D1*
X3761061Y2695389D1*
X3751445Y2685772D1*
X3741938Y2681019D1*
X3727568D1*
X3717951Y2685772D1*
X3708445Y2695389D1*
X3677566Y2786252D2*
Y2685772D1*
Y2733635D2*
X3663196Y2748005D1*
X3653579Y2752758D1*
X3639209D1*
X3629703Y2748005D1*
X3624950Y2733635D1*
Y2685772D1*
X4090553Y2642502D2*
X4052307Y2542022D1*
X4014060Y2642502D1*
X3959305Y2609008D2*
X3968812Y2604255D1*
X3978428Y2594638D1*
X3983182Y2580268D1*
Y2570762D1*
X3978428Y2556392D1*
X3968812Y2546885D1*
X3959305Y2542022D1*
X3944935D1*
X3935318Y2546885D1*
X3925812Y2556392D1*
X3920948Y2570762D1*
Y2580268D1*
X3925812Y2594638D1*
X3935318Y2604255D1*
X3944935Y2609008D1*
X3959305D1*
X3890070Y2642502D2*
Y2542022D1*
X3844821Y2642502D2*
Y2561145D1*
X3840068Y2546885D1*
X3830451Y2542022D1*
X3820945D1*
X3859191Y2609008D2*
X3825698D1*
X3732696D2*
Y2542022D1*
Y2594638D2*
X3742203Y2604255D1*
X3751820Y2609008D1*
X3766079D1*
X3775696Y2604255D1*
X3785202Y2594638D1*
X3790066Y2580268D1*
Y2570762D1*
X3785202Y2556392D1*
X3775696Y2546885D1*
X3766079Y2542022D1*
X3751820D1*
X3742203Y2546885D1*
X3732696Y2556392D1*
X3644448Y2604255D2*
Y2527652D1*
X3649201Y2513392D1*
X3653954Y2508528D1*
X3663571Y2503775D1*
X3677941D1*
X3687448Y2508528D1*
X3644448Y2589885D2*
X3653954Y2599392D1*
X3663571Y2604255D1*
X3677941D1*
X3687448Y2599392D1*
X3697065Y2589885D1*
X3701818Y2575515D1*
Y2565898D1*
X3697065Y2551639D1*
X3687448Y2542022D1*
X3677941Y2537269D1*
X3663571D1*
X3653954Y2542022D1*
X3644448Y2551639D1*
X3613570Y2580268D2*
X3556200D1*
Y2589885D1*
X3560953Y2599502D1*
X3565706Y2604255D1*
X3575323Y2609008D1*
X3589693D1*
X3599200Y2604255D1*
X3608816Y2594638D1*
X3613570Y2580268D1*
Y2570762D1*
X3608816Y2556392D1*
X3599200Y2546885D1*
X3589693Y2542022D1*
X3575323D1*
X3565706Y2546885D1*
X3556200Y2556392D1*
M02*
