M48
INCH
T01C0.013
T02C0.0191
T03C0.035
T04C0.0354
T05C0.0394
T06C0.0512
T07C0.063
T08C0.14
%
T01
X+027754Y+018753
X+027754Y+018493
X+027754Y+018233
X+027364Y+018233
X+027364Y+018493
X+027364Y+018753
X+026974Y+018753
X+026974Y+018493
X+026974Y+018233
X+030877Y+016277
X+031267Y+016277
T02
X+015687Y+008687
X+015437Y+008437
X+015124Y+008125
X+015937Y+009937
X+015937Y+010437
X+015937Y+010937
X+017937Y+015812
X+016812Y+017937
X+014937Y+019437
X+013937Y+018937
X+013562Y+020868
X+014437Y+022167
X+015499Y+023033
X+015937Y+022687
X+016937Y+023062
X+017750Y+022312
X+017187Y+021437
X+016812Y+021064
X+019562Y+021438
X+020437Y+020312
X+019437Y+019437
X+021937Y+019875
X+023625Y+018437
X+024764Y+019533
X+025937Y+021812
X+026312Y+015812
X+023437Y+010937
X+023437Y+010437
X+023437Y+009937
X+029437Y+007937
X+029687Y+008187
X+029937Y+008437
X+030437Y+009937
X+030437Y+010437
X+030437Y+010937
X+032187Y+016562
X+032187Y+020687
X+032187Y+021187
X+033312Y+021124
X+033874Y+020499
X+029249Y+028187
X+024562Y+028687
X+019562Y+023062
X+017687Y+023937
X+016437Y+024187
X+012937Y+024437
X+012927Y+023900
X+012437Y+023437
X+010937Y+023437
X+010458Y+023900
X+011049Y+021249
X+011937Y+020312
X+011049Y+019931
X+010394Y+018937
X+010394Y+016181
X+012437Y+015787
X+012937Y+016187
X+008937Y+010937
X+008937Y+010437
X+008937Y+009937
X+005937Y+018562
X+005937Y+024312
X+008420Y+028628
X+037937Y+011437
X+037937Y+010937
X+037937Y+010437
T03
X+004937Y+025937
X+005937Y+025937
X+006937Y+025937
X+007937Y+025937
X+008937Y+025937
X+009937Y+025937
X+010937Y+025937
X+011937Y+025937
X+012937Y+025937
X+013937Y+025937
X+014937Y+025937
X+015937Y+025937
X+016937Y+025937
X+017937Y+025937
X+018937Y+025937
X+019937Y+025937
X+020937Y+025937
X+021937Y+025937
X+022937Y+025937
X+022937Y+016937
X+021937Y+016937
X+020937Y+016937
X+019937Y+016937
X+018937Y+016937
X+017937Y+016937
X+016937Y+016937
X+015937Y+016937
X+014937Y+016937
X+013937Y+016937
X+012937Y+016937
X+011937Y+016937
X+010937Y+016937
X+009937Y+016937
X+008937Y+016937
X+007937Y+016937
X+006937Y+016937
X+005937Y+016937
X+004937Y+016937
X+006937Y+013937
X+006937Y+012937
X+006937Y+011937
X+006937Y+010937
X+006937Y+009937
X+006937Y+008937
X+006937Y+007937
X+006937Y+006937
X+011937Y+006937
X+011937Y+007937
X+011937Y+008937
X+011937Y+009937
X+011937Y+010937
X+011937Y+011937
X+011937Y+012937
X+011937Y+013937
X+013937Y+013937
X+013937Y+012937
X+013937Y+011937
X+013937Y+010937
X+013937Y+009937
X+013937Y+008937
X+013937Y+007937
X+013937Y+006937
X+018937Y+006937
X+018937Y+007937
X+018937Y+008937
X+018937Y+009937
X+018937Y+010937
X+018937Y+011937
X+018937Y+012937
X+018937Y+013937
X+021437Y+013937
X+021437Y+012937
X+021437Y+011937
X+021437Y+010937
X+021437Y+009937
X+021437Y+008937
X+021437Y+007937
X+021437Y+006937
X+026437Y+006937
X+026437Y+007937
X+026437Y+008937
X+026437Y+009937
X+026437Y+010937
X+026437Y+011937
X+026437Y+012937
X+026437Y+013937
X+028437Y+013937
X+028437Y+012937
X+028437Y+011937
X+028437Y+010937
X+028437Y+009937
X+028437Y+008937
X+028437Y+007937
X+028437Y+006937
X+033437Y+006937
X+033437Y+007937
X+033437Y+008937
X+033437Y+009937
X+033437Y+010937
X+033437Y+011937
X+033437Y+012937
X+033437Y+013937
X+035937Y+014437
X+035937Y+013437
X+035937Y+012437
X+035937Y+011437
X+035937Y+010437
X+035937Y+009437
X+035937Y+008437
X+035937Y+007437
X+040937Y+007437
X+040937Y+008437
X+040937Y+009437
X+040937Y+010437
X+040937Y+011437
X+040937Y+012437
X+040937Y+013437
X+040937Y+014437
T04
X+014937Y+030437
X+015937Y+030437
X+016937Y+030437
X+017937Y+030437
X+018937Y+030437
X+019937Y+030437
X+020937Y+030437
X+021937Y+030437
X+021937Y+026937
X+022937Y+026937
X+020937Y+026937
X+019937Y+026937
X+018937Y+026937
X+017937Y+026937
X+016937Y+026937
X+015937Y+026937
X+014937Y+026937
X+013937Y+026937
X+012937Y+026937
X+011937Y+026937
X+010937Y+026937
X+009937Y+026937
X+008937Y+026937
X+007937Y+026937
X+006937Y+026937
X+005937Y+026937
X+004937Y+026937
X+007937Y+030437
X+007937Y+031437
X+008937Y+031437
X+009937Y+031437
X+010937Y+031437
X+010937Y+030437
X+009937Y+030437
X+008937Y+030437
X+011937Y+030437
X+011937Y+031437
X+025937Y+030437
X+026937Y+030437
X+027937Y+030437
X+028937Y+030437
X+034687Y+022250
X+034687Y+021250
X+036687Y+005437
X+037687Y+005437
X+038687Y+005437
X+039687Y+005437
X+032437Y+005437
X+031437Y+005437
X+030437Y+005437
X+029437Y+005437
X+025437Y+005437
X+024437Y+005437
X+023437Y+005437
X+022437Y+005437
X+017937Y+005437
X+016937Y+005437
X+015937Y+005437
X+014937Y+005437
X+010937Y+005437
X+009937Y+005437
X+008937Y+005437
X+007937Y+005437
T05
X+005126Y+023226
X+005126Y+020076
T06
X+032846Y+026456
X+033634Y+024093
X+033634Y+028818
X+038437Y+028818
X+038437Y+024093
T07
X+042062Y+027375
X+042062Y+025406
X+041437Y+019187
X+041437Y+017218
T08
X+005315Y+005315
X+005315Y+031693
X+041929Y+031693
X+041929Y+005315
T00
M30
