G04 DipTrace 3.3.1.3*
G04 Top.gbr*
%MOIN*%
G04 #@! TF.FileFunction,Copper,L1,Top*
G04 #@! TF.Part,Single*
G04 #@! TA.AperFunction,Conductor*
%ADD13C,0.013*%
%ADD14C,0.016*%
%ADD15C,0.012008*%
%ADD16C,0.012*%
G04 #@! TA.AperFunction,CopperBalancing*
%ADD17C,0.025*%
G04 #@! TA.AperFunction,Conductor*
%ADD18C,0.015*%
%ADD19C,0.1*%
G04 #@! TA.AperFunction,ViaPad*
%ADD20C,0.04*%
G04 #@! TA.AperFunction,Conductor*
%ADD21C,0.02*%
%ADD22C,0.014*%
%ADD23C,0.025199*%
%ADD24C,0.076772*%
%ADD25C,0.0154*%
G04 #@! TA.AperFunction,ComponentPad*
%ADD26C,0.06*%
%ADD29R,0.062992X0.163386*%
%ADD30R,0.059055X0.051181*%
%ADD31R,0.062992X0.070866*%
%ADD33R,0.098425X0.066929*%
%ADD35R,0.066929X0.098425*%
%ADD37C,0.03937*%
G04 #@! TA.AperFunction,ComponentPad*
%ADD38R,0.059055X0.059055*%
%ADD39C,0.059055*%
%ADD40R,0.051181X0.027559*%
%ADD41R,0.07874X0.047244*%
%ADD42R,0.055118X0.047244*%
%ADD43R,0.055118X0.031496*%
G04 #@! TA.AperFunction,ComponentPad*
%ADD44C,0.076772*%
%ADD45R,0.076772X0.076772*%
%ADD46R,0.09252X0.137795*%
G04 #@! TA.AperFunction,ComponentPad*
%ADD47C,0.2*%
%ADD48R,0.031496X0.035433*%
%ADD49R,0.051181X0.059055*%
G04 #@! TA.AperFunction,ComponentPad*
%ADD50R,0.12X0.12*%
%ADD51C,0.12*%
%ADD52R,0.059X0.059*%
%ADD53C,0.059*%
%ADD55R,0.024016X0.062992*%
%ADD56R,0.138189X0.10315*%
%ADD58R,0.043307X0.023622*%
G04 #@! TA.AperFunction,ViaPad*
%ADD60C,0.03*%
%FSLAX26Y26*%
G04*
G70*
G90*
G75*
G01*
G04 Top*
%LPD*%
X693700Y1293700D2*
D13*
Y1193700D1*
Y1093700D1*
X768700D1*
X818700Y1043700D1*
Y843700D1*
X868700Y793700D1*
X1193700D1*
X1243700D1*
X1293700Y843700D1*
Y1043700D1*
X1343700Y1093700D1*
X1393700D1*
Y1193700D1*
Y1293700D1*
Y1093700D2*
X1468700D1*
X1518700Y1043700D1*
Y993700D1*
X1718700Y793700D1*
X1893700D1*
X1968700D1*
X2018700Y843700D1*
Y1043700D1*
X2068700Y1093700D1*
X2143700D1*
Y1193700D1*
Y1293700D1*
Y1093700D2*
X2218700D1*
X2268700Y1043700D1*
Y843700D1*
X2318700Y793700D1*
X2643700D1*
X2693700D1*
X2743700Y843700D1*
Y1043700D1*
X2793700Y1093700D1*
X2843700D1*
Y1193700D1*
Y1293700D1*
Y1093700D2*
X2918700D1*
X2968700Y1043700D1*
Y981200D1*
X3156200Y793700D1*
X3343700D1*
X3393700D1*
X3468700Y868700D1*
Y1093700D1*
X3518700Y1143700D1*
X3593700D1*
Y1243700D1*
Y1343700D1*
Y1143700D2*
X3668700D1*
X3718700Y1093700D1*
Y924949D1*
X3799949Y843700D1*
X4093700D1*
X2293700Y2593700D2*
Y2693700D1*
X1893700Y2418897D2*
X1993700D1*
X2093700D1*
X2118897D1*
X2293700Y2593700D1*
X943676Y2173371D2*
D15*
X1604621D1*
X1612451Y2181200D1*
X1774951D1*
Y2231200D1*
X1768700Y2393700D2*
X1781200D1*
Y2406200D1*
X1793897Y2418897D1*
X1893700D1*
X2528409Y2109254D2*
D16*
X2541409D1*
X2619409Y2031254D1*
X3843700Y1093700D2*
D17*
X3793700Y1143700D1*
X3843700Y1093700D2*
X3793700D1*
X3843700D2*
X3793700Y1043700D1*
X3093700D2*
X3043700Y1093700D1*
X3093700Y1043700D2*
X3043700D1*
X3093700D2*
X3043700Y993700D1*
X2393700Y1043700D2*
X2343700Y1093700D1*
X2393700Y1043700D2*
X2343700D1*
X2393700D2*
X2343700Y993700D1*
X1643700Y1043700D2*
X1593700Y1093700D1*
X1643700Y1043700D2*
X1593700D1*
X1643700D2*
X1593700Y993700D1*
X943700Y1043700D2*
X893700Y1093700D1*
X943700Y1043700D2*
X893700D1*
X943700D2*
X893700Y993700D1*
X993700Y2593700D2*
D13*
Y2693700D1*
X528322Y2433213D2*
D15*
X591687D1*
X593700Y2431200D1*
X1693700Y2418700D2*
X1643700D1*
X1774951Y2143798D2*
X1718798D1*
X1718700Y2143700D1*
X910212Y2433213D2*
D16*
X595713D1*
X593700Y2431200D1*
X943676Y2259985D2*
X764915D1*
X593700Y2431200D1*
X2975146Y2818700D2*
X2924949D1*
X528322Y1855260D2*
D15*
X592760D1*
X593700Y1856200D1*
X910212Y1855260D2*
D16*
X594640D1*
X593700Y1856200D1*
X693700Y793700D2*
D18*
X666928D1*
X618700Y841928D1*
Y1518700D1*
X678739Y1578739D1*
X1243700D1*
Y2343700D2*
X1093700D1*
Y2693700D2*
D16*
Y2593700D1*
X1393700Y693700D2*
D13*
X1343700Y643700D1*
X743700D1*
X693700Y693700D1*
X1393700Y2593700D2*
Y2693700D1*
Y1893700D2*
D18*
X1039369D1*
Y1618109D2*
X668109D1*
X568700Y1518700D1*
Y818700D1*
X693700Y693700D1*
Y893700D2*
D13*
Y993700D1*
X3284645Y2645570D2*
D19*
X3889321D1*
X3981201Y2737450D1*
X4206200D1*
X2631200Y1581200D2*
D16*
X1793700D1*
X2143700Y693700D2*
D13*
X2193700Y643700D1*
X2793700D1*
X2843700Y693700D1*
X1493700Y2593700D2*
Y2693700D1*
X1943700Y1943700D2*
D18*
X1493700D1*
X2843700Y893700D2*
D13*
Y993700D1*
X3043700Y543700D2*
D20*
Y693700D1*
X2943700Y793700D1*
X2973436Y823436D1*
X2993700Y843700D1*
X2973436Y823436D2*
D15*
X2968700Y818700D1*
X1593700Y543700D2*
D20*
Y731200D1*
X1512449Y812451D1*
X1538591Y838591D1*
X1568700Y868700D1*
X1538591Y838591D2*
D15*
X1543700Y843700D1*
X1881250Y2106397D2*
D16*
X2068897D1*
X2143700Y2181200D1*
X2593700D1*
X1293700Y2593700D2*
D13*
Y2693700D1*
X3387449Y2049949D2*
D14*
Y2143700D1*
X3162449Y2368700D1*
X1868700D1*
X1856200Y2356200D1*
X1743700D1*
X1731200Y2368700D1*
X1543700D1*
X1468700Y2443700D1*
X1293700D1*
X2093700Y2493700D2*
D13*
Y2593700D1*
Y2693700D1*
X1993700Y2493700D2*
Y2593700D1*
Y2693700D1*
X1593700Y2593700D2*
Y2693700D1*
X3331200Y2112449D2*
D14*
X3174949Y2268700D1*
X1593700D1*
X1693700Y2593700D2*
D13*
Y2693700D1*
Y2493503D2*
D15*
Y2593700D1*
Y2306200D2*
X1956200D1*
Y2143798D2*
X1881250D1*
X3012451Y2632430D2*
D17*
Y2739863D1*
X3012548Y2739960D1*
D21*
X3077460D1*
X3099949Y2762449D1*
Y2806200D1*
X3168700Y2874951D1*
X3356545D1*
X3363385Y2881791D1*
X1893700Y2493700D2*
D13*
Y2593700D1*
Y2693700D1*
X893700Y1693700D2*
D16*
X974949Y1774949D1*
X1093700D1*
X1162451Y1843700D1*
X2362451D1*
X2456200Y2868700D2*
X2474949Y2887451D1*
X2968700D1*
X2193700Y1987451D2*
D15*
X2188092Y1993058D1*
X1104927D1*
Y2124949D2*
X948791D1*
X943676Y2130064D1*
Y2086756D2*
X1356200D1*
X842037Y2862812D2*
D16*
X1173048D1*
X1193700Y2883464D1*
Y3043700D1*
X943676Y2303292D2*
D15*
X1549949D1*
X793700Y3043700D2*
D22*
X893700D1*
X1045821Y2390037D2*
D16*
X1292695D1*
X1774951Y2106397D2*
D15*
X1681200D1*
Y1793700D2*
X1285691D1*
X1193700Y1701709D1*
Y1693700D1*
X493700Y2593700D2*
D17*
Y2693700D1*
Y2857814D1*
X484898D1*
X2043700Y2031200D2*
D18*
X1193700D1*
Y2693700D2*
D16*
Y2593700D1*
X1393700Y893700D2*
D13*
Y993700D1*
X2193700Y2593700D2*
Y2693700D1*
X2143700Y893700D2*
Y993700D1*
X2476409Y1953254D2*
D16*
X2528409D1*
X1881250Y2181200D2*
Y2206250D1*
X1893700Y2218700D1*
X3163344D1*
Y2055115D1*
X642378Y2857814D2*
D17*
Y2832522D1*
X706200Y2768700D1*
X2756201D1*
X3012451Y2512451D1*
Y2474949D1*
X3363385Y2409350D2*
D23*
X3234301D1*
X3212451Y2431200D1*
X3081200D1*
X3037451Y2474949D1*
X3012451D1*
X1793700Y2593700D2*
D13*
Y2693700D1*
X1806200Y2493503D2*
D16*
Y2593700D1*
X1793700D1*
X3049949Y2818700D2*
D15*
Y2881003D1*
X3043503Y2887451D1*
X2693700Y3043700D2*
D16*
X2793700D1*
X993700D2*
D22*
X1093700D1*
X1293700Y1618700D2*
D16*
X1318700Y1643700D1*
X2043700D1*
X2093700Y1693700D1*
X3593700Y943700D2*
D13*
Y1043700D1*
X943676Y2216678D2*
D15*
X1443700D1*
X793700Y2593700D2*
D13*
Y2693700D1*
X693700Y2593700D2*
Y2693700D1*
X593700Y2593700D2*
Y2693700D1*
X2710409Y2031254D2*
D16*
Y1955497D1*
X2710039Y1955127D1*
X2619409Y2106057D2*
X2710409D1*
X3843700Y2409350D2*
D24*
X3932086D1*
D19*
X4034350D1*
X4165600Y2540600D1*
X4206200D1*
X2710039Y1742528D2*
D16*
Y1705884D1*
X2697409Y1693254D1*
Y1657451D1*
X2694212Y1654254D1*
X2660039Y1955127D2*
X2605085D1*
X2603212Y1953254D1*
Y1959648D1*
X2528409Y2034451D1*
X3593700Y1443700D2*
X3568700D1*
X3443700Y1318700D1*
Y1268700D1*
X3418700Y1243700D1*
X3218700D1*
X3143700Y1168700D1*
X3018700D1*
X2968700Y1218700D1*
Y1268700D1*
X2843700Y1393700D1*
X2793700D1*
X2743700Y1343700D1*
Y1268700D1*
X2718700Y1243700D1*
X2568700D1*
X2493700Y1168700D1*
X2343700D1*
X2293700Y1218700D1*
Y1293700D1*
X2193700Y1393700D1*
X2143700D1*
X2043700D1*
X2018700Y1368700D1*
Y1268700D1*
X1993700Y1243700D1*
X1768700D1*
X1693700Y1168700D1*
X1593700D1*
X1543700Y1218700D1*
Y1318700D1*
X1468700Y1393700D1*
X1393700D1*
X1318700D1*
X1293700Y1368700D1*
Y1268700D1*
X1268700Y1243700D1*
X1068700D1*
X993700Y1168700D1*
X868700D1*
X818700Y1218700D1*
Y1343700D1*
X768700Y1393700D1*
X693700D1*
X893700Y2593700D2*
D13*
Y2693700D1*
X2760039Y1742528D2*
D25*
Y1655625D1*
X2765214Y1650449D1*
D26*
Y1511810D1*
X3093700D1*
Y1291731D1*
D20*
X1774951Y2231200D3*
X1768700Y2393700D3*
X1243700Y1578739D3*
Y2343700D3*
X1093700D3*
X1393700Y1893700D3*
X1039369D3*
Y1618109D3*
X2631200Y1581200D3*
X1793700D3*
X1943700Y1943700D3*
X1493700D3*
X2943700Y793700D3*
X1512449Y812451D3*
X2593700Y2181200D3*
X3387449Y2049949D3*
X1293700Y2443700D3*
X3331200Y2112449D3*
X1593700Y2268700D3*
X1693700Y2306200D3*
X1956200D3*
Y2143798D3*
X2362451Y1843700D3*
X2456200Y2868700D3*
X2193700Y1987451D3*
X1104927Y1993058D3*
Y2124949D3*
X1356200Y2086756D3*
X842037Y2862812D3*
X1549949Y2303292D3*
X1045821Y2390037D3*
X1292695D3*
X1681200Y2106397D3*
Y1793700D3*
X2043700Y2031200D3*
X1193700D3*
X1293700Y1618700D3*
X1443700Y2216678D3*
X1568700Y868700D3*
X2993700Y843700D3*
D60*
X2775409Y1875254D3*
Y1849254D3*
Y1823254D3*
X2736409Y1875254D3*
Y1849254D3*
Y1823254D3*
X2697409Y1875254D3*
Y1849254D3*
Y1823254D3*
X3126700Y1627700D3*
X3087700D3*
D20*
X2476409Y1953254D3*
X3218700Y2068700D3*
Y1656200D3*
X1593700Y1093700D3*
Y1043700D3*
Y993700D3*
X893700Y1093700D3*
Y1043700D3*
Y993700D3*
X2343700Y1093700D3*
Y1043700D3*
Y993700D3*
X3043700Y1093700D3*
Y1043700D3*
Y993700D3*
X3793700Y1143700D3*
Y1093700D3*
Y1043700D3*
X3218700Y2118700D3*
X593700Y2431200D3*
Y1856200D3*
X2924949Y2818700D3*
X1643700Y2418700D3*
X1718700Y2143700D3*
X1543700Y843700D3*
X2968700Y818700D3*
X3102666Y2084331D2*
D17*
X3241705D1*
X3102629Y2059462D2*
X3241705D1*
X3102594Y2034594D2*
X3241705D1*
X3102558Y2009725D2*
X3241705D1*
X3102522Y1984856D2*
X3241705D1*
X3102522Y1959987D2*
X3241705D1*
X3102486Y1935119D2*
X3241705D1*
X3102451Y1910250D2*
X3241705D1*
X3126923Y1885381D2*
X3241705D1*
X3156098Y1860512D2*
X3241705D1*
X3185271Y1835644D2*
X3241705D1*
X3193704Y1810775D2*
X3241705D1*
X3193704Y1785906D2*
X3241705D1*
X3193704Y1761037D2*
X3241705D1*
X3193704Y1736169D2*
X3241705D1*
X3193704Y1711300D2*
X3241705D1*
X3193704Y1686431D2*
X3241705D1*
X3193704Y1661562D2*
X3241705D1*
X3244176Y2109200D2*
X3100209D1*
X3099939Y1906200D1*
X3188196Y1830829D1*
X3189831Y1828388D1*
X3190851Y1825632D1*
X3191200Y1822710D1*
Y1653218D1*
X3244188Y1653200D1*
X3244200Y2109169D1*
X2883699Y2100071D2*
X2972428D1*
X2883699Y2075203D2*
X2972428D1*
X2883699Y2050334D2*
X2972428D1*
X2883699Y2025465D2*
X2972428D1*
X2877024Y2000596D2*
X2972428D1*
X2814981Y1975728D2*
X2972428D1*
X2822696Y1950859D2*
X2972428D1*
X2857539Y1925990D2*
X2983444D1*
X2858724Y1901121D2*
X3004150D1*
X2858724Y1876252D2*
X3024890D1*
X2858724Y1851384D2*
X3034939D1*
X2858724Y1826515D2*
X3034939D1*
X2937201Y1801646D2*
X3034939D1*
X2962070Y1776777D2*
X3034939D1*
X2974943Y1943746D2*
Y2124961D1*
X2881190Y2124940D1*
X2881052Y2010498D1*
X2880254Y2007670D1*
X2878818Y2005106D1*
X2872545Y1998615D1*
X2863554Y1989842D1*
X2860990Y1988406D1*
X2858162Y1987608D1*
X2847020Y1987455D1*
X2812464D1*
X2812462Y1956427D1*
X2852476Y1927623D1*
X2854313Y1925330D1*
X2855565Y1922671D1*
X2856161Y1919794D1*
X2856208Y1812460D1*
X2920655Y1812322D1*
X2923483Y1811524D1*
X2926048Y1810088D1*
X2934035Y1802318D1*
X2961369Y1774983D1*
X3037402Y1774980D1*
X3037436Y1864199D1*
X2976707Y1937309D1*
X2975508Y1939993D1*
X2974970Y1942885D1*
X2944936Y1694331D2*
X3124704D1*
X2868718Y1669462D2*
X3124704D1*
X2868718Y1644594D2*
X3124704D1*
X2868718Y1619725D2*
X3124704D1*
X2942436Y1697623D2*
Y1689360D1*
X2932784D1*
X2925401Y1683184D1*
X2922751Y1681911D1*
X2919880Y1681292D1*
X2866192Y1680398D1*
X2866200Y1614221D1*
X3127174Y1614200D1*
X3127200Y1719149D1*
X2967095Y1718745D1*
X2942436Y1697619D1*
X2426427Y2097885D2*
X2460720D1*
X2426427Y2073016D2*
X2460002D1*
X2426427Y2048148D2*
X2460002D1*
X2426427Y2023279D2*
X2460002D1*
X2426427Y1998410D2*
X2460002D1*
X2426427Y1923804D2*
X2437953D1*
X2426427Y1898935D2*
X2460039D1*
X2426427Y1874066D2*
X2784969D1*
X2426427Y1849197D2*
X2784969D1*
X2426427Y1824329D2*
X2784969D1*
X2426427Y1799460D2*
X2647461D1*
X2426427Y1774591D2*
X2647461D1*
X2426427Y1749722D2*
X2647461D1*
X2426427Y1724854D2*
X2647461D1*
X2426427Y1699985D2*
X2639638D1*
X2426427Y1675116D2*
X2633969D1*
X2426427Y1650247D2*
X2632066D1*
X2642121Y1699742D2*
Y1710281D1*
X2647397D1*
X2649977Y1721671D1*
X2650130Y1808180D1*
X2650928Y1811008D1*
X2652364Y1813573D1*
X2654359Y1815730D1*
X2656802Y1817363D1*
X2659558Y1818380D1*
X2662477Y1818725D1*
X2787461D1*
X2787462Y1881474D1*
X2473041Y1887619D1*
X2470213Y1888417D1*
X2467649Y1889852D1*
X2465491Y1891847D1*
X2463859Y1894291D1*
X2462842Y1897046D1*
X2462497Y1899965D1*
Y1908901D1*
X2455298Y1911822D1*
X2449077Y1915634D1*
X2443528Y1920373D1*
X2438789Y1925922D1*
X2434977Y1932144D1*
X2432184Y1938885D1*
X2430481Y1945980D1*
X2429909Y1953254D1*
X2430481Y1960528D1*
X2432184Y1967623D1*
X2434977Y1974364D1*
X2438789Y1980586D1*
X2443528Y1986134D1*
X2449077Y1990873D1*
X2455298Y1994686D1*
X2462493Y1997606D1*
X2462650Y2095650D1*
X2463448Y2098478D1*
X2464884Y2101043D1*
X2466878Y2103200D1*
X2469322Y2104833D1*
X2472078Y2105850D1*
X2474997Y2106195D1*
X2543141D1*
X2542448Y2122721D1*
X2423898Y2122754D1*
X2423909Y1640734D1*
X2633855Y1640754D1*
X2637801Y1690313D1*
X2638797Y1693078D1*
X2642120Y1699721D1*
X2814981Y1737609D2*
X2903710D1*
X2832255Y1762478D2*
X2812447D1*
X2812462Y1724991D1*
X2832369Y1725073D1*
X2836360Y1728847D1*
X2838924Y1730283D1*
X2841752Y1731081D1*
X2851207Y1731234D1*
X2906193D1*
X2906200Y1756233D1*
X2841752Y1756382D1*
X2838924Y1757180D1*
X2836360Y1758616D1*
X2832276Y1762482D1*
X4083704Y1731331D2*
X4203688D1*
X4083704Y1706462D2*
X4203688D1*
X4083704Y1681594D2*
X4203688D1*
X4064578Y1656725D2*
X4203688D1*
X4039961Y1631856D2*
X4203688D1*
X3992127Y1606987D2*
X4203688D1*
X3452285Y1582119D2*
X4203688D1*
X3427418Y1557250D2*
X4203688D1*
X3402550Y1532381D2*
X4203688D1*
X940178Y1507512D2*
X4203688D1*
X933718Y1482644D2*
X3512451D1*
X3808687D2*
X4203688D1*
X933718Y1457775D2*
X2703693D1*
X3058708D2*
X3487583D1*
X3808687D2*
X4203688D1*
X933718Y1432906D2*
X1228709D1*
X1633710D2*
X1953714D1*
X2383691D2*
X2703693D1*
X3058708D2*
X3462716D1*
X3808687D2*
X4203688D1*
X933718Y1408037D2*
X1228709D1*
X1633710D2*
X1953714D1*
X2383691D2*
X2703693D1*
X3058708D2*
X3437848D1*
X3808687D2*
X3912847D1*
X933718Y1383169D2*
X1212993D1*
X1633710D2*
X1917184D1*
X2383691D2*
X2667199D1*
X3058708D2*
X3412980D1*
X3808687D2*
X3887980D1*
X933718Y1358300D2*
X1038129D1*
X1633710D2*
X1717452D1*
X2383691D2*
X2488137D1*
X3058708D2*
X3188130D1*
X3808687D2*
X3863111D1*
X933718Y1333431D2*
X1013262D1*
X2383691D2*
X2463270D1*
X3058708D2*
X3163262D1*
X2383691Y1308562D2*
X2438402D1*
X3058708D2*
X3138394D1*
X4206200Y1718735D2*
Y1738497D1*
X4188544Y1756179D1*
X4098881Y1756200D1*
X4081221Y1738544D1*
X4081056Y1679308D1*
X4080273Y1676476D1*
X4078851Y1673905D1*
X4071121Y1665877D1*
X4015008Y1609413D1*
X4012447Y1607973D1*
X4009620Y1607171D1*
X3998478Y1607001D1*
X3473873Y1606208D1*
X3401048Y1533587D1*
X3398483Y1532151D1*
X3395655Y1531354D1*
X3384514Y1531200D1*
X961381D1*
X931207Y1501029D1*
X931200Y1331193D1*
X1013519Y1331200D1*
X1061352Y1378813D1*
X1063917Y1380249D1*
X1066745Y1381046D1*
X1077886Y1381200D1*
X1213497D1*
X1231179Y1398856D1*
X1231354Y1445655D1*
X1232151Y1448483D1*
X1233587Y1451048D1*
X1235582Y1453205D1*
X1238025Y1454838D1*
X1240781Y1455855D1*
X1243700Y1456200D1*
X1620655Y1456046D1*
X1623483Y1455249D1*
X1626048Y1453813D1*
X1628205Y1451818D1*
X1629838Y1449375D1*
X1630855Y1446619D1*
X1631200Y1443700D1*
Y1356179D1*
X1715745Y1356200D1*
X1764838Y1380588D1*
X1767720Y1381162D1*
X1915741Y1381200D1*
X1956214Y1401432D1*
X1956354Y1445655D1*
X1957151Y1448483D1*
X1958587Y1451048D1*
X1960582Y1453205D1*
X1963025Y1454838D1*
X1965781Y1455855D1*
X1968700Y1456200D1*
X2370655Y1456046D1*
X2373483Y1455249D1*
X2376048Y1453813D1*
X2378205Y1451818D1*
X2379838Y1449375D1*
X2380855Y1446619D1*
X2381200Y1443700D1*
Y1306228D1*
X2438495Y1306200D1*
X2511352Y1378813D1*
X2513917Y1380249D1*
X2516745Y1381046D1*
X2527886Y1381200D1*
X2665741D1*
X2706214Y1401432D1*
X2706354Y1470655D1*
X2707151Y1473483D1*
X2708587Y1476048D1*
X2710582Y1478205D1*
X2713025Y1479838D1*
X2715781Y1480855D1*
X2718700Y1481200D1*
X3045655Y1481046D1*
X3048483Y1480249D1*
X3051048Y1478813D1*
X3053205Y1476818D1*
X3054838Y1474375D1*
X3055855Y1471619D1*
X3056200Y1468700D1*
Y1306180D1*
X3138519Y1306200D1*
X3211352Y1378813D1*
X3213917Y1380249D1*
X3216745Y1381046D1*
X3227886Y1381200D1*
X3413523D1*
X3536352Y1503813D1*
X3538917Y1505249D1*
X3541745Y1506046D1*
X3552886Y1506200D1*
X3795655Y1506046D1*
X3798483Y1505249D1*
X3801048Y1503813D1*
X3803205Y1501818D1*
X3804838Y1499375D1*
X3805855Y1496619D1*
X3806200Y1493700D1*
Y1356228D1*
X3863495Y1356200D1*
X3936352Y1428813D1*
X3938917Y1430249D1*
X3941745Y1431046D1*
X3952886Y1431200D1*
X4206193D1*
X4206200Y1718704D1*
D29*
X943700Y1043700D3*
Y1291731D3*
X1643700Y1043700D3*
Y1291731D3*
X2393700Y1043700D3*
Y1291731D3*
D30*
X2886409Y1816254D3*
Y1741451D3*
D29*
X3093700Y1043700D3*
Y1291731D3*
D31*
X2875451Y1650449D3*
X2765214D3*
X3106200Y1693700D3*
X3216436D3*
D30*
X2710409Y2031254D3*
Y2106057D3*
D29*
X3843700Y1093700D3*
Y1341731D3*
D33*
X484898Y2857814D3*
X642378D3*
D35*
X3012451Y2474949D3*
Y2632430D3*
X3003409Y1830218D3*
Y1672738D3*
D37*
X531495Y708661D3*
X4015747Y3169291D3*
D38*
X1493700Y3043700D3*
D39*
X1593700D3*
X1693700D3*
X1793700D3*
X1893700D3*
X1993700D3*
X2093700D3*
X2193700D3*
D38*
X793700Y543700D3*
D39*
X893700D3*
X993700D3*
X1093700D3*
D38*
X793700Y3043700D3*
D39*
Y3143700D3*
X893700Y3043700D3*
Y3143700D3*
X993700Y3043700D3*
Y3143700D3*
X1093700Y3043700D3*
Y3143700D3*
X1193700Y3043700D3*
Y3143700D3*
D38*
X1493700Y543700D3*
D39*
X1593700D3*
X1693700D3*
X1793700D3*
D38*
X493700Y2693700D3*
D39*
X593700D3*
X693700D3*
X793700D3*
X893700D3*
X993700D3*
X1093700D3*
X1193700D3*
X1293700D3*
X1393700D3*
X1493700D3*
X1593700D3*
X1693700D3*
X1793700D3*
X1893700D3*
X1993700D3*
X2093700D3*
X2193700D3*
X2293700D3*
D38*
X2243700Y543700D3*
D39*
X2343700D3*
X2443700D3*
X2543700D3*
D38*
X2943700D3*
D39*
X3043700D3*
X3143700D3*
X3243700D3*
D38*
X3468700Y2224951D3*
D39*
Y2124951D3*
D38*
X3668700Y543700D3*
D39*
X3768700D3*
X3868700D3*
X3968700D3*
D40*
X943676Y2043449D3*
Y2086756D3*
Y2130064D3*
Y2173371D3*
Y2216678D3*
Y2259985D3*
Y2303292D3*
Y2346599D3*
Y2389906D3*
D41*
X528322Y1855260D3*
D42*
X910212D3*
D43*
Y2433213D3*
D41*
X528322D3*
D38*
X2593700Y3043700D3*
D39*
X2693700D3*
X2793700D3*
X2893700D3*
D44*
X3284645Y2645570D3*
D45*
X3363385Y2409350D3*
D44*
Y2881791D3*
X3843700Y2409350D3*
Y2881791D3*
D46*
X2925155Y2055115D3*
X3163344D3*
D47*
X531495Y531495D3*
X4192913D3*
X531495Y3169291D3*
X4192913D3*
D48*
X3049949Y2818700D3*
X2975146D3*
X3012548Y2739960D3*
D30*
X1893700Y2493700D3*
Y2418897D3*
X1993700Y2493700D3*
Y2418897D3*
X2093700Y2493700D3*
Y2418897D3*
X1806200Y2493503D3*
Y2418700D3*
D49*
X2968700Y2887451D3*
X3043503D3*
X2528409Y1953254D3*
X2603212D3*
D30*
X2528409Y2109254D3*
Y2034451D3*
D49*
X2619409Y1654254D3*
X2694212D3*
D30*
X2619409Y2031254D3*
Y2106057D3*
X1693700Y2418700D3*
Y2493503D3*
D50*
X4206200Y2737450D3*
D51*
Y2540600D3*
D50*
X4143700Y1918700D3*
D51*
Y1721850D3*
D26*
X493700Y2593700D3*
X593700D3*
X693700D3*
X793700D3*
X893700D3*
X993700D3*
X1093700D3*
X1193700D3*
X1293700D3*
X1393700D3*
X1493700D3*
X1593700D3*
X1693700D3*
X1793700D3*
X1893700D3*
X1993700D3*
X2093700D3*
X2193700D3*
X2293700D3*
X493700Y1693700D3*
X593700D3*
X693700D3*
X793700D3*
X893700D3*
X993700D3*
X1093700D3*
X1193700D3*
X1293700D3*
X1393700D3*
X1493700D3*
X1593700D3*
X1693700D3*
X1793700D3*
X1893700D3*
X1993700D3*
X2093700D3*
X2193700D3*
X2293700D3*
D52*
X693700Y1393700D3*
D53*
Y1293700D3*
Y1193700D3*
Y1093700D3*
Y993700D3*
Y893700D3*
Y793700D3*
Y693700D3*
X1193700D3*
Y793700D3*
Y893700D3*
Y993700D3*
Y1093700D3*
Y1193700D3*
Y1293700D3*
Y1393700D3*
D52*
X1393700D3*
D53*
Y1293700D3*
Y1193700D3*
Y1093700D3*
Y993700D3*
Y893700D3*
Y793700D3*
Y693700D3*
X1893700D3*
Y793700D3*
Y893700D3*
Y993700D3*
Y1093700D3*
Y1193700D3*
Y1293700D3*
Y1393700D3*
D52*
X2143700D3*
D53*
Y1293700D3*
Y1193700D3*
Y1093700D3*
Y993700D3*
Y893700D3*
Y793700D3*
Y693700D3*
X2643700D3*
Y793700D3*
Y893700D3*
Y993700D3*
Y1093700D3*
Y1193700D3*
Y1293700D3*
Y1393700D3*
D52*
X2843700D3*
D53*
Y1293700D3*
Y1193700D3*
Y1093700D3*
Y993700D3*
Y893700D3*
Y793700D3*
Y693700D3*
X3343700D3*
Y793700D3*
Y893700D3*
Y993700D3*
Y1093700D3*
Y1193700D3*
Y1293700D3*
Y1393700D3*
D55*
X2810039Y1955127D3*
X2760039D3*
X2710039D3*
X2660039D3*
Y1742528D3*
X2710039D3*
X2760039D3*
X2810039D3*
D56*
X2735039Y1848827D3*
D52*
X3593700Y1443700D3*
D53*
Y1343700D3*
Y1243700D3*
Y1143700D3*
Y1043700D3*
Y943700D3*
Y843700D3*
Y743700D3*
X4093700D3*
Y843700D3*
Y943700D3*
Y1043700D3*
Y1143700D3*
Y1243700D3*
Y1343700D3*
Y1443700D3*
D58*
X1774951Y2181200D3*
Y2143798D3*
Y2106397D3*
X1881250D3*
Y2143798D3*
Y2181200D3*
M02*
