G04 DipTrace 3.3.1.1*
G04 BottomMask.gbr*
%MOIN*%
G04 #@! TF.FileFunction,Soldermask,Bot*
G04 #@! TF.Part,Single*
%ADD60C,0.03937*%
%ADD77C,0.067031*%
%ADD79R,0.067031X0.067031*%
%ADD81C,0.068031*%
%ADD83C,0.128031*%
%ADD85R,0.128031X0.128031*%
%ADD91C,0.208031*%
%ADD95R,0.084803X0.084803*%
%ADD97C,0.084803*%
%ADD107C,0.067087*%
%ADD109R,0.067087X0.067087*%
%FSLAX26Y26*%
G04*
G70*
G90*
G75*
G01*
G04 BotMask*
%LPD*%
D109*
X1493701Y3043701D3*
D107*
X1593701D3*
X1693701D3*
X1793701D3*
X1893701D3*
X1993701D3*
X2093701D3*
X2193701D3*
D109*
X793701Y543701D3*
D107*
X893701D3*
X993701D3*
X1093701D3*
D109*
X1493701D3*
D107*
X1593701D3*
X1693701D3*
X1793701D3*
D109*
X2243701D3*
D107*
X2343701D3*
X2443701D3*
X2543701D3*
D109*
X2943701D3*
D107*
X3043701D3*
X3143701D3*
X3243701D3*
D109*
X3668701D3*
D107*
X3768701D3*
X3868701D3*
X3968701D3*
D109*
X2593701Y3043701D3*
D107*
X2693701D3*
X2793701D3*
X2893701D3*
D109*
X793701D3*
D107*
Y3143701D3*
X893701Y3043701D3*
Y3143701D3*
X993701Y3043701D3*
Y3143701D3*
X1093701Y3043701D3*
Y3143701D3*
X1193701Y3043701D3*
Y3143701D3*
D109*
X493701Y2693701D3*
D107*
X593701D3*
X693701D3*
X793701D3*
X893701D3*
X993701D3*
X1093701D3*
X1193701D3*
X1293701D3*
X1393701D3*
X1493701D3*
X1593701D3*
X1693701D3*
X1793701D3*
X1893701D3*
X1993701D3*
X2093701D3*
X2193701D3*
X2293701D3*
D109*
X3906201Y2213386D3*
D107*
Y2113386D3*
D60*
X512575Y2322584D3*
Y2007623D3*
D97*
X4156201Y2620571D3*
D95*
X4077461Y2856791D3*
D97*
Y2384350D3*
X3597146Y2856791D3*
Y2384350D3*
D91*
X531496Y531496D3*
X4192913D3*
Y3169291D3*
X531496D3*
D85*
X4143701Y1918701D3*
D83*
Y1721850D3*
D85*
X3789764Y3142126D3*
D83*
X3592913D3*
D81*
X493701Y2593701D3*
X593701D3*
X693701D3*
X793701D3*
X893701D3*
X993701D3*
X1093701D3*
X1193701D3*
X1293701D3*
X1393701D3*
X1493701D3*
X1593701D3*
X1693701D3*
X1793701D3*
X1893701D3*
X1993701D3*
X2093701D3*
X2193701D3*
X2293701D3*
X493701Y1693701D3*
X593701D3*
X693701D3*
X793701D3*
X893701D3*
X993701D3*
X1093701D3*
X1193701D3*
X1293701D3*
X1393701D3*
X1493701D3*
X1593701D3*
X1693701D3*
X1793701D3*
X1893701D3*
X1993701D3*
X2093701D3*
X2193701D3*
X2293701D3*
D79*
X693701Y1393701D3*
D77*
Y1293701D3*
Y1193701D3*
Y1093701D3*
Y993701D3*
Y893701D3*
Y793701D3*
Y693701D3*
X1193701D3*
Y793701D3*
Y893701D3*
Y993701D3*
Y1093701D3*
Y1193701D3*
Y1293701D3*
Y1393701D3*
D79*
X1393701D3*
D77*
Y1293701D3*
Y1193701D3*
Y1093701D3*
Y993701D3*
Y893701D3*
Y793701D3*
Y693701D3*
X1893701D3*
Y793701D3*
Y893701D3*
Y993701D3*
Y1093701D3*
Y1193701D3*
Y1293701D3*
Y1393701D3*
D79*
X2143701D3*
D77*
Y1293701D3*
Y1193701D3*
Y1093701D3*
Y993701D3*
Y893701D3*
Y793701D3*
Y693701D3*
X2643701D3*
Y793701D3*
Y893701D3*
Y993701D3*
Y1093701D3*
Y1193701D3*
Y1293701D3*
Y1393701D3*
D79*
X2843701D3*
D77*
Y1293701D3*
Y1193701D3*
Y1093701D3*
Y993701D3*
Y893701D3*
Y793701D3*
Y693701D3*
X3343701D3*
Y793701D3*
Y893701D3*
Y993701D3*
Y1093701D3*
Y1193701D3*
Y1293701D3*
Y1393701D3*
D79*
X3593701Y1443701D3*
D77*
Y1343701D3*
Y1243701D3*
Y1143701D3*
Y1043701D3*
Y943701D3*
Y843701D3*
Y743701D3*
X4093701D3*
Y843701D3*
Y943701D3*
Y1043701D3*
Y1143701D3*
Y1243701D3*
Y1343701D3*
Y1443701D3*
M02*
