G04 DipTrace 3.3.1.1*
G04 TopMask.gbr*
%MOIN*%
G04 #@! TF.FileFunction,Soldermask,Top*
G04 #@! TF.Part,Single*
%ADD35C,0.11811*%
%ADD60C,0.03937*%
%ADD71R,0.14622X0.111181*%
%ADD73R,0.032047X0.071024*%
%ADD75R,0.051339X0.031654*%
%ADD77C,0.067031*%
%ADD79R,0.067031X0.067031*%
%ADD81C,0.068031*%
%ADD83C,0.128031*%
%ADD85R,0.128031X0.128031*%
%ADD87R,0.059213X0.067087*%
%ADD89R,0.039528X0.043465*%
%ADD91C,0.208031*%
%ADD93R,0.100551X0.145827*%
%ADD95R,0.084803X0.084803*%
%ADD97C,0.084803*%
%ADD99R,0.06315X0.039528*%
%ADD101R,0.06315X0.055276*%
%ADD103R,0.086772X0.055276*%
%ADD105R,0.059213X0.035591*%
%ADD107C,0.067087*%
%ADD109R,0.067087X0.067087*%
%ADD111C,0.047402*%
%ADD113R,0.106457X0.074961*%
%ADD115R,0.074961X0.106457*%
%ADD117R,0.071024X0.078898*%
%ADD119R,0.071024X0.171417*%
%ADD121R,0.067087X0.059213*%
%FSLAX26Y26*%
G04*
G70*
G90*
G75*
G01*
G04 TopMask*
%LPD*%
D121*
X2886409Y1816255D3*
Y1741451D3*
D119*
X943701Y1043701D3*
Y1291732D3*
X1643701Y1043701D3*
Y1291732D3*
X2393701Y1043701D3*
Y1291732D3*
X3093701Y1043701D3*
Y1291732D3*
X3843701Y1093701D3*
Y1341732D3*
D117*
X2875451Y1650450D3*
X2765215D3*
D121*
X2710409Y2031255D3*
Y2106058D3*
D117*
X3106201Y1693701D3*
X3216437D3*
D115*
X3003409Y1830219D3*
Y1672739D3*
X3292749Y2479274D3*
Y2636755D3*
D113*
X484899Y2857815D3*
X642379D3*
D35*
X531496Y708661D3*
D111*
D3*
D109*
X1493701Y3043701D3*
D107*
X1593701D3*
X1693701D3*
X1793701D3*
X1893701D3*
X1993701D3*
X2093701D3*
X2193701D3*
D109*
X793701Y543701D3*
D107*
X893701D3*
X993701D3*
X1093701D3*
D109*
X1493701D3*
D107*
X1593701D3*
X1693701D3*
X1793701D3*
D109*
X2243701D3*
D107*
X2343701D3*
X2443701D3*
X2543701D3*
D109*
X2943701D3*
D107*
X3043701D3*
X3143701D3*
X3243701D3*
D109*
X3668701D3*
D107*
X3768701D3*
X3868701D3*
X3968701D3*
D109*
X2593701Y3043701D3*
D107*
X2693701D3*
X2793701D3*
X2893701D3*
D109*
X793701D3*
D107*
Y3143701D3*
X893701Y3043701D3*
Y3143701D3*
X993701Y3043701D3*
Y3143701D3*
X1093701Y3043701D3*
Y3143701D3*
X1193701Y3043701D3*
Y3143701D3*
D109*
X493701Y2693701D3*
D107*
X593701D3*
X693701D3*
X793701D3*
X893701D3*
X993701D3*
X1093701D3*
X1193701D3*
X1293701D3*
X1393701D3*
X1493701D3*
X1593701D3*
X1693701D3*
X1793701D3*
X1893701D3*
X1993701D3*
X2093701D3*
X2193701D3*
X2293701D3*
D109*
X3906201Y2213386D3*
D107*
Y2113386D3*
D105*
X943677Y2043450D3*
Y2086757D3*
Y2130064D3*
Y2173371D3*
Y2216678D3*
Y2259986D3*
Y2303293D3*
Y2346600D3*
Y2389907D3*
D103*
X528323Y1855261D3*
D101*
X910213D3*
D99*
Y2433214D3*
D103*
X528323D3*
D60*
X512575Y2322584D3*
Y2007623D3*
D97*
X4156201Y2620571D3*
D95*
X4077461Y2856791D3*
D97*
Y2384350D3*
X3597146Y2856791D3*
Y2384350D3*
D93*
X2925156Y2055115D3*
X3163345D3*
D91*
X531496Y531496D3*
X4192913D3*
Y3169291D3*
X531496D3*
D89*
X3331201Y2818701D3*
X3256398D3*
X3293799Y2739961D3*
D121*
X1693701Y2418701D3*
Y2493504D3*
X1893701Y2493701D3*
Y2418898D3*
X1993701Y2493701D3*
Y2418898D3*
X2093701Y2493701D3*
Y2418898D3*
D87*
X2619409Y1654255D3*
X2694213D3*
D121*
X2619409Y2031255D3*
Y2106058D3*
D87*
X3256201Y2893701D3*
X3331004D3*
D121*
X2528409Y2109255D3*
Y2034451D3*
D87*
Y1953255D3*
X2603213D3*
D121*
X1806201Y2493504D3*
Y2418701D3*
D85*
X4143701Y1918701D3*
D83*
Y1721850D3*
D85*
X3789764Y3142126D3*
D83*
X3592913D3*
D81*
X493701Y2593701D3*
X593701D3*
X693701D3*
X793701D3*
X893701D3*
X993701D3*
X1093701D3*
X1193701D3*
X1293701D3*
X1393701D3*
X1493701D3*
X1593701D3*
X1693701D3*
X1793701D3*
X1893701D3*
X1993701D3*
X2093701D3*
X2193701D3*
X2293701D3*
X493701Y1693701D3*
X593701D3*
X693701D3*
X793701D3*
X893701D3*
X993701D3*
X1093701D3*
X1193701D3*
X1293701D3*
X1393701D3*
X1493701D3*
X1593701D3*
X1693701D3*
X1793701D3*
X1893701D3*
X1993701D3*
X2093701D3*
X2193701D3*
X2293701D3*
D79*
X693701Y1393701D3*
D77*
Y1293701D3*
Y1193701D3*
Y1093701D3*
Y993701D3*
Y893701D3*
Y793701D3*
Y693701D3*
X1193701D3*
Y793701D3*
Y893701D3*
Y993701D3*
Y1093701D3*
Y1193701D3*
Y1293701D3*
Y1393701D3*
D79*
X1393701D3*
D77*
Y1293701D3*
Y1193701D3*
Y1093701D3*
Y993701D3*
Y893701D3*
Y793701D3*
Y693701D3*
X1893701D3*
Y793701D3*
Y893701D3*
Y993701D3*
Y1093701D3*
Y1193701D3*
Y1293701D3*
Y1393701D3*
D79*
X2143701D3*
D77*
Y1293701D3*
Y1193701D3*
Y1093701D3*
Y993701D3*
Y893701D3*
Y793701D3*
Y693701D3*
X2643701D3*
Y793701D3*
Y893701D3*
Y993701D3*
Y1093701D3*
Y1193701D3*
Y1293701D3*
Y1393701D3*
D79*
X2843701D3*
D77*
Y1293701D3*
Y1193701D3*
Y1093701D3*
Y993701D3*
Y893701D3*
Y793701D3*
Y693701D3*
X3343701D3*
Y793701D3*
Y893701D3*
Y993701D3*
Y1093701D3*
Y1193701D3*
Y1293701D3*
Y1393701D3*
D79*
X3593701Y1443701D3*
D77*
Y1343701D3*
Y1243701D3*
Y1143701D3*
Y1043701D3*
Y943701D3*
Y843701D3*
Y743701D3*
X4093701D3*
Y843701D3*
Y943701D3*
Y1043701D3*
Y1143701D3*
Y1243701D3*
Y1343701D3*
Y1443701D3*
D75*
X1774951Y2181201D3*
Y2143799D3*
Y2106398D3*
X1881251D3*
Y2143799D3*
Y2181201D3*
D73*
X2810039Y1955127D3*
X2760039D3*
X2710039D3*
X2660039D3*
Y1742529D3*
X2710039D3*
X2760039D3*
X2810039D3*
D71*
X2735039Y1848828D3*
D35*
X4015748Y3169291D3*
D111*
D3*
M02*
