G04 DipTrace 3.3.1.1*
G04 TopPaste.gbr*
%MOIN*%
G04 #@! TF.FileFunction,Paste,Top*
G04 #@! TF.Part,Single*
%ADD72R,0.130157X0.095118*%
%ADD74R,0.015984X0.054961*%
%ADD76R,0.035276X0.015591*%
%ADD88R,0.04315X0.051024*%
%ADD90R,0.023465X0.027402*%
%ADD94R,0.084488X0.129764*%
%ADD100R,0.047087X0.023465*%
%ADD102R,0.047087X0.039213*%
%ADD104R,0.070709X0.039213*%
%ADD106R,0.04315X0.019528*%
%ADD114R,0.090394X0.058898*%
%ADD116R,0.058898X0.090394*%
%ADD118R,0.054961X0.062835*%
%ADD120R,0.054961X0.155354*%
%ADD122R,0.051024X0.04315*%
%FSLAX26Y26*%
G04*
G70*
G90*
G75*
G01*
G04 TopPaste*
%LPD*%
D122*
X2886409Y1816255D3*
Y1741451D3*
D120*
X943701Y1043701D3*
Y1291732D3*
X1643701Y1043701D3*
Y1291732D3*
X2393701Y1043701D3*
Y1291732D3*
X3093701Y1043701D3*
Y1291732D3*
X3843701Y1093701D3*
Y1341732D3*
D118*
X2875451Y1650450D3*
X2765215D3*
D122*
X2710409Y2031255D3*
Y2106058D3*
D118*
X3106201Y1693701D3*
X3216437D3*
D116*
X3003409Y1830219D3*
Y1672739D3*
X3292749Y2479274D3*
Y2636755D3*
D114*
X484899Y2857815D3*
X642379D3*
D106*
X943677Y2043450D3*
Y2086757D3*
Y2130064D3*
Y2173371D3*
Y2216678D3*
Y2259986D3*
Y2303293D3*
Y2346600D3*
Y2389907D3*
D104*
X528323Y1855261D3*
D102*
X910213D3*
D100*
Y2433214D3*
D104*
X528323D3*
D94*
X2925156Y2055115D3*
X3163345D3*
D90*
X3331201Y2818701D3*
X3256398D3*
X3293799Y2739961D3*
D122*
X1693701Y2418701D3*
Y2493504D3*
X1893701Y2493701D3*
Y2418898D3*
X1993701Y2493701D3*
Y2418898D3*
X2093701Y2493701D3*
Y2418898D3*
D88*
X2619409Y1654255D3*
X2694213D3*
D122*
X2619409Y2031255D3*
Y2106058D3*
D88*
X3256201Y2893701D3*
X3331004D3*
D122*
X2528409Y2109255D3*
Y2034451D3*
D88*
Y1953255D3*
X2603213D3*
D122*
X1806201Y2493504D3*
Y2418701D3*
D76*
X1774951Y2181201D3*
Y2143799D3*
Y2106398D3*
X1881251D3*
Y2143799D3*
Y2181201D3*
D74*
X2810039Y1955127D3*
X2760039D3*
X2710039D3*
X2660039D3*
Y1742529D3*
X2710039D3*
X2760039D3*
X2810039D3*
D72*
X2735039Y1848828D3*
M02*
