G04 DipTrace 3.3.1.1*
G04 TopSilk.gbr*
%MOIN*%
G04 #@! TF.FileFunction,Legend,Top*
G04 #@! TF.Part,Single*
%ADD10C,0.009843*%
%ADD26C,0.008*%
%ADD28C,0.031482*%
%ADD31C,0.019677*%
%ADD33C,0.019695*%
%ADD53C,0.015395*%
%ADD55C,0.019692*%
%ADD123C,0.006176*%
%ADD124C,0.015439*%
%ADD125C,0.012351*%
%ADD126C,0.00772*%
%ADD127C,0.010807*%
%ADD128C,0.009264*%
%FSLAX26Y26*%
G04*
G70*
G90*
G75*
G01*
G04 TopSilk*
%LPD*%
X2860839Y1857614D2*
D10*
X2911980D1*
X1108701Y1287869D2*
Y1002625D1*
X1063821Y1332795D2*
X1108701Y1287869D1*
X778701D2*
Y1002625D1*
X823581Y1332795D2*
X778701Y1287869D1*
X990957Y1332795D2*
X1063821D1*
X823581D2*
X896445D1*
X990957Y1002625D2*
X1108701D1*
X778701D2*
X896445D1*
D28*
X1002738Y1364566D3*
X1808701Y1287869D2*
D10*
Y1002625D1*
X1763821Y1332795D2*
X1808701Y1287869D1*
X1478701D2*
Y1002625D1*
X1523581Y1332795D2*
X1478701Y1287869D1*
X1690957Y1332795D2*
X1763821D1*
X1523581D2*
X1596445D1*
X1690957Y1002625D2*
X1808701D1*
X1478701D2*
X1596445D1*
D28*
X1702738Y1364566D3*
X2558701Y1287869D2*
D10*
Y1002625D1*
X2513821Y1332795D2*
X2558701Y1287869D1*
X2228701D2*
Y1002625D1*
X2273581Y1332795D2*
X2228701Y1287869D1*
X2440957Y1332795D2*
X2513821D1*
X2273581D2*
X2346445D1*
X2440957Y1002625D2*
X2558701D1*
X2228701D2*
X2346445D1*
D28*
X2452738Y1364566D3*
X3258701Y1287869D2*
D10*
Y1002625D1*
X3213821Y1332795D2*
X3258701Y1287869D1*
X2928701D2*
Y1002625D1*
X2973581Y1332795D2*
X2928701Y1287869D1*
X3140957Y1332795D2*
X3213821D1*
X2973581D2*
X3046445D1*
X3140957Y1002625D2*
X3258701D1*
X2928701D2*
X3046445D1*
D28*
X3152738Y1364566D3*
X4008701Y1337869D2*
D10*
Y1052625D1*
X3963821Y1382795D2*
X4008701Y1337869D1*
X3678701D2*
Y1052625D1*
X3723581Y1382795D2*
X3678701Y1337869D1*
X3890957Y1382795D2*
X3963821D1*
X3723581D2*
X3796445D1*
X3890957Y1052625D2*
X4008701D1*
X3678701D2*
X3796445D1*
D28*
X3902738Y1414566D3*
X2824664Y1681915D2*
D10*
Y1618986D1*
X2832113Y1681915D2*
Y1618986D1*
Y1681915D2*
X2808554D1*
X2832113Y1618986D2*
X2808554D1*
X2735980Y1989895D2*
X2684839D1*
X3156988Y1662236D2*
Y1725165D1*
X3149539Y1662236D2*
Y1725165D1*
Y1662236D2*
X3173098D1*
X3149539Y1725165D2*
X3173098D1*
X3042776Y1869598D2*
X3062465D1*
Y1633374D1*
X3042776D1*
X2964043Y1869598D2*
X2944354D1*
Y1633374D1*
X2964043D1*
X3042776Y1771152D2*
X2964043D1*
D31*
X3003409Y1899112D3*
X3253383Y2439895D2*
D10*
X3233694D1*
Y2676120D1*
X3253383D1*
X3332115Y2439895D2*
X3351804D1*
Y2676120D1*
X3332115D1*
X3253383Y2538341D2*
X3332115D1*
D31*
X3292749Y2410382D3*
X445520Y2897181D2*
D10*
Y2916870D1*
X681744D1*
Y2897181D1*
X445520Y2818449D2*
Y2798760D1*
X681744D1*
Y2818449D1*
X543966Y2897181D2*
Y2818449D1*
D33*
X416006Y2857815D3*
X1443701Y3093701D2*
D10*
X2243701D1*
X1443701Y2993701D2*
Y3093701D1*
Y2993701D2*
X2243701D1*
Y3093701D1*
X1143701Y493701D2*
Y593701D1*
X743701Y493701D2*
X1143701D1*
X743701Y593701D2*
X1143701D1*
X743701Y493701D2*
Y593701D1*
X1843701Y493701D2*
Y593701D1*
X1443701Y493701D2*
X1843701D1*
X1443701Y593701D2*
X1843701D1*
X1443701Y493701D2*
Y593701D1*
X2593701Y493701D2*
Y593701D1*
X2193701Y493701D2*
X2593701D1*
X2193701Y593701D2*
X2593701D1*
X2193701Y493701D2*
Y593701D1*
X3293701Y493701D2*
Y593701D1*
X2893701Y493701D2*
X3293701D1*
X2893701Y593701D2*
X3293701D1*
X2893701Y493701D2*
Y593701D1*
X4018701Y493701D2*
Y593701D1*
X3618701Y493701D2*
X4018701D1*
X3618701Y593701D2*
X4018701D1*
X3618701Y493701D2*
Y593701D1*
X2943701Y2993701D2*
Y3093701D1*
X2543701Y2993701D2*
X2943701D1*
X2543701Y3093701D2*
X2943701D1*
X2543701Y2993701D2*
Y3093701D1*
X743701Y2993701D2*
X1243701D1*
X743701Y3193701D2*
X1243701D1*
X743701Y2993701D2*
Y3193701D1*
X1243701Y2993701D2*
Y3193701D1*
X1969401Y2743701D2*
X1977001D1*
X517801D2*
X2343701D1*
X443701D2*
X517801D1*
X443701Y2643701D2*
Y2743701D1*
Y2643701D2*
X2343701D1*
Y2743701D1*
X3856201Y2063386D2*
X3956201D1*
X3856201Y2263386D2*
Y2063386D1*
Y2263386D2*
X3956201D1*
Y2063386D1*
X394268Y2433196D2*
X419288Y2408221D1*
X394268Y2483214D2*
X994268D1*
Y1808214D1*
X394268D1*
Y2483214D1*
X419288Y2408221D2*
Y1883206D1*
X394268Y1858231D1*
X419288Y2158201D2*
X594248D1*
X569288Y2208219D1*
X594248Y2158201D2*
X569288Y2108184D1*
X3384547Y2907583D2*
G02X3408579Y2931594I24014J-3D01*
G01*
X4218783D1*
G02X4242815Y2907583I18J-24014D01*
G01*
Y2333558D1*
G02X4218783Y2309547I-24014J3D01*
G01*
X3408579D1*
G02X3384547Y2333558I-18J24014D01*
G01*
Y2907583D1*
X2885775Y2133852D2*
Y2192911D1*
X3200742D1*
Y2133852D1*
Y1976379D2*
Y1917320D1*
X2885775D1*
Y1976379D1*
X3344982Y2763586D2*
X3246560D1*
Y2795075D1*
X3344982D1*
Y2763586D1*
X4261811Y2036811D2*
X4025591D1*
Y1603740D1*
X4261811D1*
Y2036811D1*
X3907874Y3024016D2*
X3474803D1*
Y3260236D1*
X3907874D1*
Y3024016D1*
X2343701Y2643701D2*
X443701D1*
Y1643701D1*
X2343701D1*
Y2643701D1*
Y2543701D2*
X443701D1*
X2343701Y1743701D2*
X443701D1*
X2293731Y2493701D2*
X1393701D1*
Y1793701D1*
X2293731D1*
Y2493701D1*
X593611Y2293701D2*
X443701D1*
Y1993701D1*
X593611D1*
Y2293701D1*
X643701Y1443701D2*
X743721D1*
Y643701D1*
X643701D1*
Y1443701D1*
X1143681D2*
X1243701D1*
Y643701D1*
X1143681D1*
Y1443701D1*
X743721D2*
X1143681D1*
Y643701D1*
X743721D1*
Y1443701D1*
X1343701D2*
X1443721D1*
Y643701D1*
X1343701D1*
Y1443701D1*
X1843681D2*
X1943701D1*
Y643701D1*
X1843681D1*
Y1443701D1*
X1443721D2*
X1843681D1*
Y643701D1*
X1443721D1*
Y1443701D1*
X2093701D2*
X2193721D1*
Y643701D1*
X2093701D1*
Y1443701D1*
X2593681D2*
X2693701D1*
Y643701D1*
X2593681D1*
Y1443701D1*
X2193721D2*
X2593681D1*
Y643701D1*
X2193721D1*
Y1443701D1*
X2793701D2*
X2893721D1*
Y643701D1*
X2793701D1*
Y1443701D1*
X3293681D2*
X3393701D1*
Y643701D1*
X3293681D1*
Y1443701D1*
X2893721D2*
X3293681D1*
Y643701D1*
X2893721D1*
Y1443701D1*
X3543701Y1493701D2*
X3643721D1*
Y693701D1*
X3543701D1*
Y1493701D1*
X4043681D2*
X4143701D1*
Y693701D1*
X4043681D1*
Y1493701D1*
X3643721D2*
X4043681D1*
Y693701D1*
X3643721D1*
Y1493701D1*
D53*
X1758326Y2208115D3*
X1812392Y2202852D2*
D10*
Y2084744D1*
X1843882Y2202852D2*
Y2084744D1*
X1812392D2*
X1843882D1*
X1812392Y2202852D2*
X1843882D1*
X2829724Y1787812D2*
X2642717D1*
Y1915769D1*
X2829724D1*
Y1787812D1*
D55*
X2819878Y1905917D3*
G36*
X2829724Y1827167D2*
X2810032D1*
Y1876387D1*
X2829724D1*
Y1827167D1*
G37*
X743701Y593701D2*
D26*
X1843701D1*
Y418701D1*
X743701D1*
Y593701D1*
X2193701D2*
X2218701D1*
X2193701D1*
X3293701D1*
Y418701D1*
X2193701D1*
Y593701D1*
X3468701D2*
X4018701D1*
Y418701D1*
X3468701D1*
Y593701D1*
X3556201Y2263386D2*
X3956201D1*
Y2063386D1*
X3556201D1*
Y2263386D1*
X3331201Y2031201D2*
X4268701D1*
Y1606201D1*
X3331201D1*
Y2031201D1*
X2406201Y2743701D2*
X3118701D1*
Y2418701D1*
X2406201D1*
Y2743701D1*
X743701Y3293701D2*
X943701D1*
Y3193701D1*
X743701D1*
Y3293701D1*
X943701D2*
X1143701D1*
Y3193701D1*
X943701D1*
Y3293701D1*
X1143701D2*
X1243701D1*
Y3193701D1*
X1143701D1*
Y3293701D1*
X668701Y3193701D2*
X1306201D1*
Y3093701D1*
X668701D1*
Y3193701D1*
X2593701Y3231201D2*
Y3256201D1*
X2693701D1*
Y3231201D1*
X1443701Y3281201D2*
X1631201D1*
Y3093701D1*
X1443701D1*
Y3281201D1*
X1631201Y3106201D2*
Y3093701D1*
Y3106201D1*
Y3281201D2*
X1831201D1*
Y3093701D1*
X1631201D1*
Y3281201D1*
X1831201D2*
X2043701D1*
Y3093701D1*
X1831201D1*
Y3281201D1*
X2043701D2*
X2243701D1*
Y3093701D1*
X2043701D1*
Y3281201D1*
X2543701D2*
X2743701D1*
Y3093701D1*
X2543701D1*
Y3281201D1*
X2743701D2*
X2943701D1*
Y3093701D1*
X2743701D1*
Y3281201D1*
X3181201Y3262451D2*
X3468701D1*
Y3024950D1*
X3181201D1*
Y3262451D1*
X2923488Y1617490D2*
Y1779427D1*
X2863744Y1777854D1*
X1162235Y2272056D2*
X1023205D1*
X1027102Y2274655D2*
X1047892Y2298043D1*
X1024504Y2269458D2*
X1047892Y2247369D1*
X1169312Y1951648D2*
X1030282D1*
X1034180Y1954247D2*
X1054970Y1977635D1*
X1031581Y1949050D2*
X1054970Y1926961D1*
X2850447Y1892023D2*
D123*
X2846645Y1890121D1*
X2842798Y1886275D1*
X2840897Y1882472D1*
Y1874823D1*
X2842798Y1870976D1*
X2846645Y1867173D1*
X2850447Y1865228D1*
X2856195Y1863327D1*
X2865790D1*
X2871494Y1865228D1*
X2875341Y1867173D1*
X2879143Y1870976D1*
X2881089Y1874823D1*
Y1882472D1*
X2879143Y1886274D1*
X2875341Y1890121D1*
X2871494Y1892023D1*
X2881089Y1923519D2*
X2840941D1*
X2867691Y1904374D1*
Y1933070D1*
X822076Y966843D2*
X820174Y970645D1*
X816328Y974492D1*
X812525Y976393D1*
X804876D1*
X801029Y974492D1*
X797226Y970645D1*
X795281Y966843D1*
X793380Y961095D1*
Y951500D1*
X795281Y945796D1*
X797226Y941949D1*
X801029Y938147D1*
X804876Y936201D1*
X812525D1*
X816328Y938147D1*
X820174Y941949D1*
X822076Y945796D1*
X834427Y968700D2*
X838274Y970645D1*
X844022Y976349D1*
Y936201D1*
X1513476Y966843D2*
X1511574Y970645D1*
X1507728Y974492D1*
X1503925Y976393D1*
X1496276D1*
X1492429Y974492D1*
X1488627Y970645D1*
X1486681Y966843D1*
X1484780Y961095D1*
Y951500D1*
X1486681Y945796D1*
X1488627Y941949D1*
X1492429Y938147D1*
X1496276Y936201D1*
X1503925D1*
X1507728Y938147D1*
X1511574Y941949D1*
X1513476Y945796D1*
X1527773Y966799D2*
Y968700D1*
X1529674Y972547D1*
X1531575Y974448D1*
X1535422Y976349D1*
X1543071D1*
X1546874Y974448D1*
X1548775Y972547D1*
X1550721Y968700D1*
Y964897D1*
X1548775Y961051D1*
X1544972Y955347D1*
X1525827Y936201D1*
X1552622D1*
X2263476Y966843D2*
X2261574Y970645D1*
X2257728Y974492D1*
X2253925Y976393D1*
X2246276D1*
X2242429Y974492D1*
X2238627Y970645D1*
X2236681Y966843D1*
X2234780Y961095D1*
Y951500D1*
X2236681Y945796D1*
X2238627Y941949D1*
X2242429Y938147D1*
X2246276Y936201D1*
X2253925D1*
X2257728Y938147D1*
X2261574Y941949D1*
X2263476Y945796D1*
X2279674Y976349D2*
X2300676D1*
X2289224Y961051D1*
X2294972D1*
X2298775Y959149D1*
X2300676Y957248D1*
X2302622Y951500D1*
Y947697D1*
X2300676Y941949D1*
X2296874Y938103D1*
X2291126Y936201D1*
X2285378D1*
X2279674Y938103D1*
X2277773Y940048D1*
X2275827Y943851D1*
X2963476Y966843D2*
X2961574Y970645D1*
X2957728Y974492D1*
X2953925Y976393D1*
X2946276D1*
X2942429Y974492D1*
X2938627Y970645D1*
X2936681Y966843D1*
X2934780Y961095D1*
Y951500D1*
X2936681Y945796D1*
X2938627Y941949D1*
X2942429Y938147D1*
X2946276Y936201D1*
X2953925D1*
X2957728Y938147D1*
X2961574Y941949D1*
X2963476Y945796D1*
X2998775Y976349D2*
X2979674D1*
X2977773Y959149D1*
X2979674Y961051D1*
X2985422Y962996D1*
X2991126D1*
X2996874Y961051D1*
X3000721Y957248D1*
X3002622Y951500D1*
Y947697D1*
X3000721Y941949D1*
X2996874Y938103D1*
X2991126Y936201D1*
X2985422D1*
X2979674Y938103D1*
X2977773Y940048D1*
X2975827Y943851D1*
X3714426Y1016843D2*
X3712525Y1020645D1*
X3708678Y1024492D1*
X3704876Y1026393D1*
X3697226D1*
X3693380Y1024492D1*
X3689577Y1020645D1*
X3687632Y1016843D1*
X3685730Y1011095D1*
Y1001500D1*
X3687632Y995796D1*
X3689577Y991949D1*
X3693380Y988147D1*
X3697226Y986201D1*
X3704876D1*
X3708678Y988147D1*
X3712525Y991949D1*
X3714426Y995796D1*
X3751671Y1012996D2*
X3749726Y1007248D1*
X3745923Y1003401D1*
X3740175Y1001500D1*
X3738274D1*
X3732526Y1003401D1*
X3728723Y1007248D1*
X3726778Y1012996D1*
Y1014897D1*
X3728723Y1020645D1*
X3732526Y1024448D1*
X3738274Y1026349D1*
X3740175D1*
X3745923Y1024448D1*
X3749726Y1020645D1*
X3751671Y1012996D1*
Y1003401D1*
X3749726Y993851D1*
X3745923Y988103D1*
X3740175Y986201D1*
X3736373D1*
X3730625Y988103D1*
X3728723Y991949D1*
X2803088Y1585487D2*
X2801186Y1589290D1*
X2797340Y1593137D1*
X2793537Y1595038D1*
X2785888D1*
X2782041Y1593137D1*
X2778238Y1589290D1*
X2776293Y1585487D1*
X2774392Y1579739D1*
Y1570144D1*
X2776293Y1564441D1*
X2778238Y1560594D1*
X2782041Y1556791D1*
X2785888Y1554846D1*
X2793537D1*
X2797340Y1556791D1*
X2801186Y1560594D1*
X2803088Y1564441D1*
X2838387Y1589290D2*
X2836486Y1593092D1*
X2830738Y1594994D1*
X2826935D1*
X2821187Y1593092D1*
X2817340Y1587344D1*
X2815439Y1577794D1*
Y1568243D1*
X2817340Y1560594D1*
X2821187Y1556747D1*
X2826935Y1554846D1*
X2828836D1*
X2834540Y1556747D1*
X2838387Y1560594D1*
X2840288Y1566342D1*
Y1568243D1*
X2838387Y1573991D1*
X2834540Y1577794D1*
X2828836Y1579695D1*
X2826935D1*
X2821187Y1577794D1*
X2817340Y1573991D1*
X2815439Y1568243D1*
X2759274Y2065277D2*
X2755471Y2063376D1*
X2751625Y2059529D1*
X2749723Y2055727D1*
Y2048078D1*
X2751625Y2044231D1*
X2755471Y2040428D1*
X2759274Y2038483D1*
X2765022Y2036582D1*
X2774617D1*
X2780321Y2038483D1*
X2784167Y2040428D1*
X2787970Y2044231D1*
X2789915Y2048078D1*
Y2055727D1*
X2787970Y2059529D1*
X2784167Y2063376D1*
X2780321Y2065277D1*
X2749768Y2087179D2*
X2751669Y2081476D1*
X2755471Y2079530D1*
X2759318D1*
X2763121Y2081476D1*
X2765066Y2085278D1*
X2766968Y2092927D1*
X2768869Y2098675D1*
X2772716Y2102478D1*
X2776518Y2104379D1*
X2782266D1*
X2786069Y2102478D1*
X2788014Y2100577D1*
X2789915Y2094829D1*
Y2087179D1*
X2788014Y2081476D1*
X2786069Y2079530D1*
X2782266Y2077629D1*
X2776518D1*
X2772716Y2079530D1*
X2768869Y2083377D1*
X2766968Y2089081D1*
X2765066Y2096730D1*
X2763121Y2100577D1*
X2759318Y2102478D1*
X2755471D1*
X2751669Y2100577D1*
X2749768Y2094829D1*
Y2087179D1*
X3158419Y1617187D2*
X3156518Y1620989D1*
X3152671Y1624836D1*
X3148869Y1626737D1*
X3141219D1*
X3137373Y1624836D1*
X3133570Y1620989D1*
X3131625Y1617187D1*
X3129723Y1611439D1*
Y1601844D1*
X3131625Y1596140D1*
X3133570Y1592293D1*
X3137373Y1588491D1*
X3141219Y1586545D1*
X3148869D1*
X3152671Y1588491D1*
X3156518Y1592293D1*
X3158419Y1596140D1*
X3178420Y1586545D2*
X3197565Y1626693D1*
X3170771D1*
X3082422Y1767807D2*
X3122614D1*
Y1781204D1*
X3120668Y1786952D1*
X3116866Y1790799D1*
X3113019Y1792700D1*
X3107315Y1794601D1*
X3097720D1*
X3091972Y1792700D1*
X3088170Y1790799D1*
X3084323Y1786952D1*
X3082422Y1781204D1*
Y1767807D1*
X3082466Y1810799D2*
Y1831802D1*
X3097764Y1820350D1*
Y1826098D1*
X3099666Y1829901D1*
X3101567Y1831802D1*
X3107315Y1833747D1*
X3111118D1*
X3116866Y1831802D1*
X3120712Y1827999D1*
X3122614Y1822251D1*
Y1816503D1*
X3120712Y1810799D1*
X3118767Y1808898D1*
X3114964Y1806953D1*
X3162616Y2535280D2*
X3202808D1*
Y2548678D1*
X3200862Y2554426D1*
X3197060Y2558272D1*
X3193213Y2560174D1*
X3187509Y2562075D1*
X3177914D1*
X3172166Y2560174D1*
X3168364Y2558273D1*
X3164517Y2554426D1*
X3162616Y2548678D1*
Y2535280D1*
X3172211Y2576372D2*
X3170309D1*
X3166463Y2578273D1*
X3164561Y2580174D1*
X3162660Y2584021D1*
Y2591671D1*
X3164561Y2595473D1*
X3166463Y2597374D1*
X3170309Y2599320D1*
X3174112D1*
X3177959Y2597374D1*
X3183662Y2593572D1*
X3202808Y2574426D1*
Y2601221D1*
X524505Y2975449D2*
Y2935257D1*
X537902D1*
X543650Y2937202D1*
X547497Y2941005D1*
X549398Y2944851D1*
X551300Y2950555D1*
Y2960150D1*
X549398Y2965898D1*
X547497Y2969701D1*
X543650Y2973547D1*
X537902Y2975449D1*
X524505D1*
X563651Y2967755D2*
X567498Y2969701D1*
X573246Y2975404D1*
Y2935257D1*
X4039311Y3002673D2*
Y2962481D1*
X4066105Y3002673D2*
X4039311Y2975878D1*
X4048861Y2985473D2*
X4066105Y2962481D1*
X4078457Y2994979D2*
X4082303Y2996925D1*
X4088052Y3002629D1*
Y2962481D1*
X3012779Y2256749D2*
Y2216557D1*
X3035727D1*
X3048078Y2249056D2*
X3051925Y2251001D1*
X3057673Y2256705D1*
Y2216557D1*
X3182071Y2739533D2*
X3183928Y2735731D1*
X3187775Y2731884D1*
X3191622Y2729983D1*
X3197370Y2728037D1*
X3206920D1*
X3212668Y2729983D1*
X3216471Y2731884D1*
X3220318Y2735731D1*
X3222219Y2739533D1*
Y2747182D1*
X3220318Y2751029D1*
X3216471Y2754832D1*
X3212668Y2756733D1*
X3206920Y2758678D1*
X3197370D1*
X3191622Y2756733D1*
X3187775Y2754832D1*
X3183928Y2751029D1*
X3182071Y2747182D1*
Y2739533D1*
X3214570Y2745281D2*
X3226066Y2756733D1*
X3189765Y2771030D2*
X3187819Y2774877D1*
X3182115Y2780625D1*
X3222263D1*
X1690773Y2314683D2*
Y2331883D1*
X1688828Y2337631D1*
X1686926Y2339576D1*
X1683124Y2341477D1*
X1679277D1*
X1675474Y2339576D1*
X1673529Y2337631D1*
X1671628Y2331883D1*
Y2314683D1*
X1711820D1*
X1690773Y2328080D2*
X1711820Y2341477D1*
X1679321Y2353829D2*
X1677376Y2357675D1*
X1671672Y2363423D1*
X1711820D1*
X1671672Y2387271D2*
X1673573Y2381523D1*
X1679321Y2377676D1*
X1688872Y2375775D1*
X1694620D1*
X1704170Y2377676D1*
X1709918Y2381523D1*
X1711820Y2387271D1*
Y2391073D1*
X1709918Y2396821D1*
X1704170Y2400624D1*
X1694620Y2402569D1*
X1688872D1*
X1679321Y2400624D1*
X1673573Y2396821D1*
X1671672Y2391073D1*
Y2387271D1*
X1679321Y2400624D2*
X1704170Y2377676D1*
X1884484Y2329736D2*
Y2346936D1*
X1882539Y2352684D1*
X1880638Y2354629D1*
X1876835Y2356531D1*
X1872988D1*
X1869186Y2354629D1*
X1867240Y2352684D1*
X1865339Y2346936D1*
Y2329736D1*
X1905531D1*
X1884484Y2343133D2*
X1905531Y2356531D1*
X1873032Y2368882D2*
X1871087Y2372729D1*
X1865383Y2378477D1*
X1905531D1*
X1995489Y2314847D2*
X1995490Y2332047D1*
X1993544Y2337795D1*
X1991643Y2339741D1*
X1987840Y2341642D1*
X1983993D1*
X1980191Y2339741D1*
X1978245Y2337795D1*
X1976344Y2332047D1*
Y2314847D1*
X2016536D1*
X1995490Y2328245D2*
X2016536Y2341642D1*
X1985939Y2355939D2*
X1984038D1*
X1980191Y2357840D1*
X1978290Y2359741D1*
X1976388Y2363588D1*
Y2371237D1*
X1978290Y2375040D1*
X1980191Y2376941D1*
X1984038Y2378887D1*
X1987840D1*
X1991687Y2376941D1*
X1997391Y2373139D1*
X2016536Y2353993D1*
Y2380788D1*
X2090773Y2324280D2*
Y2341480D1*
X2088828Y2347228D1*
X2086926Y2349174D1*
X2083124Y2351075D1*
X2079277D1*
X2075474Y2349174D1*
X2073529Y2347228D1*
X2071628Y2341480D1*
Y2324280D1*
X2111820D1*
X2090773Y2337678D2*
X2111820Y2351075D1*
X2071672Y2367273D2*
Y2388276D1*
X2086970Y2376824D1*
Y2382572D1*
X2088872Y2386374D1*
X2090773Y2388276D1*
X2096521Y2390221D1*
X2100324D1*
X2106072Y2388276D1*
X2109918Y2384473D1*
X2111820Y2378725D1*
Y2372977D1*
X2109918Y2367273D1*
X2107973Y2365372D1*
X2104170Y2363426D1*
X2508919Y1654449D2*
X2526119D1*
X2531867Y1656394D1*
X2533813Y1658296D1*
X2535714Y1662098D1*
Y1665945D1*
X2533813Y1669747D1*
X2531867Y1671693D1*
X2526119Y1673594D1*
X2508919D1*
Y1633402D1*
X2522317Y1654449D2*
X2535714Y1633402D1*
X2557616Y1673550D2*
X2551912Y1671649D1*
X2549967Y1667846D1*
Y1663999D1*
X2551912Y1660197D1*
X2555715Y1658251D1*
X2563364Y1656350D1*
X2569112Y1654449D1*
X2572914Y1650602D1*
X2574816Y1646800D1*
Y1641052D1*
X2572914Y1637249D1*
X2571013Y1635303D1*
X2565265Y1633402D1*
X2557616D1*
X2551912Y1635303D1*
X2549967Y1637249D1*
X2548065Y1641052D1*
Y1646800D1*
X2549967Y1650602D1*
X2553813Y1654449D1*
X2559517Y1656350D1*
X2567166Y1658251D1*
X2571013Y1660197D1*
X2572914Y1663999D1*
Y1667846D1*
X2571013Y1671649D1*
X2565265Y1673550D1*
X2557616D1*
X2638949Y2157137D2*
Y2174336D1*
X2637003Y2180084D1*
X2635102Y2182030D1*
X2631300Y2183931D1*
X2627453D1*
X2623650Y2182030D1*
X2621705Y2180084D1*
X2619803Y2174336D1*
Y2157137D1*
X2659995D1*
X2638949Y2170534D2*
X2659995Y2183931D1*
X2633201Y2221176D2*
X2638949Y2219230D1*
X2642796Y2215428D1*
X2644697Y2209680D1*
Y2207779D1*
X2642796Y2202031D1*
X2638949Y2198228D1*
X2633201Y2196283D1*
X2631300D1*
X2625552Y2198228D1*
X2621749Y2202031D1*
X2619848Y2207779D1*
Y2209680D1*
X2621749Y2215428D1*
X2625552Y2219230D1*
X2633201Y2221176D1*
X2642796D1*
X2652346Y2219230D1*
X2658094Y2215428D1*
X2659995Y2209680D1*
Y2205877D1*
X2658094Y2200129D1*
X2654247Y2198228D1*
X3260632Y2962661D2*
X3277832D1*
X3283580Y2964607D1*
X3285525Y2966508D1*
X3287427Y2970311D1*
Y2974158D1*
X3285525Y2977960D1*
X3283580Y2979906D1*
X3277832Y2981807D1*
X3260632D1*
Y2941615D1*
X3274029Y2962661D2*
X3287427Y2941615D1*
X3322726Y2981763D2*
X3303625D1*
X3301724Y2964563D1*
X3303625Y2966464D1*
X3309373Y2968409D1*
X3315077D1*
X3320825Y2966464D1*
X3324671Y2962661D1*
X3326573Y2956913D1*
Y2953111D1*
X3324671Y2947363D1*
X3320825Y2943516D1*
X3315077Y2941615D1*
X3309373D1*
X3303625Y2943516D1*
X3301724Y2945462D1*
X3299778Y2949264D1*
X2464449Y2038883D2*
Y2056083D1*
X2462503Y2061831D1*
X2460602Y2063776D1*
X2456800Y2065677D1*
X2452953D1*
X2449150Y2063776D1*
X2447205Y2061831D1*
X2445303Y2056083D1*
Y2038883D1*
X2485495D1*
X2464449Y2052280D2*
X2485495Y2065677D1*
Y2085678D2*
X2445348Y2104823D1*
Y2078029D1*
X2535113Y1886781D2*
X2552312D1*
X2558061Y1888726D1*
X2560006Y1890628D1*
X2561907Y1894430D1*
Y1898277D1*
X2560006Y1902079D1*
X2558061Y1904025D1*
X2552312Y1905926D1*
X2535113D1*
Y1865734D1*
X2548510Y1886781D2*
X2561907Y1865734D1*
X2597207Y1900178D2*
X2595305Y1903981D1*
X2589557Y1905882D1*
X2585755D1*
X2580007Y1903981D1*
X2576160Y1898233D1*
X2574259Y1888682D1*
Y1879132D1*
X2576160Y1871482D1*
X2580007Y1867635D1*
X2585755Y1865734D1*
X2587656D1*
X2593360Y1867635D1*
X2597207Y1871482D1*
X2599108Y1877230D1*
Y1879132D1*
X2597207Y1884880D1*
X2593360Y1888682D1*
X2587656Y1890583D1*
X2585755D1*
X2580007Y1888682D1*
X2576160Y1884880D1*
X2574259Y1879132D1*
X1807989Y2301122D2*
X1807990Y2318322D1*
X1806044Y2324070D1*
X1804143Y2326016D1*
X1800340Y2327917D1*
X1796493D1*
X1792691Y2326016D1*
X1790745Y2324070D1*
X1788844Y2318322D1*
Y2301122D1*
X1829036D1*
X1807990Y2314520D2*
X1829036Y2327917D1*
Y2359414D2*
X1788888D1*
X1815639Y2340268D1*
Y2368964D1*
X1800107Y2055858D2*
Y2027162D1*
X1802008Y2021414D1*
X1805855Y2017611D1*
X1811603Y2015666D1*
X1815405D1*
X1821153Y2017611D1*
X1825000Y2021414D1*
X1826902Y2027162D1*
Y2055858D1*
X1848803Y2055814D2*
X1843100Y2053913D1*
X1841154Y2050110D1*
Y2046263D1*
X1843100Y2042461D1*
X1846902Y2040515D1*
X1854552Y2038614D1*
X1860300Y2036713D1*
X1864102Y2032866D1*
X1866003Y2029063D1*
Y2023315D1*
X1864102Y2019513D1*
X1862201Y2017567D1*
X1856453Y2015666D1*
X1848803D1*
X1843100Y2017567D1*
X1841154Y2019513D1*
X1839253Y2023315D1*
Y2029063D1*
X1841154Y2032866D1*
X1845001Y2036713D1*
X1850705Y2038614D1*
X1858354Y2040515D1*
X1862201Y2042461D1*
X1864102Y2046263D1*
Y2050110D1*
X1862201Y2053913D1*
X1856453Y2055814D1*
X1848803D1*
X2554119Y1827047D2*
Y1798351D1*
X2556020Y1792603D1*
X2559867Y1788800D1*
X2565615Y1786855D1*
X2569418D1*
X2575166Y1788800D1*
X2579013Y1792603D1*
X2580914Y1798351D1*
Y1827047D1*
X2616213Y1821299D2*
X2614312Y1825101D1*
X2608564Y1827003D1*
X2604761D1*
X2599013Y1825101D1*
X2595167Y1819353D1*
X2593265Y1809803D1*
Y1800252D1*
X2595167Y1792603D1*
X2599013Y1788756D1*
X2604761Y1786855D1*
X2606663D1*
X2612366Y1788756D1*
X2616213Y1792603D1*
X2618114Y1798351D1*
Y1800252D1*
X2616213Y1806000D1*
X2612366Y1809803D1*
X2606663Y1811704D1*
X2604761D1*
X2599013Y1809803D1*
X2595167Y1806000D1*
X2593265Y1800252D1*
X1256201Y555003D2*
D124*
X1323188Y454523D1*
Y555003D2*
X1256201Y454523D1*
X2718701Y555003D2*
X2756948Y507139D1*
Y454523D1*
X2795194Y555003D2*
X2756948Y507139D1*
X3506201Y555003D2*
X3573188D1*
X3506201Y454523D1*
X3573188D1*
X3687049Y1942685D2*
D125*
X3683247Y1950290D1*
X3675553Y1957983D1*
X3667948Y1961786D1*
X3652649D1*
X3644956Y1957983D1*
X3637351Y1950290D1*
X3633460Y1942685D1*
X3629657Y1931189D1*
Y1911999D1*
X3633460Y1900592D1*
X3637351Y1892898D1*
X3644956Y1885293D1*
X3652649Y1881402D1*
X3667948D1*
X3675553Y1885293D1*
X3683247Y1892898D1*
X3687049Y1900592D1*
Y1911999D1*
X3667948D1*
X3711752Y1934991D2*
Y1881402D1*
Y1919693D2*
X3723248Y1931189D1*
X3730942Y1934991D1*
X3742349D1*
X3750043Y1931189D1*
X3753845Y1919693D1*
Y1881402D1*
X3824444Y1961786D2*
Y1881402D1*
Y1923495D2*
X3816839Y1931189D1*
X3809145Y1934991D1*
X3797649D1*
X3790044Y1931189D1*
X3782351Y1923495D1*
X3778548Y1911999D1*
Y1904394D1*
X3782351Y1892898D1*
X3790044Y1885293D1*
X3797649Y1881402D1*
X3809145D1*
X3816839Y1885293D1*
X3824444Y1892898D1*
X3517157Y1746399D2*
X3524851Y1750290D1*
X3536347Y1761698D1*
Y1681402D1*
X3564941Y1742596D2*
Y1746399D1*
X3568743Y1754093D1*
X3572546Y1757895D1*
X3580239Y1761698D1*
X3595538D1*
X3603143Y1757895D1*
X3606946Y1754093D1*
X3610836Y1746399D1*
Y1738794D1*
X3606946Y1731100D1*
X3599340Y1719693D1*
X3561050Y1681402D1*
X3614639D1*
X3639342Y1721550D2*
X3683557D1*
X3712151Y1742596D2*
Y1746399D1*
X3715954Y1754093D1*
X3719756Y1757895D1*
X3727450Y1761698D1*
X3742748D1*
X3750354Y1757895D1*
X3754156Y1754093D1*
X3758047Y1746399D1*
Y1738794D1*
X3754156Y1731100D1*
X3746551Y1719693D1*
X3708260Y1681402D1*
X3761850D1*
X3824843D2*
Y1761698D1*
X3786552Y1708197D1*
X3843944D1*
X3711341Y2238026D2*
D126*
Y2194971D1*
X3689841Y2216471D2*
X3732896D1*
X3777021Y2241591D2*
X3753144D1*
X3750768Y2220091D1*
X3753144Y2222468D1*
X3760329Y2224900D1*
X3767459D1*
X3774644Y2222468D1*
X3779452Y2217715D1*
X3781829Y2210530D1*
Y2205776D1*
X3779452Y2198591D1*
X3774644Y2193783D1*
X3767459Y2191406D1*
X3760329D1*
X3753144Y2193783D1*
X3750768Y2196215D1*
X3748336Y2200968D1*
X3797268Y2224900D2*
X3811638Y2191406D1*
X3825953Y2224900D1*
X3750711Y2129708D2*
X3748335Y2134461D1*
X3743526Y2139270D1*
X3738773Y2141646D1*
X3729212D1*
X3724403Y2139270D1*
X3719650Y2134461D1*
X3717218Y2129708D1*
X3714841Y2122523D1*
Y2110530D1*
X3717218Y2103400D1*
X3719650Y2098591D1*
X3724403Y2093838D1*
X3729212Y2091406D1*
X3738773D1*
X3743526Y2093838D1*
X3748335Y2098591D1*
X3750711Y2103400D1*
Y2110530D1*
X3738773D1*
X3766151Y2124900D2*
Y2091406D1*
Y2115338D2*
X3773336Y2122523D1*
X3778144Y2124900D1*
X3785274D1*
X3790082Y2122523D1*
X3792459Y2115338D1*
Y2091406D1*
X3836583Y2141646D2*
Y2091406D1*
Y2117715D2*
X3831830Y2122523D1*
X3827021Y2124900D1*
X3819836D1*
X3815083Y2122523D1*
X3810275Y2117715D1*
X3807898Y2110530D1*
Y2105776D1*
X3810275Y2098591D1*
X3815083Y2093838D1*
X3819836Y2091406D1*
X3827021D1*
X3831830Y2093838D1*
X3836583Y2098591D1*
X3242085Y3225701D2*
X3237332Y3230510D1*
X3230147Y3232886D1*
X3220586D1*
X3213401Y3230510D1*
X3208592Y3225701D1*
Y3220948D1*
X3211024Y3216140D1*
X3213401Y3213763D1*
X3218154Y3211387D1*
X3232524Y3206578D1*
X3237332Y3204202D1*
X3239709Y3201770D1*
X3242085Y3197017D1*
Y3189831D1*
X3237332Y3185078D1*
X3230147Y3182646D1*
X3220586D1*
X3213401Y3185078D1*
X3208592Y3189831D1*
X3257525Y3216140D2*
Y3165900D1*
Y3208955D2*
X3262333Y3213708D1*
X3267086Y3216140D1*
X3274271D1*
X3279080Y3213708D1*
X3283833Y3208955D1*
X3286265Y3201770D1*
Y3196961D1*
X3283833Y3189831D1*
X3279080Y3185023D1*
X3274271Y3182646D1*
X3267086D1*
X3262333Y3185023D1*
X3257525Y3189831D1*
X3301704Y3232886D2*
X3304081Y3230510D1*
X3306513Y3232886D1*
X3304081Y3235318D1*
X3301704Y3232886D1*
X3304081Y3216140D2*
Y3182646D1*
X3321952Y3216140D2*
Y3182646D1*
Y3206578D2*
X3329137Y3213763D1*
X3333945Y3216140D1*
X3341075D1*
X3345883Y3213763D1*
X3348260Y3206578D1*
Y3182646D1*
X3392384Y3232886D2*
Y3182646D1*
Y3208955D2*
X3387631Y3213763D1*
X3382823Y3216140D1*
X3375638D1*
X3370884Y3213763D1*
X3366076Y3208955D1*
X3363699Y3201770D1*
Y3197017D1*
X3366076Y3189831D1*
X3370884Y3185078D1*
X3375638Y3182646D1*
X3382823D1*
X3387631Y3185078D1*
X3392384Y3189831D1*
X3407823Y3232886D2*
Y3182646D1*
X3423263Y3201770D2*
X3451948D1*
Y3206578D1*
X3449571Y3211387D1*
X3447194Y3213763D1*
X3442386Y3216140D1*
X3435201D1*
X3430448Y3213763D1*
X3425639Y3208955D1*
X3423263Y3201770D1*
Y3197017D1*
X3425639Y3189831D1*
X3430448Y3185078D1*
X3435201Y3182646D1*
X3442386D1*
X3447194Y3185078D1*
X3451948Y3189831D1*
X3239841Y3101770D2*
X3261341D1*
X3268526Y3104202D1*
X3270958Y3106578D1*
X3273335Y3111331D1*
Y3116140D1*
X3270958Y3120893D1*
X3268526Y3123325D1*
X3261341Y3125701D1*
X3239841D1*
Y3075461D1*
X3256588Y3101770D2*
X3273335Y3075461D1*
X3288774Y3094585D2*
X3317459D1*
Y3099393D1*
X3315082Y3104202D1*
X3312706Y3106578D1*
X3307897Y3108955D1*
X3300712D1*
X3295959Y3106578D1*
X3291151Y3101770D1*
X3288774Y3094585D1*
Y3089831D1*
X3291151Y3082646D1*
X3295959Y3077893D1*
X3300712Y3075461D1*
X3307897D1*
X3312706Y3077893D1*
X3317459Y3082646D1*
X3332898Y3125701D2*
Y3075461D1*
X3377022Y3108955D2*
Y3075461D1*
Y3101770D2*
X3372269Y3106578D1*
X3367461Y3108955D1*
X3360331D1*
X3355522Y3106578D1*
X3350769Y3101770D1*
X3348337Y3094585D1*
Y3089831D1*
X3350769Y3082646D1*
X3355522Y3077893D1*
X3360331Y3075461D1*
X3367461D1*
X3372269Y3077893D1*
X3377022Y3082646D1*
X3394893Y3108955D2*
X3409208Y3075461D1*
X3404455Y3065900D1*
X3399647Y3061091D1*
X3394893Y3058715D1*
X3392462D1*
X3423578Y3108955D2*
X3409208Y3075461D1*
X822073Y3233760D2*
X872313Y3267253D1*
X822073Y3267254D2*
X872313Y3233760D1*
X1020203Y3228447D2*
X1044135Y3247570D1*
X1070443D1*
X1020203Y3266693D2*
X1044135Y3247570D1*
X1167826Y3230823D2*
Y3264317D1*
X1218066Y3230823D1*
Y3264316D1*
X1497073Y3122273D2*
Y3143828D1*
X1494696Y3150958D1*
X1492264Y3153390D1*
X1487511Y3155767D1*
X1480326D1*
X1475573Y3153390D1*
X1473141Y3150958D1*
X1470765Y3143828D1*
X1470764Y3122273D1*
X1521004D1*
X1487511Y3171206D2*
X1521005D1*
X1501881D2*
X1494696Y3173638D1*
X1489888Y3178391D1*
X1487511Y3183199D1*
Y3190384D1*
X1470765Y3205824D2*
X1521004D1*
X1494696D2*
X1489888Y3210632D1*
X1487511Y3215385D1*
Y3222570D1*
X1489888Y3227323D1*
X1494696Y3232132D1*
X1501881Y3234508D1*
X1506634D1*
X1513819Y3232132D1*
X1518573Y3227323D1*
X1521004Y3222570D1*
Y3215385D1*
X1518573Y3210632D1*
X1513819Y3205824D1*
X1577963Y3142196D2*
D123*
X1574160Y3140295D1*
X1570313Y3136448D1*
X1568412Y3132645D1*
Y3124996D1*
X1570313Y3121149D1*
X1574160Y3117347D1*
X1577963Y3115401D1*
X1583711Y3113500D1*
X1593305D1*
X1599009Y3115401D1*
X1602856Y3117347D1*
X1606659Y3121149D1*
X1608604Y3124996D1*
Y3132645D1*
X1606659Y3136448D1*
X1602856Y3140295D1*
X1599009Y3142196D1*
X1593306D1*
Y3132645D1*
X1581809Y3154547D2*
X1608604D1*
X1589459D2*
X1583711Y3160295D1*
X1581809Y3164142D1*
Y3169846D1*
X1583711Y3173693D1*
X1589459Y3175594D1*
X1608604D1*
X1568412Y3210893D2*
X1608604D1*
X1587558D2*
X1583711Y3207091D1*
X1581809Y3203244D1*
Y3197496D1*
X1583711Y3193693D1*
X1587558Y3189847D1*
X1593306Y3187945D1*
X1597108D1*
X1602856Y3189847D1*
X1606659Y3193693D1*
X1608604Y3197496D1*
Y3203244D1*
X1606659Y3207091D1*
X1602856Y3210893D1*
X1684667Y3119804D2*
D126*
Y3141303D1*
X1682236Y3148488D1*
X1679859Y3150920D1*
X1675106Y3153297D1*
X1670297D1*
X1665544Y3150920D1*
X1663112Y3148488D1*
X1660736Y3141303D1*
Y3119804D1*
X1710976D1*
X1684667Y3136550D2*
X1710976Y3153297D1*
X1684667Y3195044D2*
X1679859Y3192668D1*
X1677482Y3185483D1*
Y3178298D1*
X1679859Y3171113D1*
X1684667Y3168736D1*
X1689421Y3171113D1*
X1691852Y3175921D1*
X1694229Y3187859D1*
X1696606Y3192668D1*
X1701414Y3195044D1*
X1703791D1*
X1708544Y3192668D1*
X1710976Y3185483D1*
Y3178298D1*
X1708544Y3171113D1*
X1703791Y3168736D1*
X1660736Y3217669D2*
X1701414D1*
X1708544Y3220045D1*
X1710976Y3224854D1*
Y3229607D1*
X1677482Y3210484D2*
Y3227230D1*
X1777961Y3142196D2*
D123*
X1774159Y3140295D1*
X1770312Y3136448D1*
X1768411Y3132645D1*
Y3124996D1*
X1770312Y3121149D1*
X1774159Y3117347D1*
X1777961Y3115401D1*
X1783709Y3113500D1*
X1793304D1*
X1799008Y3115401D1*
X1802855Y3117347D1*
X1806657Y3121149D1*
X1808603Y3124996D1*
Y3132645D1*
X1806657Y3136448D1*
X1802855Y3140295D1*
X1799008Y3142196D1*
X1793304D1*
Y3132645D1*
X1781808Y3154547D2*
X1808603D1*
X1789457D2*
X1783709Y3160295D1*
X1781808Y3164142D1*
Y3169846D1*
X1783709Y3173693D1*
X1789457Y3175594D1*
X1808603D1*
X1768411Y3210893D2*
X1808603D1*
X1787556D2*
X1783709Y3207091D1*
X1781808Y3203244D1*
Y3197496D1*
X1783709Y3193693D1*
X1787556Y3189847D1*
X1793304Y3187945D1*
X1797107D1*
X1802855Y3189847D1*
X1806657Y3193693D1*
X1808603Y3197496D1*
Y3203244D1*
X1806657Y3207091D1*
X1802855Y3210893D1*
X1870232Y3150986D2*
D126*
X1865423Y3146233D1*
X1863047Y3139048D1*
Y3129486D1*
X1865423Y3122301D1*
X1870232Y3117492D1*
X1874985D1*
X1879793Y3119924D1*
X1882170Y3122301D1*
X1884546Y3127054D1*
X1889355Y3141424D1*
X1891732Y3146233D1*
X1894163Y3148609D1*
X1898917Y3150986D1*
X1906102D1*
X1910855Y3146233D1*
X1913287Y3139048D1*
Y3129486D1*
X1910855Y3122301D1*
X1906102Y3117492D1*
X1879793Y3166425D2*
X1913287D1*
X1894163D2*
X1886978Y3168857D1*
X1882170Y3173610D1*
X1879793Y3178418D1*
Y3185604D1*
X1863047Y3208228D2*
X1903725D1*
X1910855Y3210604D1*
X1913287Y3215413D1*
Y3220166D1*
X1879793Y3201043D2*
Y3217789D1*
X1990463Y3142196D2*
D123*
X1986660Y3140295D1*
X1982813Y3136448D1*
X1980912Y3132645D1*
Y3124996D1*
X1982813Y3121149D1*
X1986660Y3117347D1*
X1990463Y3115401D1*
X1996211Y3113500D1*
X2005805D1*
X2011509Y3115401D1*
X2015356Y3117347D1*
X2019159Y3121149D1*
X2021104Y3124996D1*
Y3132645D1*
X2019159Y3136448D1*
X2015356Y3140295D1*
X2011509Y3142196D1*
X2005806D1*
Y3132645D1*
X1994309Y3154547D2*
X2021104D1*
X2001959D2*
X1996211Y3160295D1*
X1994309Y3164142D1*
Y3169846D1*
X1996211Y3173693D1*
X2001959Y3175594D1*
X2021104D1*
X1980912Y3210893D2*
X2021104D1*
X2000058D2*
X1996211Y3207091D1*
X1994309Y3203244D1*
Y3197496D1*
X1996211Y3193693D1*
X2000058Y3189847D1*
X2005806Y3187945D1*
X2009608D1*
X2015356Y3189847D1*
X2019159Y3193693D1*
X2021104Y3197496D1*
Y3203244D1*
X2019159Y3207091D1*
X2015356Y3210893D1*
X2069015Y3111523D2*
D126*
X2119255D1*
X2069015Y3145016D2*
X2119255D1*
X2092947Y3111523D2*
Y3145016D1*
X2085762Y3172393D2*
X2088138Y3167640D1*
X2092947Y3162832D1*
X2100132Y3160455D1*
X2104885D1*
X2112070Y3162832D1*
X2116823Y3167640D1*
X2119255Y3172393D1*
Y3179578D1*
X2116823Y3184387D1*
X2112070Y3189140D1*
X2104885Y3191572D1*
X2100132D1*
X2092947Y3189140D1*
X2088138Y3184387D1*
X2085762Y3179578D1*
Y3172393D1*
X2069015Y3207011D2*
X2119255D1*
X2069015Y3251135D2*
X2119255D1*
X2092947D2*
X2088138Y3246382D1*
X2085762Y3241574D1*
Y3234389D1*
X2088138Y3229635D1*
X2092947Y3224827D1*
X2100132Y3222450D1*
X2104885D1*
X2112070Y3224827D1*
X2116823Y3229635D1*
X2119255Y3234389D1*
Y3241574D1*
X2116823Y3246382D1*
X2112070Y3251135D1*
X2177963Y3142196D2*
D123*
X2174160Y3140295D1*
X2170313Y3136448D1*
X2168412Y3132645D1*
Y3124996D1*
X2170313Y3121149D1*
X2174160Y3117347D1*
X2177963Y3115401D1*
X2183711Y3113500D1*
X2193305D1*
X2199009Y3115401D1*
X2202856Y3117347D1*
X2206659Y3121149D1*
X2208604Y3124996D1*
Y3132645D1*
X2206659Y3136448D1*
X2202856Y3140295D1*
X2199009Y3142196D1*
X2193306D1*
Y3132645D1*
X2181809Y3154547D2*
X2208604D1*
X2189459D2*
X2183711Y3160295D1*
X2181809Y3164142D1*
Y3169846D1*
X2183711Y3173693D1*
X2189459Y3175594D1*
X2208604D1*
X2168412Y3210893D2*
X2208604D1*
X2187558D2*
X2183711Y3207091D1*
X2181809Y3203244D1*
Y3197496D1*
X2183711Y3193693D1*
X2187558Y3189847D1*
X2193306Y3187945D1*
X2197108D1*
X2202856Y3189847D1*
X2206659Y3193693D1*
X2208604Y3197496D1*
Y3203244D1*
X2206659Y3207091D1*
X2202856Y3210893D1*
X2793476Y3115731D2*
Y3132975D1*
X2791575Y3138679D1*
X2789629Y3140624D1*
X2785827Y3142526D1*
X2780079D1*
X2776276Y3140624D1*
X2774330Y3138679D1*
X2772429Y3132975D1*
Y3115731D1*
X2812621D1*
X2785827Y3154877D2*
X2812621Y3162526D1*
X2785827Y3170176D1*
X2812621Y3177825D1*
X2785827Y3185474D1*
Y3197826D2*
X2812621D1*
X2793476D2*
X2787728Y3203574D1*
X2785827Y3207420D1*
Y3213124D1*
X2787728Y3216971D1*
X2793476Y3218872D1*
X2812621D1*
X2793476D2*
X2787728Y3224620D1*
X2785827Y3228467D1*
Y3234171D1*
X2787728Y3238018D1*
X2793476Y3239963D1*
X2812621D1*
X2877961Y3142196D2*
X2874159Y3140295D1*
X2870312Y3136448D1*
X2868411Y3132645D1*
Y3124996D1*
X2870312Y3121149D1*
X2874159Y3117347D1*
X2877961Y3115401D1*
X2883709Y3113500D1*
X2893304D1*
X2899008Y3115401D1*
X2902855Y3117347D1*
X2906657Y3121149D1*
X2908603Y3124996D1*
Y3132645D1*
X2906657Y3136448D1*
X2902855Y3140295D1*
X2899008Y3142196D1*
X2893304D1*
Y3132645D1*
X2881808Y3154547D2*
X2908603D1*
X2889457D2*
X2883709Y3160295D1*
X2881808Y3164142D1*
Y3169846D1*
X2883709Y3173693D1*
X2889457Y3175594D1*
X2908603D1*
X2868411Y3210893D2*
X2908603D1*
X2887556D2*
X2883709Y3207091D1*
X2881808Y3203244D1*
Y3197496D1*
X2883709Y3193693D1*
X2887556Y3189847D1*
X2893304Y3187945D1*
X2897107D1*
X2902855Y3189847D1*
X2906657Y3193693D1*
X2908603Y3197496D1*
Y3203244D1*
X2906657Y3207091D1*
X2902855Y3210893D1*
X3582704Y2136137D2*
D126*
Y2105020D1*
X3632944D1*
X3606636D2*
Y2124143D1*
X3599451Y2180261D2*
X3632944D1*
X3606636D2*
X3601827Y2175508D1*
X3599451Y2170699D1*
Y2163569D1*
X3601827Y2158761D1*
X3606636Y2154008D1*
X3613821Y2151576D1*
X3618574D1*
X3625759Y2154008D1*
X3630512Y2158761D1*
X3632944Y2163569D1*
Y2170699D1*
X3630512Y2175508D1*
X3625759Y2180261D1*
X3599451Y2195700D2*
X3632944D1*
X3609012D2*
X3601827Y2202885D1*
X3599451Y2207694D1*
Y2214823D1*
X3601827Y2219632D1*
X3609012Y2222008D1*
X3632944D1*
X3364436Y1686986D2*
D125*
X3444820D1*
X3391230Y1711688D2*
X3444820D1*
X3406529D2*
X3395033Y1723184D1*
X3391230Y1730878D1*
Y1742286D1*
X3395033Y1749979D1*
X3406529Y1753782D1*
X3444820D1*
X3391230Y1778484D2*
X3471614D1*
X3402727D2*
X3395121Y1786178D1*
X3391230Y1793783D1*
Y1805279D1*
X3395121Y1812973D1*
X3402727Y1820578D1*
X3414223Y1824469D1*
X3421916D1*
X3433324Y1820578D1*
X3441017Y1812972D1*
X3444820Y1805279D1*
Y1793783D1*
X3441017Y1786178D1*
X3433324Y1778484D1*
X3391230Y1849171D2*
X3429521D1*
X3440929Y1852974D1*
X3444820Y1860667D1*
Y1872163D1*
X3440929Y1879769D1*
X3429521Y1891265D1*
X3391230D2*
X3444820D1*
X3364436Y1927463D2*
X3429521D1*
X3440929Y1931266D1*
X3444820Y1938960D1*
Y1946565D1*
X3391230Y1915967D2*
Y1942762D1*
X2469667Y2672661D2*
D123*
Y2712853D1*
X2454368Y2672661D1*
X2439069Y2712853D1*
Y2672661D1*
X2482018Y2691806D2*
X2499262D1*
X2504966Y2693708D1*
X2506911Y2695653D1*
X2508813Y2699456D1*
Y2705204D1*
X2506911Y2709006D1*
X2504966Y2710952D1*
X2499262Y2712853D1*
X2482018D1*
Y2672661D1*
X2549860Y2703302D2*
X2547959Y2707105D1*
X2544112Y2710952D1*
X2540310Y2712853D1*
X2532660D1*
X2528813Y2710952D1*
X2525011Y2707105D1*
X2523065Y2703302D1*
X2521164Y2697554D1*
Y2687960D1*
X2523065Y2682256D1*
X2525011Y2678409D1*
X2528813Y2674606D1*
X2532660Y2672661D1*
X2540310D1*
X2544112Y2674606D1*
X2547959Y2678409D1*
X2549860Y2682256D1*
X2589006Y2712853D2*
Y2672661D1*
X2562211Y2712853D1*
Y2672661D1*
X2630054Y2703302D2*
X2628152Y2707105D1*
X2624305Y2710952D1*
X2620503Y2712853D1*
X2612854D1*
X2609007Y2710952D1*
X2605204Y2707105D1*
X2603259Y2703302D1*
X2601358Y2697554D1*
Y2687960D1*
X2603259Y2682256D1*
X2605204Y2678409D1*
X2609007Y2674606D1*
X2612854Y2672661D1*
X2620503D1*
X2624305Y2674606D1*
X2628152Y2678409D1*
X2630054Y2682256D1*
X2767765Y2703302D2*
X2765864Y2707105D1*
X2762017Y2710952D1*
X2758215Y2712853D1*
X2750566D1*
X2746719Y2710952D1*
X2742916Y2707105D1*
X2740971Y2703302D1*
X2739069Y2697554D1*
Y2687960D1*
X2740971Y2682256D1*
X2742916Y2678409D1*
X2746719Y2674606D1*
X2750566Y2672661D1*
X2758215D1*
X2762017Y2674606D1*
X2765864Y2678409D1*
X2767765Y2682256D1*
Y2687960D1*
X2758215D1*
X2780117Y2699456D2*
Y2672661D1*
Y2687960D2*
X2782062Y2693708D1*
X2785865Y2697554D1*
X2789712Y2699456D1*
X2795460D1*
X2807811Y2712853D2*
Y2672661D1*
Y2693708D2*
X2811658Y2697554D1*
X2815460Y2699456D1*
X2821208D1*
X2825011Y2697554D1*
X2828858Y2693708D1*
X2830759Y2687960D1*
Y2684157D1*
X2828858Y2678409D1*
X2825011Y2674606D1*
X2821208Y2672661D1*
X2815460D1*
X2811658Y2674606D1*
X2807811Y2678409D1*
X2843110Y2712853D2*
Y2672661D1*
X2855462Y2666029D2*
X2891807D1*
X2929008Y2712853D2*
X2904158D1*
Y2672661D1*
X2929008D1*
X2904158Y2693708D2*
X2919457D1*
X2968154Y2707105D2*
X2964351Y2710952D1*
X2958603Y2712853D1*
X2950954D1*
X2945206Y2710952D1*
X2941359Y2707105D1*
Y2703302D1*
X2943304Y2699456D1*
X2945206Y2697554D1*
X2949008Y2695653D1*
X2960504Y2691806D1*
X2964351Y2689905D1*
X2966252Y2687960D1*
X2968154Y2684157D1*
Y2678409D1*
X2964351Y2674606D1*
X2958603Y2672661D1*
X2950954D1*
X2945206Y2674606D1*
X2941359Y2678409D1*
X2980505Y2691806D2*
X2997749D1*
X3003453Y2693708D1*
X3005398Y2695653D1*
X3007300Y2699456D1*
Y2705204D1*
X3005398Y2709006D1*
X3003453Y2710952D1*
X2997749Y2712853D1*
X2980505D1*
Y2672661D1*
X3023498Y2712809D2*
X3044500D1*
X3033048Y2697510D1*
X3038796D1*
X3042599Y2695609D1*
X3044500Y2693708D1*
X3046446Y2687960D1*
Y2684157D1*
X3044500Y2678409D1*
X3040698Y2674562D1*
X3034950Y2672661D1*
X3029202D1*
X3023498Y2674562D1*
X3021597Y2676508D1*
X3019651Y2680310D1*
X3060743Y2703258D2*
Y2705159D1*
X3062644Y2709006D1*
X3064545Y2710908D1*
X3068392Y2712809D1*
X3076041D1*
X3079844Y2710908D1*
X3081745Y2709006D1*
X3083691Y2705159D1*
Y2701357D1*
X3081745Y2697510D1*
X3077943Y2691806D1*
X3058797Y2672661D1*
X3085592D1*
X2467765Y2628302D2*
X2465864Y2632105D1*
X2462017Y2635952D1*
X2458215Y2637853D1*
X2450566D1*
X2446719Y2635952D1*
X2442916Y2632105D1*
X2440971Y2628302D1*
X2439069Y2622554D1*
Y2612960D1*
X2440971Y2607256D1*
X2442916Y2603409D1*
X2446719Y2599606D1*
X2450566Y2597661D1*
X2458215D1*
X2462017Y2599606D1*
X2465864Y2603409D1*
X2467765Y2607256D1*
X2489667Y2624456D2*
X2485865Y2622554D1*
X2482018Y2618708D1*
X2480117Y2612960D1*
Y2609157D1*
X2482018Y2603409D1*
X2485865Y2599606D1*
X2489667Y2597661D1*
X2495415D1*
X2499262Y2599606D1*
X2503065Y2603409D1*
X2505010Y2609157D1*
Y2612960D1*
X2503065Y2618708D1*
X2499262Y2622554D1*
X2495415Y2624456D1*
X2489667D1*
X2517362D2*
Y2597661D1*
Y2616806D2*
X2523110Y2622554D1*
X2526956Y2624456D1*
X2532660D1*
X2536507Y2622554D1*
X2538408Y2616806D1*
Y2597661D1*
X2556508Y2637853D2*
Y2605310D1*
X2558409Y2599606D1*
X2562256Y2597661D1*
X2566058D1*
X2550760Y2624456D2*
X2564157D1*
X2578410D2*
Y2597661D1*
Y2612960D2*
X2580355Y2618708D1*
X2584158Y2622554D1*
X2588004Y2624456D1*
X2593752D1*
X2615654D2*
X2611852Y2622554D1*
X2608005Y2618708D1*
X2606104Y2612960D1*
Y2609157D1*
X2608005Y2603409D1*
X2611852Y2599606D1*
X2615654Y2597661D1*
X2621402D1*
X2625249Y2599606D1*
X2629052Y2603409D1*
X2630997Y2609157D1*
Y2612960D1*
X2629052Y2618708D1*
X2625249Y2622554D1*
X2621402Y2624456D1*
X2615654D1*
X2643349Y2637853D2*
Y2597661D1*
X2655700Y2637853D2*
Y2597661D1*
X2668051Y2612960D2*
X2690999D1*
Y2616806D1*
X2689098Y2620653D1*
X2687197Y2622554D1*
X2683350Y2624456D1*
X2677602D1*
X2673799Y2622554D1*
X2669953Y2618708D1*
X2668051Y2612960D1*
Y2609157D1*
X2669953Y2603409D1*
X2673799Y2599606D1*
X2677602Y2597661D1*
X2683350D1*
X2687197Y2599606D1*
X2690999Y2603409D1*
X2703351Y2624456D2*
Y2597661D1*
Y2612960D2*
X2705296Y2618708D1*
X2709099Y2622554D1*
X2712946Y2624456D1*
X2718694D1*
X2769926Y2637853D2*
X2785224Y2597661D1*
X2800523Y2637853D1*
X2812874Y2630159D2*
X2816721Y2632105D1*
X2822469Y2637809D1*
Y2597661D1*
X2836722Y2601508D2*
X2834821Y2599562D1*
X2836722Y2597661D1*
X2838667Y2599562D1*
X2836722Y2601508D1*
X2852964Y2628258D2*
Y2630159D1*
X2854865Y2634006D1*
X2856767Y2635908D1*
X2860614Y2637809D1*
X2868263D1*
X2872065Y2635908D1*
X2873967Y2634006D1*
X2875912Y2630159D1*
Y2626357D1*
X2873967Y2622510D1*
X2870164Y2616806D1*
X2851019Y2597661D1*
X2877813D1*
X2439069Y2561956D2*
X2446719Y2535161D1*
X2454368Y2561956D1*
X2462017Y2535161D1*
X2469667Y2561956D1*
X2482018D2*
X2489667Y2535161D1*
X2497317Y2561956D1*
X2504966Y2535161D1*
X2512615Y2561956D1*
X2524967D2*
X2532616Y2535161D1*
X2540265Y2561956D1*
X2547915Y2535161D1*
X2555564Y2561956D1*
X2569817Y2539008D2*
X2567915Y2537062D1*
X2569817Y2535161D1*
X2571762Y2537062D1*
X2569817Y2539008D1*
X2584113Y2575353D2*
Y2535161D1*
Y2556208D2*
X2587960Y2560054D1*
X2591763Y2561956D1*
X2597511D1*
X2601313Y2560054D1*
X2605160Y2556208D1*
X2607061Y2550460D1*
Y2546657D1*
X2605160Y2540909D1*
X2601313Y2537106D1*
X2597511Y2535161D1*
X2591763D1*
X2587960Y2537106D1*
X2584113Y2540909D1*
X2619413Y2561956D2*
Y2542810D1*
X2621314Y2537106D1*
X2625161Y2535161D1*
X2630909D1*
X2634711Y2537106D1*
X2640459Y2542810D1*
Y2561956D2*
Y2535161D1*
X2652811Y2575353D2*
X2654712Y2573452D1*
X2656658Y2575353D1*
X2654712Y2577298D1*
X2652811Y2575353D1*
X2654712Y2561956D2*
Y2535161D1*
X2669009Y2575353D2*
Y2535161D1*
X2704308Y2575353D2*
Y2535161D1*
Y2556208D2*
X2700506Y2560054D1*
X2696659Y2561956D1*
X2690911D1*
X2687108Y2560054D1*
X2683262Y2556208D1*
X2681360Y2550460D1*
Y2546657D1*
X2683262Y2540909D1*
X2687108Y2537106D1*
X2690911Y2535161D1*
X2696659D1*
X2700506Y2537106D1*
X2704308Y2540909D1*
X2716660Y2575353D2*
Y2535161D1*
X2738562Y2561956D2*
X2734759Y2560054D1*
X2730912Y2556208D1*
X2729011Y2550460D1*
Y2546657D1*
X2730912Y2540909D1*
X2734759Y2537106D1*
X2738562Y2535161D1*
X2744310D1*
X2748156Y2537106D1*
X2751959Y2540909D1*
X2753904Y2546657D1*
Y2550460D1*
X2751959Y2556208D1*
X2748156Y2560054D1*
X2744310Y2561956D1*
X2738562D1*
X2789204Y2560054D2*
Y2529413D1*
X2787303Y2523709D1*
X2785401Y2521764D1*
X2781554Y2519862D1*
X2775806D1*
X2772004Y2521764D1*
X2789204Y2554306D2*
X2785401Y2558109D1*
X2781554Y2560054D1*
X2775806D1*
X2772004Y2558109D1*
X2768157Y2554306D1*
X2766256Y2548558D1*
Y2544712D1*
X2768157Y2539008D1*
X2772004Y2535161D1*
X2775806Y2533260D1*
X2781554D1*
X2785401Y2535161D1*
X2789204Y2539008D1*
X2803456D2*
X2801555Y2537062D1*
X2803456Y2535161D1*
X2805402Y2537062D1*
X2803456Y2539008D1*
X2817753Y2561956D2*
Y2535161D1*
Y2554306D2*
X2823501Y2560054D1*
X2827348Y2561956D1*
X2833052D1*
X2836899Y2560054D1*
X2838800Y2554306D1*
Y2535161D1*
X2851151Y2550460D2*
X2874099D1*
Y2554306D1*
X2872198Y2558153D1*
X2870297Y2560054D1*
X2866450Y2561956D1*
X2860702D1*
X2856899Y2560054D1*
X2853053Y2556208D1*
X2851151Y2550460D1*
Y2546657D1*
X2853053Y2540909D1*
X2856899Y2537106D1*
X2860702Y2535161D1*
X2866450D1*
X2870297Y2537106D1*
X2874099Y2540909D1*
X2892199Y2575353D2*
Y2542810D1*
X2894100Y2537106D1*
X2897947Y2535161D1*
X2901749D1*
X2886451Y2561956D2*
X2899848D1*
X2914101Y2535161D2*
X2940895Y2575309D1*
X2953247Y2575353D2*
Y2535161D1*
Y2556208D2*
X2957094Y2560054D1*
X2960896Y2561956D1*
X2966644D1*
X2970447Y2560054D1*
X2974293Y2556208D1*
X2976195Y2550460D1*
Y2546657D1*
X2974293Y2540909D1*
X2970447Y2537106D1*
X2966644Y2535161D1*
X2960896D1*
X2957094Y2537106D1*
X2953247Y2540909D1*
X2988546Y2575353D2*
Y2535161D1*
X3010448Y2561956D2*
X3006645Y2560054D1*
X3002799Y2556208D1*
X3000897Y2550460D1*
Y2546657D1*
X3002799Y2540909D1*
X3006645Y2537106D1*
X3010448Y2535161D1*
X3016196D1*
X3020043Y2537106D1*
X3023845Y2540909D1*
X3025791Y2546657D1*
Y2550460D1*
X3023845Y2556208D1*
X3020043Y2560054D1*
X3016196Y2561956D1*
X3010448D1*
X3061090Y2560054D2*
Y2529413D1*
X3059189Y2523709D1*
X3057288Y2521764D1*
X3053441Y2519862D1*
X3047693D1*
X3043890Y2521764D1*
X3061090Y2554306D2*
X3057288Y2558109D1*
X3053441Y2560054D1*
X3047693D1*
X3043890Y2558109D1*
X3040044Y2554306D1*
X3038142Y2548558D1*
Y2544712D1*
X3040044Y2539008D1*
X3043890Y2535161D1*
X3047693Y2533260D1*
X3053441D1*
X3057288Y2535161D1*
X3061090Y2539008D1*
X2460116Y2490758D2*
X2454368D1*
X2450566Y2488857D1*
X2448620Y2486956D1*
X2446719Y2483109D1*
Y2475460D1*
X2448620Y2473558D1*
X2452467D1*
X2460116Y2475460D1*
X2462017Y2471657D1*
X2463919D1*
X2467765Y2475460D1*
X2469667Y2485010D1*
X2467765Y2490758D1*
X2465864Y2494605D1*
X2462017Y2498408D1*
X2458215Y2500309D1*
X2450566D1*
X2446719Y2498408D1*
X2442916Y2494605D1*
X2440971Y2490758D1*
X2439069Y2485010D1*
Y2475460D1*
X2440971Y2469712D1*
X2442916Y2465909D1*
X2446719Y2462062D1*
X2450566Y2460161D1*
X2458215D1*
X2462017Y2462062D1*
X2465864Y2465909D1*
X2460116Y2492659D2*
Y2475460D1*
X2482018Y2500353D2*
Y2460161D1*
Y2481208D2*
X2485865Y2485054D1*
X2489667Y2486956D1*
X2495415D1*
X2499218Y2485054D1*
X2503065Y2481208D1*
X2504966Y2475460D1*
Y2471657D1*
X2503065Y2465909D1*
X2499218Y2462106D1*
X2495415Y2460161D1*
X2489667D1*
X2485865Y2462106D1*
X2482018Y2465909D1*
X2517317Y2486956D2*
Y2467810D1*
X2519219Y2462106D1*
X2523065Y2460161D1*
X2528813D1*
X2532616Y2462106D1*
X2538364Y2467810D1*
Y2486956D2*
Y2460161D1*
X2550715Y2500353D2*
X2552617Y2498452D1*
X2554562Y2500353D1*
X2552617Y2502298D1*
X2550715Y2500353D1*
X2552617Y2486956D2*
Y2460161D1*
X2566914Y2500353D2*
Y2460161D1*
X2602213Y2500353D2*
Y2460161D1*
Y2481208D2*
X2598410Y2485054D1*
X2594564Y2486956D1*
X2588816D1*
X2585013Y2485054D1*
X2581166Y2481208D1*
X2579265Y2475460D1*
Y2471657D1*
X2581166Y2465909D1*
X2585013Y2462106D1*
X2588816Y2460161D1*
X2594564D1*
X2598410Y2462106D1*
X2602213Y2465909D1*
X2614564Y2500353D2*
Y2460161D1*
X2636466Y2486956D2*
X2632664Y2485054D1*
X2628817Y2481208D1*
X2626916Y2475460D1*
Y2471657D1*
X2628817Y2465909D1*
X2632664Y2462106D1*
X2636466Y2460161D1*
X2642214D1*
X2646061Y2462106D1*
X2649864Y2465909D1*
X2651809Y2471657D1*
Y2475460D1*
X2649864Y2481208D1*
X2646061Y2485054D1*
X2642214Y2486956D1*
X2636466D1*
X2687108Y2485054D2*
Y2454413D1*
X2685207Y2448709D1*
X2683306Y2446764D1*
X2679459Y2444862D1*
X2673711D1*
X2669909Y2446764D1*
X2687108Y2479306D2*
X2683306Y2483109D1*
X2679459Y2485054D1*
X2673711D1*
X2669909Y2483109D1*
X2666062Y2479306D1*
X2664160Y2473558D1*
Y2469712D1*
X2666062Y2464008D1*
X2669909Y2460161D1*
X2673711Y2458260D1*
X2679459D1*
X2683306Y2460161D1*
X2687108Y2464008D1*
X1292765Y3153302D2*
X1290864Y3157105D1*
X1287017Y3160952D1*
X1283215Y3162853D1*
X1275566D1*
X1271719Y3160952D1*
X1267916Y3157105D1*
X1265971Y3153302D1*
X1264069Y3147554D1*
Y3137960D1*
X1265971Y3132256D1*
X1267916Y3128409D1*
X1271719Y3124606D1*
X1275566Y3122661D1*
X1283215D1*
X1287017Y3124606D1*
X1290864Y3128409D1*
X1292765Y3132256D1*
Y3137960D1*
X1283215D1*
X717765Y3153302D2*
X715864Y3157105D1*
X712017Y3160952D1*
X708215Y3162853D1*
X700566D1*
X696719Y3160952D1*
X692916Y3157105D1*
X690971Y3153302D1*
X689069Y3147554D1*
Y3137960D1*
X690971Y3132256D1*
X692916Y3128409D1*
X696719Y3124606D1*
X700566Y3122661D1*
X708215D1*
X712017Y3124606D1*
X715864Y3128409D1*
X717765Y3132256D1*
Y3137960D1*
X708215D1*
X2568411Y3113500D2*
X2608603D1*
X2581808Y3125851D2*
X2608603D1*
X2589457D2*
X2583709Y3131599D1*
X2581808Y3135446D1*
Y3141150D1*
X2583709Y3144997D1*
X2589457Y3146898D1*
X2608603D1*
X2568411Y3164997D2*
X2600954D1*
X2606657Y3166899D1*
X2608603Y3170745D1*
Y3174548D1*
X2581808Y3159249D2*
Y3172647D1*
X2568411Y3186899D2*
X2608603D1*
X2568411Y3199251D2*
X2608603D1*
X2581808Y3218396D2*
X2600954Y3199251D1*
X2593304Y3206900D2*
X2608603Y3220297D1*
X2668411Y3113500D2*
X2708603D1*
X2681808Y3125851D2*
X2708603D1*
X2689457D2*
X2683709Y3131599D1*
X2681808Y3135446D1*
Y3141150D1*
X2683709Y3144997D1*
X2689457Y3146898D1*
X2708603D1*
X2668411Y3164997D2*
X2700954D1*
X2706657Y3166899D1*
X2708603Y3170745D1*
Y3174548D1*
X2681808Y3159249D2*
Y3172647D1*
X2668411Y3186899D2*
X2708603D1*
X2668411Y3199251D2*
X2708603D1*
X2681808Y3218396D2*
X2700954Y3199251D1*
X2693304Y3206900D2*
X2708603Y3220297D1*
X1197097Y2290041D2*
Y2261345D1*
X1198998Y2255597D1*
X1202845Y2251794D1*
X1208593Y2249849D1*
X1212396D1*
X1218144Y2251794D1*
X1221990Y2255597D1*
X1223892Y2261345D1*
Y2290041D1*
X1263038Y2284293D2*
X1259235Y2288139D1*
X1253487Y2290041D1*
X1245838D1*
X1240090Y2288139D1*
X1236243Y2284293D1*
Y2280490D1*
X1238189Y2276643D1*
X1240090Y2274742D1*
X1243892Y2272841D1*
X1255388Y2268994D1*
X1259235Y2267093D1*
X1261137Y2265147D1*
X1263038Y2261345D1*
Y2255597D1*
X1259235Y2251794D1*
X1253487Y2249849D1*
X1245838D1*
X1240090Y2251794D1*
X1236243Y2255597D1*
X1275389Y2290041D2*
Y2249849D1*
X1292633D1*
X1298381Y2251794D1*
X1300283Y2253695D1*
X1302184Y2257498D1*
Y2263246D1*
X1300283Y2267093D1*
X1298381Y2268994D1*
X1292633Y2270895D1*
X1298381Y2272841D1*
X1300283Y2274742D1*
X1302184Y2278545D1*
Y2282391D1*
X1300283Y2286194D1*
X1298381Y2288139D1*
X1292633Y2290041D1*
X1275389D1*
Y2270895D2*
X1292633D1*
X1378265Y2290041D2*
X1353416D1*
Y2249849D1*
X1378265D1*
X1353416Y2270895D2*
X1368715D1*
X1390617Y2276643D2*
Y2249849D1*
Y2268994D2*
X1396365Y2274742D1*
X1400211Y2276643D1*
X1405915D1*
X1409762Y2274742D1*
X1411663Y2268994D1*
Y2249849D1*
X1446963Y2290041D2*
Y2249849D1*
Y2270895D2*
X1443160Y2274742D1*
X1439313Y2276643D1*
X1433565D1*
X1429763Y2274742D1*
X1425916Y2270895D1*
X1424015Y2265147D1*
Y2261345D1*
X1425916Y2255597D1*
X1429763Y2251794D1*
X1433565Y2249849D1*
X1439313D1*
X1443160Y2251794D1*
X1446963Y2255597D1*
X1204174Y1969633D2*
Y1940937D1*
X1206076Y1935189D1*
X1209922Y1931386D1*
X1215671Y1929441D1*
X1219473D1*
X1225221Y1931386D1*
X1229068Y1935189D1*
X1230969Y1940937D1*
Y1969633D1*
X1270115Y1963884D2*
X1266313Y1967731D1*
X1260565Y1969633D1*
X1252915D1*
X1247167Y1967731D1*
X1243321Y1963884D1*
Y1960082D1*
X1245266Y1956235D1*
X1247167Y1954334D1*
X1250970Y1952433D1*
X1262466Y1948586D1*
X1266313Y1946685D1*
X1268214Y1944739D1*
X1270115Y1940937D1*
Y1935189D1*
X1266313Y1931386D1*
X1260565Y1929441D1*
X1252915D1*
X1247167Y1931386D1*
X1243321Y1935189D1*
X1282467Y1969633D2*
Y1929441D1*
X1299711D1*
X1305459Y1931386D1*
X1307360Y1933287D1*
X1309261Y1937090D1*
Y1942838D1*
X1307360Y1946685D1*
X1305459Y1948586D1*
X1299711Y1950487D1*
X1305459Y1952433D1*
X1307360Y1954334D1*
X1309261Y1958136D1*
Y1961983D1*
X1307360Y1965786D1*
X1305459Y1967731D1*
X1299711Y1969633D1*
X1282467D1*
Y1950487D2*
X1299711D1*
X1385343Y1969633D2*
X1360493D1*
Y1929441D1*
X1385343D1*
X1360493Y1950487D2*
X1375792D1*
X1397694Y1956235D2*
Y1929441D1*
Y1948586D2*
X1403442Y1954334D1*
X1407289Y1956235D1*
X1412993D1*
X1416839Y1954334D1*
X1418741Y1948586D1*
Y1929441D1*
X1454040Y1969633D2*
Y1929441D1*
Y1950487D2*
X1450237Y1954334D1*
X1446391Y1956235D1*
X1440643D1*
X1436840Y1954334D1*
X1432993Y1950487D1*
X1431092Y1944739D1*
Y1940937D1*
X1432993Y1935189D1*
X1436840Y1931386D1*
X1440643Y1929441D1*
X1446391D1*
X1450237Y1931386D1*
X1454040Y1935189D1*
X557519Y2231897D2*
D127*
X507301D1*
X497242Y2228570D1*
X490587Y2221838D1*
X487183Y2211779D1*
Y2205124D1*
X490587Y2195065D1*
X497242Y2188334D1*
X507301Y2185006D1*
X557519D1*
X547460Y2116501D2*
X554191Y2123155D1*
X557519Y2133214D1*
Y2146600D1*
X554191Y2156660D1*
X547460Y2163391D1*
X540805D1*
X534073Y2159987D1*
X530746Y2156660D1*
X527419Y2150005D1*
X520687Y2129887D1*
X517360Y2123155D1*
X513955Y2119828D1*
X507301Y2116501D1*
X497242D1*
X490587Y2123155D1*
X487183Y2133214D1*
Y2146601D1*
X490587Y2156660D1*
X497242Y2163391D1*
X557519Y2094886D2*
X487183D1*
Y2064709D1*
X490587Y2054650D1*
X493914Y2051322D1*
X500569Y2047995D1*
X510628D1*
X517360Y2051322D1*
X520687Y2054650D1*
X524014Y2064709D1*
X527419Y2054650D1*
X530746Y2051322D1*
X537400Y2047995D1*
X544132D1*
X550787Y2051322D1*
X554191Y2054650D1*
X557519Y2064709D1*
Y2094886D1*
X524014D2*
Y2064709D1*
X2260840Y2423877D2*
D128*
X2200552D1*
X2260840Y2464069D1*
X2200552D1*
X2260840Y2388106D2*
X2257988Y2393876D1*
X2252218Y2399580D1*
X2246514Y2402498D1*
X2237892Y2405350D1*
X2223500D1*
X2214944Y2402498D1*
X2209174Y2399580D1*
X2203471Y2393876D1*
X2200552Y2388106D1*
Y2376632D1*
X2203471Y2370928D1*
X2209174Y2365158D1*
X2214944Y2362306D1*
X2223500Y2359454D1*
X2237892D1*
X2246514Y2362306D1*
X2252218Y2365158D1*
X2257988Y2370928D1*
X2260840Y2376632D1*
Y2388106D1*
Y2340927D2*
X2200552D1*
Y2320831D1*
X2203471Y2312209D1*
X2209174Y2306439D1*
X2214945Y2303587D1*
X2223500Y2300735D1*
X2237892D1*
X2246514Y2303587D1*
X2252218Y2306439D1*
X2257988Y2312209D1*
X2260840Y2320831D1*
Y2340927D1*
Y2244934D2*
Y2282208D1*
X2200552D1*
Y2244934D1*
X2232122Y2282208D2*
Y2259260D1*
X2200552Y2180511D2*
X2260840D1*
X2200552Y2203459D1*
X2260840Y2226407D1*
X2200552D1*
X2246514Y2118940D2*
X2252218Y2121792D1*
X2257988Y2127562D1*
X2260840Y2133266D1*
Y2144740D1*
X2257988Y2150510D1*
X2252218Y2156214D1*
X2246514Y2159132D1*
X2237892Y2161984D1*
X2223500D1*
X2214945Y2159132D1*
X2209174Y2156214D1*
X2203471Y2150510D1*
X2200552Y2144740D1*
Y2133266D1*
X2203471Y2127562D1*
X2209174Y2121792D1*
X2214945Y2118940D1*
X2260840Y2100413D2*
X2217796D1*
X2209174Y2097561D1*
X2203471Y2091791D1*
X2200552Y2083169D1*
Y2077465D1*
X2203471Y2068843D1*
X2209174Y2063073D1*
X2217796Y2060221D1*
X2260840D1*
X2260774Y1977603D2*
Y1946099D1*
X2237826Y1963277D1*
Y1954655D1*
X2234974Y1948951D1*
X2232122Y1946099D1*
X2223500Y1943181D1*
X2217796D1*
X2209174Y1946099D1*
X2203404Y1951803D1*
X2200552Y1960425D1*
Y1969047D1*
X2203404Y1977603D1*
X2206322Y1980455D1*
X2212026Y1983373D1*
X2246448Y1921736D2*
X2249300D1*
X2255070Y1918884D1*
X2257922Y1916032D1*
X2260774Y1910262D1*
Y1898788D1*
X2257922Y1893084D1*
X2255070Y1890232D1*
X2249300Y1887314D1*
X2243596D1*
X2237826Y1890232D1*
X2229270Y1895936D1*
X2200552Y1924654D1*
Y1884462D1*
X2252218Y1825743D2*
X2257988Y1831446D1*
X2260840Y1840068D1*
Y1851542D1*
X2257988Y1860164D1*
X2252218Y1865935D1*
X2246514D1*
X2240744Y1863016D1*
X2237892Y1860164D1*
X2235041Y1854461D1*
X2229270Y1837217D1*
X2226418Y1831446D1*
X2223500Y1828595D1*
X2217796Y1825743D1*
X2209174D1*
X2203471Y1831446D1*
X2200552Y1840068D1*
Y1851542D1*
X2203471Y1860164D1*
X2209174Y1865935D1*
X971809Y1417654D2*
D123*
X987107Y1377462D1*
X1002406Y1417654D1*
X1045354Y1377462D2*
Y1417654D1*
X1030056Y1377462D1*
X1014757Y1417654D1*
Y1377462D1*
X1067256Y1404256D2*
X1063454Y1402355D1*
X1059607Y1398508D1*
X1057706Y1392760D1*
Y1388958D1*
X1059607Y1383210D1*
X1063454Y1379407D1*
X1067256Y1377462D1*
X1073004D1*
X1076851Y1379407D1*
X1080654Y1383210D1*
X1082599Y1388958D1*
Y1392760D1*
X1080654Y1398508D1*
X1076851Y1402355D1*
X1073004Y1404256D1*
X1067256D1*
X1100699Y1417654D2*
Y1385111D1*
X1102600Y1379407D1*
X1106447Y1377462D1*
X1110249D1*
X1094951Y1404256D2*
X1108348D1*
X1050485Y708103D2*
X1048583Y711906D1*
X1044737Y715753D1*
X1040934Y717654D1*
X1033285D1*
X1029438Y715753D1*
X1025635Y711906D1*
X1023690Y708103D1*
X1021789Y702355D1*
Y692760D1*
X1023690Y687057D1*
X1025635Y683210D1*
X1029438Y679407D1*
X1033285Y677462D1*
X1040934D1*
X1044737Y679407D1*
X1048583Y683210D1*
X1050485Y687057D1*
Y692760D1*
X1040934D1*
X1062836Y704256D2*
Y677462D1*
Y696607D2*
X1068584Y702355D1*
X1072431Y704256D1*
X1078135D1*
X1081981Y702355D1*
X1083883Y696607D1*
Y677462D1*
X1119182Y717654D2*
Y677462D1*
Y698508D2*
X1115379Y702355D1*
X1111533Y704256D1*
X1105785D1*
X1101982Y702355D1*
X1098135Y698508D1*
X1096234Y692760D1*
Y688958D1*
X1098135Y683210D1*
X1101982Y679407D1*
X1105785Y677462D1*
X1111533D1*
X1115379Y679407D1*
X1119182Y683210D1*
X796618Y1417654D2*
X771769D1*
Y1377462D1*
X796618D1*
X771769Y1398508D2*
X787067D1*
X808969Y1404256D2*
Y1377462D1*
Y1396607D2*
X814717Y1402355D1*
X818564Y1404256D1*
X824268D1*
X828115Y1402355D1*
X830016Y1396607D1*
Y1377462D1*
X771769Y717654D2*
Y677462D1*
X785166D1*
X790914Y679407D1*
X794761Y683210D1*
X796662Y687057D1*
X798563Y692760D1*
Y702355D1*
X796662Y708103D1*
X794761Y711906D1*
X790914Y715753D1*
X785166Y717654D1*
X771769D1*
X810915D2*
X812816Y715753D1*
X814761Y717654D1*
X812816Y719599D1*
X810915Y717654D1*
X812816Y704256D2*
Y677462D1*
X827113Y704256D2*
Y677462D1*
Y692760D2*
X829058Y698508D1*
X832861Y702355D1*
X836708Y704256D1*
X842456D1*
X1671809Y1417654D2*
X1687107Y1377462D1*
X1702406Y1417654D1*
X1745354Y1377462D2*
Y1417654D1*
X1730056Y1377462D1*
X1714757Y1417654D1*
Y1377462D1*
X1767256Y1404256D2*
X1763454Y1402355D1*
X1759607Y1398508D1*
X1757706Y1392760D1*
Y1388958D1*
X1759607Y1383210D1*
X1763454Y1379407D1*
X1767256Y1377462D1*
X1773004D1*
X1776851Y1379407D1*
X1780654Y1383210D1*
X1782599Y1388958D1*
Y1392760D1*
X1780654Y1398508D1*
X1776851Y1402355D1*
X1773004Y1404256D1*
X1767256D1*
X1800699Y1417654D2*
Y1385111D1*
X1802600Y1379407D1*
X1806447Y1377462D1*
X1810249D1*
X1794951Y1404256D2*
X1808348D1*
X1750485Y708103D2*
X1748583Y711906D1*
X1744737Y715753D1*
X1740934Y717654D1*
X1733285D1*
X1729438Y715753D1*
X1725635Y711906D1*
X1723690Y708103D1*
X1721789Y702355D1*
Y692760D1*
X1723690Y687057D1*
X1725635Y683210D1*
X1729438Y679407D1*
X1733285Y677462D1*
X1740934D1*
X1744737Y679407D1*
X1748583Y683210D1*
X1750485Y687057D1*
Y692760D1*
X1740934D1*
X1762836Y704256D2*
Y677462D1*
Y696607D2*
X1768584Y702355D1*
X1772431Y704256D1*
X1778135D1*
X1781981Y702355D1*
X1783883Y696607D1*
Y677462D1*
X1819182Y717654D2*
Y677462D1*
Y698508D2*
X1815379Y702355D1*
X1811533Y704256D1*
X1805785D1*
X1801982Y702355D1*
X1798135Y698508D1*
X1796234Y692760D1*
Y688958D1*
X1798135Y683210D1*
X1801982Y679407D1*
X1805785Y677462D1*
X1811533D1*
X1815379Y679407D1*
X1819182Y683210D1*
X1496618Y1417654D2*
X1471769D1*
Y1377462D1*
X1496618D1*
X1471769Y1398508D2*
X1487067D1*
X1508969Y1404256D2*
Y1377462D1*
Y1396607D2*
X1514717Y1402355D1*
X1518564Y1404256D1*
X1524268D1*
X1528115Y1402355D1*
X1530016Y1396607D1*
Y1377462D1*
X1471769Y717654D2*
Y677462D1*
X1485166D1*
X1490914Y679407D1*
X1494761Y683210D1*
X1496662Y687057D1*
X1498563Y692760D1*
Y702355D1*
X1496662Y708103D1*
X1494761Y711906D1*
X1490914Y715753D1*
X1485166Y717654D1*
X1471769D1*
X1510915D2*
X1512816Y715753D1*
X1514761Y717654D1*
X1512816Y719599D1*
X1510915Y717654D1*
X1512816Y704256D2*
Y677462D1*
X1527113Y704256D2*
Y677462D1*
Y692760D2*
X1529058Y698508D1*
X1532861Y702355D1*
X1536708Y704256D1*
X1542456D1*
X2421809Y1417654D2*
X2437107Y1377462D1*
X2452406Y1417654D1*
X2495354Y1377462D2*
Y1417654D1*
X2480056Y1377462D1*
X2464757Y1417654D1*
Y1377462D1*
X2517256Y1404256D2*
X2513454Y1402355D1*
X2509607Y1398508D1*
X2507706Y1392760D1*
Y1388958D1*
X2509607Y1383210D1*
X2513454Y1379407D1*
X2517256Y1377462D1*
X2523004D1*
X2526851Y1379407D1*
X2530654Y1383210D1*
X2532599Y1388958D1*
Y1392760D1*
X2530654Y1398508D1*
X2526851Y1402355D1*
X2523004Y1404256D1*
X2517256D1*
X2550699Y1417654D2*
Y1385111D1*
X2552600Y1379407D1*
X2556447Y1377462D1*
X2560249D1*
X2544951Y1404256D2*
X2558348D1*
X2500485Y708103D2*
X2498583Y711906D1*
X2494737Y715753D1*
X2490934Y717654D1*
X2483285D1*
X2479438Y715753D1*
X2475635Y711906D1*
X2473690Y708103D1*
X2471789Y702355D1*
Y692760D1*
X2473690Y687057D1*
X2475635Y683210D1*
X2479438Y679407D1*
X2483285Y677462D1*
X2490934D1*
X2494737Y679407D1*
X2498583Y683210D1*
X2500485Y687057D1*
Y692760D1*
X2490934D1*
X2512836Y704256D2*
Y677462D1*
Y696607D2*
X2518584Y702355D1*
X2522431Y704256D1*
X2528135D1*
X2531981Y702355D1*
X2533883Y696607D1*
Y677462D1*
X2569182Y717654D2*
Y677462D1*
Y698508D2*
X2565379Y702355D1*
X2561533Y704256D1*
X2555785D1*
X2551982Y702355D1*
X2548135Y698508D1*
X2546234Y692760D1*
Y688958D1*
X2548135Y683210D1*
X2551982Y679407D1*
X2555785Y677462D1*
X2561533D1*
X2565379Y679407D1*
X2569182Y683210D1*
X2246618Y1417654D2*
X2221769D1*
Y1377462D1*
X2246618D1*
X2221769Y1398508D2*
X2237067D1*
X2258969Y1404256D2*
Y1377462D1*
Y1396607D2*
X2264717Y1402355D1*
X2268564Y1404256D1*
X2274268D1*
X2278115Y1402355D1*
X2280016Y1396607D1*
Y1377462D1*
X2221769Y717654D2*
Y677462D1*
X2235166D1*
X2240914Y679407D1*
X2244761Y683210D1*
X2246662Y687057D1*
X2248563Y692760D1*
Y702355D1*
X2246662Y708103D1*
X2244761Y711906D1*
X2240914Y715753D1*
X2235166Y717654D1*
X2221769D1*
X2260915D2*
X2262816Y715753D1*
X2264761Y717654D1*
X2262816Y719599D1*
X2260915Y717654D1*
X2262816Y704256D2*
Y677462D1*
X2277113Y704256D2*
Y677462D1*
Y692760D2*
X2279058Y698508D1*
X2282861Y702355D1*
X2286708Y704256D1*
X2292456D1*
X3121809Y1417654D2*
X3137107Y1377462D1*
X3152406Y1417654D1*
X3195354Y1377462D2*
Y1417654D1*
X3180056Y1377462D1*
X3164757Y1417654D1*
Y1377462D1*
X3217256Y1404256D2*
X3213454Y1402355D1*
X3209607Y1398508D1*
X3207706Y1392760D1*
Y1388958D1*
X3209607Y1383210D1*
X3213454Y1379407D1*
X3217256Y1377462D1*
X3223004D1*
X3226851Y1379407D1*
X3230654Y1383210D1*
X3232599Y1388958D1*
Y1392760D1*
X3230654Y1398508D1*
X3226851Y1402355D1*
X3223004Y1404256D1*
X3217256D1*
X3250699Y1417654D2*
Y1385111D1*
X3252600Y1379407D1*
X3256447Y1377462D1*
X3260249D1*
X3244951Y1404256D2*
X3258348D1*
X3200485Y708103D2*
X3198583Y711906D1*
X3194737Y715753D1*
X3190934Y717654D1*
X3183285D1*
X3179438Y715753D1*
X3175635Y711906D1*
X3173690Y708103D1*
X3171789Y702355D1*
Y692760D1*
X3173690Y687057D1*
X3175635Y683210D1*
X3179438Y679407D1*
X3183285Y677462D1*
X3190934D1*
X3194737Y679407D1*
X3198583Y683210D1*
X3200485Y687057D1*
Y692760D1*
X3190934D1*
X3212836Y704256D2*
Y677462D1*
Y696607D2*
X3218584Y702355D1*
X3222431Y704256D1*
X3228135D1*
X3231981Y702355D1*
X3233883Y696607D1*
Y677462D1*
X3269182Y717654D2*
Y677462D1*
Y698508D2*
X3265379Y702355D1*
X3261533Y704256D1*
X3255785D1*
X3251982Y702355D1*
X3248135Y698508D1*
X3246234Y692760D1*
Y688958D1*
X3248135Y683210D1*
X3251982Y679407D1*
X3255785Y677462D1*
X3261533D1*
X3265379Y679407D1*
X3269182Y683210D1*
X2946618Y1417654D2*
X2921769D1*
Y1377462D1*
X2946618D1*
X2921769Y1398508D2*
X2937067D1*
X2958969Y1404256D2*
Y1377462D1*
Y1396607D2*
X2964717Y1402355D1*
X2968564Y1404256D1*
X2974268D1*
X2978115Y1402355D1*
X2980016Y1396607D1*
Y1377462D1*
X2921769Y717654D2*
Y677462D1*
X2935166D1*
X2940914Y679407D1*
X2944761Y683210D1*
X2946662Y687057D1*
X2948563Y692760D1*
Y702355D1*
X2946662Y708103D1*
X2944761Y711906D1*
X2940914Y715753D1*
X2935166Y717654D1*
X2921769D1*
X2960915D2*
X2962816Y715753D1*
X2964761Y717654D1*
X2962816Y719599D1*
X2960915Y717654D1*
X2962816Y704256D2*
Y677462D1*
X2977113Y704256D2*
Y677462D1*
Y692760D2*
X2979058Y698508D1*
X2982861Y702355D1*
X2986708Y704256D1*
X2992456D1*
X3871809Y1467654D2*
X3887107Y1427462D1*
X3902406Y1467654D1*
X3945354Y1427462D2*
Y1467654D1*
X3930056Y1427462D1*
X3914757Y1467654D1*
Y1427462D1*
X3967256Y1454256D2*
X3963454Y1452355D1*
X3959607Y1448508D1*
X3957706Y1442760D1*
Y1438958D1*
X3959607Y1433210D1*
X3963454Y1429407D1*
X3967256Y1427462D1*
X3973004D1*
X3976851Y1429407D1*
X3980654Y1433210D1*
X3982599Y1438958D1*
Y1442760D1*
X3980654Y1448508D1*
X3976851Y1452355D1*
X3973004Y1454256D1*
X3967256D1*
X4000699Y1467654D2*
Y1435111D1*
X4002600Y1429407D1*
X4006447Y1427462D1*
X4010249D1*
X3994951Y1454256D2*
X4008348D1*
X3950485Y758103D2*
X3948583Y761906D1*
X3944737Y765753D1*
X3940934Y767654D1*
X3933285D1*
X3929438Y765753D1*
X3925635Y761906D1*
X3923690Y758103D1*
X3921789Y752355D1*
Y742760D1*
X3923690Y737057D1*
X3925635Y733210D1*
X3929438Y729407D1*
X3933285Y727462D1*
X3940934D1*
X3944737Y729407D1*
X3948583Y733210D1*
X3950485Y737057D1*
Y742760D1*
X3940934D1*
X3962836Y754256D2*
Y727462D1*
Y746607D2*
X3968584Y752355D1*
X3972431Y754256D1*
X3978135D1*
X3981981Y752355D1*
X3983883Y746607D1*
Y727462D1*
X4019182Y767654D2*
Y727462D1*
Y748508D2*
X4015379Y752355D1*
X4011533Y754256D1*
X4005785D1*
X4001982Y752355D1*
X3998135Y748508D1*
X3996234Y742760D1*
Y738958D1*
X3998135Y733210D1*
X4001982Y729407D1*
X4005785Y727462D1*
X4011533D1*
X4015379Y729407D1*
X4019182Y733210D1*
X3696618Y1467654D2*
X3671769D1*
Y1427462D1*
X3696618D1*
X3671769Y1448508D2*
X3687067D1*
X3708969Y1454256D2*
Y1427462D1*
Y1446607D2*
X3714717Y1452355D1*
X3718564Y1454256D1*
X3724268D1*
X3728115Y1452355D1*
X3730016Y1446607D1*
Y1427462D1*
X3671769Y767654D2*
Y727462D1*
X3685166D1*
X3690914Y729407D1*
X3694761Y733210D1*
X3696662Y737057D1*
X3698563Y742760D1*
Y752355D1*
X3696662Y758103D1*
X3694761Y761906D1*
X3690914Y765753D1*
X3685166Y767654D1*
X3671769D1*
X3710915D2*
X3712816Y765753D1*
X3714761Y767654D1*
X3712816Y769599D1*
X3710915Y767654D1*
X3712816Y754256D2*
Y727462D1*
X3727113Y754256D2*
Y727462D1*
Y742760D2*
X3729058Y748508D1*
X3732861Y752355D1*
X3736708Y754256D1*
X3742456D1*
M02*
