G04 DipTrace 3.3.0.0*
G04 Bottom.gbr*
%MOIN*%
G04 #@! TF.FileFunction,Copper,L2,Bot*
G04 #@! TF.Part,Single*
G04 #@! TA.AperFunction,Conductor*
%ADD14C,0.016*%
%ADD15C,0.012008*%
%ADD16C,0.012*%
G04 #@! TA.AperFunction,CopperBalancing*
%ADD17C,0.025*%
G04 #@! TA.AperFunction,Conductor*
%ADD18C,0.015*%
G04 #@! TA.AperFunction,ViaPad*
%ADD20C,0.04*%
G04 #@! TA.AperFunction,Conductor*
%ADD22C,0.0121*%
G04 #@! TA.AperFunction,ComponentPad*
%ADD25C,0.06*%
%ADD37R,0.059055X0.059055*%
%ADD38C,0.059055*%
%ADD43C,0.076772*%
%ADD44R,0.076772X0.076772*%
%ADD46C,0.2*%
%ADD49R,0.12X0.12*%
%ADD50C,0.12*%
%ADD51R,0.059X0.059*%
%ADD52C,0.059*%
G04 #@! TA.AperFunction,ViaPad*
%ADD59C,0.03*%
%FSLAX26Y26*%
G04*
G70*
G90*
G75*
G01*
G04 Bottom*
%LPD*%
X2144016Y1294016D2*
D14*
X2244016D1*
X2369016Y1419016D1*
Y2519016D1*
X2294016Y2594016D1*
X1775266Y2231516D2*
D15*
X1769016D1*
Y2394016D1*
X1208797Y1848497D2*
D16*
Y1948714D1*
X1149615Y2007896D1*
Y2173686D1*
X3219016Y2069016D2*
X3217462Y2070570D1*
X2593724D1*
X2476724Y1953570D1*
X3394016Y2469016D2*
D17*
X3523740Y2598740D1*
X3681417D1*
X3895492Y2384665D1*
X4077776D1*
X3394016Y2469016D2*
Y2344016D1*
X3219016Y2169016D1*
Y2094016D1*
Y2069016D1*
Y2119016D2*
D16*
Y2094016D1*
X1244016Y1579055D2*
D18*
Y2344016D1*
X1094016D2*
Y2594016D1*
X1394016D2*
Y1894016D1*
X1039685D2*
Y1618425D1*
X2844016Y794016D2*
D16*
X2794016D1*
X2744016Y844016D1*
Y1469016D1*
X2631516Y1581516D1*
X1794016D2*
Y1694016D1*
X2144016Y694016D2*
D18*
X2050709D1*
X1994016Y750709D1*
Y1544016D1*
X1944016Y1594016D1*
Y1944016D1*
X1494016D2*
Y2594016D1*
X2944016Y794016D2*
D20*
X2994016Y844016D1*
X3344016Y1194016D1*
X2994016Y844016D2*
D3*
X1512766Y812766D2*
X1569016Y869016D1*
X1894016Y1194016D1*
X1569016Y869016D2*
D3*
X3344016Y1094016D2*
X2944016Y694016D1*
Y544016D1*
X794016D2*
Y794016D1*
X1194016Y1194016D1*
X894016Y544016D2*
Y794016D1*
X1194016Y1094016D1*
X994016Y544016D2*
Y794016D1*
X1194016Y994016D1*
X1094016Y544016D2*
Y794016D1*
X1194016Y894016D1*
X2594016Y2181516D2*
D16*
Y3044016D1*
X3594016Y844016D2*
D14*
X3544016D1*
X3469016Y919016D1*
Y1994016D1*
X1294016Y2444016D2*
Y2594016D1*
X2094016Y2819016D2*
D16*
Y2694016D1*
X1994016Y2819016D2*
Y2694016D1*
X3594016Y744016D2*
D14*
X3519016D1*
X3419016Y844016D1*
Y2044016D1*
X1594016Y2269016D2*
Y2594016D1*
X1694016D2*
D15*
Y2306516D1*
X1956516D2*
Y2144114D1*
X1794016Y2819016D2*
D16*
X1819016Y2794016D1*
X1869016D1*
X1894016Y2769016D1*
Y2694016D1*
X1294016Y1694016D2*
Y2394016D1*
X3106516Y2344016D2*
Y2869016D1*
X2194016Y1694016D2*
D15*
Y1987766D1*
X1105243Y1993374D2*
Y2125265D1*
X1356516Y2087072D2*
Y1756516D1*
X1394016Y1719016D1*
Y1694016D1*
X1894016Y1094016D2*
D20*
X1494016Y694016D1*
Y544016D1*
X1344016Y2869016D2*
D22*
Y2519016D1*
X748346Y2500315D2*
D15*
Y1739685D1*
X794016Y1694016D1*
X1550265Y2303608D2*
Y1831516D1*
X1600265Y1781516D1*
X1594016Y1775266D1*
Y1694016D1*
X944016Y2819016D2*
Y1806516D1*
X894016Y1756516D1*
Y1694016D1*
X3144016Y544016D2*
D20*
Y794016D1*
X3344016Y994016D1*
X1681516Y2106713D2*
D15*
Y1794016D1*
X3244016Y544016D2*
D20*
Y794016D1*
X3344016Y894016D1*
X1794016Y2694016D2*
D16*
Y2744016D1*
X1744016Y2794016D1*
X1619016D1*
X1594016Y2819016D1*
X1694016Y544016D2*
D20*
Y794016D1*
X1894016Y994016D1*
X2244016Y544016D2*
Y794016D1*
X2644016Y1194016D1*
X2344016Y544016D2*
Y794016D1*
X2644016Y1094016D1*
X2444016Y544016D2*
Y794016D1*
X2644016Y994016D1*
X2544016Y544016D2*
Y794016D1*
X2644016Y894016D1*
X1044016Y2825265D2*
D15*
Y1994016D1*
X1094016Y1944016D1*
Y1694016D1*
X1394016Y794016D2*
D16*
X1344016D1*
X1294016Y844016D1*
Y1619016D1*
X2144016Y794016D2*
D18*
X2069016D1*
X2044016Y819016D1*
Y2031516D1*
X1194016D2*
Y2594016D1*
X1444016Y2216993D2*
D15*
Y1881516D1*
X1494016Y1831516D1*
Y1694016D1*
X4077776Y2857106D2*
D17*
X3858780Y2638110D1*
X3386142D1*
X3669016Y544016D2*
D20*
Y819016D1*
X4094016Y1244016D1*
X3769016Y544016D2*
Y819016D1*
X4094016Y1144016D1*
X3869016Y544016D2*
Y819016D1*
X4094016Y1044016D1*
X3969016Y544016D2*
Y819016D1*
X4094016Y944016D1*
X1794016Y544016D2*
Y794016D1*
X1894016Y894016D1*
X694016Y1394016D2*
D18*
Y1506516D1*
X844016Y1656516D1*
Y1956516D1*
X894016Y2006516D1*
Y2594016D1*
D20*
X1775266Y2231516D3*
X1769016Y2394016D3*
X1208797Y1848497D3*
X1149615Y2173686D3*
X3394016Y2469016D3*
D3*
X1244016Y1579055D3*
Y2344016D3*
X1094016D3*
X1394016Y1894016D3*
X1039685D3*
Y1618425D3*
X2631516Y1581516D3*
X1794016D3*
X1944016Y1944016D3*
X1494016D3*
X2944016Y794016D3*
X1512766Y812766D3*
X2594016Y2181516D3*
X3469016Y1994016D3*
X1294016Y2444016D3*
X3419016Y2044016D3*
X1594016Y2269016D3*
X1694016Y2306516D3*
X1956516D3*
Y2144114D3*
X1294016Y2394016D3*
X3106516Y2344016D3*
Y2869016D3*
X2194016Y1987766D3*
X1105243Y1993374D3*
Y2125265D3*
X1356516Y2087072D3*
X1344016Y2869016D3*
Y2519016D3*
X748346Y2500315D3*
X1550265Y2303608D3*
X944016Y2819016D3*
X1681516Y2106713D3*
Y1794016D3*
X1594016Y2819016D3*
X1044016Y2825265D3*
X1294016Y1619016D3*
X2044016Y2031516D3*
X1194016D3*
X1444016Y2216993D3*
X3386142Y2638110D3*
X1569016Y869016D3*
X2994016Y844016D3*
D59*
X2775724Y1875570D3*
Y1849570D3*
Y1823570D3*
X2736724Y1875570D3*
Y1849570D3*
Y1823570D3*
X2697724Y1875570D3*
Y1849570D3*
Y1823570D3*
X3127016Y1628016D3*
X3088016D3*
D20*
X2476724Y1953570D3*
X3219016Y2069016D3*
Y1656516D3*
X1594016Y1094016D3*
Y1044016D3*
Y994016D3*
X894016Y1094016D3*
Y1044016D3*
Y994016D3*
X2344016Y1094016D3*
Y1044016D3*
Y994016D3*
X3044016Y1094016D3*
Y1044016D3*
Y994016D3*
X3794016Y1144016D3*
Y1094016D3*
Y1044016D3*
X3219016Y2119016D3*
X594016Y2431516D3*
Y1856516D3*
X3208976Y2815276D3*
X1644016Y2419016D3*
X1719016Y2144016D3*
X1544016Y844016D3*
X2969016Y819016D3*
X1794016Y2819016D3*
X1994016D3*
X2094016D3*
X428719Y3230663D2*
D17*
X3312073D1*
X428719Y3205794D2*
X3312073D1*
X428719Y3180925D2*
X3312073D1*
X428719Y3156056D2*
X3312073D1*
X428719Y3131188D2*
X3312073D1*
X428719Y3106319D2*
X3312073D1*
X428719Y3081450D2*
X735481D1*
X1238194D2*
X1435509D1*
X1552540D2*
X1649845D1*
X1738204D2*
X1849828D1*
X1938187D2*
X2049847D1*
X2138205D2*
X2535503D1*
X2838198D2*
X3312073D1*
X428719Y3056581D2*
X735481D1*
X1251113D2*
X1435509D1*
X1552540D2*
X1636927D1*
X1751123D2*
X1836910D1*
X1951105D2*
X2036928D1*
X2151124D2*
X2535503D1*
X2851117D2*
X3312073D1*
X428719Y3031713D2*
X735481D1*
X1251184D2*
X1435509D1*
X1552540D2*
X1636855D1*
X1751159D2*
X1836874D1*
X1951177D2*
X2036856D1*
X2151160D2*
X2535503D1*
X2851152D2*
X3312073D1*
X428719Y3006844D2*
X735481D1*
X1238410D2*
X1435509D1*
X1552540D2*
X1649594D1*
X1738420D2*
X1849613D1*
X1938438D2*
X2049595D1*
X2138421D2*
X2535503D1*
X2838414D2*
X3312073D1*
X428719Y2981975D2*
X2559007D1*
X2628993D2*
X3312073D1*
X428719Y2957106D2*
X2559007D1*
X2628993D2*
X3312073D1*
X428719Y2932238D2*
X2559007D1*
X2628993D2*
X3312073D1*
X428719Y2907369D2*
X1315225D1*
X1372796D2*
X2559007D1*
X2628993D2*
X3077749D1*
X3135283D2*
X3312073D1*
X428719Y2882500D2*
X1297032D1*
X1391025D2*
X2559007D1*
X2628993D2*
X3059520D1*
X3153513D2*
X3312073D1*
X428719Y2857631D2*
X915619D1*
X972400D2*
X1008129D1*
X1079909D2*
X1296422D1*
X1391599D2*
X1565625D1*
X1622406D2*
X1765608D1*
X1822425D2*
X1965626D1*
X2022407D2*
X2065636D1*
X2122416D2*
X2559007D1*
X2628993D2*
X3058946D1*
X3154087D2*
X3312073D1*
X428719Y2832762D2*
X897103D1*
X1092397D2*
X1308982D1*
X1379076D2*
X1547109D1*
X1640922D2*
X1747092D1*
X1840941D2*
X1947110D1*
X2140933D2*
X2559007D1*
X2628993D2*
X3071541D1*
X3141491D2*
X3312073D1*
X428719Y2807894D2*
X896385D1*
X1089634D2*
X1308982D1*
X1379076D2*
X1546391D1*
X1903595D2*
X1946357D1*
X2141650D2*
X2559007D1*
X2628993D2*
X3071541D1*
X3141491D2*
X3312073D1*
X428719Y2783025D2*
X909016D1*
X979003D2*
X1009026D1*
X1079012D2*
X1308982D1*
X1379076D2*
X1562073D1*
X1925843D2*
X1959024D1*
X2029010D2*
X2059033D1*
X2129019D2*
X2559007D1*
X2628993D2*
X3071541D1*
X3141491D2*
X3312073D1*
X428719Y2758156D2*
X909016D1*
X979003D2*
X1009026D1*
X1079012D2*
X1308982D1*
X1379076D2*
X1731410D1*
X1929001D2*
X1959024D1*
X2029010D2*
X2059033D1*
X2129019D2*
X2559007D1*
X2628993D2*
X3071541D1*
X3141491D2*
X3312073D1*
X636452Y2733287D2*
X651583D1*
X736462D2*
X751557D1*
X836471D2*
X851566D1*
X979003D2*
X1009026D1*
X1136463D2*
X1151558D1*
X1236472D2*
X1251567D1*
X1436454D2*
X1451549D1*
X1536464D2*
X1551559D1*
X1636473D2*
X1651568D1*
X1736482D2*
X1751577D1*
X1936465D2*
X1951560D1*
X2036474D2*
X2051569D1*
X2136447D2*
X2151578D1*
X2236456D2*
X2251552D1*
X2336466D2*
X2559007D1*
X2628993D2*
X3071541D1*
X3141491D2*
X3312073D1*
X979003Y2708419D2*
X1009026D1*
X2350640D2*
X2559007D1*
X2628993D2*
X3071541D1*
X3141491D2*
X3312073D1*
X979003Y2683550D2*
X1009026D1*
X2351537D2*
X2559007D1*
X2628993D2*
X3071541D1*
X3141491D2*
X3312073D1*
X979003Y2658681D2*
X1009026D1*
X2339982D2*
X2559007D1*
X2628993D2*
X3071541D1*
X3141491D2*
X3312073D1*
X428719Y2633812D2*
X451421D1*
X979003D2*
X1009026D1*
X2336609D2*
X2559007D1*
X2628993D2*
X3071541D1*
X3141491D2*
X3312073D1*
X979003Y2608944D2*
X1009026D1*
X2350999D2*
X2559007D1*
X2628993D2*
X3071541D1*
X3141491D2*
X3312073D1*
X979003Y2584075D2*
X1009026D1*
X2355233D2*
X2559007D1*
X2628993D2*
X3071541D1*
X3141491D2*
X3312073D1*
X428719Y2559206D2*
X447008D1*
X979003D2*
X1009026D1*
X2380101D2*
X2559007D1*
X2628993D2*
X3071541D1*
X3141491D2*
X3312073D1*
X428719Y2534337D2*
X714165D1*
X782537D2*
X857523D1*
X979003D2*
X1009026D1*
X1631018D2*
X1659032D1*
X1729018D2*
X2302399D1*
X2402421D2*
X2559007D1*
X2628993D2*
X3071541D1*
X3141491D2*
X3312073D1*
X428719Y2509469D2*
X700278D1*
X796424D2*
X857523D1*
X979003D2*
X1009026D1*
X1631018D2*
X1659032D1*
X1729018D2*
X2327267D1*
X2406009D2*
X2559007D1*
X2628993D2*
X3071541D1*
X3141491D2*
X3312073D1*
X428719Y2484600D2*
X702108D1*
X794594D2*
X857523D1*
X979003D2*
X1009026D1*
X1631018D2*
X1659032D1*
X1729018D2*
X2332040D1*
X2406009D2*
X2559007D1*
X2628993D2*
X3071541D1*
X3141491D2*
X3312073D1*
X428719Y2459731D2*
X713340D1*
X783326D2*
X857523D1*
X979003D2*
X1009026D1*
X1631018D2*
X1659032D1*
X1729018D2*
X2332040D1*
X2406009D2*
X2559007D1*
X2628993D2*
X3071541D1*
X3141491D2*
X3312073D1*
X428719Y2434862D2*
X713340D1*
X783326D2*
X857523D1*
X979003D2*
X1009026D1*
X1631018D2*
X1659032D1*
X1729018D2*
X1744293D1*
X1793717D2*
X2332040D1*
X2406009D2*
X2559007D1*
X2628993D2*
X3071541D1*
X3141491D2*
X3312073D1*
X428719Y2409993D2*
X713340D1*
X783326D2*
X857523D1*
X979003D2*
X1009026D1*
X1631018D2*
X1659032D1*
X1815176D2*
X2332040D1*
X2406009D2*
X2559007D1*
X2628993D2*
X3071541D1*
X3141491D2*
X3312073D1*
X428719Y2385125D2*
X713340D1*
X783326D2*
X857523D1*
X979003D2*
X1009026D1*
X1631018D2*
X1659032D1*
X1817150D2*
X2332040D1*
X2406009D2*
X2559007D1*
X2628993D2*
X3071541D1*
X3141491D2*
X3312073D1*
X428719Y2360256D2*
X474208D1*
X551550D2*
X713340D1*
X783326D2*
X857523D1*
X979003D2*
X1009026D1*
X1631018D2*
X1659032D1*
X1804016D2*
X2332040D1*
X2406009D2*
X2559007D1*
X2628993D2*
X3060453D1*
X3152580D2*
X3312073D1*
X428719Y2335387D2*
X459926D1*
X565868D2*
X713340D1*
X783326D2*
X857523D1*
X979003D2*
X1009026D1*
X1631018D2*
X1655085D1*
X1804016D2*
X1917577D1*
X1995458D2*
X2332040D1*
X2406009D2*
X2559007D1*
X2628993D2*
X3058336D1*
X3154697D2*
X3312073D1*
X428719Y2310518D2*
X459890D1*
X565904D2*
X713340D1*
X783326D2*
X857523D1*
X979003D2*
X1009026D1*
X1631018D2*
X1645181D1*
X1804016D2*
X1907709D1*
X2005326D2*
X2332040D1*
X2406009D2*
X2559007D1*
X2628993D2*
X3071792D1*
X3141240D2*
X3302886D1*
X428719Y2285650D2*
X474100D1*
X551658D2*
X713340D1*
X783326D2*
X857523D1*
X979003D2*
X1009026D1*
X1804016D2*
X1912482D1*
X2000554D2*
X2332040D1*
X2406009D2*
X2559007D1*
X2628993D2*
X3278019D1*
X428719Y2260781D2*
X713340D1*
X783326D2*
X857523D1*
X979003D2*
X1009026D1*
X1642286D2*
X1683146D1*
X1704888D2*
X1734030D1*
X1813884D2*
X1921525D1*
X1991511D2*
X2332040D1*
X2406009D2*
X2559007D1*
X2628993D2*
X3253151D1*
X428719Y2235912D2*
X713340D1*
X783326D2*
X857523D1*
X979003D2*
X1009026D1*
X1629152D2*
X1726494D1*
X1824039D2*
X1921525D1*
X1991511D2*
X2332040D1*
X2406009D2*
X2559007D1*
X2628993D2*
X3228283D1*
X3343555D2*
X3848003D1*
X3965034D2*
X4276640D1*
X428719Y2211043D2*
X713340D1*
X783326D2*
X857523D1*
X979003D2*
X1009026D1*
X1585266D2*
X1731016D1*
X1819518D2*
X1921525D1*
X1991511D2*
X2332040D1*
X2406009D2*
X2555598D1*
X2632438D2*
X3203415D1*
X3318688D2*
X3848003D1*
X3965034D2*
X4276640D1*
X428719Y2186175D2*
X713340D1*
X783326D2*
X857523D1*
X979003D2*
X1009026D1*
X1585266D2*
X1762486D1*
X1788048D2*
X1921525D1*
X1991511D2*
X2332040D1*
X2406009D2*
X2545264D1*
X2642773D2*
X3181490D1*
X3293820D2*
X3848003D1*
X3965034D2*
X4276640D1*
X428719Y2161306D2*
X713340D1*
X783326D2*
X857523D1*
X979003D2*
X1009026D1*
X1585266D2*
X1910831D1*
X2002204D2*
X2332040D1*
X2406009D2*
X2549641D1*
X2638395D2*
X3177507D1*
X3268952D2*
X3848003D1*
X3965034D2*
X4276640D1*
X428719Y2136437D2*
X713340D1*
X783326D2*
X857523D1*
X979003D2*
X1009026D1*
X1585266D2*
X1643279D1*
X1719760D2*
X1908176D1*
X2004860D2*
X2332040D1*
X2406009D2*
X2580143D1*
X2607894D2*
X3173416D1*
X3264610D2*
X4276640D1*
X428719Y2111568D2*
X713340D1*
X783326D2*
X857523D1*
X979003D2*
X1009026D1*
X1585266D2*
X1632765D1*
X1730238D2*
X1920807D1*
X1992229D2*
X2332040D1*
X2406009D2*
X3170617D1*
X3267409D2*
X4276640D1*
X428719Y2086699D2*
X713340D1*
X783326D2*
X857523D1*
X979003D2*
X1009026D1*
X1585266D2*
X1637035D1*
X1725968D2*
X2332040D1*
X2406009D2*
X2561411D1*
X3264502D2*
X3398087D1*
X3439940D2*
X4276640D1*
X428719Y2061831D2*
X713340D1*
X783326D2*
X857523D1*
X979003D2*
X1009026D1*
X1585266D2*
X1646508D1*
X1716495D2*
X2006283D1*
X2081760D2*
X2332040D1*
X2406009D2*
X2536544D1*
X3267445D2*
X3373578D1*
X3464449D2*
X4276640D1*
X428719Y2036962D2*
X467246D1*
X558548D2*
X713340D1*
X783326D2*
X857523D1*
X979003D2*
X1009026D1*
X1585266D2*
X1646508D1*
X1716495D2*
X1995338D1*
X2092704D2*
X2332040D1*
X2406009D2*
X2511676D1*
X2608575D2*
X3182854D1*
X3255208D2*
X3370564D1*
X3489317D2*
X4276640D1*
X428719Y2012093D2*
X458562D1*
X567232D2*
X713340D1*
X783326D2*
X849018D1*
X979003D2*
X1009026D1*
X1585266D2*
X1646508D1*
X1716495D2*
X1999286D1*
X2088757D2*
X2151901D1*
X2236133D2*
X2332040D1*
X2406009D2*
X2486808D1*
X2583708D2*
X3382011D1*
X3514364D2*
X4276640D1*
X428719Y1987224D2*
X462689D1*
X563105D2*
X713340D1*
X783326D2*
X824150D1*
X979003D2*
X1009743D1*
X1585266D2*
X1646508D1*
X1716495D2*
X1924360D1*
X1963665D2*
X2007539D1*
X2080504D2*
X2145011D1*
X2242987D2*
X2332040D1*
X2406009D2*
X2442132D1*
X2558840D2*
X3382011D1*
X3517522D2*
X4276640D1*
X428719Y1962356D2*
X485368D1*
X540426D2*
X713340D1*
X783326D2*
X808038D1*
X979003D2*
X1027219D1*
X1585266D2*
X1646508D1*
X1716495D2*
X1898810D1*
X1989250D2*
X2007539D1*
X2080504D2*
X2152583D1*
X2235452D2*
X2332040D1*
X2406009D2*
X2428568D1*
X2533972D2*
X3382011D1*
X3506003D2*
X4276640D1*
X428719Y1937487D2*
X713340D1*
X783326D2*
X807536D1*
X979003D2*
X1020688D1*
X1585266D2*
X1646508D1*
X1716495D2*
X1895473D1*
X1992552D2*
X2007539D1*
X2080504D2*
X2159006D1*
X2229028D2*
X2332040D1*
X2406009D2*
X2430614D1*
X2522848D2*
X3382011D1*
X3506003D2*
X4276640D1*
X428719Y1912618D2*
X713340D1*
X783326D2*
X807536D1*
X979003D2*
X994564D1*
X1585266D2*
X1646508D1*
X1716495D2*
X1907243D1*
X1980817D2*
X2007539D1*
X2080504D2*
X2159006D1*
X2229028D2*
X2332040D1*
X2406009D2*
X2452216D1*
X2501246D2*
X3382011D1*
X3506003D2*
X4276640D1*
X428719Y1887749D2*
X713340D1*
X783326D2*
X807536D1*
X1585266D2*
X1646508D1*
X1716495D2*
X1907530D1*
X1980494D2*
X2007539D1*
X2080504D2*
X2159006D1*
X2229028D2*
X2332040D1*
X2406009D2*
X3382011D1*
X3506003D2*
X4276640D1*
X428719Y1862881D2*
X713340D1*
X783326D2*
X807536D1*
X979003D2*
X1002674D1*
X1585266D2*
X1646508D1*
X1716495D2*
X1907530D1*
X1980494D2*
X2007539D1*
X2080504D2*
X2159006D1*
X2229028D2*
X2332040D1*
X2406009D2*
X3382011D1*
X3506003D2*
X4276640D1*
X428719Y1838012D2*
X713340D1*
X783326D2*
X807536D1*
X979003D2*
X1003177D1*
X1592228D2*
X1646508D1*
X1716495D2*
X1907530D1*
X1980494D2*
X2007539D1*
X2080504D2*
X2159006D1*
X2229028D2*
X2332040D1*
X2406009D2*
X3382011D1*
X3506003D2*
X4276640D1*
X428719Y1813143D2*
X713340D1*
X783326D2*
X807536D1*
X979003D2*
X1003177D1*
X1617095D2*
X1636640D1*
X1726399D2*
X1907530D1*
X1980494D2*
X2007539D1*
X2080504D2*
X2159006D1*
X2229028D2*
X2332040D1*
X2406009D2*
X3382011D1*
X3506003D2*
X4276640D1*
X428719Y1788274D2*
X713340D1*
X783326D2*
X807536D1*
X973405D2*
X1003177D1*
X1730166D2*
X1907530D1*
X1980494D2*
X2007539D1*
X2080504D2*
X2159006D1*
X2229028D2*
X2332040D1*
X2406009D2*
X3382011D1*
X3506003D2*
X4085736D1*
X4202300D2*
X4276640D1*
X428719Y1763406D2*
X713340D1*
X783326D2*
X807536D1*
X949362D2*
X1003177D1*
X1629762D2*
X1644032D1*
X1719006D2*
X1907530D1*
X1980494D2*
X2007539D1*
X2080504D2*
X2159006D1*
X2229028D2*
X2332040D1*
X2406009D2*
X3382011D1*
X3506003D2*
X4065497D1*
X4222538D2*
X4276640D1*
X428719Y1738537D2*
X456732D1*
X531276D2*
X556741D1*
X631285D2*
X656751D1*
X931277D2*
X956742D1*
X1631305D2*
X1756744D1*
X1831288D2*
X1856754D1*
X2131280D2*
X2156746D1*
X2231289D2*
X2332040D1*
X2406009D2*
X3382011D1*
X3506003D2*
X4056598D1*
X4231438D2*
X4276640D1*
X1649463Y1713668D2*
X1738551D1*
X2249482D2*
X2332040D1*
X2406009D2*
X3382011D1*
X3506003D2*
X4055450D1*
X4232586D2*
X4276640D1*
X1652764Y1688799D2*
X1735250D1*
X2252784D2*
X2332040D1*
X2406009D2*
X3183069D1*
X3254957D2*
X3382011D1*
X3506003D2*
X4061729D1*
X4226306D2*
X4276640D1*
X428719Y1663930D2*
X443706D1*
X1644331D2*
X1743719D1*
X2244315D2*
X2332040D1*
X2406009D2*
X3170617D1*
X3267409D2*
X3382011D1*
X3506003D2*
X4077554D1*
X4210481D2*
X4276640D1*
X428719Y1639062D2*
X478406D1*
X509602D2*
X578415D1*
X609611D2*
X678425D1*
X709620D2*
X775994D1*
X909603D2*
X978416D1*
X1109621D2*
X1178435D1*
X1338455D2*
X1378418D1*
X1409613D2*
X1478427D1*
X1509622D2*
X1578436D1*
X1609596D2*
X1759041D1*
X1828991D2*
X1878428D1*
X2109606D2*
X2178420D1*
X2209615D2*
X2332040D1*
X2406009D2*
X3173416D1*
X3264610D2*
X3382011D1*
X3506003D2*
X4117529D1*
X4170470D2*
X4276640D1*
X428719Y1614193D2*
X751126D1*
X852260D2*
X990868D1*
X1088485D2*
X1207537D1*
X1342761D2*
X1758431D1*
X1829601D2*
X1907530D1*
X2080504D2*
X2332040D1*
X2406009D2*
X2595932D1*
X2667103D2*
X3197279D1*
X3240747D2*
X3382011D1*
X3506003D2*
X4276640D1*
X428719Y1589324D2*
X726258D1*
X827392D2*
X1000916D1*
X1078438D2*
X1196162D1*
X1332283D2*
X1745692D1*
X1842340D2*
X1907853D1*
X2080504D2*
X2332040D1*
X2406009D2*
X2583193D1*
X2679841D2*
X3382011D1*
X3506003D2*
X4276640D1*
X428719Y1564455D2*
X701391D1*
X802524D2*
X1197382D1*
X1329017D2*
X1748276D1*
X1839757D2*
X1922996D1*
X2080504D2*
X2332040D1*
X2406009D2*
X2585777D1*
X2697030D2*
X3382011D1*
X3506003D2*
X4276640D1*
X428719Y1539587D2*
X676523D1*
X777657D2*
X1216939D1*
X1329017D2*
X1771421D1*
X1816611D2*
X1947864D1*
X2080504D2*
X2332040D1*
X2406009D2*
X2608922D1*
X2721898D2*
X3382011D1*
X3506003D2*
X4276640D1*
X428719Y1514718D2*
X658545D1*
X752789D2*
X1259031D1*
X1329017D2*
X1957517D1*
X2080504D2*
X2332040D1*
X2406009D2*
X2649866D1*
X2746765D2*
X3382011D1*
X3506003D2*
X4276640D1*
X428719Y1489849D2*
X657540D1*
X730505D2*
X1259031D1*
X1329017D2*
X1957517D1*
X2080504D2*
X2332040D1*
X2406009D2*
X2674734D1*
X2771454D2*
X3382011D1*
X3506003D2*
X3535524D1*
X3652518D2*
X4059361D1*
X4128665D2*
X4276640D1*
X428719Y1464980D2*
X657540D1*
X730505D2*
X1259031D1*
X1329017D2*
X1957517D1*
X2080504D2*
X2332040D1*
X2406009D2*
X2699601D1*
X2779025D2*
X3382011D1*
X3506003D2*
X3535524D1*
X3652518D2*
X4039589D1*
X4148438D2*
X4276640D1*
X428719Y1440112D2*
X635507D1*
X752502D2*
X1159739D1*
X1228290D2*
X1259031D1*
X1452495D2*
X1859732D1*
X1928283D2*
X1957517D1*
X2202510D2*
X2332040D1*
X2406009D2*
X2609747D1*
X2678298D2*
X2709039D1*
X2902503D2*
X3309740D1*
X3506003D2*
X3535524D1*
X3652518D2*
X4035677D1*
X4152385D2*
X4276640D1*
X428719Y1415243D2*
X635507D1*
X752502D2*
X1139716D1*
X1452495D2*
X1839709D1*
X2202510D2*
X2313954D1*
X2405794D2*
X2589688D1*
X2902503D2*
X3289717D1*
X3506003D2*
X3535524D1*
X3652518D2*
X4043464D1*
X4144562D2*
X4276640D1*
X428719Y1390374D2*
X635507D1*
X752502D2*
X1135625D1*
X1452495D2*
X1835654D1*
X2202510D2*
X2289086D1*
X2391655D2*
X2585633D1*
X2902503D2*
X3285626D1*
X3506003D2*
X3535524D1*
X3652518D2*
X4075473D1*
X4112553D2*
X4276640D1*
X428719Y1365505D2*
X635507D1*
X752502D2*
X1143340D1*
X1244689D2*
X1259031D1*
X1452495D2*
X1843333D1*
X1944718D2*
X1957503D1*
X2202510D2*
X2264219D1*
X2366788D2*
X2593313D1*
X2694697D2*
X2709039D1*
X2902503D2*
X3293341D1*
X3506003D2*
X3539794D1*
X3648212D2*
X4276640D1*
X428719Y1340636D2*
X635507D1*
X752502D2*
X1174595D1*
X1213434D2*
X1259031D1*
X1452495D2*
X1874624D1*
X1913427D2*
X1957517D1*
X2202510D2*
X2239351D1*
X2341920D2*
X2624604D1*
X2663406D2*
X2709039D1*
X2902503D2*
X3324596D1*
X3363435D2*
X3382011D1*
X3506003D2*
X3535631D1*
X3652410D2*
X4276640D1*
X428719Y1315768D2*
X639921D1*
X748124D2*
X1259031D1*
X1448117D2*
X1957517D1*
X2317052D2*
X2709039D1*
X2898125D2*
X3382011D1*
X3506003D2*
X3543167D1*
X3644875D2*
X4276640D1*
X428719Y1290899D2*
X635615D1*
X752430D2*
X1259031D1*
X1452423D2*
X1957517D1*
X2292185D2*
X2709039D1*
X2902431D2*
X3382011D1*
X3506003D2*
X3560894D1*
X3627112D2*
X4060904D1*
X4127122D2*
X4276640D1*
X428719Y1266030D2*
X643007D1*
X745002D2*
X1259031D1*
X1329017D2*
X1343036D1*
X1444995D2*
X1957517D1*
X2080504D2*
X2093015D1*
X2266671D2*
X2709039D1*
X2779025D2*
X2793008D1*
X2895003D2*
X3382011D1*
X3506003D2*
X3540045D1*
X3647997D2*
X4040019D1*
X4148007D2*
X4276640D1*
X428719Y1241161D2*
X661308D1*
X726737D2*
X1161318D1*
X1226711D2*
X1259031D1*
X1329017D2*
X1361301D1*
X1426730D2*
X1861311D1*
X1926704D2*
X1957517D1*
X2080504D2*
X2111316D1*
X2176709D2*
X2611326D1*
X2676719D2*
X2709039D1*
X2779025D2*
X2811309D1*
X2876738D2*
X3311319D1*
X3506003D2*
X3535595D1*
X3652446D2*
X4022903D1*
X4152421D2*
X4276640D1*
X428719Y1216293D2*
X640136D1*
X747873D2*
X1140147D1*
X1447901D2*
X1840139D1*
X2197881D2*
X2590155D1*
X2897874D2*
X3290148D1*
X3506003D2*
X3542880D1*
X3645162D2*
X3998035D1*
X4145172D2*
X4276640D1*
X428719Y1191424D2*
X635579D1*
X752430D2*
X1123173D1*
X1452459D2*
X1823166D1*
X2202438D2*
X2573181D1*
X2902431D2*
X3273174D1*
X3506003D2*
X3561719D1*
X3626323D2*
X3973167D1*
X4126297D2*
X4276640D1*
X428719Y1166555D2*
X642720D1*
X745325D2*
X1098306D1*
X1245299D2*
X1259031D1*
X1329017D2*
X1342713D1*
X1445318D2*
X1798298D1*
X2195297D2*
X2548314D1*
X2695307D2*
X2709039D1*
X2779025D2*
X2792721D1*
X2895326D2*
X3248307D1*
X3506003D2*
X3540260D1*
X3647781D2*
X3948299D1*
X4147756D2*
X4276640D1*
X428719Y1141686D2*
X662133D1*
X725876D2*
X1073438D1*
X1225886D2*
X1259031D1*
X1329017D2*
X1362162D1*
X1425868D2*
X1773431D1*
X1925879D2*
X1957517D1*
X2080504D2*
X2112141D1*
X2175884D2*
X2523446D1*
X2675894D2*
X2709039D1*
X2779025D2*
X2812134D1*
X2875877D2*
X3223439D1*
X3506003D2*
X3535559D1*
X3652446D2*
X3923432D1*
X4152457D2*
X4276640D1*
X428719Y1116818D2*
X640387D1*
X747657D2*
X1048570D1*
X1447650D2*
X1748563D1*
X2197666D2*
X2498578D1*
X2897658D2*
X3198571D1*
X3506003D2*
X3542557D1*
X3645449D2*
X3898564D1*
X4145459D2*
X4276640D1*
X428719Y1091949D2*
X635579D1*
X752466D2*
X1023702D1*
X1452459D2*
X1723695D1*
X2202474D2*
X2473711D1*
X2902467D2*
X3173703D1*
X3506003D2*
X3562580D1*
X3625461D2*
X3873696D1*
X4125472D2*
X4276640D1*
X428719Y1067080D2*
X642433D1*
X745612D2*
X998835D1*
X1245586D2*
X1259031D1*
X1329017D2*
X1342426D1*
X1445605D2*
X1698827D1*
X2195620D2*
X2448843D1*
X2695595D2*
X2709039D1*
X2779025D2*
X2792434D1*
X2895613D2*
X3148836D1*
X3506003D2*
X3540512D1*
X3647530D2*
X3848828D1*
X4147540D2*
X4276640D1*
X428719Y1042211D2*
X663030D1*
X725014D2*
X973967D1*
X1225025D2*
X1259031D1*
X1329017D2*
X1363023D1*
X1425007D2*
X1673960D1*
X1925018D2*
X1957517D1*
X2080504D2*
X2113003D1*
X2175023D2*
X2423975D1*
X2675033D2*
X2709039D1*
X2779025D2*
X2813031D1*
X2875015D2*
X3123968D1*
X3506003D2*
X3535559D1*
X3652482D2*
X3823961D1*
X4152493D2*
X4276640D1*
X428719Y1017343D2*
X640603D1*
X747406D2*
X949099D1*
X1447435D2*
X1649092D1*
X2197414D2*
X2399107D1*
X2897407D2*
X3099100D1*
X3506003D2*
X3542270D1*
X3645736D2*
X3799093D1*
X4145746D2*
X4276640D1*
X428719Y992474D2*
X635543D1*
X752502D2*
X924231D1*
X1452495D2*
X1624224D1*
X2202474D2*
X2374240D1*
X2902503D2*
X3074232D1*
X3506003D2*
X3563477D1*
X3624564D2*
X3774225D1*
X4124575D2*
X4276640D1*
X428719Y967605D2*
X642146D1*
X745899D2*
X899364D1*
X1245873D2*
X1259031D1*
X1329017D2*
X1342157D1*
X1445892D2*
X1599356D1*
X2195871D2*
X2349372D1*
X2695882D2*
X2709039D1*
X2779025D2*
X2792147D1*
X2895900D2*
X3049365D1*
X3506003D2*
X3540727D1*
X3647279D2*
X3749357D1*
X4147289D2*
X4276640D1*
X428719Y942736D2*
X663927D1*
X724117D2*
X874496D1*
X1224128D2*
X1259031D1*
X1329017D2*
X1363920D1*
X1424110D2*
X1574489D1*
X1924120D2*
X1957517D1*
X2080504D2*
X2113936D1*
X2174126D2*
X2324504D1*
X2674100D2*
X2709039D1*
X2779025D2*
X2813928D1*
X2874118D2*
X3024497D1*
X3506003D2*
X3535524D1*
X3652482D2*
X3724490D1*
X4152493D2*
X4276640D1*
X428719Y917867D2*
X640854D1*
X747191D2*
X849628D1*
X1447184D2*
X1549621D1*
X2197163D2*
X2299600D1*
X2897156D2*
X2999629D1*
X3521433D2*
X3542019D1*
X3646023D2*
X3699622D1*
X4146033D2*
X4276640D1*
X428719Y892999D2*
X635543D1*
X752502D2*
X824760D1*
X1452495D2*
X1524753D1*
X2202510D2*
X2274733D1*
X2902503D2*
X2974761D1*
X3546301D2*
X3564374D1*
X3623631D2*
X3674754D1*
X4123642D2*
X4276640D1*
X428719Y868130D2*
X641859D1*
X746150D2*
X799893D1*
X1246160D2*
X1259031D1*
X1329017D2*
X1341871D1*
X1446179D2*
X1499885D1*
X2196158D2*
X2249865D1*
X2696169D2*
X2709039D1*
X2779025D2*
X2791860D1*
X2896151D2*
X2949894D1*
X4147038D2*
X4276640D1*
X428719Y843261D2*
X664860D1*
X723148D2*
X775025D1*
X1223159D2*
X1259031D1*
X1343227D2*
X1364853D1*
X1423177D2*
X1475161D1*
X1923152D2*
X1957517D1*
X2080504D2*
X2114869D1*
X2173157D2*
X2224997D1*
X2673167D2*
X2709039D1*
X2793235D2*
X2814861D1*
X2873150D2*
X2925026D1*
X4152493D2*
X4276640D1*
X428719Y818392D2*
X641105D1*
X1246914D2*
X1271196D1*
X1446933D2*
X1464109D1*
X2696922D2*
X2721204D1*
X4146285D2*
X4276640D1*
X428719Y793524D2*
X635543D1*
X1252512D2*
X1296063D1*
X1452495D2*
X1467949D1*
X2702520D2*
X2746072D1*
X3402513D2*
X3418218D1*
X4017999D2*
X4067327D1*
X4120699D2*
X4276640D1*
X428719Y768655D2*
X641608D1*
X1246448D2*
X1321218D1*
X1446430D2*
X1495579D1*
X2696420D2*
X2771190D1*
X3396449D2*
X3443086D1*
X4017999D2*
X4276640D1*
X428719Y743786D2*
X665865D1*
X1142993D2*
X1166773D1*
X1221257D2*
X1365858D1*
X1422172D2*
X1475520D1*
X1843022D2*
X1866765D1*
X1921250D2*
X1958234D1*
X2593002D2*
X2616781D1*
X2671265D2*
X2815866D1*
X2872181D2*
X2925528D1*
X3292994D2*
X3316774D1*
X3371258D2*
X3467954D1*
X4017999D2*
X4276640D1*
X428719Y718917D2*
X641356D1*
X1142993D2*
X1341349D1*
X1843022D2*
X1975243D1*
X2593002D2*
X2791357D1*
X3292994D2*
X3492857D1*
X4017999D2*
X4276640D1*
X428719Y694049D2*
X635507D1*
X1142993D2*
X1335536D1*
X1843022D2*
X2000111D1*
X2593002D2*
X2785508D1*
X3292994D2*
X3566240D1*
X4017999D2*
X4276640D1*
X428719Y669180D2*
X641320D1*
X1142993D2*
X1341349D1*
X1843022D2*
X2025015D1*
X2593002D2*
X2791321D1*
X3292994D2*
X3620031D1*
X4017999D2*
X4276640D1*
X428719Y644311D2*
X665722D1*
X722287D2*
X745026D1*
X1142993D2*
X1365750D1*
X1422280D2*
X1445019D1*
X1843022D2*
X2115730D1*
X2172295D2*
X2195034D1*
X2593002D2*
X2815723D1*
X2872288D2*
X2895027D1*
X3292994D2*
X3620031D1*
X4017999D2*
X4276640D1*
X428719Y619442D2*
X745026D1*
X1142993D2*
X1445019D1*
X1843022D2*
X2195034D1*
X2593002D2*
X2895027D1*
X3292994D2*
X3620031D1*
X4017999D2*
X4276640D1*
X428719Y594573D2*
X735481D1*
X1142993D2*
X1435509D1*
X1843022D2*
X2185489D1*
X2593002D2*
X2885482D1*
X3292994D2*
X3610486D1*
X4017999D2*
X4276640D1*
X428719Y569705D2*
X735481D1*
X1146295D2*
X1435509D1*
X1846288D2*
X2185489D1*
X2596303D2*
X2885482D1*
X3296296D2*
X3610486D1*
X4021300D2*
X4276640D1*
X428719Y544836D2*
X735481D1*
X1152539D2*
X1435509D1*
X1852531D2*
X2185489D1*
X2602547D2*
X2885482D1*
X3302540D2*
X3610486D1*
X4027544D2*
X4276640D1*
X428719Y519967D2*
X735481D1*
X1147120D2*
X1435509D1*
X1847113D2*
X2185489D1*
X2597128D2*
X2885482D1*
X3297121D2*
X3610486D1*
X4022125D2*
X4276640D1*
X428719Y495098D2*
X735481D1*
X923813D2*
X964206D1*
X1023822D2*
X1064216D1*
X1123831D2*
X1435509D1*
X1623806D2*
X1664199D1*
X1723815D2*
X1764208D1*
X1823824D2*
X2185489D1*
X2373821D2*
X2414215D1*
X2473830D2*
X2514224D1*
X2573804D2*
X2885482D1*
X3073814D2*
X3114207D1*
X3173823D2*
X3214217D1*
X3273832D2*
X3610486D1*
X3798818D2*
X3839211D1*
X3898827D2*
X3939221D1*
X3998801D2*
X4276640D1*
X428719Y470230D2*
X4276640D1*
X1447182Y3100035D2*
X1550035D1*
Y2987996D1*
X1437996D1*
Y3100035D1*
X1447182D1*
X1749863Y3039620D2*
X1748488Y3030938D1*
X1745771Y3022578D1*
X1741780Y3014746D1*
X1736613Y3007634D1*
X1730398Y3001418D1*
X1723286Y2996251D1*
X1715454Y2992260D1*
X1707093Y2989544D1*
X1698411Y2988169D1*
X1689620D1*
X1680938Y2989544D1*
X1672578Y2992260D1*
X1664746Y2996251D1*
X1657634Y3001418D1*
X1651418Y3007634D1*
X1646251Y3014746D1*
X1642260Y3022578D1*
X1639544Y3030938D1*
X1638169Y3039620D1*
Y3048411D1*
X1639544Y3057093D1*
X1642260Y3065454D1*
X1646251Y3073286D1*
X1651418Y3080398D1*
X1657634Y3086613D1*
X1664746Y3091780D1*
X1672578Y3095771D1*
X1680938Y3098488D1*
X1689620Y3099863D1*
X1698411D1*
X1707093Y3098488D1*
X1715454Y3095771D1*
X1723286Y3091780D1*
X1730398Y3086613D1*
X1736613Y3080398D1*
X1741780Y3073286D1*
X1745771Y3065454D1*
X1748488Y3057093D1*
X1749863Y3048411D1*
Y3039620D1*
X1949863D2*
X1948488Y3030938D1*
X1945771Y3022578D1*
X1941780Y3014746D1*
X1936613Y3007634D1*
X1930398Y3001418D1*
X1923286Y2996251D1*
X1915454Y2992260D1*
X1907093Y2989544D1*
X1898411Y2988169D1*
X1889620D1*
X1880938Y2989544D1*
X1872578Y2992260D1*
X1864746Y2996251D1*
X1857634Y3001418D1*
X1851418Y3007634D1*
X1846251Y3014746D1*
X1842260Y3022578D1*
X1839544Y3030938D1*
X1838169Y3039620D1*
Y3048411D1*
X1839544Y3057093D1*
X1842260Y3065454D1*
X1846251Y3073286D1*
X1851418Y3080398D1*
X1857634Y3086613D1*
X1864746Y3091780D1*
X1872578Y3095771D1*
X1880938Y3098488D1*
X1889620Y3099863D1*
X1898411D1*
X1907093Y3098488D1*
X1915454Y3095771D1*
X1923286Y3091780D1*
X1930398Y3086613D1*
X1936613Y3080398D1*
X1941780Y3073286D1*
X1945771Y3065454D1*
X1948488Y3057093D1*
X1949863Y3048411D1*
Y3039620D1*
X2149863D2*
X2148488Y3030938D1*
X2145771Y3022578D1*
X2141780Y3014746D1*
X2136613Y3007634D1*
X2130398Y3001418D1*
X2123286Y2996251D1*
X2115454Y2992260D1*
X2107093Y2989544D1*
X2098411Y2988169D1*
X2089620D1*
X2080938Y2989544D1*
X2072578Y2992260D1*
X2064746Y2996251D1*
X2057634Y3001418D1*
X2051418Y3007634D1*
X2046251Y3014746D1*
X2042260Y3022578D1*
X2039544Y3030938D1*
X2038169Y3039620D1*
Y3048411D1*
X2039544Y3057093D1*
X2042260Y3065454D1*
X2046251Y3073286D1*
X2051418Y3080398D1*
X2057634Y3086613D1*
X2064746Y3091780D1*
X2072578Y3095771D1*
X2080938Y3098488D1*
X2089620Y3099863D1*
X2098411D1*
X2107093Y3098488D1*
X2115454Y3095771D1*
X2123286Y3091780D1*
X2130398Y3086613D1*
X2136613Y3080398D1*
X2141780Y3073286D1*
X2145771Y3065454D1*
X2148488Y3057093D1*
X2149863Y3048411D1*
Y3039620D1*
X747182Y600035D2*
X747505D1*
X747523Y677541D1*
X745746Y672588D1*
X741757Y664760D1*
X736592Y657652D1*
X730380Y651439D1*
X723272Y646275D1*
X715443Y642286D1*
X707087Y639571D1*
X698409Y638196D1*
X689623D1*
X680945Y639571D1*
X672588Y642286D1*
X664760Y646275D1*
X657652Y651439D1*
X651439Y657652D1*
X646275Y664760D1*
X642286Y672588D1*
X639571Y680945D1*
X638196Y689623D1*
Y698409D1*
X639571Y707087D1*
X642286Y715443D1*
X646275Y723272D1*
X651439Y730380D1*
X657652Y736592D1*
X664760Y741757D1*
X668830Y744013D1*
X661104Y748717D1*
X654423Y754423D1*
X648717Y761104D1*
X644126Y768596D1*
X640764Y776713D1*
X638713Y785257D1*
X638024Y794016D1*
X638713Y802775D1*
X640764Y811318D1*
X644126Y819436D1*
X648717Y826927D1*
X654423Y833608D1*
X661104Y839314D1*
X668830Y844013D1*
X661104Y848717D1*
X654423Y854423D1*
X648717Y861104D1*
X644126Y868596D1*
X640764Y876713D1*
X638713Y885257D1*
X638024Y894016D1*
X638713Y902775D1*
X640764Y911318D1*
X644126Y919436D1*
X648717Y926927D1*
X654423Y933608D1*
X661104Y939314D1*
X668830Y944013D1*
X661104Y948717D1*
X654423Y954423D1*
X648717Y961104D1*
X644126Y968596D1*
X640764Y976713D1*
X638713Y985257D1*
X638024Y994016D1*
X638713Y1002775D1*
X640764Y1011318D1*
X644126Y1019436D1*
X648717Y1026927D1*
X654423Y1033608D1*
X661104Y1039314D1*
X668830Y1044013D1*
X661104Y1048717D1*
X654423Y1054423D1*
X648717Y1061104D1*
X644126Y1068596D1*
X640764Y1076713D1*
X638713Y1085257D1*
X638024Y1094016D1*
X638713Y1102775D1*
X640764Y1111318D1*
X644126Y1119436D1*
X648717Y1126927D1*
X654423Y1133608D1*
X661104Y1139314D1*
X668830Y1144013D1*
X661104Y1148717D1*
X654423Y1154423D1*
X648717Y1161104D1*
X644126Y1168596D1*
X640764Y1176713D1*
X638713Y1185257D1*
X638024Y1194016D1*
X638713Y1202775D1*
X640764Y1211318D1*
X644126Y1219436D1*
X648717Y1226927D1*
X654423Y1233608D1*
X661104Y1239314D1*
X668830Y1244013D1*
X661104Y1248717D1*
X654423Y1254423D1*
X648717Y1261104D1*
X644126Y1268596D1*
X640764Y1276713D1*
X638713Y1285257D1*
X638024Y1294016D1*
X638713Y1302775D1*
X640764Y1311318D1*
X644126Y1319436D1*
X648717Y1326927D1*
X654423Y1333608D1*
X659472Y1338028D1*
X638024Y1338023D1*
Y1450008D1*
X660021D1*
X660128Y1509183D1*
X660963Y1514451D1*
X662611Y1519524D1*
X665033Y1524277D1*
X668168Y1528592D1*
X708954Y1569526D1*
X779012Y1639584D1*
X772397Y1641824D1*
X764499Y1645848D1*
X757327Y1651059D1*
X751059Y1657327D1*
X745848Y1664499D1*
X744028Y1667749D1*
X739719Y1660811D1*
X733962Y1654070D1*
X727221Y1648313D1*
X719663Y1643681D1*
X711473Y1640289D1*
X702853Y1638219D1*
X694016Y1637524D1*
X685178Y1638219D1*
X676559Y1640289D1*
X668369Y1643681D1*
X660811Y1648313D1*
X654070Y1654070D1*
X648313Y1660811D1*
X644028Y1667749D1*
X639719Y1660811D1*
X633962Y1654070D1*
X627221Y1648313D1*
X619663Y1643681D1*
X611473Y1640289D1*
X602853Y1638219D1*
X594016Y1637524D1*
X585178Y1638219D1*
X576559Y1640289D1*
X568369Y1643681D1*
X560811Y1648313D1*
X554070Y1654070D1*
X548313Y1660811D1*
X544028Y1667749D1*
X539719Y1660811D1*
X533962Y1654070D1*
X527221Y1648313D1*
X519663Y1643681D1*
X511473Y1640289D1*
X502853Y1638219D1*
X494016Y1637524D1*
X485178Y1638219D1*
X476559Y1640289D1*
X468369Y1643681D1*
X460811Y1648313D1*
X454070Y1654070D1*
X448313Y1660811D1*
X443681Y1668369D1*
X440289Y1676559D1*
X438219Y1685178D1*
X437524Y1694016D1*
X438219Y1702853D1*
X440289Y1711473D1*
X443681Y1719663D1*
X448313Y1727221D1*
X454070Y1733962D1*
X460811Y1739719D1*
X468369Y1744351D1*
X476559Y1747743D1*
X485178Y1749812D1*
X494016Y1750508D1*
X502853Y1749812D1*
X511473Y1747743D1*
X519663Y1744351D1*
X527221Y1739719D1*
X533962Y1733962D1*
X539719Y1727221D1*
X544003Y1720282D1*
X548313Y1727221D1*
X554070Y1733962D1*
X560811Y1739719D1*
X568369Y1744351D1*
X576559Y1747743D1*
X585178Y1749812D1*
X594016Y1750508D1*
X602853Y1749812D1*
X611473Y1747743D1*
X619663Y1744351D1*
X627221Y1739719D1*
X633962Y1733962D1*
X639719Y1727221D1*
X644003Y1720282D1*
X648313Y1727221D1*
X654070Y1733962D1*
X660811Y1739719D1*
X668369Y1744351D1*
X676559Y1747743D1*
X685178Y1749812D1*
X694016Y1750508D1*
X702853Y1749812D1*
X711473Y1747743D1*
X715839Y1746113D1*
X715850Y2467093D1*
X710734Y2472988D1*
X706922Y2479208D1*
X704130Y2485948D1*
X702427Y2493042D1*
X701854Y2500315D1*
X702427Y2507588D1*
X704130Y2514682D1*
X706922Y2521422D1*
X710734Y2527642D1*
X715472Y2533190D1*
X721019Y2537928D1*
X727239Y2541740D1*
X733980Y2544532D1*
X741073Y2546235D1*
X748346Y2546807D1*
X755619Y2546235D1*
X762713Y2544532D1*
X769453Y2541740D1*
X775674Y2537928D1*
X781221Y2533190D1*
X785959Y2527642D1*
X789771Y2521422D1*
X792563Y2514682D1*
X794266Y2507588D1*
X794839Y2500315D1*
X794266Y2493042D1*
X792563Y2485948D1*
X789771Y2479208D1*
X785959Y2472988D1*
X780834Y2467082D1*
X780843Y1753170D1*
X784342Y1749646D1*
X789583Y1750334D1*
X798448D1*
X807204Y1748947D1*
X810024Y1748379D1*
X810128Y1959183D1*
X810963Y1964451D1*
X812611Y1969524D1*
X815033Y1974277D1*
X818168Y1978592D1*
X860045Y2020617D1*
X860024Y2548905D1*
X854070Y2554070D1*
X848313Y2560811D1*
X844028Y2567749D1*
X839719Y2560811D1*
X833962Y2554070D1*
X827221Y2548313D1*
X819663Y2543681D1*
X811473Y2540289D1*
X802853Y2538219D1*
X794016Y2537524D1*
X785178Y2538219D1*
X776559Y2540289D1*
X768369Y2543681D1*
X760811Y2548313D1*
X754070Y2554070D1*
X748313Y2560811D1*
X744028Y2567749D1*
X739719Y2560811D1*
X733962Y2554070D1*
X727221Y2548313D1*
X719663Y2543681D1*
X711473Y2540289D1*
X702853Y2538219D1*
X694016Y2537524D1*
X685178Y2538219D1*
X676559Y2540289D1*
X668369Y2543681D1*
X660811Y2548313D1*
X654070Y2554070D1*
X648313Y2560811D1*
X644028Y2567749D1*
X639719Y2560811D1*
X633962Y2554070D1*
X627221Y2548313D1*
X619663Y2543681D1*
X611473Y2540289D1*
X602853Y2538219D1*
X594016Y2537524D1*
X585178Y2538219D1*
X576559Y2540289D1*
X568369Y2543681D1*
X560811Y2548313D1*
X554070Y2554070D1*
X548313Y2560811D1*
X544028Y2567749D1*
X539719Y2560811D1*
X533962Y2554070D1*
X527221Y2548313D1*
X519663Y2543681D1*
X511473Y2540289D1*
X502853Y2538219D1*
X494016Y2537524D1*
X485178Y2538219D1*
X476559Y2540289D1*
X468369Y2543681D1*
X460811Y2548313D1*
X454070Y2554070D1*
X448313Y2560811D1*
X443681Y2568369D1*
X440289Y2576559D1*
X438219Y2585178D1*
X437524Y2594016D1*
X438219Y2602853D1*
X440289Y2611473D1*
X443681Y2619663D1*
X448313Y2627221D1*
X454070Y2633962D1*
X458620Y2637992D1*
X437996Y2637996D1*
Y2750035D1*
X550036D1*
Y2728684D1*
X554404Y2733628D1*
X561088Y2739337D1*
X568583Y2743930D1*
X576705Y2747294D1*
X585252Y2749346D1*
X594016Y2750035D1*
X602779Y2749346D1*
X611327Y2747294D1*
X619448Y2743930D1*
X626943Y2739337D1*
X633628Y2733628D1*
X639337Y2726943D1*
X644009Y2719277D1*
X648695Y2726943D1*
X654404Y2733628D1*
X661088Y2739337D1*
X668583Y2743930D1*
X676705Y2747294D1*
X685252Y2749346D1*
X694016Y2750035D1*
X702779Y2749346D1*
X711327Y2747294D1*
X719448Y2743930D1*
X726943Y2739337D1*
X733628Y2733628D1*
X739337Y2726943D1*
X744009Y2719277D1*
X748695Y2726943D1*
X754404Y2733628D1*
X761088Y2739337D1*
X768583Y2743930D1*
X776705Y2747294D1*
X785252Y2749346D1*
X794016Y2750035D1*
X802779Y2749346D1*
X811327Y2747294D1*
X819448Y2743930D1*
X826943Y2739337D1*
X833628Y2733628D1*
X839337Y2726943D1*
X844009Y2719277D1*
X848695Y2726943D1*
X854404Y2733628D1*
X861088Y2739337D1*
X868583Y2743930D1*
X876705Y2747294D1*
X885252Y2749346D1*
X894016Y2750035D1*
X902779Y2749346D1*
X911504Y2747228D1*
X911520Y2785759D1*
X906403Y2791688D1*
X902591Y2797909D1*
X899799Y2804649D1*
X898096Y2811743D1*
X897524Y2819016D1*
X898096Y2826289D1*
X899799Y2833383D1*
X902591Y2840123D1*
X906403Y2846343D1*
X911141Y2851891D1*
X916688Y2856629D1*
X922909Y2860441D1*
X929649Y2863232D1*
X936743Y2864935D1*
X944016Y2865508D1*
X951289Y2864935D1*
X958383Y2863232D1*
X965123Y2860441D1*
X971343Y2856629D1*
X976891Y2851891D1*
X981629Y2846343D1*
X985441Y2840123D1*
X988232Y2833383D1*
X989935Y2826289D1*
X990508Y2819016D1*
X989935Y2811743D1*
X988232Y2804649D1*
X985441Y2797909D1*
X981629Y2791688D1*
X976503Y2785783D1*
X976412Y1803966D1*
X975614Y1798930D1*
X974038Y1794080D1*
X971723Y1789537D1*
X968726Y1785411D1*
X926523Y1743066D1*
X927221Y1739719D1*
X933962Y1733962D1*
X939719Y1727221D1*
X944003Y1720282D1*
X948313Y1727221D1*
X954070Y1733962D1*
X960811Y1739719D1*
X968369Y1744351D1*
X976559Y1747743D1*
X985178Y1749812D1*
X994016Y1750508D1*
X1002853Y1749812D1*
X1005691Y1749248D1*
X1005693Y1862330D1*
X1002072Y1866688D1*
X998260Y1872909D1*
X995468Y1879649D1*
X993765Y1886743D1*
X993193Y1894016D1*
X993765Y1901289D1*
X995468Y1908383D1*
X998260Y1915123D1*
X1002072Y1921343D1*
X1006810Y1926891D1*
X1012358Y1931629D1*
X1018578Y1935441D1*
X1025318Y1938232D1*
X1032412Y1939935D1*
X1039685Y1940508D1*
X1046958Y1939935D1*
X1053764Y1938314D1*
X1019305Y1972911D1*
X1016308Y1977037D1*
X1013993Y1981580D1*
X1012417Y1986430D1*
X1011620Y1991466D1*
X1011520Y2058320D1*
Y2792044D1*
X1006403Y2797938D1*
X1002591Y2804158D1*
X999799Y2810898D1*
X998096Y2817992D1*
X997524Y2825265D1*
X998096Y2832538D1*
X999799Y2839632D1*
X1002591Y2846372D1*
X1006403Y2852592D1*
X1011141Y2858140D1*
X1016688Y2862878D1*
X1022909Y2866690D1*
X1029649Y2869482D1*
X1036743Y2871185D1*
X1044016Y2871757D1*
X1051289Y2871185D1*
X1058383Y2869482D1*
X1065123Y2866690D1*
X1071343Y2862878D1*
X1076891Y2858140D1*
X1081629Y2852592D1*
X1085441Y2846372D1*
X1088232Y2839632D1*
X1089935Y2832538D1*
X1090508Y2825265D1*
X1089935Y2817992D1*
X1088232Y2810898D1*
X1085441Y2804158D1*
X1081629Y2797938D1*
X1076503Y2792032D1*
X1076705Y2747294D1*
X1085252Y2749346D1*
X1094016Y2750035D1*
X1102779Y2749346D1*
X1111327Y2747294D1*
X1119448Y2743930D1*
X1126943Y2739337D1*
X1133628Y2733628D1*
X1139337Y2726943D1*
X1144009Y2719277D1*
X1148695Y2726943D1*
X1154404Y2733628D1*
X1161088Y2739337D1*
X1168583Y2743930D1*
X1176705Y2747294D1*
X1185252Y2749346D1*
X1194016Y2750035D1*
X1202779Y2749346D1*
X1211327Y2747294D1*
X1219448Y2743930D1*
X1226943Y2739337D1*
X1233628Y2733628D1*
X1239337Y2726943D1*
X1244009Y2719277D1*
X1248695Y2726943D1*
X1254404Y2733628D1*
X1261088Y2739337D1*
X1268583Y2743930D1*
X1276705Y2747294D1*
X1285252Y2749346D1*
X1294016Y2750035D1*
X1302779Y2749346D1*
X1311472Y2747240D1*
X1311474Y2835837D1*
X1306403Y2841688D1*
X1302591Y2847909D1*
X1299799Y2854649D1*
X1298096Y2861743D1*
X1297524Y2869016D1*
X1298096Y2876289D1*
X1299799Y2883383D1*
X1302591Y2890123D1*
X1306403Y2896343D1*
X1311141Y2901891D1*
X1316688Y2906629D1*
X1322909Y2910441D1*
X1329649Y2913232D1*
X1336743Y2914935D1*
X1344016Y2915508D1*
X1351289Y2914935D1*
X1358383Y2913232D1*
X1365123Y2910441D1*
X1371343Y2906629D1*
X1376891Y2901891D1*
X1381629Y2896343D1*
X1385441Y2890123D1*
X1388232Y2883383D1*
X1389935Y2876289D1*
X1390508Y2869016D1*
X1389935Y2861743D1*
X1388232Y2854649D1*
X1385441Y2847909D1*
X1381629Y2841688D1*
X1376566Y2835841D1*
X1376705Y2747294D1*
X1385252Y2749346D1*
X1394016Y2750035D1*
X1402779Y2749346D1*
X1411327Y2747294D1*
X1419448Y2743930D1*
X1426943Y2739337D1*
X1433628Y2733628D1*
X1439337Y2726943D1*
X1444009Y2719277D1*
X1448695Y2726943D1*
X1454404Y2733628D1*
X1461088Y2739337D1*
X1468583Y2743930D1*
X1476705Y2747294D1*
X1485252Y2749346D1*
X1494016Y2750035D1*
X1502779Y2749346D1*
X1511327Y2747294D1*
X1519448Y2743930D1*
X1526943Y2739337D1*
X1533628Y2733628D1*
X1539337Y2726943D1*
X1544009Y2719277D1*
X1548695Y2726943D1*
X1554404Y2733628D1*
X1561088Y2739337D1*
X1568583Y2743930D1*
X1576705Y2747294D1*
X1585252Y2749346D1*
X1594016Y2750035D1*
X1602779Y2749346D1*
X1611327Y2747294D1*
X1619448Y2743930D1*
X1626943Y2739337D1*
X1633628Y2733628D1*
X1639337Y2726943D1*
X1644009Y2719277D1*
X1648695Y2726943D1*
X1654404Y2733628D1*
X1661088Y2739337D1*
X1668583Y2743930D1*
X1676705Y2747294D1*
X1685252Y2749346D1*
X1694016Y2750035D1*
X1702779Y2749346D1*
X1711327Y2747294D1*
X1719448Y2743930D1*
X1726943Y2739337D1*
X1733628Y2733628D1*
X1739337Y2726943D1*
X1744009Y2719277D1*
X1748695Y2726943D1*
X1754404Y2733628D1*
X1756511Y2735575D1*
X1730569Y2761512D1*
X1616466Y2761624D1*
X1611431Y2762421D1*
X1606582Y2763997D1*
X1602039Y2766312D1*
X1597914Y2769308D1*
X1594543Y2772537D1*
X1586743Y2773096D1*
X1579649Y2774799D1*
X1572909Y2777591D1*
X1566688Y2781403D1*
X1561141Y2786141D1*
X1556403Y2791688D1*
X1552591Y2797909D1*
X1549799Y2804649D1*
X1548096Y2811743D1*
X1547524Y2819016D1*
X1548096Y2826289D1*
X1549799Y2833383D1*
X1552591Y2840123D1*
X1556403Y2846343D1*
X1561141Y2851891D1*
X1566688Y2856629D1*
X1572909Y2860441D1*
X1579649Y2863232D1*
X1586743Y2864935D1*
X1594016Y2865508D1*
X1601289Y2864935D1*
X1608383Y2863232D1*
X1615123Y2860441D1*
X1621343Y2856629D1*
X1626891Y2851891D1*
X1631629Y2846343D1*
X1635441Y2840123D1*
X1638232Y2833383D1*
X1639894Y2826499D1*
X1746575Y2826407D1*
X1748096Y2826289D1*
X1749799Y2833383D1*
X1752591Y2840123D1*
X1756403Y2846343D1*
X1761141Y2851891D1*
X1766688Y2856629D1*
X1772909Y2860441D1*
X1779649Y2863232D1*
X1786743Y2864935D1*
X1794016Y2865508D1*
X1801289Y2864935D1*
X1808383Y2863232D1*
X1815123Y2860441D1*
X1821343Y2856629D1*
X1826891Y2851891D1*
X1831629Y2846343D1*
X1835441Y2840123D1*
X1838232Y2833383D1*
X1839894Y2826499D1*
X1871565Y2826408D1*
X1876601Y2825610D1*
X1881450Y2824035D1*
X1885993Y2821720D1*
X1890118Y2818723D1*
X1916991Y2791991D1*
X1920303Y2788114D1*
X1922967Y2783767D1*
X1924918Y2779056D1*
X1926108Y2774099D1*
X1926508Y2769006D1*
Y2739627D1*
X1930398Y2736613D1*
X1936613Y2730398D1*
X1941780Y2723286D1*
X1944102Y2719448D1*
X1948695Y2726943D1*
X1954404Y2733628D1*
X1961088Y2739337D1*
X1961524Y2739948D1*
Y2785772D1*
X1956403Y2791688D1*
X1952591Y2797909D1*
X1949799Y2804649D1*
X1948096Y2811743D1*
X1947524Y2819016D1*
X1948096Y2826289D1*
X1949799Y2833383D1*
X1952591Y2840123D1*
X1956403Y2846343D1*
X1961141Y2851891D1*
X1966688Y2856629D1*
X1972909Y2860441D1*
X1979649Y2863232D1*
X1986743Y2864935D1*
X1994016Y2865508D1*
X2001289Y2864935D1*
X2008383Y2863232D1*
X2015123Y2860441D1*
X2021343Y2856629D1*
X2026891Y2851891D1*
X2031629Y2846343D1*
X2035441Y2840123D1*
X2038232Y2833383D1*
X2039935Y2826289D1*
X2040508Y2819016D1*
X2039935Y2811743D1*
X2038232Y2804649D1*
X2035441Y2797909D1*
X2031629Y2791688D1*
X2026503Y2785783D1*
X2026508Y2739676D1*
X2033628Y2733628D1*
X2039337Y2726943D1*
X2044009Y2719277D1*
X2048695Y2726943D1*
X2054404Y2733628D1*
X2061088Y2739337D1*
X2061524Y2739948D1*
Y2785772D1*
X2056403Y2791688D1*
X2052591Y2797909D1*
X2049799Y2804649D1*
X2048096Y2811743D1*
X2047524Y2819016D1*
X2048096Y2826289D1*
X2049799Y2833383D1*
X2052591Y2840123D1*
X2056403Y2846343D1*
X2061141Y2851891D1*
X2066688Y2856629D1*
X2072909Y2860441D1*
X2079649Y2863232D1*
X2086743Y2864935D1*
X2094016Y2865508D1*
X2101289Y2864935D1*
X2108383Y2863232D1*
X2115123Y2860441D1*
X2121343Y2856629D1*
X2126891Y2851891D1*
X2131629Y2846343D1*
X2135441Y2840123D1*
X2138232Y2833383D1*
X2139935Y2826289D1*
X2140508Y2819016D1*
X2139935Y2811743D1*
X2138232Y2804649D1*
X2135441Y2797909D1*
X2131629Y2791688D1*
X2126503Y2785783D1*
X2126508Y2739676D1*
X2133628Y2733628D1*
X2139337Y2726943D1*
X2144009Y2719277D1*
X2148695Y2726943D1*
X2154404Y2733628D1*
X2161088Y2739337D1*
X2168583Y2743930D1*
X2176705Y2747294D1*
X2185252Y2749346D1*
X2194016Y2750035D1*
X2202779Y2749346D1*
X2211327Y2747294D1*
X2219448Y2743930D1*
X2226943Y2739337D1*
X2233628Y2733628D1*
X2239337Y2726943D1*
X2244009Y2719277D1*
X2248695Y2726943D1*
X2254404Y2733628D1*
X2261088Y2739337D1*
X2268583Y2743930D1*
X2276705Y2747294D1*
X2285252Y2749346D1*
X2294016Y2750035D1*
X2302779Y2749346D1*
X2311327Y2747294D1*
X2319448Y2743930D1*
X2326943Y2739337D1*
X2333628Y2733628D1*
X2339337Y2726943D1*
X2343930Y2719448D1*
X2347294Y2711327D1*
X2349346Y2702779D1*
X2350035Y2694016D1*
X2349346Y2685252D1*
X2347294Y2676705D1*
X2343930Y2668583D1*
X2339337Y2661088D1*
X2333628Y2654404D1*
X2326943Y2648695D1*
X2319793Y2644295D1*
X2327221Y2639719D1*
X2333962Y2633962D1*
X2339719Y2627221D1*
X2344351Y2619663D1*
X2347743Y2611473D1*
X2349812Y2602853D1*
X2350508Y2594016D1*
X2350006Y2586813D1*
X2395244Y2541417D1*
X2398425Y2537038D1*
X2400882Y2532215D1*
X2402555Y2527068D1*
X2403402Y2521722D1*
X2403508Y2463898D1*
X2403402Y1416310D1*
X2402555Y1410964D1*
X2400882Y1405816D1*
X2398425Y1400994D1*
X2395244Y1396615D1*
X2354431Y1355652D1*
X2266417Y1267788D1*
X2262038Y1264606D1*
X2257215Y1262149D1*
X2252068Y1260476D1*
X2246722Y1259630D1*
X2188144Y1259523D1*
X2183608Y1254423D1*
X2176927Y1248717D1*
X2169202Y1244019D1*
X2176927Y1239314D1*
X2183608Y1233608D1*
X2189314Y1226927D1*
X2193905Y1219436D1*
X2197267Y1211318D1*
X2199319Y1202775D1*
X2200008Y1194016D1*
X2199319Y1185257D1*
X2197267Y1176713D1*
X2193905Y1168596D1*
X2189314Y1161104D1*
X2183608Y1154423D1*
X2176927Y1148717D1*
X2169202Y1144019D1*
X2176927Y1139314D1*
X2183608Y1133608D1*
X2189314Y1126927D1*
X2193905Y1119436D1*
X2197267Y1111318D1*
X2199319Y1102775D1*
X2200008Y1094016D1*
X2199319Y1085257D1*
X2197267Y1076713D1*
X2193905Y1068596D1*
X2189314Y1061104D1*
X2183608Y1054423D1*
X2176927Y1048717D1*
X2169202Y1044019D1*
X2176927Y1039314D1*
X2183608Y1033608D1*
X2189314Y1026927D1*
X2193905Y1019436D1*
X2197267Y1011318D1*
X2199319Y1002775D1*
X2200008Y994016D1*
X2199319Y985257D1*
X2197267Y976713D1*
X2193905Y968596D1*
X2189314Y961104D1*
X2183608Y954423D1*
X2176927Y948717D1*
X2169202Y944019D1*
X2176927Y939314D1*
X2183608Y933608D1*
X2189314Y926927D1*
X2193905Y919436D1*
X2197267Y911318D1*
X2199319Y902775D1*
X2200008Y894016D1*
X2199319Y885257D1*
X2197267Y876713D1*
X2193905Y868596D1*
X2189314Y861104D1*
X2183608Y854423D1*
X2176927Y848717D1*
X2169202Y844019D1*
X2176927Y839314D1*
X2183608Y833608D1*
X2189314Y826927D1*
X2193905Y819436D1*
X2197267Y811318D1*
X2198860Y805082D1*
X2201063Y811808D1*
X2204375Y818308D1*
X2208663Y824210D1*
X2230628Y846378D1*
X2589086Y1204836D1*
X2590764Y1211318D1*
X2594126Y1219436D1*
X2598717Y1226927D1*
X2604423Y1233608D1*
X2611104Y1239314D1*
X2618596Y1243905D1*
X2626713Y1247267D1*
X2635257Y1249319D1*
X2644016Y1250008D1*
X2652775Y1249319D1*
X2661318Y1247267D1*
X2669436Y1243905D1*
X2676927Y1239314D1*
X2683608Y1233608D1*
X2689314Y1226927D1*
X2693905Y1219436D1*
X2697267Y1211318D1*
X2699319Y1202775D1*
X2700008Y1194016D1*
X2699319Y1185257D1*
X2697267Y1176713D1*
X2693905Y1168596D1*
X2689314Y1161104D1*
X2683608Y1154423D1*
X2676927Y1148717D1*
X2669202Y1144019D1*
X2676927Y1139314D1*
X2683608Y1133608D1*
X2689314Y1126927D1*
X2693905Y1119436D1*
X2697267Y1111318D1*
X2699319Y1102775D1*
X2700008Y1094016D1*
X2699319Y1085257D1*
X2697267Y1076713D1*
X2693905Y1068596D1*
X2689314Y1061104D1*
X2683608Y1054423D1*
X2676927Y1048717D1*
X2669202Y1044019D1*
X2676927Y1039314D1*
X2683608Y1033608D1*
X2689314Y1026927D1*
X2693905Y1019436D1*
X2697267Y1011318D1*
X2699319Y1002775D1*
X2700008Y994016D1*
X2699319Y985257D1*
X2697267Y976713D1*
X2693905Y968596D1*
X2689314Y961104D1*
X2683608Y954423D1*
X2676927Y948717D1*
X2669202Y944019D1*
X2676927Y939314D1*
X2683608Y933608D1*
X2689314Y926927D1*
X2693905Y919436D1*
X2697267Y911318D1*
X2699319Y902775D1*
X2700008Y894016D1*
X2699319Y885257D1*
X2697267Y876713D1*
X2693905Y868596D1*
X2689314Y861104D1*
X2683608Y854423D1*
X2676927Y848717D1*
X2669202Y844019D1*
X2676927Y839314D1*
X2683608Y833608D1*
X2689314Y826927D1*
X2693905Y819436D1*
X2697267Y811318D1*
X2699319Y802775D1*
X2700008Y794016D1*
X2699319Y785257D1*
X2697267Y776713D1*
X2693905Y768596D1*
X2689314Y761104D1*
X2683608Y754423D1*
X2676927Y748717D1*
X2669436Y744126D1*
X2661318Y740764D1*
X2652775Y738713D1*
X2644016Y738024D1*
X2635257Y738713D1*
X2626713Y740764D1*
X2618596Y744126D1*
X2611104Y748717D1*
X2604423Y754423D1*
X2598717Y761104D1*
X2594126Y768596D1*
X2591222Y775473D1*
X2590508Y766457D1*
Y575302D1*
X2593930Y569448D1*
X2597294Y561327D1*
X2599346Y552779D1*
X2600035Y544016D1*
X2599346Y535252D1*
X2597294Y526705D1*
X2593930Y518583D1*
X2589337Y511088D1*
X2583628Y504404D1*
X2576943Y498695D1*
X2569448Y494102D1*
X2561327Y490738D1*
X2552779Y488686D1*
X2544016Y487996D1*
X2535252Y488686D1*
X2526705Y490738D1*
X2518583Y494102D1*
X2511088Y498695D1*
X2504404Y504404D1*
X2498695Y511088D1*
X2494023Y518755D1*
X2489337Y511088D1*
X2483628Y504404D1*
X2476943Y498695D1*
X2469448Y494102D1*
X2461327Y490738D1*
X2452779Y488686D1*
X2444016Y487996D1*
X2435252Y488686D1*
X2426705Y490738D1*
X2418583Y494102D1*
X2411088Y498695D1*
X2404404Y504404D1*
X2398695Y511088D1*
X2394023Y518755D1*
X2389337Y511088D1*
X2383628Y504404D1*
X2376943Y498695D1*
X2369448Y494102D1*
X2361327Y490738D1*
X2352779Y488686D1*
X2344016Y487996D1*
X2335252Y488686D1*
X2326705Y490738D1*
X2318583Y494102D1*
X2311088Y498695D1*
X2304404Y504404D1*
X2300046Y509375D1*
X2300035Y487996D1*
X2187996D1*
Y600035D1*
X2197505D1*
X2197524Y677541D1*
X2195746Y672588D1*
X2191757Y664760D1*
X2186592Y657652D1*
X2180380Y651439D1*
X2173272Y646275D1*
X2165443Y642286D1*
X2157087Y639571D1*
X2148409Y638196D1*
X2139623D1*
X2130945Y639571D1*
X2122588Y642286D1*
X2114760Y646275D1*
X2107652Y651439D1*
X2101439Y657652D1*
X2099578Y660012D1*
X2048042Y660128D1*
X2042773Y660963D1*
X2037700Y662611D1*
X2032948Y665033D1*
X2028633Y668168D1*
X1987698Y708954D1*
X1968168Y728633D1*
X1965033Y732948D1*
X1962611Y737700D1*
X1960963Y742773D1*
X1960128Y748042D1*
X1960024Y805827D1*
Y1529934D1*
X1918168Y1571940D1*
X1915033Y1576255D1*
X1912611Y1581007D1*
X1910963Y1586080D1*
X1910128Y1591349D1*
X1910024Y1639840D1*
X1902853Y1638219D1*
X1894016Y1637524D1*
X1885178Y1638219D1*
X1876559Y1640289D1*
X1868369Y1643681D1*
X1860811Y1648313D1*
X1854070Y1654070D1*
X1848313Y1660811D1*
X1844028Y1667749D1*
X1839719Y1660811D1*
X1833962Y1654070D1*
X1827221Y1648313D1*
X1826515Y1647841D1*
X1826508Y1614748D1*
X1831629Y1608843D1*
X1835441Y1602623D1*
X1838232Y1595883D1*
X1839935Y1588789D1*
X1840508Y1581516D1*
X1839935Y1574243D1*
X1838232Y1567149D1*
X1835441Y1560409D1*
X1831629Y1554188D1*
X1826891Y1548641D1*
X1821343Y1543903D1*
X1815123Y1540091D1*
X1808383Y1537299D1*
X1801289Y1535596D1*
X1794016Y1535024D1*
X1786743Y1535596D1*
X1779649Y1537299D1*
X1772909Y1540091D1*
X1766688Y1543903D1*
X1761141Y1548641D1*
X1756403Y1554188D1*
X1752591Y1560409D1*
X1749799Y1567149D1*
X1748096Y1574243D1*
X1747524Y1581516D1*
X1748096Y1588789D1*
X1749799Y1595883D1*
X1752591Y1602623D1*
X1756403Y1608843D1*
X1761528Y1614749D1*
X1761524Y1647794D1*
X1757327Y1651059D1*
X1751059Y1657327D1*
X1745848Y1664499D1*
X1741824Y1672397D1*
X1739085Y1680828D1*
X1737698Y1689583D1*
Y1698448D1*
X1739085Y1707204D1*
X1741824Y1715634D1*
X1745848Y1723533D1*
X1751059Y1730704D1*
X1757327Y1736973D1*
X1764499Y1742183D1*
X1772397Y1746208D1*
X1780828Y1748947D1*
X1789583Y1750334D1*
X1798448D1*
X1807204Y1748947D1*
X1815634Y1746208D1*
X1823533Y1742183D1*
X1830704Y1736973D1*
X1836973Y1730704D1*
X1842183Y1723533D1*
X1844003Y1720282D1*
X1848313Y1727221D1*
X1854070Y1733962D1*
X1860811Y1739719D1*
X1868369Y1744351D1*
X1876559Y1747743D1*
X1885178Y1749812D1*
X1894016Y1750508D1*
X1902853Y1749812D1*
X1910022Y1748152D1*
X1910024Y1912273D1*
X1906403Y1916688D1*
X1902591Y1922909D1*
X1899799Y1929649D1*
X1898096Y1936743D1*
X1897524Y1944016D1*
X1898096Y1951289D1*
X1899799Y1958383D1*
X1902591Y1965123D1*
X1906403Y1971343D1*
X1911141Y1976891D1*
X1916688Y1981629D1*
X1922909Y1985441D1*
X1929649Y1988232D1*
X1936743Y1989935D1*
X1944016Y1990508D1*
X1951289Y1989935D1*
X1958383Y1988232D1*
X1965123Y1985441D1*
X1971343Y1981629D1*
X1976891Y1976891D1*
X1981629Y1971343D1*
X1985441Y1965123D1*
X1988232Y1958383D1*
X1989935Y1951289D1*
X1990508Y1944016D1*
X1989935Y1936743D1*
X1988232Y1929649D1*
X1985441Y1922909D1*
X1981629Y1916688D1*
X1978004Y1912345D1*
X1978008Y1748196D1*
X1985178Y1749812D1*
X1994016Y1750508D1*
X2002853Y1749812D1*
X2010022Y1748152D1*
X2010024Y1999785D1*
X2006403Y2004188D1*
X2002591Y2010409D1*
X1999799Y2017149D1*
X1998096Y2024243D1*
X1997524Y2031516D1*
X1998096Y2038789D1*
X1999799Y2045883D1*
X2002591Y2052623D1*
X2006403Y2058843D1*
X2011141Y2064391D1*
X2016688Y2069129D1*
X2022909Y2072941D1*
X2029649Y2075732D1*
X2036743Y2077435D1*
X2044016Y2078008D1*
X2051289Y2077435D1*
X2058383Y2075732D1*
X2065123Y2072941D1*
X2071343Y2069129D1*
X2076891Y2064391D1*
X2081629Y2058843D1*
X2085441Y2052623D1*
X2088232Y2045883D1*
X2089935Y2038789D1*
X2090508Y2031516D1*
X2089935Y2024243D1*
X2088232Y2017149D1*
X2085441Y2010409D1*
X2081629Y2004188D1*
X2078004Y1999845D1*
X2078008Y1748210D1*
X2085178Y1749812D1*
X2094016Y1750508D1*
X2102853Y1749812D1*
X2111473Y1747743D1*
X2119663Y1744351D1*
X2127221Y1739719D1*
X2133962Y1733962D1*
X2139719Y1727221D1*
X2144003Y1720282D1*
X2148313Y1727221D1*
X2154070Y1733962D1*
X2160811Y1739719D1*
X2161516Y1740191D1*
X2161520Y1954499D1*
X2156403Y1960439D1*
X2152591Y1966659D1*
X2149799Y1973400D1*
X2148096Y1980493D1*
X2147524Y1987766D1*
X2148096Y1995039D1*
X2149799Y2002133D1*
X2152591Y2008873D1*
X2156403Y2015094D1*
X2161141Y2020641D1*
X2166688Y2025379D1*
X2172909Y2029191D1*
X2179649Y2031983D1*
X2186743Y2033686D1*
X2194016Y2034259D1*
X2201289Y2033686D1*
X2208383Y2031983D1*
X2215123Y2029191D1*
X2221343Y2025379D1*
X2226891Y2020641D1*
X2231629Y2015094D1*
X2235441Y2008873D1*
X2238232Y2002133D1*
X2239935Y1995039D1*
X2240508Y1987766D1*
X2239935Y1980493D1*
X2238232Y1973400D1*
X2235441Y1966659D1*
X2231629Y1960439D1*
X2226503Y1954533D1*
X2226512Y1740201D1*
X2230704Y1736973D1*
X2236973Y1730704D1*
X2242183Y1723533D1*
X2246208Y1715634D1*
X2248947Y1707204D1*
X2250334Y1698448D1*
Y1689583D1*
X2248947Y1680828D1*
X2246208Y1672397D1*
X2242183Y1664499D1*
X2236973Y1657327D1*
X2230704Y1651059D1*
X2223533Y1645848D1*
X2215634Y1641824D1*
X2207204Y1639085D1*
X2198448Y1637698D1*
X2189583D1*
X2180828Y1639085D1*
X2172397Y1641824D1*
X2164499Y1645848D1*
X2157327Y1651059D1*
X2151059Y1657327D1*
X2145848Y1664499D1*
X2144028Y1667749D1*
X2139719Y1660811D1*
X2133962Y1654070D1*
X2127221Y1648313D1*
X2119663Y1643681D1*
X2111473Y1640289D1*
X2102853Y1638219D1*
X2094016Y1637524D1*
X2085178Y1638219D1*
X2078010Y1639879D1*
X2078008Y833092D1*
X2083099Y828005D1*
X2099553Y828008D1*
X2104423Y833608D1*
X2111104Y839314D1*
X2118830Y844013D1*
X2111104Y848717D1*
X2104423Y854423D1*
X2098717Y861104D1*
X2094126Y868596D1*
X2090764Y876713D1*
X2088713Y885257D1*
X2088024Y894016D1*
X2088713Y902775D1*
X2090764Y911318D1*
X2094126Y919436D1*
X2098717Y926927D1*
X2104423Y933608D1*
X2111104Y939314D1*
X2118830Y944013D1*
X2111104Y948717D1*
X2104423Y954423D1*
X2098717Y961104D1*
X2094126Y968596D1*
X2090764Y976713D1*
X2088713Y985257D1*
X2088024Y994016D1*
X2088713Y1002775D1*
X2090764Y1011318D1*
X2094126Y1019436D1*
X2098717Y1026927D1*
X2104423Y1033608D1*
X2111104Y1039314D1*
X2118830Y1044013D1*
X2111104Y1048717D1*
X2104423Y1054423D1*
X2098717Y1061104D1*
X2094126Y1068596D1*
X2090764Y1076713D1*
X2088713Y1085257D1*
X2088024Y1094016D1*
X2088713Y1102775D1*
X2090764Y1111318D1*
X2094126Y1119436D1*
X2098717Y1126927D1*
X2104423Y1133608D1*
X2111104Y1139314D1*
X2118830Y1144013D1*
X2111104Y1148717D1*
X2104423Y1154423D1*
X2098717Y1161104D1*
X2094126Y1168596D1*
X2090764Y1176713D1*
X2088713Y1185257D1*
X2088024Y1194016D1*
X2088713Y1202775D1*
X2090764Y1211318D1*
X2094126Y1219436D1*
X2098717Y1226927D1*
X2104423Y1233608D1*
X2111104Y1239314D1*
X2118830Y1244013D1*
X2111104Y1248717D1*
X2104423Y1254423D1*
X2098717Y1261104D1*
X2094126Y1268596D1*
X2090764Y1276713D1*
X2088713Y1285257D1*
X2088024Y1294016D1*
X2088713Y1302775D1*
X2090764Y1311318D1*
X2094126Y1319436D1*
X2098717Y1326927D1*
X2104423Y1333608D1*
X2109472Y1338028D1*
X2088024Y1338023D1*
Y1450008D1*
X2200008D1*
Y1338023D1*
X2178657D1*
X2183608Y1333608D1*
X2188070Y1328505D1*
X2229743Y1328508D1*
X2334545Y1433324D1*
X2334523Y2504764D1*
X2301262Y2537990D1*
X2294016Y2537524D1*
X2285178Y2538219D1*
X2276559Y2540289D1*
X2268369Y2543681D1*
X2260811Y2548313D1*
X2254070Y2554070D1*
X2248313Y2560811D1*
X2244028Y2567749D1*
X2239719Y2560811D1*
X2233962Y2554070D1*
X2227221Y2548313D1*
X2219663Y2543681D1*
X2211473Y2540289D1*
X2202853Y2538219D1*
X2194016Y2537524D1*
X2185178Y2538219D1*
X2176559Y2540289D1*
X2168369Y2543681D1*
X2160811Y2548313D1*
X2154070Y2554070D1*
X2148313Y2560811D1*
X2144028Y2567749D1*
X2139719Y2560811D1*
X2133962Y2554070D1*
X2127221Y2548313D1*
X2119663Y2543681D1*
X2111473Y2540289D1*
X2102853Y2538219D1*
X2094016Y2537524D1*
X2085178Y2538219D1*
X2076559Y2540289D1*
X2068369Y2543681D1*
X2060811Y2548313D1*
X2054070Y2554070D1*
X2048313Y2560811D1*
X2044028Y2567749D1*
X2039719Y2560811D1*
X2033962Y2554070D1*
X2027221Y2548313D1*
X2019663Y2543681D1*
X2011473Y2540289D1*
X2002853Y2538219D1*
X1994016Y2537524D1*
X1985178Y2538219D1*
X1976559Y2540289D1*
X1968369Y2543681D1*
X1960811Y2548313D1*
X1954070Y2554070D1*
X1948313Y2560811D1*
X1944028Y2567749D1*
X1939719Y2560811D1*
X1933962Y2554070D1*
X1927221Y2548313D1*
X1919663Y2543681D1*
X1911473Y2540289D1*
X1902853Y2538219D1*
X1894016Y2537524D1*
X1885178Y2538219D1*
X1876559Y2540289D1*
X1868369Y2543681D1*
X1860811Y2548313D1*
X1854070Y2554070D1*
X1848313Y2560811D1*
X1844028Y2567749D1*
X1839719Y2560811D1*
X1833962Y2554070D1*
X1827221Y2548313D1*
X1819663Y2543681D1*
X1811473Y2540289D1*
X1802853Y2538219D1*
X1794016Y2537524D1*
X1785178Y2538219D1*
X1776559Y2540289D1*
X1768369Y2543681D1*
X1760811Y2548313D1*
X1754070Y2554070D1*
X1748313Y2560811D1*
X1744028Y2567749D1*
X1739719Y2560811D1*
X1733962Y2554070D1*
X1727221Y2548313D1*
X1726515Y2547841D1*
X1726512Y2412836D1*
X1729375Y2418308D1*
X1733663Y2424210D1*
X1738822Y2429369D1*
X1744724Y2433657D1*
X1751224Y2436969D1*
X1758162Y2439223D1*
X1765368Y2440365D1*
X1772663D1*
X1779869Y2439223D1*
X1786808Y2436969D1*
X1793308Y2433657D1*
X1799210Y2429369D1*
X1804369Y2424210D1*
X1808657Y2418308D1*
X1811969Y2411808D1*
X1814223Y2404869D1*
X1815365Y2397663D1*
Y2390368D1*
X1814223Y2383162D1*
X1811969Y2376224D1*
X1808657Y2369724D1*
X1804369Y2363822D1*
X1801503Y2360783D1*
X1801512Y2269892D1*
X1805461Y2266869D1*
X1810619Y2261710D1*
X1814907Y2255808D1*
X1818220Y2249308D1*
X1820474Y2242369D1*
X1821615Y2235163D1*
Y2227868D1*
X1820474Y2220662D1*
X1818220Y2213724D1*
X1814907Y2207224D1*
X1810619Y2201322D1*
X1805461Y2196163D1*
X1799558Y2191875D1*
X1793058Y2188563D1*
X1786120Y2186308D1*
X1778914Y2185167D1*
X1771619D1*
X1764413Y2186308D1*
X1757475Y2188563D1*
X1750974Y2191875D1*
X1745072Y2196163D1*
X1739914Y2201322D1*
X1735625Y2207224D1*
X1732313Y2213724D1*
X1730059Y2220662D1*
X1728918Y2227868D1*
Y2235163D1*
X1730059Y2242369D1*
X1732313Y2249308D1*
X1735625Y2255808D1*
X1736521Y2257148D1*
X1736520Y2287674D1*
X1733657Y2282224D1*
X1729369Y2276322D1*
X1724210Y2271163D1*
X1718308Y2266875D1*
X1711808Y2263563D1*
X1704869Y2261308D1*
X1697663Y2260167D1*
X1690368D1*
X1683162Y2261308D1*
X1676224Y2263563D1*
X1669724Y2266875D1*
X1663822Y2271163D1*
X1658663Y2276322D1*
X1654375Y2282224D1*
X1651063Y2288724D1*
X1648808Y2295662D1*
X1647667Y2302868D1*
Y2310163D1*
X1648808Y2317369D1*
X1651063Y2324308D1*
X1654375Y2330808D1*
X1658663Y2336710D1*
X1661528Y2339749D1*
X1661520Y2547837D1*
X1657327Y2551059D1*
X1651059Y2557327D1*
X1645848Y2564499D1*
X1644028Y2567749D1*
X1639719Y2560811D1*
X1633962Y2554070D1*
X1628514Y2549332D1*
X1628508Y2300160D1*
X1631629Y2296343D1*
X1635441Y2290123D1*
X1638232Y2283383D1*
X1639935Y2276289D1*
X1640508Y2269016D1*
X1639935Y2261743D1*
X1638232Y2254649D1*
X1635441Y2247909D1*
X1631629Y2241688D1*
X1626891Y2236141D1*
X1621343Y2231403D1*
X1615123Y2227591D1*
X1608383Y2224799D1*
X1601289Y2223096D1*
X1594016Y2222524D1*
X1586743Y2223096D1*
X1582764Y2223920D1*
X1582761Y1844972D1*
X1624975Y1802620D1*
X1627973Y1798495D1*
X1630288Y1793951D1*
X1631863Y1789102D1*
X1632661Y1784065D1*
Y1778966D1*
X1631863Y1773930D1*
X1630288Y1769080D1*
X1627973Y1764537D1*
X1626549Y1762407D1*
X1626512Y1740208D1*
X1630704Y1736973D1*
X1636973Y1730704D1*
X1642183Y1723533D1*
X1646208Y1715634D1*
X1648947Y1707204D1*
X1650334Y1698448D1*
Y1689583D1*
X1648947Y1680828D1*
X1646208Y1672397D1*
X1642183Y1664499D1*
X1636973Y1657327D1*
X1630704Y1651059D1*
X1623533Y1645848D1*
X1615634Y1641824D1*
X1607204Y1639085D1*
X1598448Y1637698D1*
X1589583D1*
X1580828Y1639085D1*
X1572397Y1641824D1*
X1564499Y1645848D1*
X1557327Y1651059D1*
X1551059Y1657327D1*
X1545848Y1664499D1*
X1544028Y1667749D1*
X1539719Y1660811D1*
X1533962Y1654070D1*
X1527221Y1648313D1*
X1519663Y1643681D1*
X1511473Y1640289D1*
X1502853Y1638219D1*
X1494016Y1637524D1*
X1485178Y1638219D1*
X1476559Y1640289D1*
X1468369Y1643681D1*
X1460811Y1648313D1*
X1454070Y1654070D1*
X1448313Y1660811D1*
X1444028Y1667749D1*
X1439719Y1660811D1*
X1433962Y1654070D1*
X1427221Y1648313D1*
X1419663Y1643681D1*
X1411473Y1640289D1*
X1402853Y1638219D1*
X1394016Y1637524D1*
X1385178Y1638219D1*
X1376559Y1640289D1*
X1368369Y1643681D1*
X1360811Y1648313D1*
X1354070Y1654070D1*
X1348313Y1660811D1*
X1344028Y1667749D1*
X1339719Y1660811D1*
X1333962Y1654070D1*
X1328949Y1649675D1*
X1333657Y1643308D1*
X1336969Y1636808D1*
X1339223Y1629869D1*
X1340365Y1622663D1*
Y1615368D1*
X1339223Y1608162D1*
X1336969Y1601224D1*
X1333657Y1594724D1*
X1329369Y1588822D1*
X1326503Y1585783D1*
X1326508Y857446D1*
X1352439Y831544D1*
X1357652Y836592D1*
X1364760Y841757D1*
X1368830Y844013D1*
X1361104Y848717D1*
X1354423Y854423D1*
X1348717Y861104D1*
X1344126Y868596D1*
X1340764Y876713D1*
X1338713Y885257D1*
X1338024Y894016D1*
X1338713Y902775D1*
X1340764Y911318D1*
X1344126Y919436D1*
X1348717Y926927D1*
X1354423Y933608D1*
X1361104Y939314D1*
X1368830Y944013D1*
X1361104Y948717D1*
X1354423Y954423D1*
X1348717Y961104D1*
X1344126Y968596D1*
X1340764Y976713D1*
X1338713Y985257D1*
X1338024Y994016D1*
X1338713Y1002775D1*
X1340764Y1011318D1*
X1344126Y1019436D1*
X1348717Y1026927D1*
X1354423Y1033608D1*
X1361104Y1039314D1*
X1368830Y1044013D1*
X1361104Y1048717D1*
X1354423Y1054423D1*
X1348717Y1061104D1*
X1344126Y1068596D1*
X1340764Y1076713D1*
X1338713Y1085257D1*
X1338024Y1094016D1*
X1338713Y1102775D1*
X1340764Y1111318D1*
X1344126Y1119436D1*
X1348717Y1126927D1*
X1354423Y1133608D1*
X1361104Y1139314D1*
X1368830Y1144013D1*
X1361104Y1148717D1*
X1354423Y1154423D1*
X1348717Y1161104D1*
X1344126Y1168596D1*
X1340764Y1176713D1*
X1338713Y1185257D1*
X1338024Y1194016D1*
X1338713Y1202775D1*
X1340764Y1211318D1*
X1344126Y1219436D1*
X1348717Y1226927D1*
X1354423Y1233608D1*
X1361104Y1239314D1*
X1368830Y1244013D1*
X1361104Y1248717D1*
X1354423Y1254423D1*
X1348717Y1261104D1*
X1344126Y1268596D1*
X1340764Y1276713D1*
X1338713Y1285257D1*
X1338024Y1294016D1*
X1338713Y1302775D1*
X1340764Y1311318D1*
X1344126Y1319436D1*
X1348717Y1326927D1*
X1354423Y1333608D1*
X1359472Y1338028D1*
X1338024Y1338023D1*
Y1450008D1*
X1450008D1*
Y1338023D1*
X1428657D1*
X1433608Y1333608D1*
X1439314Y1326927D1*
X1443905Y1319436D1*
X1447267Y1311318D1*
X1449319Y1302775D1*
X1450008Y1294016D1*
X1449319Y1285257D1*
X1447267Y1276713D1*
X1443905Y1268596D1*
X1439314Y1261104D1*
X1433608Y1254423D1*
X1426927Y1248717D1*
X1419202Y1244019D1*
X1426927Y1239314D1*
X1433608Y1233608D1*
X1439314Y1226927D1*
X1443905Y1219436D1*
X1447267Y1211318D1*
X1449319Y1202775D1*
X1450008Y1194016D1*
X1449319Y1185257D1*
X1447267Y1176713D1*
X1443905Y1168596D1*
X1439314Y1161104D1*
X1433608Y1154423D1*
X1426927Y1148717D1*
X1419202Y1144019D1*
X1426927Y1139314D1*
X1433608Y1133608D1*
X1439314Y1126927D1*
X1443905Y1119436D1*
X1447267Y1111318D1*
X1449319Y1102775D1*
X1450008Y1094016D1*
X1449319Y1085257D1*
X1447267Y1076713D1*
X1443905Y1068596D1*
X1439314Y1061104D1*
X1433608Y1054423D1*
X1426927Y1048717D1*
X1419202Y1044019D1*
X1426927Y1039314D1*
X1433608Y1033608D1*
X1439314Y1026927D1*
X1443905Y1019436D1*
X1447267Y1011318D1*
X1449319Y1002775D1*
X1450008Y994016D1*
X1449319Y985257D1*
X1447267Y976713D1*
X1443905Y968596D1*
X1439314Y961104D1*
X1433608Y954423D1*
X1426927Y948717D1*
X1419202Y944019D1*
X1426927Y939314D1*
X1433608Y933608D1*
X1439314Y926927D1*
X1443905Y919436D1*
X1447267Y911318D1*
X1449319Y902775D1*
X1450008Y894016D1*
X1449319Y885257D1*
X1447267Y876713D1*
X1443905Y868596D1*
X1439314Y861104D1*
X1433608Y854423D1*
X1426927Y848717D1*
X1419202Y844019D1*
X1426927Y839314D1*
X1433608Y833608D1*
X1439314Y826927D1*
X1443905Y819436D1*
X1447267Y811318D1*
X1449319Y802775D1*
X1450008Y794016D1*
X1449319Y785257D1*
X1447267Y776713D1*
X1443905Y768596D1*
X1439314Y761104D1*
X1433608Y754423D1*
X1426927Y748717D1*
X1419202Y744019D1*
X1426927Y739314D1*
X1433608Y733608D1*
X1439314Y726927D1*
X1443905Y719436D1*
X1447267Y711318D1*
X1448860Y705082D1*
X1451063Y711808D1*
X1454375Y718308D1*
X1458663Y724210D1*
X1480628Y746378D1*
X1501815Y767565D1*
X1494974Y769813D1*
X1488474Y773125D1*
X1482571Y777413D1*
X1477413Y782571D1*
X1473125Y788474D1*
X1469813Y794974D1*
X1467558Y801912D1*
X1466417Y809118D1*
Y816413D1*
X1467558Y823619D1*
X1469813Y830558D1*
X1473125Y837058D1*
X1477413Y842960D1*
X1499378Y865128D1*
X1839080Y1204830D1*
X1840764Y1211318D1*
X1844126Y1219436D1*
X1848717Y1226927D1*
X1854423Y1233608D1*
X1861104Y1239314D1*
X1868596Y1243905D1*
X1876713Y1247267D1*
X1885257Y1249319D1*
X1894016Y1250008D1*
X1902775Y1249319D1*
X1911318Y1247267D1*
X1919436Y1243905D1*
X1926927Y1239314D1*
X1933608Y1233608D1*
X1939314Y1226927D1*
X1943905Y1219436D1*
X1947267Y1211318D1*
X1949319Y1202775D1*
X1950008Y1194016D1*
X1949319Y1185257D1*
X1947267Y1176713D1*
X1943905Y1168596D1*
X1939314Y1161104D1*
X1933608Y1154423D1*
X1926927Y1148717D1*
X1919202Y1144019D1*
X1926927Y1139314D1*
X1933608Y1133608D1*
X1939314Y1126927D1*
X1943905Y1119436D1*
X1947267Y1111318D1*
X1949319Y1102775D1*
X1950008Y1094016D1*
X1949319Y1085257D1*
X1947267Y1076713D1*
X1943905Y1068596D1*
X1939314Y1061104D1*
X1933608Y1054423D1*
X1926927Y1048717D1*
X1919202Y1044019D1*
X1926927Y1039314D1*
X1933608Y1033608D1*
X1939314Y1026927D1*
X1943905Y1019436D1*
X1947267Y1011318D1*
X1949319Y1002775D1*
X1950008Y994016D1*
X1949319Y985257D1*
X1947267Y976713D1*
X1943905Y968596D1*
X1939314Y961104D1*
X1933608Y954423D1*
X1926927Y948717D1*
X1919202Y944019D1*
X1926927Y939314D1*
X1933608Y933608D1*
X1939314Y926927D1*
X1943905Y919436D1*
X1947267Y911318D1*
X1949319Y902775D1*
X1950008Y894016D1*
X1949319Y885257D1*
X1947267Y876713D1*
X1943905Y868596D1*
X1939314Y861104D1*
X1933608Y854423D1*
X1926927Y848717D1*
X1919202Y844019D1*
X1926927Y839314D1*
X1933608Y833608D1*
X1939314Y826927D1*
X1943905Y819436D1*
X1947267Y811318D1*
X1949319Y802775D1*
X1950008Y794016D1*
X1949319Y785257D1*
X1947267Y776713D1*
X1943905Y768596D1*
X1939314Y761104D1*
X1933608Y754423D1*
X1926927Y748717D1*
X1919436Y744126D1*
X1911318Y740764D1*
X1902775Y738713D1*
X1894016Y738024D1*
X1885257Y738713D1*
X1876713Y740764D1*
X1868596Y744126D1*
X1861104Y748717D1*
X1854423Y754423D1*
X1848717Y761104D1*
X1844126Y768596D1*
X1841222Y775473D1*
X1840508Y766457D1*
Y575302D1*
X1843930Y569448D1*
X1847294Y561327D1*
X1849346Y552779D1*
X1850035Y544016D1*
X1849346Y535252D1*
X1847294Y526705D1*
X1843930Y518583D1*
X1839337Y511088D1*
X1833628Y504404D1*
X1826943Y498695D1*
X1819448Y494102D1*
X1811327Y490738D1*
X1802779Y488686D1*
X1794016Y487996D1*
X1785252Y488686D1*
X1776705Y490738D1*
X1768583Y494102D1*
X1761088Y498695D1*
X1754404Y504404D1*
X1748695Y511088D1*
X1744023Y518755D1*
X1739337Y511088D1*
X1733628Y504404D1*
X1726943Y498695D1*
X1719448Y494102D1*
X1711327Y490738D1*
X1702779Y488686D1*
X1694016Y487996D1*
X1685252Y488686D1*
X1676705Y490738D1*
X1668583Y494102D1*
X1661088Y498695D1*
X1654404Y504404D1*
X1648695Y511088D1*
X1644023Y518755D1*
X1639337Y511088D1*
X1633628Y504404D1*
X1626943Y498695D1*
X1619448Y494102D1*
X1611327Y490738D1*
X1602779Y488686D1*
X1594016Y487996D1*
X1585252Y488686D1*
X1576705Y490738D1*
X1568583Y494102D1*
X1561088Y498695D1*
X1554404Y504404D1*
X1550046Y509375D1*
X1550035Y487996D1*
X1437996D1*
Y600035D1*
X1447505D1*
X1447524Y677541D1*
X1445746Y672588D1*
X1441757Y664760D1*
X1436592Y657652D1*
X1430380Y651439D1*
X1423272Y646275D1*
X1415443Y642286D1*
X1407087Y639571D1*
X1398409Y638196D1*
X1389623D1*
X1380945Y639571D1*
X1372588Y642286D1*
X1364760Y646275D1*
X1357652Y651439D1*
X1351439Y657652D1*
X1346275Y664760D1*
X1342286Y672588D1*
X1339571Y680945D1*
X1338196Y689623D1*
Y698409D1*
X1339571Y707087D1*
X1342286Y715443D1*
X1346275Y723272D1*
X1351439Y730380D1*
X1357652Y736592D1*
X1364760Y741757D1*
X1368830Y744013D1*
X1361104Y748717D1*
X1354423Y754423D1*
X1348440Y761519D1*
X1341466Y761624D1*
X1336431Y762421D1*
X1331582Y763997D1*
X1327039Y766312D1*
X1322914Y769309D1*
X1275570Y816510D1*
X1269309Y822914D1*
X1266312Y827039D1*
X1263997Y831582D1*
X1262421Y836431D1*
X1261624Y841466D1*
X1261524Y908320D1*
Y1535971D1*
X1254869Y1533848D1*
X1247663Y1532706D1*
X1240368D1*
X1233162Y1533848D1*
X1226224Y1536102D1*
X1219724Y1539414D1*
X1213822Y1543702D1*
X1208663Y1548861D1*
X1204375Y1554763D1*
X1201063Y1561263D1*
X1198808Y1568202D1*
X1197667Y1575407D1*
Y1582703D1*
X1198808Y1589908D1*
X1201063Y1596847D1*
X1204375Y1603347D1*
X1208663Y1609249D1*
X1210028Y1610726D1*
X1210023Y1639807D1*
X1202853Y1638219D1*
X1194016Y1637524D1*
X1185178Y1638219D1*
X1176559Y1640289D1*
X1168369Y1643681D1*
X1160811Y1648313D1*
X1154070Y1654070D1*
X1148313Y1660811D1*
X1144028Y1667749D1*
X1139719Y1660811D1*
X1133962Y1654070D1*
X1127221Y1648313D1*
X1119663Y1643681D1*
X1111473Y1640289D1*
X1102853Y1638219D1*
X1094016Y1637524D1*
X1085178Y1638219D1*
X1081389Y1638973D1*
X1083902Y1632792D1*
X1085605Y1625698D1*
X1086177Y1618425D1*
X1085605Y1611152D1*
X1083902Y1604058D1*
X1081110Y1597318D1*
X1077298Y1591098D1*
X1072560Y1585550D1*
X1067012Y1580812D1*
X1060792Y1577000D1*
X1054052Y1574209D1*
X1046958Y1572505D1*
X1039685Y1571933D1*
X1032412Y1572505D1*
X1025318Y1574209D1*
X1018578Y1577000D1*
X1012358Y1580812D1*
X1006810Y1585550D1*
X1002072Y1591098D1*
X998260Y1597318D1*
X995468Y1604058D1*
X993765Y1611152D1*
X993193Y1618425D1*
X993765Y1625698D1*
X995468Y1632792D1*
X997383Y1637629D1*
X989583Y1637698D1*
X980828Y1639085D1*
X972397Y1641824D1*
X964499Y1645848D1*
X957327Y1651059D1*
X951059Y1657327D1*
X945848Y1664499D1*
X944028Y1667749D1*
X939719Y1660811D1*
X933962Y1654070D1*
X927221Y1648313D1*
X919663Y1643681D1*
X911473Y1640289D1*
X902853Y1638219D1*
X894016Y1637524D1*
X885178Y1638219D1*
X876559Y1640289D1*
X874332Y1641110D1*
X871516Y1636536D1*
X868044Y1632473D1*
X728013Y1492441D1*
X728008Y1449998D1*
X750008Y1450008D1*
Y1338023D1*
X728657D1*
X733608Y1333608D1*
X739314Y1326927D1*
X743905Y1319436D1*
X747267Y1311318D1*
X749319Y1302775D1*
X750008Y1294016D1*
X749319Y1285257D1*
X747267Y1276713D1*
X743905Y1268596D1*
X739314Y1261104D1*
X733608Y1254423D1*
X726927Y1248717D1*
X719202Y1244019D1*
X726927Y1239314D1*
X733608Y1233608D1*
X739314Y1226927D1*
X743905Y1219436D1*
X747267Y1211318D1*
X749319Y1202775D1*
X750008Y1194016D1*
X749319Y1185257D1*
X747267Y1176713D1*
X743905Y1168596D1*
X739314Y1161104D1*
X733608Y1154423D1*
X726927Y1148717D1*
X719202Y1144019D1*
X726927Y1139314D1*
X733608Y1133608D1*
X739314Y1126927D1*
X743905Y1119436D1*
X747267Y1111318D1*
X749319Y1102775D1*
X750008Y1094016D1*
X749319Y1085257D1*
X747267Y1076713D1*
X743905Y1068596D1*
X739314Y1061104D1*
X733608Y1054423D1*
X726927Y1048717D1*
X719202Y1044019D1*
X726927Y1039314D1*
X733608Y1033608D1*
X739314Y1026927D1*
X743905Y1019436D1*
X747267Y1011318D1*
X749319Y1002775D1*
X750008Y994016D1*
X749319Y985257D1*
X747267Y976713D1*
X743905Y968596D1*
X739314Y961104D1*
X733608Y954423D1*
X726927Y948717D1*
X719202Y944019D1*
X726927Y939314D1*
X733608Y933608D1*
X739314Y926927D1*
X743905Y919436D1*
X747267Y911318D1*
X749319Y902775D1*
X750008Y894016D1*
X749319Y885257D1*
X747267Y876713D1*
X743905Y868596D1*
X739314Y861104D1*
X733608Y854423D1*
X726927Y848717D1*
X719202Y844019D1*
X726927Y839314D1*
X733608Y833608D1*
X739314Y826927D1*
X743905Y819436D1*
X747267Y811318D1*
X748860Y805082D1*
X751062Y811808D1*
X754375Y818308D1*
X758663Y824210D1*
X780628Y846378D1*
X1139086Y1204836D1*
X1140764Y1211318D1*
X1144126Y1219436D1*
X1148717Y1226927D1*
X1154423Y1233608D1*
X1161104Y1239314D1*
X1168596Y1243905D1*
X1176713Y1247267D1*
X1185257Y1249319D1*
X1194016Y1250008D1*
X1202775Y1249319D1*
X1211318Y1247267D1*
X1219436Y1243905D1*
X1226927Y1239314D1*
X1233608Y1233608D1*
X1239314Y1226927D1*
X1243905Y1219436D1*
X1247267Y1211318D1*
X1249319Y1202775D1*
X1250008Y1194016D1*
X1249319Y1185257D1*
X1247267Y1176713D1*
X1243905Y1168596D1*
X1239314Y1161104D1*
X1233608Y1154423D1*
X1226927Y1148717D1*
X1219202Y1144019D1*
X1226927Y1139314D1*
X1233608Y1133608D1*
X1239314Y1126927D1*
X1243905Y1119436D1*
X1247267Y1111318D1*
X1249319Y1102775D1*
X1250008Y1094016D1*
X1249319Y1085257D1*
X1247267Y1076713D1*
X1243905Y1068596D1*
X1239314Y1061104D1*
X1233608Y1054423D1*
X1226927Y1048717D1*
X1219202Y1044019D1*
X1226927Y1039314D1*
X1233608Y1033608D1*
X1239314Y1026927D1*
X1243905Y1019436D1*
X1247267Y1011318D1*
X1249319Y1002775D1*
X1250008Y994016D1*
X1249319Y985257D1*
X1247267Y976713D1*
X1243905Y968596D1*
X1239314Y961104D1*
X1233608Y954423D1*
X1226927Y948717D1*
X1219202Y944019D1*
X1226927Y939314D1*
X1233608Y933608D1*
X1239314Y926927D1*
X1243905Y919436D1*
X1247267Y911318D1*
X1249319Y902775D1*
X1250008Y894016D1*
X1249319Y885257D1*
X1247267Y876713D1*
X1243905Y868596D1*
X1239314Y861104D1*
X1233608Y854423D1*
X1226927Y848717D1*
X1219202Y844019D1*
X1226927Y839314D1*
X1233608Y833608D1*
X1239314Y826927D1*
X1243905Y819436D1*
X1247267Y811318D1*
X1249319Y802775D1*
X1250008Y794016D1*
X1249319Y785257D1*
X1247267Y776713D1*
X1243905Y768596D1*
X1239314Y761104D1*
X1233608Y754423D1*
X1226927Y748717D1*
X1219436Y744126D1*
X1211318Y740764D1*
X1202775Y738713D1*
X1194016Y738024D1*
X1185257Y738713D1*
X1176713Y740764D1*
X1168596Y744126D1*
X1161104Y748717D1*
X1154423Y754423D1*
X1148717Y761104D1*
X1144126Y768596D1*
X1141222Y775473D1*
X1140508Y766457D1*
Y575302D1*
X1143930Y569448D1*
X1147294Y561327D1*
X1149346Y552779D1*
X1150035Y544016D1*
X1149346Y535252D1*
X1147294Y526705D1*
X1143930Y518583D1*
X1139337Y511088D1*
X1133628Y504404D1*
X1126943Y498695D1*
X1119448Y494102D1*
X1111327Y490738D1*
X1102779Y488686D1*
X1094016Y487996D1*
X1085252Y488686D1*
X1076705Y490738D1*
X1068583Y494102D1*
X1061088Y498695D1*
X1054404Y504404D1*
X1048695Y511088D1*
X1044023Y518755D1*
X1039337Y511088D1*
X1033628Y504404D1*
X1026943Y498695D1*
X1019448Y494102D1*
X1011327Y490738D1*
X1002779Y488686D1*
X994016Y487996D1*
X985252Y488686D1*
X976705Y490738D1*
X968583Y494102D1*
X961088Y498695D1*
X954404Y504404D1*
X948695Y511088D1*
X944023Y518755D1*
X939337Y511088D1*
X933628Y504404D1*
X926943Y498695D1*
X919448Y494102D1*
X911327Y490738D1*
X902779Y488686D1*
X894016Y487996D1*
X885252Y488686D1*
X876705Y490738D1*
X868583Y494102D1*
X861088Y498695D1*
X854404Y504404D1*
X850046Y509375D1*
X850035Y487996D1*
X737996D1*
Y600035D1*
X747182D1*
X2897182D2*
X2897505D1*
X2897523Y677541D1*
X2895746Y672588D1*
X2891757Y664760D1*
X2886592Y657652D1*
X2880380Y651439D1*
X2873272Y646275D1*
X2865443Y642286D1*
X2857087Y639571D1*
X2848409Y638196D1*
X2839623D1*
X2830945Y639571D1*
X2822588Y642286D1*
X2814760Y646275D1*
X2807652Y651439D1*
X2801439Y657652D1*
X2796275Y664760D1*
X2792286Y672588D1*
X2789571Y680945D1*
X2788196Y689623D1*
Y698409D1*
X2789571Y707087D1*
X2792286Y715443D1*
X2796275Y723272D1*
X2801439Y730380D1*
X2807652Y736592D1*
X2814760Y741757D1*
X2818830Y744013D1*
X2811104Y748717D1*
X2804423Y754423D1*
X2798440Y761519D1*
X2791466Y761624D1*
X2786431Y762421D1*
X2781582Y763997D1*
X2777039Y766312D1*
X2772914Y769309D1*
X2725570Y816510D1*
X2719309Y822914D1*
X2716312Y827039D1*
X2713997Y831582D1*
X2712421Y836431D1*
X2711624Y841466D1*
X2711524Y908320D1*
Y1455590D1*
X2632054Y1535027D1*
X2624243Y1535596D1*
X2617149Y1537299D1*
X2610409Y1540091D1*
X2604188Y1543903D1*
X2598641Y1548641D1*
X2593903Y1554188D1*
X2590091Y1560409D1*
X2587299Y1567149D1*
X2585596Y1574243D1*
X2585024Y1581516D1*
X2585596Y1588789D1*
X2587299Y1595883D1*
X2590091Y1602623D1*
X2593903Y1608843D1*
X2598641Y1614391D1*
X2604188Y1619129D1*
X2610409Y1622941D1*
X2617149Y1625732D1*
X2624243Y1627435D1*
X2631516Y1628008D1*
X2638789Y1627435D1*
X2645883Y1625732D1*
X2652623Y1622941D1*
X2658843Y1619129D1*
X2664391Y1614391D1*
X2669129Y1608843D1*
X2672941Y1602623D1*
X2675732Y1595883D1*
X2677435Y1588789D1*
X2677987Y1580989D1*
X2768723Y1490118D1*
X2771720Y1485993D1*
X2774035Y1481450D1*
X2775610Y1476601D1*
X2776408Y1471565D1*
X2776508Y1404711D1*
Y857442D1*
X2802439Y831544D1*
X2807652Y836592D1*
X2814760Y841757D1*
X2818830Y844013D1*
X2811104Y848717D1*
X2804423Y854423D1*
X2798717Y861104D1*
X2794126Y868596D1*
X2790764Y876713D1*
X2788713Y885257D1*
X2788024Y894016D1*
X2788713Y902775D1*
X2790764Y911318D1*
X2794126Y919436D1*
X2798717Y926927D1*
X2804423Y933608D1*
X2811104Y939314D1*
X2818830Y944013D1*
X2811104Y948717D1*
X2804423Y954423D1*
X2798717Y961104D1*
X2794126Y968596D1*
X2790764Y976713D1*
X2788713Y985257D1*
X2788024Y994016D1*
X2788713Y1002775D1*
X2790764Y1011318D1*
X2794126Y1019436D1*
X2798717Y1026927D1*
X2804423Y1033608D1*
X2811104Y1039314D1*
X2818830Y1044013D1*
X2811104Y1048717D1*
X2804423Y1054423D1*
X2798717Y1061104D1*
X2794126Y1068596D1*
X2790764Y1076713D1*
X2788713Y1085257D1*
X2788024Y1094016D1*
X2788713Y1102775D1*
X2790764Y1111318D1*
X2794126Y1119436D1*
X2798717Y1126927D1*
X2804423Y1133608D1*
X2811104Y1139314D1*
X2818830Y1144013D1*
X2811104Y1148717D1*
X2804423Y1154423D1*
X2798717Y1161104D1*
X2794126Y1168596D1*
X2790764Y1176713D1*
X2788713Y1185257D1*
X2788024Y1194016D1*
X2788713Y1202775D1*
X2790764Y1211318D1*
X2794126Y1219436D1*
X2798717Y1226927D1*
X2804423Y1233608D1*
X2811104Y1239314D1*
X2818830Y1244013D1*
X2811104Y1248717D1*
X2804423Y1254423D1*
X2798717Y1261104D1*
X2794126Y1268596D1*
X2790764Y1276713D1*
X2788713Y1285257D1*
X2788024Y1294016D1*
X2788713Y1302775D1*
X2790764Y1311318D1*
X2794126Y1319436D1*
X2798717Y1326927D1*
X2804423Y1333608D1*
X2809472Y1338028D1*
X2788024Y1338023D1*
Y1450008D1*
X2900008D1*
Y1338023D1*
X2878657D1*
X2883608Y1333608D1*
X2889314Y1326927D1*
X2893905Y1319436D1*
X2897267Y1311318D1*
X2899319Y1302775D1*
X2900008Y1294016D1*
X2899319Y1285257D1*
X2897267Y1276713D1*
X2893905Y1268596D1*
X2889314Y1261104D1*
X2883608Y1254423D1*
X2876927Y1248717D1*
X2869202Y1244019D1*
X2876927Y1239314D1*
X2883608Y1233608D1*
X2889314Y1226927D1*
X2893905Y1219436D1*
X2897267Y1211318D1*
X2899319Y1202775D1*
X2900008Y1194016D1*
X2899319Y1185257D1*
X2897267Y1176713D1*
X2893905Y1168596D1*
X2889314Y1161104D1*
X2883608Y1154423D1*
X2876927Y1148717D1*
X2869202Y1144019D1*
X2876927Y1139314D1*
X2883608Y1133608D1*
X2889314Y1126927D1*
X2893905Y1119436D1*
X2897267Y1111318D1*
X2899319Y1102775D1*
X2900008Y1094016D1*
X2899319Y1085257D1*
X2897267Y1076713D1*
X2893905Y1068596D1*
X2889314Y1061104D1*
X2883608Y1054423D1*
X2876927Y1048717D1*
X2869202Y1044019D1*
X2876927Y1039314D1*
X2883608Y1033608D1*
X2889314Y1026927D1*
X2893905Y1019436D1*
X2897267Y1011318D1*
X2899319Y1002775D1*
X2900008Y994016D1*
X2899319Y985257D1*
X2897267Y976713D1*
X2893905Y968596D1*
X2889314Y961104D1*
X2883608Y954423D1*
X2876927Y948717D1*
X2869202Y944019D1*
X2876927Y939314D1*
X2883608Y933608D1*
X2889314Y926927D1*
X2893905Y919436D1*
X2897267Y911318D1*
X2899319Y902775D1*
X2900008Y894016D1*
X2899319Y885257D1*
X2897267Y876713D1*
X2893905Y868596D1*
X2889314Y861104D1*
X2883608Y854423D1*
X2876927Y848717D1*
X2869202Y844019D1*
X2876927Y839314D1*
X2883608Y833608D1*
X2889314Y826927D1*
X2893905Y819436D1*
X2897267Y811318D1*
X2898860Y805082D1*
X2901063Y811808D1*
X2904375Y818308D1*
X2908663Y824210D1*
X2930628Y846378D1*
X3289099Y1204849D1*
X3290764Y1211318D1*
X3294126Y1219436D1*
X3298717Y1226927D1*
X3304423Y1233608D1*
X3311104Y1239314D1*
X3318596Y1243905D1*
X3326713Y1247267D1*
X3335257Y1249319D1*
X3344016Y1250008D1*
X3352775Y1249319D1*
X3361318Y1247267D1*
X3369436Y1243905D1*
X3376927Y1239314D1*
X3383608Y1233608D1*
X3384529Y1232612D1*
X3384524Y1355330D1*
X3380380Y1351439D1*
X3373272Y1346275D1*
X3365443Y1342286D1*
X3357087Y1339571D1*
X3348409Y1338196D1*
X3339623D1*
X3330945Y1339571D1*
X3322588Y1342286D1*
X3314760Y1346275D1*
X3307652Y1351439D1*
X3301439Y1357652D1*
X3296275Y1364760D1*
X3292286Y1372588D1*
X3289571Y1380945D1*
X3288196Y1389623D1*
Y1398409D1*
X3289571Y1407087D1*
X3292286Y1415443D1*
X3296275Y1423272D1*
X3301439Y1430380D1*
X3307652Y1436592D1*
X3314760Y1441757D1*
X3322588Y1445746D1*
X3330945Y1448461D1*
X3339623Y1449835D1*
X3348409D1*
X3357087Y1448461D1*
X3365443Y1445746D1*
X3373272Y1441757D1*
X3380380Y1436592D1*
X3384529Y1432612D1*
X3384524Y2012871D1*
X3381403Y2016688D1*
X3377591Y2022909D1*
X3374799Y2029649D1*
X3373096Y2036743D1*
X3372524Y2044016D1*
X3373096Y2051289D1*
X3374799Y2058383D1*
X3377591Y2065123D1*
X3381403Y2071343D1*
X3386141Y2076891D1*
X3391688Y2081629D1*
X3397909Y2085441D1*
X3404649Y2088232D1*
X3411743Y2089935D1*
X3419016Y2090508D1*
X3426289Y2089935D1*
X3433383Y2088232D1*
X3440123Y2085441D1*
X3446343Y2081629D1*
X3451891Y2076891D1*
X3456629Y2071343D1*
X3460441Y2065123D1*
X3463232Y2058383D1*
X3464935Y2051289D1*
X3465508Y2044016D1*
X3465368Y2040365D1*
X3472663D1*
X3479869Y2039223D1*
X3486808Y2036969D1*
X3493308Y2033657D1*
X3499210Y2029369D1*
X3504369Y2024210D1*
X3508657Y2018308D1*
X3511969Y2011808D1*
X3514223Y2004869D1*
X3515365Y1997663D1*
Y1990368D1*
X3514223Y1983162D1*
X3511969Y1976224D1*
X3508657Y1969724D1*
X3504369Y1963822D1*
X3503507Y1962890D1*
X3503508Y933315D1*
X3553821Y882990D1*
X3557652Y886592D1*
X3564760Y891757D1*
X3568830Y894013D1*
X3561104Y898717D1*
X3554423Y904423D1*
X3548717Y911104D1*
X3544126Y918596D1*
X3540764Y926713D1*
X3538713Y935257D1*
X3538024Y944016D1*
X3538713Y952775D1*
X3540764Y961318D1*
X3544126Y969436D1*
X3548717Y976927D1*
X3554423Y983608D1*
X3561104Y989314D1*
X3568830Y994013D1*
X3561104Y998717D1*
X3554423Y1004423D1*
X3548717Y1011104D1*
X3544126Y1018596D1*
X3540764Y1026713D1*
X3538713Y1035257D1*
X3538024Y1044016D1*
X3538713Y1052775D1*
X3540764Y1061318D1*
X3544126Y1069436D1*
X3548717Y1076927D1*
X3554423Y1083608D1*
X3561104Y1089314D1*
X3568830Y1094013D1*
X3561104Y1098717D1*
X3554423Y1104423D1*
X3548717Y1111104D1*
X3544126Y1118596D1*
X3540764Y1126713D1*
X3538713Y1135257D1*
X3538024Y1144016D1*
X3538713Y1152775D1*
X3540764Y1161318D1*
X3544126Y1169436D1*
X3548717Y1176927D1*
X3554423Y1183608D1*
X3561104Y1189314D1*
X3568830Y1194013D1*
X3561104Y1198717D1*
X3554423Y1204423D1*
X3548717Y1211104D1*
X3544126Y1218596D1*
X3540764Y1226713D1*
X3538713Y1235257D1*
X3538024Y1244016D1*
X3538713Y1252775D1*
X3540764Y1261318D1*
X3544126Y1269436D1*
X3548717Y1276927D1*
X3554423Y1283608D1*
X3561104Y1289314D1*
X3568830Y1294013D1*
X3561104Y1298717D1*
X3554423Y1304423D1*
X3548717Y1311104D1*
X3544126Y1318596D1*
X3540764Y1326713D1*
X3538713Y1335257D1*
X3538024Y1344016D1*
X3538713Y1352775D1*
X3540764Y1361318D1*
X3544126Y1369436D1*
X3548717Y1376927D1*
X3554423Y1383608D1*
X3559472Y1388028D1*
X3538024Y1388023D1*
Y1500008D1*
X3650008D1*
Y1388023D1*
X3628657D1*
X3633608Y1383608D1*
X3639314Y1376927D1*
X3643905Y1369436D1*
X3647267Y1361318D1*
X3649319Y1352775D1*
X3650008Y1344016D1*
X3649319Y1335257D1*
X3647267Y1326713D1*
X3643905Y1318596D1*
X3639314Y1311104D1*
X3633608Y1304423D1*
X3626927Y1298717D1*
X3619202Y1294019D1*
X3626927Y1289314D1*
X3633608Y1283608D1*
X3639314Y1276927D1*
X3643905Y1269436D1*
X3647267Y1261318D1*
X3649319Y1252775D1*
X3650008Y1244016D1*
X3649319Y1235257D1*
X3647267Y1226713D1*
X3643905Y1218596D1*
X3639314Y1211104D1*
X3633608Y1204423D1*
X3626927Y1198717D1*
X3619202Y1194019D1*
X3626927Y1189314D1*
X3633608Y1183608D1*
X3639314Y1176927D1*
X3643905Y1169436D1*
X3647267Y1161318D1*
X3649319Y1152775D1*
X3650008Y1144016D1*
X3649319Y1135257D1*
X3647267Y1126713D1*
X3643905Y1118596D1*
X3639314Y1111104D1*
X3633608Y1104423D1*
X3626927Y1098717D1*
X3619202Y1094019D1*
X3626927Y1089314D1*
X3633608Y1083608D1*
X3639314Y1076927D1*
X3643905Y1069436D1*
X3647267Y1061318D1*
X3649319Y1052775D1*
X3650008Y1044016D1*
X3649319Y1035257D1*
X3647267Y1026713D1*
X3643905Y1018596D1*
X3639314Y1011104D1*
X3633608Y1004423D1*
X3626927Y998717D1*
X3619202Y994019D1*
X3626927Y989314D1*
X3633608Y983608D1*
X3639314Y976927D1*
X3643905Y969436D1*
X3647267Y961318D1*
X3649319Y952775D1*
X3650008Y944016D1*
X3649319Y935257D1*
X3647267Y926713D1*
X3643905Y918596D1*
X3639314Y911104D1*
X3633608Y904423D1*
X3626927Y898717D1*
X3619202Y894019D1*
X3626927Y889314D1*
X3633608Y883608D1*
X3639314Y876927D1*
X3643905Y869436D1*
X3646810Y862559D1*
X4039054Y1254804D1*
X4040764Y1261318D1*
X4044126Y1269436D1*
X4048717Y1276927D1*
X4054423Y1283608D1*
X4061104Y1289314D1*
X4068596Y1293905D1*
X4076713Y1297267D1*
X4085257Y1299319D1*
X4094016Y1300008D1*
X4102775Y1299319D1*
X4111318Y1297267D1*
X4119436Y1293905D1*
X4126927Y1289314D1*
X4133608Y1283608D1*
X4139314Y1276927D1*
X4143905Y1269436D1*
X4147267Y1261318D1*
X4149319Y1252775D1*
X4150008Y1244016D1*
X4149319Y1235257D1*
X4147267Y1226713D1*
X4143905Y1218596D1*
X4139314Y1211104D1*
X4133608Y1204423D1*
X4126927Y1198717D1*
X4119202Y1194019D1*
X4126927Y1189314D1*
X4133608Y1183608D1*
X4139314Y1176927D1*
X4143905Y1169436D1*
X4147267Y1161318D1*
X4149319Y1152775D1*
X4150008Y1144016D1*
X4149319Y1135257D1*
X4147267Y1126713D1*
X4143905Y1118596D1*
X4139314Y1111104D1*
X4133608Y1104423D1*
X4126927Y1098717D1*
X4119202Y1094019D1*
X4126927Y1089314D1*
X4133608Y1083608D1*
X4139314Y1076927D1*
X4143905Y1069436D1*
X4147267Y1061318D1*
X4149319Y1052775D1*
X4150008Y1044016D1*
X4149319Y1035257D1*
X4147267Y1026713D1*
X4143905Y1018596D1*
X4139314Y1011104D1*
X4133608Y1004423D1*
X4126927Y998717D1*
X4119202Y994019D1*
X4126927Y989314D1*
X4133608Y983608D1*
X4139314Y976927D1*
X4143905Y969436D1*
X4147267Y961318D1*
X4149319Y952775D1*
X4150008Y944016D1*
X4149319Y935257D1*
X4147267Y926713D1*
X4143905Y918596D1*
X4139314Y911104D1*
X4133608Y904423D1*
X4126927Y898717D1*
X4119202Y894019D1*
X4126927Y889314D1*
X4133608Y883608D1*
X4139314Y876927D1*
X4143905Y869436D1*
X4147267Y861318D1*
X4149319Y852775D1*
X4150008Y844016D1*
X4149319Y835257D1*
X4147267Y826713D1*
X4143905Y818596D1*
X4139314Y811104D1*
X4133608Y804423D1*
X4126927Y798717D1*
X4119436Y794126D1*
X4111318Y790764D1*
X4102775Y788713D1*
X4094016Y788024D1*
X4085257Y788713D1*
X4076713Y790764D1*
X4068596Y794126D1*
X4061104Y798717D1*
X4054423Y804423D1*
X4048717Y811104D1*
X4044126Y818596D1*
X4041222Y825473D1*
X4015524Y799774D1*
X4015508Y575254D1*
X4018930Y569448D1*
X4022294Y561327D1*
X4024346Y552779D1*
X4025035Y544016D1*
X4024346Y535252D1*
X4022294Y526705D1*
X4018930Y518583D1*
X4014337Y511088D1*
X4008628Y504404D1*
X4001943Y498695D1*
X3994448Y494102D1*
X3986327Y490738D1*
X3977779Y488686D1*
X3969016Y487996D1*
X3960252Y488686D1*
X3951705Y490738D1*
X3943583Y494102D1*
X3936088Y498695D1*
X3929404Y504404D1*
X3923695Y511088D1*
X3919023Y518755D1*
X3914337Y511088D1*
X3908628Y504404D1*
X3901943Y498695D1*
X3894448Y494102D1*
X3886327Y490738D1*
X3877779Y488686D1*
X3869016Y487996D1*
X3860252Y488686D1*
X3851705Y490738D1*
X3843583Y494102D1*
X3836088Y498695D1*
X3829404Y504404D1*
X3823695Y511088D1*
X3819023Y518755D1*
X3814337Y511088D1*
X3808628Y504404D1*
X3801943Y498695D1*
X3794448Y494102D1*
X3786327Y490738D1*
X3777779Y488686D1*
X3769016Y487996D1*
X3760252Y488686D1*
X3751705Y490738D1*
X3743583Y494102D1*
X3736088Y498695D1*
X3729404Y504404D1*
X3725046Y509375D1*
X3725036Y487996D1*
X3612996D1*
Y600035D1*
X3622505D1*
X3622524Y695842D1*
X3615443Y692286D1*
X3607087Y689571D1*
X3598409Y688196D1*
X3589623D1*
X3580945Y689571D1*
X3572588Y692286D1*
X3564760Y696275D1*
X3557652Y701439D1*
X3551439Y707652D1*
X3549961Y709526D1*
X3516310Y709630D1*
X3510964Y710477D1*
X3505816Y712149D1*
X3500994Y714606D1*
X3496615Y717788D1*
X3455652Y758600D1*
X3392781Y821623D1*
X3395746Y815443D1*
X3398461Y807087D1*
X3399835Y798409D1*
Y789623D1*
X3398461Y780945D1*
X3395746Y772588D1*
X3391757Y764760D1*
X3386592Y757652D1*
X3380380Y751439D1*
X3373272Y746275D1*
X3365443Y742286D1*
X3357087Y739571D1*
X3348409Y738196D1*
X3339623D1*
X3330945Y739571D1*
X3322588Y742286D1*
X3314760Y746275D1*
X3307652Y751439D1*
X3301439Y757652D1*
X3296275Y764760D1*
X3292286Y772588D1*
X3291222Y775473D1*
X3290508Y766457D1*
Y575302D1*
X3293930Y569448D1*
X3297294Y561327D1*
X3299346Y552779D1*
X3300035Y544016D1*
X3299346Y535252D1*
X3297294Y526705D1*
X3293930Y518583D1*
X3289337Y511088D1*
X3283628Y504404D1*
X3276943Y498695D1*
X3269448Y494102D1*
X3261327Y490738D1*
X3252779Y488686D1*
X3244016Y487996D1*
X3235252Y488686D1*
X3226705Y490738D1*
X3218583Y494102D1*
X3211088Y498695D1*
X3204404Y504404D1*
X3198695Y511088D1*
X3194023Y518755D1*
X3189337Y511088D1*
X3183628Y504404D1*
X3176943Y498695D1*
X3169448Y494102D1*
X3161327Y490738D1*
X3152779Y488686D1*
X3144016Y487996D1*
X3135252Y488686D1*
X3126705Y490738D1*
X3118583Y494102D1*
X3111088Y498695D1*
X3104404Y504404D1*
X3098695Y511088D1*
X3094023Y518755D1*
X3089337Y511088D1*
X3083628Y504404D1*
X3076943Y498695D1*
X3069448Y494102D1*
X3061327Y490738D1*
X3052779Y488686D1*
X3044016Y487996D1*
X3035252Y488686D1*
X3026705Y490738D1*
X3018583Y494102D1*
X3011088Y498695D1*
X3004404Y504404D1*
X3000046Y509375D1*
X3000036Y487996D1*
X2887996D1*
Y600035D1*
X2897182D1*
X2547183Y3100035D2*
X2650036D1*
Y3078684D1*
X2654404Y3083628D1*
X2661088Y3089337D1*
X2668583Y3093930D1*
X2676705Y3097294D1*
X2685252Y3099346D1*
X2694016Y3100035D1*
X2702779Y3099346D1*
X2711327Y3097294D1*
X2719448Y3093930D1*
X2726943Y3089337D1*
X2733628Y3083628D1*
X2739337Y3076943D1*
X2744009Y3069277D1*
X2748695Y3076943D1*
X2754404Y3083628D1*
X2761088Y3089337D1*
X2768583Y3093930D1*
X2776705Y3097294D1*
X2785252Y3099346D1*
X2794016Y3100035D1*
X2802779Y3099346D1*
X2811327Y3097294D1*
X2819448Y3093930D1*
X2826943Y3089337D1*
X2833628Y3083628D1*
X2839337Y3076943D1*
X2843930Y3069448D1*
X2847294Y3061327D1*
X2849346Y3052779D1*
X2850035Y3044016D1*
X2849346Y3035252D1*
X2847294Y3026705D1*
X2843930Y3018583D1*
X2839337Y3011088D1*
X2833628Y3004404D1*
X2826943Y2998695D1*
X2819448Y2994102D1*
X2811327Y2990738D1*
X2802779Y2988686D1*
X2794016Y2987996D1*
X2785252Y2988686D1*
X2776705Y2990738D1*
X2768583Y2994102D1*
X2761088Y2998695D1*
X2754404Y3004404D1*
X2748695Y3011088D1*
X2744023Y3018755D1*
X2739337Y3011088D1*
X2733628Y3004404D1*
X2726943Y2998695D1*
X2719448Y2994102D1*
X2711327Y2990738D1*
X2702779Y2988686D1*
X2694016Y2987996D1*
X2685252Y2988686D1*
X2676705Y2990738D1*
X2668583Y2994102D1*
X2661088Y2998695D1*
X2654404Y3004404D1*
X2650046Y3009375D1*
X2650036Y2987996D1*
X2626531D1*
X2626508Y2214768D1*
X2631629Y2208843D1*
X2635441Y2202623D1*
X2638232Y2195883D1*
X2639935Y2188789D1*
X2640508Y2181516D1*
X2639935Y2174243D1*
X2638232Y2167149D1*
X2635441Y2160409D1*
X2631629Y2154188D1*
X2626891Y2148641D1*
X2621343Y2143903D1*
X2615123Y2140091D1*
X2608383Y2137299D1*
X2601289Y2135596D1*
X2594016Y2135024D1*
X2586743Y2135596D1*
X2579649Y2137299D1*
X2572909Y2140091D1*
X2566688Y2143903D1*
X2561141Y2148641D1*
X2556403Y2154188D1*
X2552591Y2160409D1*
X2549799Y2167149D1*
X2548096Y2174243D1*
X2547524Y2181516D1*
X2548096Y2188789D1*
X2549799Y2195883D1*
X2552591Y2202623D1*
X2556403Y2208843D1*
X2561528Y2214749D1*
X2561524Y2988013D1*
X2537996Y2987996D1*
Y3100035D1*
X2547183D1*
X747183D2*
X850036D1*
Y3078684D1*
X854404Y3083628D1*
X861088Y3089337D1*
X868583Y3093930D1*
X876705Y3097294D1*
X885252Y3099346D1*
X894016Y3100035D1*
X902779Y3099346D1*
X911327Y3097294D1*
X919448Y3093930D1*
X926943Y3089337D1*
X933628Y3083628D1*
X939337Y3076943D1*
X944009Y3069277D1*
X948695Y3076943D1*
X954404Y3083628D1*
X961088Y3089337D1*
X968583Y3093930D1*
X976705Y3097294D1*
X985252Y3099346D1*
X994016Y3100035D1*
X1002779Y3099346D1*
X1011327Y3097294D1*
X1019448Y3093930D1*
X1026943Y3089337D1*
X1033628Y3083628D1*
X1039337Y3076943D1*
X1044009Y3069277D1*
X1048695Y3076943D1*
X1054404Y3083628D1*
X1061088Y3089337D1*
X1068583Y3093930D1*
X1076705Y3097294D1*
X1085252Y3099346D1*
X1094016Y3100035D1*
X1102779Y3099346D1*
X1111327Y3097294D1*
X1119448Y3093930D1*
X1126943Y3089337D1*
X1133628Y3083628D1*
X1139337Y3076943D1*
X1144009Y3069277D1*
X1148695Y3076943D1*
X1154404Y3083628D1*
X1161088Y3089337D1*
X1168583Y3093930D1*
X1176705Y3097294D1*
X1185252Y3099346D1*
X1194016Y3100035D1*
X1202779Y3099346D1*
X1211327Y3097294D1*
X1219448Y3093930D1*
X1226943Y3089337D1*
X1233628Y3083628D1*
X1239337Y3076943D1*
X1243930Y3069448D1*
X1247294Y3061327D1*
X1249346Y3052779D1*
X1250035Y3044016D1*
X1249346Y3035252D1*
X1247294Y3026705D1*
X1243930Y3018583D1*
X1239337Y3011088D1*
X1233628Y3004404D1*
X1226943Y2998695D1*
X1219448Y2994102D1*
X1211327Y2990738D1*
X1202779Y2988686D1*
X1194016Y2987996D1*
X1185252Y2988686D1*
X1176705Y2990738D1*
X1168583Y2994102D1*
X1161088Y2998695D1*
X1154404Y3004404D1*
X1148695Y3011088D1*
X1144023Y3018755D1*
X1139337Y3011088D1*
X1133628Y3004404D1*
X1126943Y2998695D1*
X1119448Y2994102D1*
X1111327Y2990738D1*
X1102779Y2988686D1*
X1094016Y2987996D1*
X1085252Y2988686D1*
X1076705Y2990738D1*
X1068583Y2994102D1*
X1061088Y2998695D1*
X1054404Y3004404D1*
X1048695Y3011088D1*
X1044023Y3018755D1*
X1039337Y3011088D1*
X1033628Y3004404D1*
X1026943Y2998695D1*
X1019448Y2994102D1*
X1011327Y2990738D1*
X1002779Y2988686D1*
X994016Y2987996D1*
X985252Y2988686D1*
X976705Y2990738D1*
X968583Y2994102D1*
X961088Y2998695D1*
X954404Y3004404D1*
X948695Y3011088D1*
X944023Y3018755D1*
X939337Y3011088D1*
X933628Y3004404D1*
X926943Y2998695D1*
X919448Y2994102D1*
X911327Y2990738D1*
X902779Y2988686D1*
X894016Y2987996D1*
X885252Y2988686D1*
X876705Y2990738D1*
X868583Y2994102D1*
X861088Y2998695D1*
X854404Y3004404D1*
X850046Y3009375D1*
X850036Y2987996D1*
X737996D1*
Y3100035D1*
X747183D1*
X3962536Y2251599D2*
Y2157681D1*
X3850496D1*
Y2251590D1*
X3356630Y2251487D1*
X3258002Y2152858D1*
X3258008Y2144363D1*
X3261969Y2136808D1*
X3264223Y2129869D1*
X3265365Y2122663D1*
Y2115368D1*
X3264223Y2108162D1*
X3261969Y2101224D1*
X3258205Y2094048D1*
X3261969Y2086808D1*
X3264223Y2079869D1*
X3265365Y2072663D1*
Y2065368D1*
X3264223Y2058162D1*
X3261969Y2051224D1*
X3258657Y2044724D1*
X3254369Y2038822D1*
X3249210Y2033663D1*
X3243308Y2029375D1*
X3236808Y2026063D1*
X3229869Y2023808D1*
X3222663Y2022667D1*
X3215368D1*
X3208162Y2023808D1*
X3201224Y2026063D1*
X3194724Y2029375D1*
X3188822Y2033663D1*
X3184350Y2038078D1*
X2607180Y2038077D1*
X2523197Y1954091D1*
X2522644Y1946297D1*
X2520941Y1939203D1*
X2518149Y1932463D1*
X2514337Y1926242D1*
X2509599Y1920695D1*
X2504052Y1915957D1*
X2497831Y1912145D1*
X2491091Y1909353D1*
X2483997Y1907650D1*
X2476724Y1907077D1*
X2469451Y1907650D1*
X2462358Y1909353D1*
X2455617Y1912145D1*
X2449397Y1915957D1*
X2443850Y1920695D1*
X2439111Y1926242D1*
X2435300Y1932463D1*
X2432508Y1939203D1*
X2430805Y1946297D1*
X2430232Y1953570D1*
X2430805Y1960843D1*
X2432508Y1967936D1*
X2435300Y1974677D1*
X2439111Y1980897D1*
X2443850Y1986444D1*
X2449397Y1991182D1*
X2455617Y1994994D1*
X2462358Y1997786D1*
X2469451Y1999489D1*
X2477252Y2000041D1*
X2572622Y2095277D1*
X2576747Y2098274D1*
X2581290Y2100588D1*
X2586139Y2102164D1*
X2591175Y2102962D1*
X2658029Y2103062D1*
X3175371D1*
X3173808Y2108162D1*
X3172667Y2115368D1*
Y2122663D1*
X3173808Y2129869D1*
X3176063Y2136808D1*
X3179375Y2143308D1*
X3180016Y2144268D1*
X3180144Y2172075D1*
X3181101Y2178118D1*
X3182992Y2183937D1*
X3185769Y2189389D1*
X3189366Y2194339D1*
X3223923Y2229066D1*
X3314584Y2319727D1*
X3314587Y3255539D1*
X426173Y3255531D1*
X426201Y445920D1*
X4279181Y445886D1*
X4279153Y2251602D1*
X3962560Y2251594D1*
X564731Y2318819D2*
X563454Y2310759D1*
X560933Y2302999D1*
X557228Y2295728D1*
X552432Y2289127D1*
X546662Y2283357D1*
X540060Y2278561D1*
X532790Y2274856D1*
X525029Y2272334D1*
X516970Y2271058D1*
X508810D1*
X500750Y2272334D1*
X492990Y2274856D1*
X485719Y2278561D1*
X479118Y2283357D1*
X473348Y2289127D1*
X468551Y2295728D1*
X464847Y2302999D1*
X462325Y2310759D1*
X461049Y2318819D1*
Y2326979D1*
X462325Y2335038D1*
X464847Y2342799D1*
X468551Y2350070D1*
X473348Y2356671D1*
X479118Y2362441D1*
X485719Y2367237D1*
X492990Y2370942D1*
X500750Y2373463D1*
X508810Y2374740D1*
X516970D1*
X525029Y2373463D1*
X532790Y2370942D1*
X540060Y2367237D1*
X546662Y2362441D1*
X552432Y2356671D1*
X557228Y2350070D1*
X560933Y2342799D1*
X563454Y2335038D1*
X564731Y2326979D1*
Y2318819D1*
Y2003858D2*
X563454Y1995799D1*
X560933Y1988038D1*
X557228Y1980768D1*
X552432Y1974166D1*
X546662Y1968396D1*
X540060Y1963600D1*
X532790Y1959895D1*
X525029Y1957374D1*
X516970Y1956097D1*
X508810D1*
X500750Y1957374D1*
X492990Y1959895D1*
X485719Y1963600D1*
X479118Y1968396D1*
X473348Y1974166D1*
X468551Y1980768D1*
X464847Y1988038D1*
X462325Y1995799D1*
X461049Y2003858D1*
Y2012018D1*
X462325Y2020078D1*
X464847Y2027838D1*
X468551Y2035109D1*
X473348Y2041710D1*
X479118Y2047480D1*
X485719Y2052277D1*
X492990Y2055981D1*
X500750Y2058503D1*
X508810Y2059779D1*
X516970D1*
X525029Y2058503D1*
X532790Y2055981D1*
X540060Y2052277D1*
X546662Y2047480D1*
X552432Y2041710D1*
X557228Y2035109D1*
X560933Y2027838D1*
X563454Y2020078D1*
X564731Y2012018D1*
Y2003858D1*
X4230241Y1715379D2*
X4229443Y1708635D1*
X4228118Y1701974D1*
X4226275Y1695438D1*
X4223924Y1689066D1*
X4221081Y1682899D1*
X4217762Y1676973D1*
X4213989Y1671327D1*
X4209785Y1665993D1*
X4205175Y1661006D1*
X4200188Y1656396D1*
X4194855Y1652192D1*
X4189208Y1648419D1*
X4183282Y1645100D1*
X4177115Y1642257D1*
X4170743Y1639906D1*
X4164207Y1638063D1*
X4157546Y1636738D1*
X4150802Y1635940D1*
X4144016Y1635673D1*
X4137230Y1635940D1*
X4130485Y1636738D1*
X4123825Y1638063D1*
X4117288Y1639906D1*
X4110917Y1642257D1*
X4104749Y1645100D1*
X4098824Y1648419D1*
X4093177Y1652192D1*
X4087844Y1656396D1*
X4082857Y1661006D1*
X4078247Y1665993D1*
X4074042Y1671327D1*
X4070269Y1676973D1*
X4066951Y1682899D1*
X4064107Y1689066D1*
X4061757Y1695438D1*
X4059913Y1701974D1*
X4058588Y1708635D1*
X4057790Y1715379D1*
X4057524Y1722165D1*
X4057790Y1728951D1*
X4058588Y1735696D1*
X4059913Y1742357D1*
X4061757Y1748893D1*
X4064107Y1755264D1*
X4066951Y1761432D1*
X4070269Y1767357D1*
X4074042Y1773004D1*
X4078247Y1778337D1*
X4082857Y1783325D1*
X4087844Y1787934D1*
X4093177Y1792139D1*
X4098824Y1795912D1*
X4104749Y1799230D1*
X4110917Y1802074D1*
X4117288Y1804424D1*
X4123825Y1806268D1*
X4130485Y1807593D1*
X4137230Y1808391D1*
X4144016Y1808657D1*
X4150802Y1808391D1*
X4157546Y1807593D1*
X4164207Y1806268D1*
X4170743Y1804424D1*
X4177115Y1802074D1*
X4183282Y1799230D1*
X4189208Y1795912D1*
X4194855Y1792139D1*
X4200188Y1787934D1*
X4205175Y1783325D1*
X4209785Y1778337D1*
X4213989Y1773004D1*
X4217762Y1767357D1*
X4221081Y1761432D1*
X4223924Y1755264D1*
X4226275Y1748893D1*
X4228118Y1742357D1*
X4229443Y1735696D1*
X4230241Y1728951D1*
X4230508Y1722165D1*
X4230241Y1715379D1*
X1249835Y1389623D2*
X1248461Y1380945D1*
X1245746Y1372588D1*
X1241757Y1364760D1*
X1236592Y1357652D1*
X1230380Y1351439D1*
X1223272Y1346275D1*
X1215443Y1342286D1*
X1207087Y1339571D1*
X1198409Y1338196D1*
X1189623D1*
X1180945Y1339571D1*
X1172588Y1342286D1*
X1164760Y1346275D1*
X1157652Y1351439D1*
X1151439Y1357652D1*
X1146275Y1364760D1*
X1142286Y1372588D1*
X1139571Y1380945D1*
X1138196Y1389623D1*
Y1398409D1*
X1139571Y1407087D1*
X1142286Y1415443D1*
X1146275Y1423272D1*
X1151439Y1430380D1*
X1157652Y1436592D1*
X1164760Y1441757D1*
X1172588Y1445746D1*
X1180945Y1448461D1*
X1189623Y1449835D1*
X1198409D1*
X1207087Y1448461D1*
X1215443Y1445746D1*
X1223272Y1441757D1*
X1230380Y1436592D1*
X1236592Y1430380D1*
X1241757Y1423272D1*
X1245746Y1415443D1*
X1248461Y1407087D1*
X1249835Y1398409D1*
Y1389623D1*
X1949835D2*
X1948461Y1380945D1*
X1945746Y1372588D1*
X1941757Y1364760D1*
X1936592Y1357652D1*
X1930380Y1351439D1*
X1923272Y1346275D1*
X1915443Y1342286D1*
X1907087Y1339571D1*
X1898409Y1338196D1*
X1889623D1*
X1880945Y1339571D1*
X1872588Y1342286D1*
X1864760Y1346275D1*
X1857652Y1351439D1*
X1851439Y1357652D1*
X1846275Y1364760D1*
X1842286Y1372588D1*
X1839571Y1380945D1*
X1838196Y1389623D1*
Y1398409D1*
X1839571Y1407087D1*
X1842286Y1415443D1*
X1846275Y1423272D1*
X1851439Y1430380D1*
X1857652Y1436592D1*
X1864760Y1441757D1*
X1872588Y1445746D1*
X1880945Y1448461D1*
X1889623Y1449835D1*
X1898409D1*
X1907087Y1448461D1*
X1915443Y1445746D1*
X1923272Y1441757D1*
X1930380Y1436592D1*
X1936592Y1430380D1*
X1941757Y1423272D1*
X1945746Y1415443D1*
X1948461Y1407087D1*
X1949835Y1398409D1*
Y1389623D1*
X2699835D2*
X2698461Y1380945D1*
X2695746Y1372588D1*
X2691757Y1364760D1*
X2686592Y1357652D1*
X2680380Y1351439D1*
X2673272Y1346275D1*
X2665443Y1342286D1*
X2657087Y1339571D1*
X2648409Y1338196D1*
X2639623D1*
X2630945Y1339571D1*
X2622588Y1342286D1*
X2614760Y1346275D1*
X2607652Y1351439D1*
X2601439Y1357652D1*
X2596275Y1364760D1*
X2592286Y1372588D1*
X2589571Y1380945D1*
X2588196Y1389623D1*
Y1398409D1*
X2589571Y1407087D1*
X2592286Y1415443D1*
X2596275Y1423272D1*
X2601439Y1430380D1*
X2607652Y1436592D1*
X2614760Y1441757D1*
X2622588Y1445746D1*
X2630945Y1448461D1*
X2639623Y1449835D1*
X2648409D1*
X2657087Y1448461D1*
X2665443Y1445746D1*
X2673272Y1441757D1*
X2680380Y1436592D1*
X2686592Y1430380D1*
X2691757Y1423272D1*
X2695746Y1415443D1*
X2698461Y1407087D1*
X2699835Y1398409D1*
Y1389623D1*
X2898860Y782949D2*
X2897267Y776713D1*
X2893905Y768596D1*
X2889314Y761104D1*
X2883608Y754423D1*
X2876927Y748717D1*
X2869202Y744019D1*
X2876927Y739314D1*
X2883608Y733608D1*
X2889314Y726927D1*
X2893905Y719436D1*
X2897267Y711318D1*
X2898860Y705082D1*
X2901063Y711808D1*
X2904375Y718308D1*
X2908663Y724210D1*
X2933089Y748839D1*
X2926224Y751063D1*
X2919724Y754375D1*
X2913821Y758663D1*
X2908663Y763821D1*
X2904375Y769724D1*
X2901063Y776224D1*
X2899795Y779663D1*
X3369202Y844013D2*
X3376927Y839314D1*
X3383608Y833608D1*
X3388474Y827993D1*
X3386212Y833357D1*
X3384948Y838620D1*
X3384524Y844016D1*
Y855391D1*
X3380380Y851439D1*
X3373272Y846275D1*
X3369202Y844019D1*
X4149835Y1439623D2*
X4148461Y1430945D1*
X4145746Y1422588D1*
X4141757Y1414760D1*
X4136592Y1407652D1*
X4130380Y1401439D1*
X4123272Y1396275D1*
X4115443Y1392286D1*
X4107087Y1389571D1*
X4098409Y1388196D1*
X4089623D1*
X4080945Y1389571D1*
X4072588Y1392286D1*
X4064760Y1396275D1*
X4057652Y1401439D1*
X4051439Y1407652D1*
X4046275Y1414760D1*
X4042286Y1422588D1*
X4039571Y1430945D1*
X4038196Y1439623D1*
Y1448409D1*
X4039571Y1457087D1*
X4042286Y1465443D1*
X4046275Y1473272D1*
X4051439Y1480380D1*
X4057652Y1486592D1*
X4064760Y1491757D1*
X4072588Y1495746D1*
X4080945Y1498461D1*
X4089623Y1499835D1*
X4098409D1*
X4107087Y1498461D1*
X4115443Y1495746D1*
X4123272Y1491757D1*
X4130380Y1486592D1*
X4136592Y1480380D1*
X4141757Y1473272D1*
X4145746Y1465443D1*
X4148461Y1457087D1*
X4149835Y1448409D1*
Y1439623D1*
X3265365Y1652868D2*
X3264223Y1645662D1*
X3261969Y1638724D1*
X3258657Y1632224D1*
X3254369Y1626322D1*
X3249210Y1621163D1*
X3243308Y1616875D1*
X3236808Y1613563D1*
X3229869Y1611308D1*
X3222663Y1610167D1*
X3215368D1*
X3208162Y1611308D1*
X3201224Y1613563D1*
X3194724Y1616875D1*
X3188822Y1621163D1*
X3183663Y1626322D1*
X3179375Y1632224D1*
X3176063Y1638724D1*
X3173808Y1645662D1*
X3172667Y1652868D1*
Y1660163D1*
X3173808Y1667369D1*
X3176063Y1674308D1*
X3179375Y1680808D1*
X3183663Y1686710D1*
X3188822Y1691869D1*
X3194724Y1696157D1*
X3201224Y1699469D1*
X3208162Y1701723D1*
X3215368Y1702865D1*
X3222663D1*
X3229869Y1701723D1*
X3236808Y1699469D1*
X3243308Y1696157D1*
X3249210Y1691869D1*
X3254369Y1686710D1*
X3258657Y1680808D1*
X3261969Y1674308D1*
X3264223Y1667369D1*
X3265365Y1660163D1*
Y1652868D1*
X1989012Y2273251D2*
Y2177369D1*
X1994129Y2171442D1*
X1997941Y2165221D1*
X2000732Y2158481D1*
X2002435Y2151387D1*
X2003008Y2144114D1*
X2002435Y2136841D1*
X2000732Y2129747D1*
X1997941Y2123007D1*
X1994129Y2116787D1*
X1989391Y2111239D1*
X1983843Y2106501D1*
X1977623Y2102689D1*
X1970883Y2099898D1*
X1963789Y2098194D1*
X1956516Y2097622D1*
X1949243Y2098194D1*
X1942149Y2099898D1*
X1935409Y2102689D1*
X1929188Y2106501D1*
X1923641Y2111239D1*
X1918903Y2116787D1*
X1915091Y2123007D1*
X1912299Y2129747D1*
X1910596Y2136841D1*
X1910024Y2144114D1*
X1910596Y2151387D1*
X1912299Y2158481D1*
X1915091Y2165221D1*
X1918903Y2171442D1*
X1924028Y2177347D1*
X1924020Y2273261D1*
X1918903Y2279188D1*
X1915091Y2285409D1*
X1912299Y2292149D1*
X1910596Y2299243D1*
X1910024Y2306516D1*
X1910596Y2313789D1*
X1912299Y2320883D1*
X1915091Y2327623D1*
X1918903Y2333843D1*
X1923641Y2339391D1*
X1929188Y2344129D1*
X1935409Y2347941D1*
X1942149Y2350732D1*
X1949243Y2352435D1*
X1956516Y2353008D1*
X1963789Y2352435D1*
X1970883Y2350732D1*
X1977623Y2347941D1*
X1983843Y2344129D1*
X1989391Y2339391D1*
X1994129Y2333843D1*
X1997941Y2327623D1*
X2000732Y2320883D1*
X2002435Y2313789D1*
X2003008Y2306516D1*
X2002435Y2299243D1*
X2000732Y2292149D1*
X1997941Y2285409D1*
X1994129Y2279188D1*
X1989003Y2273283D1*
X3074024Y2377280D2*
Y2835737D1*
X3068903Y2841688D1*
X3065091Y2847909D1*
X3062299Y2854649D1*
X3060596Y2861743D1*
X3060024Y2869016D1*
X3060596Y2876289D1*
X3062299Y2883383D1*
X3065091Y2890123D1*
X3068903Y2896343D1*
X3073641Y2901891D1*
X3079188Y2906629D1*
X3085409Y2910441D1*
X3092149Y2913232D1*
X3099243Y2914935D1*
X3106516Y2915508D1*
X3113789Y2914935D1*
X3120883Y2913232D1*
X3127623Y2910441D1*
X3133843Y2906629D1*
X3139391Y2901891D1*
X3144129Y2896343D1*
X3147941Y2890123D1*
X3150732Y2883383D1*
X3152435Y2876289D1*
X3153008Y2869016D1*
X3152435Y2861743D1*
X3150732Y2854649D1*
X3147941Y2847909D1*
X3144129Y2841688D1*
X3139003Y2835783D1*
X3139008Y2377295D1*
X3144129Y2371343D1*
X3147941Y2365123D1*
X3150732Y2358383D1*
X3152435Y2351289D1*
X3153008Y2344016D1*
X3152435Y2336743D1*
X3150732Y2329649D1*
X3147941Y2322909D1*
X3144129Y2316688D1*
X3139391Y2311141D1*
X3133843Y2306403D1*
X3127623Y2302591D1*
X3120883Y2299799D1*
X3113789Y2298096D1*
X3106516Y2297524D1*
X3099243Y2298096D1*
X3092149Y2299799D1*
X3085409Y2302591D1*
X3079188Y2306403D1*
X3073641Y2311141D1*
X3068903Y2316688D1*
X3065091Y2322909D1*
X3062299Y2329649D1*
X3060596Y2336743D1*
X3060024Y2344016D1*
X3060596Y2351289D1*
X3062299Y2358383D1*
X3065091Y2365123D1*
X3068903Y2371343D1*
X3074028Y2377249D1*
X1714012Y2073448D2*
Y1827282D1*
X1719129Y1821343D1*
X1722941Y1815123D1*
X1725732Y1808383D1*
X1727435Y1801289D1*
X1728008Y1794016D1*
X1727435Y1786743D1*
X1725732Y1779649D1*
X1722941Y1772909D1*
X1719129Y1766688D1*
X1714391Y1761141D1*
X1708843Y1756403D1*
X1702623Y1752591D1*
X1695883Y1749799D1*
X1688789Y1748096D1*
X1681516Y1747524D1*
X1674243Y1748096D1*
X1667149Y1749799D1*
X1660409Y1752591D1*
X1654188Y1756403D1*
X1648641Y1761141D1*
X1643903Y1766688D1*
X1640091Y1772909D1*
X1637299Y1779649D1*
X1635596Y1786743D1*
X1635024Y1794016D1*
X1635596Y1801289D1*
X1637299Y1808383D1*
X1640091Y1815123D1*
X1643903Y1821343D1*
X1649028Y1827249D1*
X1649020Y2073446D1*
X1643903Y2079385D1*
X1640091Y2085606D1*
X1637299Y2092346D1*
X1635596Y2099440D1*
X1635024Y2106713D1*
X1635596Y2113986D1*
X1637299Y2121079D1*
X1640091Y2127820D1*
X1643903Y2134040D1*
X1648641Y2139587D1*
X1654188Y2144326D1*
X1660409Y2148137D1*
X1667149Y2150929D1*
X1674243Y2152632D1*
X1681516Y2153205D1*
X1688789Y2152632D1*
X1695883Y2150929D1*
X1702623Y2148137D1*
X1708843Y2144326D1*
X1714391Y2139587D1*
X1719129Y2134040D1*
X1722941Y2127820D1*
X1725732Y2121079D1*
X1727435Y2113986D1*
X1728008Y2106713D1*
X1727435Y2099440D1*
X1725732Y2092346D1*
X1722941Y2085606D1*
X1719129Y2079385D1*
X1714003Y2073480D1*
D37*
X1494016Y3044016D3*
D38*
X1594016D3*
X1694016D3*
X1794016D3*
X1894016D3*
X1994016D3*
X2094016D3*
X2194016D3*
D37*
X794016Y544016D3*
D38*
X894016D3*
X994016D3*
X1094016D3*
D37*
X1494016D3*
D38*
X1594016D3*
X1694016D3*
X1794016D3*
D37*
X2244016D3*
D38*
X2344016D3*
X2444016D3*
X2544016D3*
D37*
X2944016D3*
D38*
X3044016D3*
X3144016D3*
X3244016D3*
D37*
X3669016D3*
D38*
X3769016D3*
X3869016D3*
X3969016D3*
D37*
X2594016Y3044016D3*
D38*
X2694016D3*
X2794016D3*
X2894016D3*
D37*
X794016D3*
D38*
Y3144016D3*
X894016Y3044016D3*
Y3144016D3*
X994016Y3044016D3*
Y3144016D3*
X1094016Y3044016D3*
Y3144016D3*
X1194016Y3044016D3*
Y3144016D3*
D37*
X494016Y2694016D3*
D38*
X594016D3*
X694016D3*
X794016D3*
X894016D3*
X994016D3*
X1094016D3*
X1194016D3*
X1294016D3*
X1394016D3*
X1494016D3*
X1594016D3*
X1694016D3*
X1794016D3*
X1894016D3*
X1994016D3*
X2094016D3*
X2194016D3*
X2294016D3*
D37*
X3906516Y2213701D3*
D38*
Y2113701D3*
D43*
X4156516Y2620886D3*
D44*
X4077776Y2857106D3*
D43*
Y2384665D3*
X3597461Y2857106D3*
Y2384665D3*
D46*
X531811Y531811D3*
X4193228D3*
Y3169606D3*
X531811D3*
D49*
X4144016Y1919016D3*
D50*
Y1722165D3*
D49*
X3790079Y3142441D3*
D50*
X3593228D3*
D25*
X494016Y2594016D3*
X594016D3*
X694016D3*
X794016D3*
X894016D3*
X994016D3*
X1094016D3*
X1194016D3*
X1294016D3*
X1394016D3*
X1494016D3*
X1594016D3*
X1694016D3*
X1794016D3*
X1894016D3*
X1994016D3*
X2094016D3*
X2194016D3*
X2294016D3*
X494016Y1694016D3*
X594016D3*
X694016D3*
X794016D3*
X894016D3*
X994016D3*
X1094016D3*
X1194016D3*
X1294016D3*
X1394016D3*
X1494016D3*
X1594016D3*
X1694016D3*
X1794016D3*
X1894016D3*
X1994016D3*
X2094016D3*
X2194016D3*
X2294016D3*
D51*
X694016Y1394016D3*
D52*
Y1294016D3*
Y1194016D3*
Y1094016D3*
Y994016D3*
Y894016D3*
Y794016D3*
Y694016D3*
X1194016D3*
Y794016D3*
Y894016D3*
Y994016D3*
Y1094016D3*
Y1194016D3*
Y1294016D3*
Y1394016D3*
D51*
X1394016D3*
D52*
Y1294016D3*
Y1194016D3*
Y1094016D3*
Y994016D3*
Y894016D3*
Y794016D3*
Y694016D3*
X1894016D3*
Y794016D3*
Y894016D3*
Y994016D3*
Y1094016D3*
Y1194016D3*
Y1294016D3*
Y1394016D3*
D51*
X2144016D3*
D52*
Y1294016D3*
Y1194016D3*
Y1094016D3*
Y994016D3*
Y894016D3*
Y794016D3*
Y694016D3*
X2644016D3*
Y794016D3*
Y894016D3*
Y994016D3*
Y1094016D3*
Y1194016D3*
Y1294016D3*
Y1394016D3*
D51*
X2844016D3*
D52*
Y1294016D3*
Y1194016D3*
Y1094016D3*
Y994016D3*
Y894016D3*
Y794016D3*
Y694016D3*
X3344016D3*
Y794016D3*
Y894016D3*
Y994016D3*
Y1094016D3*
Y1194016D3*
Y1294016D3*
Y1394016D3*
D51*
X3594016Y1444016D3*
D52*
Y1344016D3*
Y1244016D3*
Y1144016D3*
Y1044016D3*
Y944016D3*
Y844016D3*
Y744016D3*
X4094016D3*
Y844016D3*
Y944016D3*
Y1044016D3*
Y1144016D3*
Y1244016D3*
Y1344016D3*
Y1444016D3*
M02*
