M48
INCH
T01C0.013
T02C0.0191
T03C0.035
T04C0.0354
T05C0.0394
T06C0.0512
T07C0.063
T08C0.14
%
T01
X+027757Y+018756
X+027757Y+018496
X+027757Y+018236
X+027367Y+018236
X+027367Y+018496
X+027367Y+018756
X+026977Y+018756
X+026977Y+018496
X+026977Y+018236
X+030880Y+016280
X+031270Y+016280
T02
X+015690Y+008690
X+015440Y+008440
X+015128Y+008128
X+015940Y+009940
X+015940Y+010440
X+015940Y+010940
X+017940Y+015815
X+016815Y+017940
X+014940Y+019440
X+013940Y+018940
X+012088Y+018485
X+010397Y+018940
X+011052Y+019934
X+011940Y+020315
X+011052Y+021253
X+011496Y+021737
X+010940Y+023440
X+012440Y+023440
X+012940Y+023940
X+012940Y+024440
X+013440Y+025190
X+015503Y+023036
X+015940Y+022690
X+016940Y+023065
X+017753Y+022315
X+017190Y+021440
X+016815Y+021067
X+014440Y+022170
X+013565Y+020871
X+016440Y+024190
X+017690Y+023940
X+019565Y+023065
X+019565Y+021441
X+020440Y+020315
X+019440Y+019440
X+021940Y+019878
X+024767Y+019536
X+025940Y+021815
X+031065Y+023440
X+032190Y+021190
X+032190Y+020690
X+034190Y+020440
X+034690Y+019940
X+032190Y+016565
X+030440Y+010940
X+030440Y+010440
X+030440Y+009940
X+029940Y+008440
X+029690Y+008190
X+029440Y+007940
X+023440Y+009940
X+023440Y+010440
X+023440Y+010940
X+026315Y+015815
X+033940Y+024690
X+033861Y+026381
X+032090Y+028153
X+031065Y+028690
X+020940Y+028190
X+019940Y+028190
X+017940Y+028190
X+015940Y+028190
X+013440Y+028690
X+010440Y+028253
X+009440Y+028190
X+007483Y+025003
X+005940Y+024315
X+005940Y+018565
X+010397Y+016184
X+012440Y+015791
X+012940Y+016190
X+008940Y+010940
X+008940Y+010440
X+008940Y+009940
X+037940Y+010440
X+037940Y+010940
X+037940Y+011440
T03
X+004940Y+025940
X+005940Y+025940
X+006940Y+025940
X+007940Y+025940
X+008940Y+025940
X+009940Y+025940
X+010940Y+025940
X+011940Y+025940
X+012940Y+025940
X+013940Y+025940
X+014940Y+025940
X+015940Y+025940
X+016940Y+025940
X+017940Y+025940
X+018940Y+025940
X+019940Y+025940
X+020940Y+025940
X+021940Y+025940
X+022940Y+025940
X+022940Y+016940
X+021940Y+016940
X+020940Y+016940
X+019940Y+016940
X+018940Y+016940
X+017940Y+016940
X+016940Y+016940
X+015940Y+016940
X+014940Y+016940
X+013940Y+016940
X+012940Y+016940
X+011940Y+016940
X+010940Y+016940
X+009940Y+016940
X+008940Y+016940
X+007940Y+016940
X+006940Y+016940
X+005940Y+016940
X+004940Y+016940
X+006940Y+013940
X+006940Y+012940
X+006940Y+011940
X+006940Y+010940
X+006940Y+009940
X+006940Y+008940
X+006940Y+007940
X+006940Y+006940
X+011940Y+006940
X+011940Y+007940
X+011940Y+008940
X+011940Y+009940
X+011940Y+010940
X+011940Y+011940
X+011940Y+012940
X+011940Y+013940
X+013940Y+013940
X+013940Y+012940
X+013940Y+011940
X+013940Y+010940
X+013940Y+009940
X+013940Y+008940
X+013940Y+007940
X+013940Y+006940
X+018940Y+006940
X+018940Y+007940
X+018940Y+008940
X+018940Y+009940
X+018940Y+010940
X+018940Y+011940
X+018940Y+012940
X+018940Y+013940
X+021440Y+013940
X+021440Y+012940
X+021440Y+011940
X+021440Y+010940
X+021440Y+009940
X+021440Y+008940
X+021440Y+007940
X+021440Y+006940
X+026440Y+006940
X+026440Y+007940
X+026440Y+008940
X+026440Y+009940
X+026440Y+010940
X+026440Y+011940
X+026440Y+012940
X+026440Y+013940
X+028440Y+013940
X+028440Y+012940
X+028440Y+011940
X+028440Y+010940
X+028440Y+009940
X+028440Y+008940
X+028440Y+007940
X+028440Y+006940
X+033440Y+006940
X+033440Y+007940
X+033440Y+008940
X+033440Y+009940
X+033440Y+010940
X+033440Y+011940
X+033440Y+012940
X+033440Y+013940
X+035940Y+014440
X+035940Y+013440
X+035940Y+012440
X+035940Y+011440
X+035940Y+010440
X+035940Y+009440
X+035940Y+008440
X+035940Y+007440
X+040940Y+007440
X+040940Y+008440
X+040940Y+009440
X+040940Y+010440
X+040940Y+011440
X+040940Y+012440
X+040940Y+013440
X+040940Y+014440
T04
X+014940Y+030440
X+015940Y+030440
X+016940Y+030440
X+017940Y+030440
X+018940Y+030440
X+019940Y+030440
X+020940Y+030440
X+021940Y+030440
X+021940Y+026940
X+022940Y+026940
X+020940Y+026940
X+019940Y+026940
X+018940Y+026940
X+017940Y+026940
X+016940Y+026940
X+015940Y+026940
X+014940Y+026940
X+013940Y+026940
X+012940Y+026940
X+011940Y+026940
X+010940Y+026940
X+009940Y+026940
X+008940Y+026940
X+007940Y+026940
X+006940Y+026940
X+005940Y+026940
X+004940Y+026940
X+007940Y+030440
X+007940Y+031440
X+008940Y+031440
X+008940Y+030440
X+009940Y+030440
X+009940Y+031440
X+010940Y+031440
X+010940Y+030440
X+011940Y+030440
X+011940Y+031440
X+025940Y+030440
X+026940Y+030440
X+027940Y+030440
X+028940Y+030440
X+039065Y+022137
X+039065Y+021137
X+038690Y+005440
X+039690Y+005440
X+037690Y+005440
X+036690Y+005440
X+032440Y+005440
X+031440Y+005440
X+030440Y+005440
X+029440Y+005440
X+025440Y+005440
X+024440Y+005440
X+023440Y+005440
X+022440Y+005440
X+017940Y+005440
X+016940Y+005440
X+015940Y+005440
X+014940Y+005440
X+010940Y+005440
X+009940Y+005440
X+008940Y+005440
X+007940Y+005440
T05
X+005129Y+023229
X+005129Y+020079
T06
X+041565Y+026209
X+040778Y+028571
X+040778Y+023847
X+035975Y+023847
X+035975Y+028571
T07
X+041440Y+019190
X+041440Y+017222
X+037901Y+031424
X+035932Y+031424
T08
X+005318Y+005318
X+005318Y+031696
X+041932Y+031696
X+041932Y+005318
T00
M30
