G04 DipTrace 3.3.0.0*
G04 TopPaste.gbr*
%MOIN*%
G04 #@! TF.FileFunction,Paste,Top*
G04 #@! TF.Part,Single*
%ADD72R,0.130157X0.095118*%
%ADD74R,0.015984X0.054961*%
%ADD76R,0.035276X0.015591*%
%ADD88R,0.04315X0.051024*%
%ADD90R,0.023465X0.027402*%
%ADD94R,0.084488X0.129764*%
%ADD100R,0.047087X0.023465*%
%ADD102R,0.047087X0.039213*%
%ADD104R,0.070709X0.039213*%
%ADD106R,0.04315X0.019528*%
%ADD114R,0.090394X0.058898*%
%ADD116R,0.058898X0.090394*%
%ADD118R,0.054961X0.062835*%
%ADD120R,0.054961X0.155354*%
%ADD122R,0.051024X0.04315*%
%FSLAX26Y26*%
G04*
G70*
G90*
G75*
G01*
G04 TopPaste*
%LPD*%
D122*
X2886724Y1816570D3*
Y1741766D3*
D120*
X944016Y1044016D3*
Y1292047D3*
X1644016Y1044016D3*
Y1292047D3*
X2394016Y1044016D3*
Y1292047D3*
X3094016Y1044016D3*
Y1292047D3*
X3844016Y1094016D3*
Y1342047D3*
D122*
X1794016Y2869016D3*
Y2943819D3*
X1994016Y2869016D3*
Y2943819D3*
X2194016Y2869016D3*
Y2943819D3*
X894016Y2869016D3*
Y2943819D3*
X1094016Y2869016D3*
Y2943819D3*
X1294016Y2869016D3*
Y2943819D3*
X1594016Y2869016D3*
Y2943819D3*
D118*
X2875766Y1650765D3*
X2765530D3*
D122*
X2710724Y2031570D3*
Y2106373D3*
D118*
X3106516Y1694016D3*
X3216752D3*
D116*
X3003724Y1830534D3*
Y1673054D3*
X3293064Y2479589D3*
Y2637070D3*
D114*
X485214Y2858130D3*
X642694D3*
D106*
X943992Y2043765D3*
Y2087072D3*
Y2130379D3*
Y2173686D3*
Y2216993D3*
Y2260301D3*
Y2303608D3*
Y2346915D3*
Y2390222D3*
D104*
X528638Y1855576D3*
D102*
X910528D3*
D100*
Y2433529D3*
D104*
X528638D3*
D94*
X2925471Y2055430D3*
X3163660D3*
D90*
X3331516Y2819016D3*
X3256713D3*
X3294114Y2740276D3*
D122*
X1694016Y2419016D3*
Y2493819D3*
X1894016Y2494016D3*
Y2419213D3*
X1994016Y2494016D3*
Y2419213D3*
X2094016Y2494016D3*
Y2419213D3*
D88*
X2619724Y1654570D3*
X2694528D3*
D122*
X2619724Y2031570D3*
Y2106373D3*
X1694016Y2944016D3*
Y2869213D3*
X1894016Y2944016D3*
Y2869213D3*
X2094016Y2944016D3*
Y2869213D3*
X794016Y2944016D3*
Y2869213D3*
X994016Y2944016D3*
Y2869213D3*
X1194016Y2944016D3*
Y2869213D3*
X1494016Y2944016D3*
Y2869213D3*
D88*
X3256516Y2894016D3*
X3331319D3*
D122*
X2528724Y2109570D3*
Y2034766D3*
D88*
Y1953570D3*
X2603528D3*
D122*
X2794016Y2869016D3*
Y2943819D3*
X1806516Y2493819D3*
Y2419016D3*
D88*
X1153190Y1799523D3*
X1078387D3*
D76*
X1775266Y2181516D3*
Y2144114D3*
Y2106713D3*
X1881566D3*
Y2144114D3*
Y2181516D3*
D74*
X2810354Y1955442D3*
X2760354D3*
X2710354D3*
X2660354D3*
Y1742844D3*
X2710354D3*
X2760354D3*
X2810354D3*
D72*
X2735354Y1849143D3*
M02*
