G04 DipTrace 3.3.0.0*
G04 TopSilk.gbr*
%MOIN*%
G04 #@! TF.FileFunction,Legend,Top*
G04 #@! TF.Part,Single*
%ADD10C,0.009843*%
%ADD26C,0.008*%
%ADD28C,0.031482*%
%ADD31C,0.019677*%
%ADD33C,0.019695*%
%ADD53C,0.015395*%
%ADD55C,0.019692*%
%ADD123C,0.006176*%
%ADD124C,0.015439*%
%ADD125C,0.012351*%
%ADD126C,0.00772*%
%ADD127C,0.010807*%
%ADD128C,0.009264*%
%FSLAX26Y26*%
G04*
G70*
G90*
G75*
G01*
G04 TopSilk*
%LPD*%
X1109016Y1288184D2*
D10*
Y1002940D1*
X1064136Y1333110D2*
X1109016Y1288184D1*
X779016D2*
Y1002940D1*
X823896Y1333110D2*
X779016Y1288184D1*
X991272Y1333110D2*
X1064136D1*
X823896D2*
X896760D1*
X991272Y1002940D2*
X1109016D1*
X779016D2*
X896760D1*
D28*
X1003053Y1364881D3*
X1809016Y1288184D2*
D10*
Y1002940D1*
X1764136Y1333110D2*
X1809016Y1288184D1*
X1479016D2*
Y1002940D1*
X1523896Y1333110D2*
X1479016Y1288184D1*
X1691272Y1333110D2*
X1764136D1*
X1523896D2*
X1596760D1*
X1691272Y1002940D2*
X1809016D1*
X1479016D2*
X1596760D1*
D28*
X1703053Y1364881D3*
X2559016Y1288184D2*
D10*
Y1002940D1*
X2514136Y1333110D2*
X2559016Y1288184D1*
X2229016D2*
Y1002940D1*
X2273896Y1333110D2*
X2229016Y1288184D1*
X2441272Y1333110D2*
X2514136D1*
X2273896D2*
X2346760D1*
X2441272Y1002940D2*
X2559016D1*
X2229016D2*
X2346760D1*
D28*
X2453053Y1364881D3*
X3259016Y1288184D2*
D10*
Y1002940D1*
X3214136Y1333110D2*
X3259016Y1288184D1*
X2929016D2*
Y1002940D1*
X2973896Y1333110D2*
X2929016Y1288184D1*
X3141272Y1333110D2*
X3214136D1*
X2973896D2*
X3046760D1*
X3141272Y1002940D2*
X3259016D1*
X2929016D2*
X3046760D1*
D28*
X3153053Y1364881D3*
X4009016Y1338184D2*
D10*
Y1052940D1*
X3964136Y1383110D2*
X4009016Y1338184D1*
X3679016D2*
Y1052940D1*
X3723896Y1383110D2*
X3679016Y1338184D1*
X3891272Y1383110D2*
X3964136D1*
X3723896D2*
X3796760D1*
X3891272Y1052940D2*
X4009016D1*
X3679016D2*
X3796760D1*
D28*
X3903053Y1414881D3*
X2824979Y1682230D2*
D10*
Y1619301D1*
X2832428Y1682230D2*
Y1619301D1*
Y1682230D2*
X2808869D1*
X2832428Y1619301D2*
X2808869D1*
X2736295Y1990210D2*
X2685154D1*
X3157303Y1662551D2*
Y1725480D1*
X3149854Y1662551D2*
Y1725480D1*
Y1662551D2*
X3173413D1*
X3149854Y1725480D2*
X3173413D1*
X3043091Y1869913D2*
X3062780D1*
Y1633689D1*
X3043091D1*
X2964358Y1869913D2*
X2944669D1*
Y1633689D1*
X2964358D1*
X3043091Y1771467D2*
X2964358D1*
D31*
X3003724Y1899427D3*
X3253698Y2440210D2*
D10*
X3234009D1*
Y2676435D1*
X3253698D1*
X3332430Y2440210D2*
X3352119D1*
Y2676435D1*
X3332430D1*
X3253698Y2538656D2*
X3332430D1*
D31*
X3293064Y2410697D3*
X445835Y2897496D2*
D10*
Y2917185D1*
X682059D1*
Y2897496D1*
X445835Y2818764D2*
Y2799075D1*
X682059D1*
Y2818764D1*
X544281Y2897496D2*
Y2818764D1*
D33*
X416321Y2858130D3*
X1444016Y3094016D2*
D10*
X2244016D1*
X1444016Y2994016D2*
Y3094016D1*
Y2994016D2*
X2244016D1*
Y3094016D1*
X1144016Y494016D2*
Y594016D1*
X744016Y494016D2*
X1144016D1*
X744016Y594016D2*
X1144016D1*
X744016Y494016D2*
Y594016D1*
X1844016Y494016D2*
Y594016D1*
X1444016Y494016D2*
X1844016D1*
X1444016Y594016D2*
X1844016D1*
X1444016Y494016D2*
Y594016D1*
X2594016Y494016D2*
Y594016D1*
X2194016Y494016D2*
X2594016D1*
X2194016Y594016D2*
X2594016D1*
X2194016Y494016D2*
Y594016D1*
X3294016Y494016D2*
Y594016D1*
X2894016Y494016D2*
X3294016D1*
X2894016Y594016D2*
X3294016D1*
X2894016Y494016D2*
Y594016D1*
X4019016Y494016D2*
Y594016D1*
X3619016Y494016D2*
X4019016D1*
X3619016Y594016D2*
X4019016D1*
X3619016Y494016D2*
Y594016D1*
X2944016Y2994016D2*
Y3094016D1*
X2544016Y2994016D2*
X2944016D1*
X2544016Y3094016D2*
X2944016D1*
X2544016Y2994016D2*
Y3094016D1*
X744016Y2994016D2*
X1244016D1*
X744016Y3194016D2*
X1244016D1*
X744016Y2994016D2*
Y3194016D1*
X1244016Y2994016D2*
Y3194016D1*
X1969716Y2744016D2*
X1977316D1*
X518116D2*
X2344016D1*
X444016D2*
X518116D1*
X444016Y2644016D2*
Y2744016D1*
Y2644016D2*
X2344016D1*
Y2744016D1*
X3856516Y2063701D2*
X3956516D1*
X3856516Y2263701D2*
Y2063701D1*
Y2263701D2*
X3956516D1*
Y2063701D1*
X394583Y2433511D2*
X419603Y2408536D1*
X394583Y2483529D2*
X994583D1*
Y1808529D1*
X394583D1*
Y2483529D1*
X419603Y2408536D2*
Y1883521D1*
X394583Y1858546D1*
X419603Y2158516D2*
X594563D1*
X569603Y2208534D1*
X594563Y2158516D2*
X569603Y2108499D1*
X3384862Y2907898D2*
G02X3408894Y2931909I24014J-3D01*
G01*
X4219098D1*
G02X4243130Y2907898I18J-24014D01*
G01*
Y2333873D1*
G02X4219098Y2309862I-24014J3D01*
G01*
X3408894D1*
G02X3384862Y2333873I-18J24014D01*
G01*
Y2907898D1*
X2886090Y2134167D2*
Y2193226D1*
X3201057D1*
Y2134167D1*
Y1976694D2*
Y1917635D1*
X2886090D1*
Y1976694D1*
X3345297Y2763901D2*
X3246875D1*
Y2795390D1*
X3345297D1*
Y2763901D1*
X4262126Y2037126D2*
X4025906D1*
Y1604055D1*
X4262126D1*
Y2037126D1*
X3908189Y3024331D2*
X3475118D1*
Y3260551D1*
X3908189D1*
Y3024331D1*
X2344016Y2644016D2*
X444016D1*
Y1644016D1*
X2344016D1*
Y2644016D1*
Y2544016D2*
X444016D1*
X2344016Y1744016D2*
X444016D1*
X2294046Y2494016D2*
X1394016D1*
Y1794016D1*
X2294046D1*
Y2494016D1*
X593926Y2294016D2*
X444016D1*
Y1994016D1*
X593926D1*
Y2294016D1*
X644016Y1444016D2*
X744036D1*
Y644016D1*
X644016D1*
Y1444016D1*
X1143996D2*
X1244016D1*
Y644016D1*
X1143996D1*
Y1444016D1*
X744036D2*
X1143996D1*
Y644016D1*
X744036D1*
Y1444016D1*
X1344016D2*
X1444036D1*
Y644016D1*
X1344016D1*
Y1444016D1*
X1843996D2*
X1944016D1*
Y644016D1*
X1843996D1*
Y1444016D1*
X1444036D2*
X1843996D1*
Y644016D1*
X1444036D1*
Y1444016D1*
X2094016D2*
X2194036D1*
Y644016D1*
X2094016D1*
Y1444016D1*
X2593996D2*
X2694016D1*
Y644016D1*
X2593996D1*
Y1444016D1*
X2194036D2*
X2593996D1*
Y644016D1*
X2194036D1*
Y1444016D1*
X2794016D2*
X2894036D1*
Y644016D1*
X2794016D1*
Y1444016D1*
X3293996D2*
X3394016D1*
Y644016D1*
X3293996D1*
Y1444016D1*
X2894036D2*
X3293996D1*
Y644016D1*
X2894036D1*
Y1444016D1*
X3544016Y1494016D2*
X3644036D1*
Y694016D1*
X3544016D1*
Y1494016D1*
X4043996D2*
X4144016D1*
Y694016D1*
X4043996D1*
Y1494016D1*
X3644036D2*
X4043996D1*
Y694016D1*
X3644036D1*
Y1494016D1*
D53*
X1758641Y2208430D3*
X1812707Y2203167D2*
D10*
Y2085059D1*
X1844197Y2203167D2*
Y2085059D1*
X1812707D2*
X1844197D1*
X1812707Y2203167D2*
X1844197D1*
X2830039Y1788127D2*
X2643031D1*
Y1916084D1*
X2830039D1*
Y1788127D1*
D55*
X2820193Y1906232D3*
G36*
X2830039Y1827482D2*
X2810347D1*
Y1876702D1*
X2830039D1*
Y1827482D1*
G37*
X744016Y594016D2*
D26*
X1844016D1*
Y419016D1*
X744016D1*
Y594016D1*
X2194016D2*
X2219016D1*
X2194016D1*
X3294016D1*
Y419016D1*
X2194016D1*
Y594016D1*
X3469016D2*
X4019016D1*
Y419016D1*
X3469016D1*
Y594016D1*
X3556516Y2263701D2*
X3956516D1*
Y2063701D1*
X3556516D1*
Y2263701D1*
X3431516Y2031516D2*
X4269016D1*
Y1606516D1*
X3431516D1*
Y2031516D1*
X2406516Y2744016D2*
X3119016D1*
Y2419016D1*
X2406516D1*
Y2744016D1*
X744016Y3294016D2*
X944016D1*
Y3194016D1*
X744016D1*
Y3294016D1*
X944016D2*
X1144016D1*
Y3194016D1*
X944016D1*
Y3294016D1*
X1144016D2*
X1244016D1*
Y3194016D1*
X1144016D1*
Y3294016D1*
X669016Y3194016D2*
X1306516D1*
Y3094016D1*
X669016D1*
Y3194016D1*
X2594016Y3231516D2*
Y3256516D1*
X2694016D1*
Y3231516D1*
X1444016Y3281516D2*
X1631516D1*
Y3094016D1*
X1444016D1*
Y3281516D1*
X1631516Y3106516D2*
Y3094016D1*
Y3106516D1*
Y3281516D2*
X1831516D1*
Y3094016D1*
X1631516D1*
Y3281516D1*
X1831516D2*
X2044016D1*
Y3094016D1*
X1831516D1*
Y3281516D1*
X2044016D2*
X2244016D1*
Y3094016D1*
X2044016D1*
Y3281516D1*
X2544016D2*
X2744016D1*
Y3094016D1*
X2544016D1*
Y3281516D1*
X2744016D2*
X2944016D1*
Y3094016D1*
X2744016D1*
Y3281516D1*
X3181516Y3262766D2*
X3469016D1*
Y3025265D1*
X3181516D1*
Y3262766D1*
X2923803Y1617804D2*
Y1779741D1*
X2864059Y1778169D1*
X1162550Y2272371D2*
X1023520D1*
X1027417Y2274970D2*
X1048207Y2298358D1*
X1024819Y2269773D2*
X1048207Y2247684D1*
X1169627Y1951963D2*
X1030597D1*
X1034495Y1954562D2*
X1055285Y1977950D1*
X1031896Y1949365D2*
X1055285Y1927276D1*
X2875763Y1881503D2*
D123*
X2871960Y1879602D1*
X2868113Y1875755D1*
X2866212Y1871953D1*
Y1864303D1*
X2868113Y1860456D1*
X2871960Y1856654D1*
X2875763Y1854708D1*
X2881511Y1852807D1*
X2891105D1*
X2896809Y1854708D1*
X2900656Y1856654D1*
X2904459Y1860456D1*
X2906404Y1864303D1*
Y1871952D1*
X2904459Y1875755D1*
X2900656Y1879602D1*
X2896809Y1881503D1*
X2873906Y1893854D2*
X2871960Y1897701D1*
X2866256Y1903449D1*
X2906404D1*
X813791Y967158D2*
X811889Y970960D1*
X808043Y974807D1*
X804240Y976708D1*
X796591D1*
X792744Y974807D1*
X788942Y970960D1*
X786996Y967158D1*
X785095Y961410D1*
Y951815D1*
X786996Y946111D1*
X788942Y942264D1*
X792744Y938462D1*
X796591Y936516D1*
X804240D1*
X808043Y938462D1*
X811889Y942264D1*
X813791Y946111D1*
X828088Y967114D2*
Y969015D1*
X829989Y972862D1*
X831890Y974763D1*
X835737Y976664D1*
X843386D1*
X847189Y974763D1*
X849090Y972862D1*
X851035Y969015D1*
Y965212D1*
X849090Y961366D1*
X845287Y955662D1*
X826142Y936516D1*
X852937D1*
X1513791Y967158D2*
X1511889Y970960D1*
X1508043Y974807D1*
X1504240Y976708D1*
X1496591D1*
X1492744Y974807D1*
X1488942Y970960D1*
X1486996Y967158D1*
X1485095Y961410D1*
Y951815D1*
X1486996Y946111D1*
X1488942Y942264D1*
X1492744Y938462D1*
X1496591Y936516D1*
X1504240D1*
X1508043Y938462D1*
X1511889Y942264D1*
X1513791Y946111D1*
X1529989Y976664D2*
X1550991D1*
X1539539Y961366D1*
X1545287D1*
X1549090Y959464D1*
X1550991Y957563D1*
X1552937Y951815D1*
Y948012D1*
X1550991Y942264D1*
X1547189Y938418D1*
X1541441Y936516D1*
X1535693D1*
X1529989Y938418D1*
X1528088Y940363D1*
X1526142Y944166D1*
X2262840Y967158D2*
X2260939Y970960D1*
X2257092Y974807D1*
X2253289Y976708D1*
X2245640D1*
X2241793Y974807D1*
X2237991Y970960D1*
X2236045Y967158D1*
X2234144Y961410D1*
Y951815D1*
X2236045Y946111D1*
X2237991Y942264D1*
X2241793Y938462D1*
X2245640Y936516D1*
X2253289D1*
X2257092Y938462D1*
X2260939Y942264D1*
X2262840Y946111D1*
X2294337Y936516D2*
Y976664D1*
X2275191Y949914D1*
X2303887D1*
X2963791Y967158D2*
X2961889Y970960D1*
X2958043Y974807D1*
X2954240Y976708D1*
X2946591D1*
X2942744Y974807D1*
X2938942Y970960D1*
X2936996Y967158D1*
X2935095Y961410D1*
Y951815D1*
X2936996Y946111D1*
X2938942Y942264D1*
X2942744Y938462D1*
X2946591Y936516D1*
X2954240D1*
X2958043Y938462D1*
X2961889Y942264D1*
X2963791Y946111D1*
X2999090Y976664D2*
X2979989D1*
X2978088Y959464D1*
X2979989Y961366D1*
X2985737Y963311D1*
X2991441D1*
X2997189Y961366D1*
X3001035Y957563D1*
X3002937Y951815D1*
Y948012D1*
X3001035Y942264D1*
X2997189Y938418D1*
X2991441Y936516D1*
X2985737D1*
X2979989Y938418D1*
X2978088Y940363D1*
X2976142Y944166D1*
X3714763Y1017158D2*
X3712862Y1020960D1*
X3709015Y1024807D1*
X3705213Y1026708D1*
X3697564D1*
X3693717Y1024807D1*
X3689914Y1020960D1*
X3687969Y1017158D1*
X3686067Y1011410D1*
Y1001815D1*
X3687969Y996111D1*
X3689914Y992264D1*
X3693717Y988462D1*
X3697564Y986516D1*
X3705213D1*
X3709015Y988462D1*
X3712862Y992264D1*
X3714763Y996111D1*
X3750063Y1020960D2*
X3748161Y1024763D1*
X3742413Y1026664D1*
X3738611D1*
X3732863Y1024763D1*
X3729016Y1019015D1*
X3727115Y1009464D1*
Y999914D1*
X3729016Y992264D1*
X3732863Y988418D1*
X3738611Y986516D1*
X3740512D1*
X3746216Y988418D1*
X3750063Y992264D1*
X3751964Y998012D1*
Y999914D1*
X3750063Y1005662D1*
X3746216Y1009464D1*
X3740512Y1011366D1*
X3738611D1*
X3732863Y1009464D1*
X3729016Y1005662D1*
X3727115Y999914D1*
X1784211Y2788692D2*
X1780408Y2786791D1*
X1776562Y2782944D1*
X1774660Y2779142D1*
Y2771493D1*
X1776562Y2767646D1*
X1780408Y2763843D1*
X1784211Y2761898D1*
X1789959Y2759996D1*
X1799554D1*
X1805258Y2761898D1*
X1809104Y2763843D1*
X1812907Y2767646D1*
X1814852Y2771492D1*
Y2779142D1*
X1812907Y2782944D1*
X1809104Y2786791D1*
X1805258Y2788692D1*
X1814852Y2808693D2*
X1774705Y2827838D1*
Y2801044D1*
X1984211Y2788714D2*
X1980408Y2786813D1*
X1976562Y2782966D1*
X1974660Y2779164D1*
Y2771515D1*
X1976562Y2767668D1*
X1980408Y2763865D1*
X1984211Y2761920D1*
X1989959Y2760019D1*
X1999554D1*
X2005258Y2761920D1*
X2009104Y2763865D1*
X2012907Y2767668D1*
X2014852Y2771515D1*
Y2779164D1*
X2012907Y2782966D1*
X2009104Y2786813D1*
X2005258Y2788714D1*
X1974705Y2810616D2*
X1976606Y2804913D1*
X1980408Y2802967D1*
X1984255D1*
X1988058Y2804913D1*
X1990003Y2808715D1*
X1991905Y2816364D1*
X1993806Y2822112D1*
X1997653Y2825915D1*
X2001455Y2827816D1*
X2007203D1*
X2011006Y2825915D1*
X2012951Y2824014D1*
X2014852Y2818266D1*
Y2810616D1*
X2012951Y2804913D1*
X2011006Y2802967D1*
X2007203Y2801066D1*
X2001455D1*
X1997653Y2802967D1*
X1993806Y2806814D1*
X1991905Y2812518D1*
X1990003Y2820167D1*
X1988058Y2824014D1*
X1984255Y2825915D1*
X1980408D1*
X1976606Y2824014D1*
X1974705Y2818266D1*
Y2810616D1*
X2240460Y2914643D2*
X2236658Y2912742D1*
X2232811Y2908895D1*
X2230910Y2905092D1*
Y2897443D1*
X2232811Y2893596D1*
X2236658Y2889794D1*
X2240460Y2887848D1*
X2246208Y2885947D1*
X2255803D1*
X2261507Y2887848D1*
X2265354Y2889794D1*
X2269156Y2893596D1*
X2271102Y2897443D1*
Y2905092D1*
X2269156Y2908895D1*
X2265354Y2912742D1*
X2261507Y2914643D1*
X2244307Y2951888D2*
X2250055Y2949942D1*
X2253902Y2946140D1*
X2255803Y2940392D1*
Y2938490D1*
X2253902Y2932742D1*
X2250055Y2928940D1*
X2244307Y2926994D1*
X2242406D1*
X2236658Y2928940D1*
X2232855Y2932742D1*
X2230954Y2938490D1*
Y2940392D1*
X2232855Y2946140D1*
X2236658Y2949942D1*
X2244307Y2951888D1*
X2253902D1*
X2263452Y2949942D1*
X2269200Y2946140D1*
X2271102Y2940392D1*
Y2936589D1*
X2269201Y2930841D1*
X2265354Y2928940D1*
X881613Y2777226D2*
X877810Y2775325D1*
X873963Y2771478D1*
X872062Y2767675D1*
Y2760026D1*
X873963Y2756179D1*
X877810Y2752377D1*
X881613Y2750431D1*
X887361Y2748530D1*
X896955D1*
X902659Y2750431D1*
X906506Y2752377D1*
X910309Y2756179D1*
X912254Y2760026D1*
Y2767675D1*
X910309Y2771478D1*
X906506Y2775325D1*
X902659Y2777226D1*
X879756Y2789577D2*
X877810Y2793424D1*
X872106Y2799172D1*
X912254D1*
X872106Y2823019D2*
X874008Y2817271D1*
X879756Y2813425D1*
X889306Y2811523D1*
X895054D1*
X904605Y2813425D1*
X910353Y2817271D1*
X912254Y2823019D1*
Y2826822D1*
X910353Y2832570D1*
X904605Y2836373D1*
X895054Y2838318D1*
X889306D1*
X879756Y2836373D1*
X874008Y2832570D1*
X872106Y2826822D1*
Y2823019D1*
X879756Y2836373D2*
X904605Y2813425D1*
X1084211Y2780070D2*
X1080408Y2778169D1*
X1076562Y2774322D1*
X1074660Y2770519D1*
Y2762870D1*
X1076562Y2759023D1*
X1080408Y2755221D1*
X1084211Y2753275D1*
X1089959Y2751374D1*
X1099554D1*
X1105258Y2753275D1*
X1109104Y2755221D1*
X1112907Y2759023D1*
X1114852Y2762870D1*
Y2770519D1*
X1112907Y2774322D1*
X1109104Y2778169D1*
X1105258Y2780070D1*
X1082354Y2792421D2*
X1080408Y2796268D1*
X1074705Y2802016D1*
X1114852D1*
X1082354Y2814367D2*
X1080408Y2818214D1*
X1074705Y2823962D1*
X1114852D1*
X1280559Y2777474D2*
X1276756Y2775573D1*
X1272909Y2771726D1*
X1271008Y2767923D1*
Y2760274D1*
X1272909Y2756427D1*
X1276756Y2752625D1*
X1280559Y2750679D1*
X1286307Y2748778D1*
X1295902D1*
X1301605Y2750679D1*
X1305452Y2752625D1*
X1309255Y2756427D1*
X1311200Y2760274D1*
Y2767923D1*
X1309255Y2771726D1*
X1305452Y2775573D1*
X1301605Y2777474D1*
X1278702Y2789825D2*
X1276756Y2793672D1*
X1271052Y2799420D1*
X1311200D1*
X1280603Y2813717D2*
X1278702D1*
X1274855Y2815618D1*
X1272954Y2817519D1*
X1271052Y2821366D1*
Y2829015D1*
X1272954Y2832818D1*
X1274855Y2834719D1*
X1278702Y2836665D1*
X1282504D1*
X1286351Y2834719D1*
X1292055Y2830917D1*
X1311200Y2811771D1*
Y2838566D1*
X1583042Y2774085D2*
X1579239Y2772184D1*
X1575392Y2768337D1*
X1573491Y2764535D1*
Y2756886D1*
X1575392Y2753039D1*
X1579239Y2749236D1*
X1583042Y2747291D1*
X1588790Y2745389D1*
X1598384D1*
X1604088Y2747291D1*
X1607935Y2749236D1*
X1611738Y2753039D1*
X1613683Y2756886D1*
Y2764535D1*
X1611738Y2768337D1*
X1607935Y2772184D1*
X1604088Y2774085D1*
X1581185Y2786437D2*
X1579239Y2790284D1*
X1573535Y2796032D1*
X1613683D1*
X1573535Y2812230D2*
Y2833232D1*
X1588834Y2821780D1*
Y2827528D1*
X1590735Y2831331D1*
X1592637Y2833232D1*
X1598385Y2835178D1*
X1602187D1*
X1607935Y2833232D1*
X1611782Y2829430D1*
X1613683Y2823682D1*
Y2817933D1*
X1611782Y2812230D1*
X1609836Y2810328D1*
X1606034Y2808383D1*
X2790506Y1585802D2*
X2788605Y1589605D1*
X2784758Y1593451D1*
X2780955Y1595353D1*
X2773306D1*
X2769459Y1593451D1*
X2765657Y1589605D1*
X2763711Y1585802D1*
X2761810Y1580054D1*
Y1570459D1*
X2763711Y1564756D1*
X2765657Y1560909D1*
X2769459Y1557106D1*
X2773306Y1555161D1*
X2780955D1*
X2784758Y1557106D1*
X2788605Y1560909D1*
X2790506Y1564756D1*
X2802857Y1587659D2*
X2806704Y1589605D1*
X2812452Y1595309D1*
Y1555161D1*
X2843949D2*
Y1595309D1*
X2824804Y1568558D1*
X2853500D1*
X2697089Y2179597D2*
X2693286Y2177696D1*
X2689440Y2173849D1*
X2687538Y2170047D1*
Y2162397D1*
X2689440Y2158551D1*
X2693286Y2154748D1*
X2697089Y2152803D1*
X2702837Y2150901D1*
X2712432D1*
X2718136Y2152803D1*
X2721982Y2154748D1*
X2725785Y2158551D1*
X2727730Y2162397D1*
Y2170047D1*
X2725785Y2173849D1*
X2721982Y2177696D1*
X2718136Y2179597D1*
X2695232Y2191949D2*
X2693286Y2195795D1*
X2687583Y2201543D1*
X2727730D1*
X2687583Y2236843D2*
Y2217742D1*
X2704782Y2215840D1*
X2702881Y2217741D1*
X2700936Y2223490D1*
Y2229193D1*
X2702881Y2234941D1*
X2706684Y2238788D1*
X2712432Y2240689D1*
X2716234D1*
X2721982Y2238788D1*
X2725829Y2234941D1*
X2727730Y2229193D1*
Y2223490D1*
X2725829Y2217741D1*
X2723884Y2215840D1*
X2720081Y2213895D1*
X3148734Y1617502D2*
X3146833Y1621304D1*
X3142986Y1625151D1*
X3139183Y1627052D1*
X3131534D1*
X3127687Y1625151D1*
X3123885Y1621304D1*
X3121939Y1617502D1*
X3120038Y1611754D1*
Y1602159D1*
X3121939Y1596455D1*
X3123885Y1592608D1*
X3127687Y1588806D1*
X3131534Y1586860D1*
X3139183D1*
X3142986Y1588806D1*
X3146833Y1592608D1*
X3148734Y1596455D1*
X3161085Y1619359D2*
X3164932Y1621304D1*
X3170680Y1627008D1*
Y1586860D1*
X3205979Y1621304D2*
X3204078Y1625107D1*
X3198330Y1627008D1*
X3194528D1*
X3188780Y1625107D1*
X3184933Y1619359D1*
X3183031Y1609808D1*
Y1600258D1*
X3184933Y1592608D1*
X3188780Y1588761D1*
X3194528Y1586860D1*
X3196429D1*
X3202133Y1588761D1*
X3205979Y1592608D1*
X3207881Y1598356D1*
Y1600258D1*
X3205979Y1606006D1*
X3202133Y1609808D1*
X3196429Y1611709D1*
X3194528D1*
X3188780Y1609808D1*
X3184933Y1606006D1*
X3183031Y1600258D1*
X3088888Y1846207D2*
Y1806015D1*
X3102285D1*
X3108033Y1807961D1*
X3111880Y1811763D1*
X3113781Y1815610D1*
X3115683Y1821314D1*
Y1830908D1*
X3113781Y1836656D1*
X3111880Y1840459D1*
X3108033Y1844306D1*
X3102285Y1846207D1*
X3088888D1*
X3128034Y1838514D2*
X3131881Y1840459D1*
X3137629Y1846163D1*
Y1806015D1*
X3260094Y2382361D2*
Y2342169D1*
X3273491D1*
X3279239Y2344114D1*
X3283086Y2347917D1*
X3284987Y2351763D1*
X3286889Y2357467D1*
Y2367062D1*
X3284987Y2372810D1*
X3283086Y2376613D1*
X3279239Y2380459D1*
X3273491Y2382361D1*
X3260094D1*
X3301185Y2372766D2*
Y2374667D1*
X3303087Y2378514D1*
X3304988Y2380415D1*
X3308835Y2382316D1*
X3316484D1*
X3320287Y2380415D1*
X3322188Y2378514D1*
X3324133Y2374667D1*
Y2370865D1*
X3322188Y2367018D1*
X3318385Y2361314D1*
X3299240Y2342169D1*
X3326035D1*
X516220Y2975764D2*
Y2935571D1*
X529617D1*
X535365Y2937517D1*
X539212Y2941320D1*
X541113Y2945166D1*
X543015Y2950870D1*
Y2960465D1*
X541113Y2966213D1*
X539212Y2970015D1*
X535365Y2973862D1*
X529617Y2975764D1*
X516220D1*
X559213Y2975719D2*
X580215D1*
X568763Y2960421D1*
X574511D1*
X578314Y2958519D1*
X580215Y2956618D1*
X582161Y2950870D1*
Y2947068D1*
X580215Y2941320D1*
X576413Y2937473D1*
X570665Y2935571D1*
X564917D1*
X559213Y2937473D1*
X557311Y2939418D1*
X555366Y2943221D1*
X2292615Y3052594D2*
Y3021997D1*
X2290714Y3016249D1*
X2288769Y3014348D1*
X2284966Y3012402D1*
X2281119D1*
X2277317Y3014348D1*
X2275415Y3016249D1*
X2273470Y3021997D1*
Y3025800D1*
X2304967Y3044901D2*
X2308813Y3046846D1*
X2314562Y3052550D1*
Y3012402D1*
X2984015Y3077594D2*
Y3046997D1*
X2982114Y3041249D1*
X2980169Y3039348D1*
X2976366Y3037402D1*
X2972519D1*
X2968717Y3039348D1*
X2966816Y3041249D1*
X2964870Y3046997D1*
Y3050800D1*
X3004016Y3037402D2*
X3023161Y3077550D1*
X2996367D1*
X4039626Y3002988D2*
Y2962796D1*
X4066420Y3002988D2*
X4039626Y2976193D1*
X4049176Y2985788D2*
X4066420Y2962796D1*
X4078772Y2995294D2*
X4082618Y2997240D1*
X4088366Y3002944D1*
Y2962796D1*
X3013094Y2257064D2*
Y2216872D1*
X3036042D1*
X3048393Y2249371D2*
X3052240Y2251316D1*
X3057988Y2257020D1*
Y2216872D1*
X3166816Y2795311D2*
X3163014Y2793454D1*
X3159167Y2789607D1*
X3157266Y2785760D1*
X3155320Y2780012D1*
Y2770462D1*
X3157266Y2764714D1*
X3159167Y2760911D1*
X3163014Y2757064D1*
X3166816Y2755163D1*
X3174466D1*
X3178312Y2757064D1*
X3182115Y2760911D1*
X3184016Y2764714D1*
X3185962Y2770462D1*
Y2780012D1*
X3184016Y2785760D1*
X3182115Y2789607D1*
X3178312Y2793454D1*
X3174466Y2795311D1*
X3166816D1*
X3172564Y2762812D2*
X3184016Y2751316D1*
X3198313Y2787617D2*
X3202160Y2789563D1*
X3207908Y2795267D1*
Y2755119D1*
X1691088Y2334571D2*
Y2351771D1*
X1689142Y2357519D1*
X1687241Y2359464D1*
X1683439Y2361365D1*
X1679592D1*
X1675789Y2359464D1*
X1673844Y2357519D1*
X1671943Y2351771D1*
Y2334571D1*
X1712135D1*
X1691088Y2347968D2*
X1712135Y2361365D1*
X1679636Y2373717D2*
X1677691Y2377563D1*
X1671987Y2383311D1*
X1712135D1*
X1884799Y2321451D2*
Y2338651D1*
X1882854Y2344399D1*
X1880952Y2346344D1*
X1877150Y2348246D1*
X1873303D1*
X1869501Y2346344D1*
X1867555Y2344399D1*
X1865654Y2338651D1*
Y2321451D1*
X1905846D1*
X1884799Y2334848D2*
X1905846Y2348246D1*
X1875249Y2362543D2*
X1873347D1*
X1869501Y2364444D1*
X1867599Y2366345D1*
X1865698Y2370192D1*
Y2377841D1*
X1867599Y2381644D1*
X1869501Y2383545D1*
X1873347Y2385490D1*
X1877150D1*
X1880997Y2383545D1*
X1886701Y2379742D1*
X1905846Y2360597D1*
Y2387392D1*
X1995804Y2315162D2*
Y2332362D1*
X1993859Y2338110D1*
X1991958Y2340056D1*
X1988155Y2341957D1*
X1984308D1*
X1980506Y2340056D1*
X1978560Y2338110D1*
X1976659Y2332362D1*
Y2315162D1*
X2016851D1*
X1995804Y2328560D2*
X2016851Y2341957D1*
X1976703Y2358155D2*
Y2379157D1*
X1992002Y2367706D1*
Y2373454D1*
X1993903Y2377256D1*
X1995804Y2379157D1*
X2001553Y2381103D1*
X2005355D1*
X2011103Y2379157D1*
X2014950Y2375355D1*
X2016851Y2369607D1*
Y2363859D1*
X2014950Y2358155D1*
X2013004Y2356254D1*
X2009202Y2354308D1*
X2091088Y2323645D2*
Y2340845D1*
X2089142Y2346593D1*
X2087241Y2348538D1*
X2083439Y2350439D1*
X2079592D1*
X2075789Y2348538D1*
X2073844Y2346593D1*
X2071943Y2340845D1*
Y2323645D1*
X2112135D1*
X2091088Y2337042D2*
X2112135Y2350439D1*
Y2381936D2*
X2071987D1*
X2098737Y2362791D1*
Y2391487D1*
X2509212Y1654764D2*
X2526412D1*
X2532160Y1656709D1*
X2534105Y1658611D1*
X2536007Y1662413D1*
Y1666260D1*
X2534105Y1670062D1*
X2532160Y1672008D1*
X2526412Y1673909D1*
X2509212D1*
Y1633717D1*
X2522609Y1654764D2*
X2536007Y1633717D1*
X2571306Y1673865D2*
X2552205D1*
X2550304Y1656665D1*
X2552205Y1658566D1*
X2557953Y1660512D1*
X2563657D1*
X2569405Y1658566D1*
X2573252Y1654764D1*
X2575153Y1649016D1*
Y1645213D1*
X2573252Y1639465D1*
X2569405Y1635618D1*
X2563657Y1633717D1*
X2557953D1*
X2552205Y1635618D1*
X2550304Y1637564D1*
X2548358Y1641366D1*
X2614264Y2157474D2*
Y2174673D1*
X2612318Y2180422D1*
X2610417Y2182367D1*
X2606615Y2184268D1*
X2602768D1*
X2598965Y2182367D1*
X2597020Y2180422D1*
X2595118Y2174674D1*
Y2157474D1*
X2635310D1*
X2614264Y2170871D2*
X2635310Y2184268D1*
X2600866Y2219568D2*
X2597064Y2217666D1*
X2595163Y2211918D1*
Y2208116D1*
X2597064Y2202368D1*
X2602812Y2198521D1*
X2612363Y2196620D1*
X2621913D1*
X2629562Y2198521D1*
X2633409Y2202368D1*
X2635310Y2208116D1*
Y2210017D1*
X2633409Y2215721D1*
X2629562Y2219567D1*
X2623814Y2221469D1*
X2621913D1*
X2616165Y2219568D1*
X2612363Y2215721D1*
X2610461Y2210017D1*
Y2208116D1*
X2612363Y2202368D1*
X2616165Y2198521D1*
X2621913Y2196620D1*
X1692375Y2761653D2*
Y2778853D1*
X1690430Y2784601D1*
X1688529Y2786546D1*
X1684726Y2788448D1*
X1680879D1*
X1677077Y2786546D1*
X1675131Y2784601D1*
X1673230Y2778853D1*
Y2761653D1*
X1713422D1*
X1692375Y2775050D2*
X1713422Y2788448D1*
Y2808448D2*
X1673274Y2827594D1*
Y2800799D1*
X1893804Y2767415D2*
Y2784615D1*
X1891859Y2790363D1*
X1889958Y2792309D1*
X1886155Y2794210D1*
X1882308D1*
X1878506Y2792309D1*
X1876560Y2790363D1*
X1874659Y2784615D1*
Y2767415D1*
X1914851D1*
X1893804Y2780813D2*
X1914851Y2794210D1*
X1874703Y2816112D2*
X1876605Y2810408D1*
X1880407Y2808463D1*
X1884254D1*
X1888056Y2810408D1*
X1890002Y2814211D1*
X1891903Y2821860D1*
X1893804Y2827608D1*
X1897651Y2831411D1*
X1901454Y2833312D1*
X1907202D1*
X1911004Y2831411D1*
X1912950Y2829509D1*
X1914851Y2823761D1*
Y2816112D1*
X1912950Y2810408D1*
X1911004Y2808463D1*
X1907202Y2806561D1*
X1901454D1*
X1897651Y2808463D1*
X1893805Y2812309D1*
X1891903Y2818013D1*
X1890002Y2825663D1*
X1888056Y2829509D1*
X1884254Y2831411D1*
X1880407D1*
X1876605Y2829509D1*
X1874703Y2823761D1*
Y2816112D1*
X2093804Y2768345D2*
Y2785545D1*
X2091859Y2791293D1*
X2089958Y2793239D1*
X2086155Y2795140D1*
X2082308D1*
X2078506Y2793239D1*
X2076560Y2791293D1*
X2074659Y2785545D1*
Y2768345D1*
X2114851D1*
X2093804Y2781743D2*
X2114851Y2795140D1*
X2088056Y2832385D2*
X2093804Y2830439D1*
X2097651Y2826637D1*
X2099553Y2820889D1*
Y2818987D1*
X2097651Y2813239D1*
X2093805Y2809437D1*
X2088056Y2807491D1*
X2086155D1*
X2080407Y2809437D1*
X2076605Y2813239D1*
X2074703Y2818987D1*
Y2820889D1*
X2076605Y2826637D1*
X2080407Y2830439D1*
X2088056Y2832385D1*
X2097651D1*
X2107202Y2830439D1*
X2112950Y2826637D1*
X2114851Y2820889D1*
Y2817086D1*
X2112950Y2811338D1*
X2109103Y2809437D1*
X725055Y2862671D2*
Y2879871D1*
X723110Y2885619D1*
X721208Y2887564D1*
X717406Y2889465D1*
X713559D1*
X709757Y2887564D1*
X707811Y2885619D1*
X705910Y2879871D1*
Y2862671D1*
X746102D1*
X725055Y2876068D2*
X746102Y2889465D1*
X713603Y2901817D2*
X711658Y2905664D1*
X705954Y2911412D1*
X746102D1*
X705954Y2935259D2*
X707855Y2929511D1*
X713603Y2925664D1*
X723154Y2923763D1*
X728902D1*
X738452Y2925664D1*
X744200Y2929511D1*
X746102Y2935259D1*
Y2939062D1*
X744200Y2944810D1*
X738452Y2948612D1*
X728902Y2950558D1*
X723154D1*
X713603Y2948612D1*
X707855Y2944810D1*
X705954Y2939062D1*
Y2935259D1*
X713603Y2948612D2*
X738452Y2925664D1*
X993804Y2758771D2*
Y2775971D1*
X991859Y2781719D1*
X989958Y2783664D1*
X986155Y2785565D1*
X982308D1*
X978506Y2783664D1*
X976560Y2781719D1*
X974659Y2775971D1*
Y2758771D1*
X1014851D1*
X993804Y2772168D2*
X1014851Y2785565D1*
X982353Y2797917D2*
X980407Y2801764D1*
X974703Y2807512D1*
X1014851D1*
X982353Y2819863D2*
X980407Y2823710D1*
X974703Y2829458D1*
X1014851D1*
X1193806Y2750171D2*
Y2767371D1*
X1191860Y2773119D1*
X1189959Y2775064D1*
X1186157Y2776965D1*
X1182310D1*
X1178507Y2775064D1*
X1176562Y2773119D1*
X1174660Y2767371D1*
Y2750171D1*
X1214852D1*
X1193806Y2763568D2*
X1214852Y2776965D1*
X1182354Y2789317D2*
X1180408Y2793164D1*
X1174705Y2798912D1*
X1214852D1*
X1184255Y2813208D2*
X1182354Y2813209D1*
X1178507Y2815110D1*
X1176606Y2817011D1*
X1174705Y2820858D1*
Y2828507D1*
X1176606Y2832310D1*
X1178507Y2834211D1*
X1182354Y2836156D1*
X1186157D1*
X1190003Y2834211D1*
X1195707Y2830408D1*
X1214852Y2811263D1*
Y2838058D1*
X1491140Y2748937D2*
Y2766137D1*
X1489195Y2771885D1*
X1487294Y2773831D1*
X1483491Y2775732D1*
X1479644D1*
X1475842Y2773831D1*
X1473896Y2771885D1*
X1471995Y2766137D1*
Y2748937D1*
X1512187D1*
X1491140Y2762335D2*
X1512187Y2775732D1*
X1479689Y2788083D2*
X1477743Y2791930D1*
X1472039Y2797678D1*
X1512187D1*
X1472039Y2813876D2*
Y2834879D1*
X1487338Y2823427D1*
Y2829175D1*
X1489239Y2832977D1*
X1491140Y2834879D1*
X1496888Y2836824D1*
X1500691D1*
X1506439Y2834879D1*
X1510286Y2831076D1*
X1512187Y2825328D1*
Y2819580D1*
X1510286Y2813876D1*
X1508340Y2811975D1*
X1504538Y2810029D1*
X3124023Y2900476D2*
X3141223D1*
X3146971Y2902422D1*
X3148917Y2904323D1*
X3150818Y2908126D1*
Y2911972D1*
X3148917Y2915775D1*
X3146971Y2917720D1*
X3141223Y2919622D1*
X3124023D1*
Y2879430D1*
X3137421Y2900476D2*
X3150818Y2879430D1*
X3163169Y2911928D2*
X3167016Y2913874D1*
X3172764Y2919578D1*
Y2879430D1*
X3204261D2*
Y2919578D1*
X3185115Y2892827D1*
X3213811D1*
X2464764Y2028225D2*
Y2045425D1*
X2462818Y2051173D1*
X2460917Y2053118D1*
X2457115Y2055019D1*
X2453268D1*
X2449465Y2053118D1*
X2447520Y2051173D1*
X2445618Y2045425D1*
Y2028225D1*
X2485810D1*
X2464764Y2041622D2*
X2485810Y2055019D1*
X2453312Y2067371D2*
X2451366Y2071217D1*
X2445663Y2076965D1*
X2485810D1*
X2445663Y2112265D2*
Y2093164D1*
X2462863Y2091262D1*
X2460961Y2093164D1*
X2459016Y2098912D1*
Y2104615D1*
X2460961Y2110363D1*
X2464764Y2114210D1*
X2470512Y2116111D1*
X2474314D1*
X2480062Y2114210D1*
X2483909Y2110363D1*
X2485810Y2104615D1*
Y2098912D1*
X2483909Y2093164D1*
X2481964Y2091262D1*
X2478161Y2089317D1*
X2524454Y1899596D2*
X2541654D1*
X2547402Y1901541D1*
X2549348Y1903443D1*
X2551249Y1907245D1*
Y1911092D1*
X2549348Y1914894D1*
X2547402Y1916840D1*
X2541654Y1918741D1*
X2524454D1*
Y1878549D1*
X2537852Y1899596D2*
X2551249Y1878549D1*
X2563601Y1911048D2*
X2567447Y1912993D1*
X2573195Y1918697D1*
Y1878549D1*
X2608495Y1912993D2*
X2606593Y1916796D1*
X2600845Y1918697D1*
X2597043D1*
X2591295Y1916796D1*
X2587448Y1911048D1*
X2585547Y1901497D1*
Y1891947D1*
X2587448Y1884297D1*
X2591295Y1880450D1*
X2597043Y1878549D1*
X2598944D1*
X2604648Y1880450D1*
X2608495Y1884297D1*
X2610396Y1890045D1*
Y1891947D1*
X2608495Y1897695D1*
X2604648Y1901497D1*
X2598944Y1903398D1*
X2597043D1*
X2591295Y1901497D1*
X2587448Y1897695D1*
X2585547Y1891947D1*
X2725055Y2862474D2*
Y2879674D1*
X2723110Y2885422D1*
X2721208Y2887367D1*
X2717406Y2889269D1*
X2713559D1*
X2709757Y2887367D1*
X2707811Y2885422D1*
X2705910Y2879674D1*
Y2862474D1*
X2746102D1*
X2725055Y2875871D2*
X2746102Y2889269D1*
X2713603Y2901620D2*
X2711658Y2905467D1*
X2705954Y2911215D1*
X2746102D1*
Y2931215D2*
X2705954Y2950361D1*
Y2923566D1*
X1808304Y2282815D2*
Y2300015D1*
X1806359Y2305763D1*
X1804458Y2307708D1*
X1800655Y2309610D1*
X1796808D1*
X1793006Y2307708D1*
X1791060Y2305763D1*
X1789159Y2300015D1*
Y2282815D1*
X1829351D1*
X1808304Y2296212D2*
X1829351Y2309610D1*
X1798754Y2323906D2*
X1796853D1*
X1793006Y2325808D1*
X1791105Y2327709D1*
X1789203Y2331556D1*
Y2339205D1*
X1791105Y2343008D1*
X1793006Y2344909D1*
X1796853Y2346854D1*
X1800655D1*
X1804502Y2344909D1*
X1810206Y2341106D1*
X1829351Y2321961D1*
Y2348756D1*
X1789203Y2372603D2*
X1791105Y2366855D1*
X1796853Y2363008D1*
X1806403Y2361107D1*
X1812151D1*
X1821702Y2363008D1*
X1827450Y2366855D1*
X1829351Y2372603D1*
Y2376406D1*
X1827450Y2382154D1*
X1821702Y2385956D1*
X1812151Y2387902D1*
X1806403D1*
X1796853Y2385956D1*
X1791105Y2382154D1*
X1789203Y2376406D1*
Y2372603D1*
X1796853Y2385956D2*
X1821702Y2363008D1*
X1071845Y1868483D2*
X1089045D1*
X1094793Y1870429D1*
X1096738Y1872330D1*
X1098640Y1876133D1*
Y1879979D1*
X1096738Y1883782D1*
X1094793Y1885727D1*
X1089045Y1887629D1*
X1071845D1*
Y1847437D1*
X1085242Y1868483D2*
X1098640Y1847437D1*
X1112937Y1878034D2*
Y1879935D1*
X1114838Y1883782D1*
X1116739Y1885683D1*
X1120586Y1887585D1*
X1128235D1*
X1132038Y1885683D1*
X1133939Y1883782D1*
X1135885Y1879935D1*
Y1876133D1*
X1133939Y1872286D1*
X1130136Y1866582D1*
X1110991Y1847437D1*
X1137786D1*
X1150137Y1879935D2*
X1153984Y1881881D1*
X1159732Y1887585D1*
Y1847437D1*
X4113470Y2095704D2*
Y2055512D1*
X4100072Y2095704D2*
X4126867D1*
X4139218D2*
Y2055512D1*
X4156462D1*
X4162210Y2057458D1*
X4164112Y2059359D1*
X4166013Y2063162D1*
Y2068910D1*
X4164112Y2072757D1*
X4162210Y2074658D1*
X4156462Y2076559D1*
X4162210Y2078505D1*
X4164112Y2080406D1*
X4166013Y2084208D1*
Y2088055D1*
X4164112Y2091858D1*
X4162210Y2093803D1*
X4156462Y2095704D1*
X4139218D1*
Y2076559D2*
X4156462D1*
X4178364Y2088011D2*
X4182211Y2089956D1*
X4187959Y2095660D1*
Y2055512D1*
X3543973Y2997524D2*
Y2957332D1*
X3530575Y2997524D2*
X3557370D1*
X3569721D2*
Y2957332D1*
X3586966D1*
X3592714Y2959277D1*
X3594615Y2961179D1*
X3596516Y2964981D1*
Y2970729D1*
X3594615Y2974576D1*
X3592714Y2976477D1*
X3586966Y2978379D1*
X3592714Y2980324D1*
X3594615Y2982225D1*
X3596516Y2986028D1*
Y2989875D1*
X3594615Y2993677D1*
X3592714Y2995623D1*
X3586966Y2997524D1*
X3569721D1*
Y2978379D2*
X3586966D1*
X3610813Y2987929D2*
Y2989830D1*
X3612714Y2993677D1*
X3614616Y2995578D1*
X3618462Y2997480D1*
X3626112D1*
X3629914Y2995578D1*
X3631815Y2993677D1*
X3633761Y2989830D1*
Y2986028D1*
X3631815Y2982181D1*
X3628013Y2976477D1*
X3608868Y2957332D1*
X3635662D1*
X1369645Y2702594D2*
Y2673898D1*
X1371547Y2668150D1*
X1375393Y2664348D1*
X1381141Y2662402D1*
X1384944D1*
X1390692Y2664348D1*
X1394539Y2668150D1*
X1396440Y2673898D1*
Y2702594D1*
X1408791Y2694901D2*
X1412638Y2696846D1*
X1418386Y2702550D1*
Y2662402D1*
X1800422Y2056173D2*
Y2027477D1*
X1802323Y2021729D1*
X1806170Y2017926D1*
X1811918Y2015981D1*
X1815720D1*
X1821468Y2017926D1*
X1825315Y2021729D1*
X1827216Y2027477D1*
Y2056173D1*
X1849118Y2056129D2*
X1843415Y2054227D1*
X1841469Y2050425D1*
Y2046578D1*
X1843415Y2042776D1*
X1847217Y2040830D1*
X1854866Y2038929D1*
X1860615Y2037028D1*
X1864417Y2033181D1*
X1866318Y2029378D1*
Y2023630D1*
X1864417Y2019828D1*
X1862516Y2017882D1*
X1856768Y2015981D1*
X1849118D1*
X1843415Y2017882D1*
X1841469Y2019828D1*
X1839568Y2023630D1*
Y2029378D1*
X1841469Y2033181D1*
X1845316Y2037028D1*
X1851020Y2038929D1*
X1858669Y2040830D1*
X1862516Y2042776D1*
X1864417Y2046578D1*
Y2050425D1*
X1862516Y2054227D1*
X1856768Y2056129D1*
X1849118D1*
X2554412Y1827362D2*
Y1798666D1*
X2556313Y1792918D1*
X2560160Y1789115D1*
X2565908Y1787170D1*
X2569711D1*
X2575459Y1789115D1*
X2579305Y1792918D1*
X2581207Y1798666D1*
Y1827362D1*
X2618451Y1813965D2*
X2616506Y1808217D1*
X2612703Y1804370D1*
X2606955Y1802469D1*
X2605054D1*
X2599306Y1804370D1*
X2595504Y1808217D1*
X2593558Y1813965D1*
Y1815866D1*
X2595504Y1821614D1*
X2599306Y1825416D1*
X2605054Y1827318D1*
X2606955D1*
X2612703Y1825416D1*
X2616506Y1821614D1*
X2618451Y1813965D1*
Y1804370D1*
X2616506Y1794819D1*
X2612703Y1789071D1*
X2606955Y1787170D1*
X2603153D1*
X2597405Y1789071D1*
X2595504Y1792918D1*
X1256516Y555318D2*
D124*
X1323503Y454838D1*
Y555318D2*
X1256516Y454838D1*
X2719016Y555318D2*
X2757263Y507454D1*
Y454838D1*
X2795509Y555318D2*
X2757263Y507454D1*
X3506516Y555318D2*
X3573503D1*
X3506516Y454838D1*
X3573503D1*
X3837364Y1943000D2*
D125*
X3833562Y1950605D1*
X3825868Y1958298D1*
X3818263Y1962101D1*
X3802964D1*
X3795271Y1958298D1*
X3787666Y1950605D1*
X3783775Y1943000D1*
X3779972Y1931504D1*
Y1912314D1*
X3783775Y1900907D1*
X3787666Y1893213D1*
X3795271Y1885608D1*
X3802964Y1881717D1*
X3818263D1*
X3825868Y1885608D1*
X3833562Y1893213D1*
X3837364Y1900907D1*
Y1912314D1*
X3818263D1*
X3862067Y1935306D2*
Y1881717D1*
Y1920008D2*
X3873563Y1931504D1*
X3881257Y1935306D1*
X3892664D1*
X3900358Y1931504D1*
X3904160Y1920008D1*
Y1881717D1*
X3974759Y1962101D2*
Y1881717D1*
Y1923810D2*
X3967154Y1931504D1*
X3959460Y1935306D1*
X3947964D1*
X3940359Y1931504D1*
X3932666Y1923810D1*
X3928863Y1912314D1*
Y1904709D1*
X3932666Y1893213D1*
X3940359Y1885608D1*
X3947964Y1881717D1*
X3959460D1*
X3967154Y1885608D1*
X3974759Y1893213D1*
X3654972Y1746714D2*
X3662666Y1750605D1*
X3674162Y1762013D1*
Y1681717D1*
X3702756Y1742911D2*
Y1746714D1*
X3706558Y1754407D1*
X3710361Y1758210D1*
X3718054Y1762013D1*
X3733353D1*
X3740958Y1758210D1*
X3744760Y1754407D1*
X3748651Y1746714D1*
Y1739109D1*
X3744760Y1731415D1*
X3737155Y1720008D1*
X3698865Y1681717D1*
X3752454D1*
X3777157Y1721865D2*
X3821372D1*
X3849966Y1742911D2*
Y1746714D1*
X3853769Y1754407D1*
X3857571Y1758210D1*
X3865265Y1762013D1*
X3880563D1*
X3888168Y1758210D1*
X3891971Y1754407D1*
X3895862Y1746714D1*
Y1739109D1*
X3891971Y1731415D1*
X3884366Y1720008D1*
X3846075Y1681717D1*
X3899665D1*
X3962658D2*
Y1762013D1*
X3924367Y1708512D1*
X3981759D1*
X3711656Y2238341D2*
D126*
Y2195286D1*
X3690156Y2216786D2*
X3733211D1*
X3777336Y2241906D2*
X3753459D1*
X3751082Y2220406D1*
X3753459Y2222783D1*
X3760644Y2225215D1*
X3767774D1*
X3774959Y2222783D1*
X3779767Y2218030D1*
X3782144Y2210845D1*
Y2206091D1*
X3779767Y2198906D1*
X3774959Y2194098D1*
X3767774Y2191721D1*
X3760644D1*
X3753459Y2194098D1*
X3751082Y2196530D1*
X3748651Y2201283D1*
X3797583Y2225215D2*
X3811953Y2191721D1*
X3826268Y2225215D1*
X3751026Y2130023D2*
X3748650Y2134776D1*
X3743841Y2139585D1*
X3739088Y2141961D1*
X3729526D1*
X3724718Y2139585D1*
X3719965Y2134776D1*
X3717533Y2130023D1*
X3715156Y2122838D1*
Y2110845D1*
X3717533Y2103715D1*
X3719965Y2098906D1*
X3724718Y2094153D1*
X3729526Y2091721D1*
X3739088D1*
X3743841Y2094153D1*
X3748650Y2098906D1*
X3751026Y2103715D1*
Y2110845D1*
X3739088D1*
X3766466Y2125215D2*
Y2091721D1*
Y2115653D2*
X3773651Y2122838D1*
X3778459Y2125215D1*
X3785589D1*
X3790397Y2122838D1*
X3792774Y2115653D1*
Y2091721D1*
X3836898Y2141961D2*
Y2091721D1*
Y2118030D2*
X3832145Y2122838D1*
X3827336Y2125215D1*
X3820151D1*
X3815398Y2122838D1*
X3810590Y2118030D1*
X3808213Y2110845D1*
Y2106091D1*
X3810590Y2098906D1*
X3815398Y2094153D1*
X3820151Y2091721D1*
X3827336D1*
X3832145Y2094153D1*
X3836898Y2098906D1*
X3242400Y3226016D2*
X3237647Y3230825D1*
X3230462Y3233201D1*
X3220901D1*
X3213716Y3230825D1*
X3208907Y3226016D1*
Y3221263D1*
X3211339Y3216455D1*
X3213716Y3214078D1*
X3218469Y3211702D1*
X3232839Y3206893D1*
X3237647Y3204517D1*
X3240024Y3202085D1*
X3242400Y3197331D1*
Y3190146D1*
X3237647Y3185393D1*
X3230462Y3182961D1*
X3220901D1*
X3213716Y3185393D1*
X3208907Y3190146D1*
X3257840Y3216455D2*
Y3166215D1*
Y3209270D2*
X3262648Y3214023D1*
X3267401Y3216455D1*
X3274586D1*
X3279395Y3214023D1*
X3284148Y3209270D1*
X3286580Y3202085D1*
Y3197276D1*
X3284148Y3190146D1*
X3279395Y3185338D1*
X3274586Y3182961D1*
X3267401D1*
X3262648Y3185338D1*
X3257840Y3190146D1*
X3302019Y3233201D2*
X3304396Y3230825D1*
X3306827Y3233201D1*
X3304396Y3235633D1*
X3302019Y3233201D1*
X3304396Y3216455D2*
Y3182961D1*
X3322267Y3216455D2*
Y3182961D1*
Y3206893D2*
X3329452Y3214078D1*
X3334260Y3216455D1*
X3341390D1*
X3346198Y3214078D1*
X3348575Y3206893D1*
Y3182961D1*
X3392699Y3233201D2*
Y3182961D1*
Y3209270D2*
X3387946Y3214078D1*
X3383138Y3216455D1*
X3375953D1*
X3371199Y3214078D1*
X3366391Y3209270D1*
X3364014Y3202085D1*
Y3197331D1*
X3366391Y3190146D1*
X3371199Y3185393D1*
X3375953Y3182961D1*
X3383138D1*
X3387946Y3185393D1*
X3392699Y3190146D1*
X3408138Y3233201D2*
Y3182961D1*
X3423578Y3202085D2*
X3452263D1*
Y3206893D1*
X3449886Y3211702D1*
X3447509Y3214078D1*
X3442701Y3216455D1*
X3435516D1*
X3430763Y3214078D1*
X3425954Y3209270D1*
X3423578Y3202085D1*
Y3197331D1*
X3425954Y3190146D1*
X3430763Y3185393D1*
X3435516Y3182961D1*
X3442701D1*
X3447509Y3185393D1*
X3452263Y3190146D1*
X3240156Y3102085D2*
X3261656D1*
X3268841Y3104517D1*
X3271273Y3106893D1*
X3273650Y3111646D1*
Y3116455D1*
X3271273Y3121208D1*
X3268841Y3123640D1*
X3261656Y3126016D1*
X3240156D1*
Y3075776D1*
X3256903Y3102085D2*
X3273650Y3075776D1*
X3289089Y3094900D2*
X3317774D1*
Y3099708D1*
X3315397Y3104517D1*
X3313021Y3106893D1*
X3308212Y3109270D1*
X3301027D1*
X3296274Y3106893D1*
X3291466Y3102085D1*
X3289089Y3094900D1*
Y3090146D1*
X3291466Y3082961D1*
X3296274Y3078208D1*
X3301027Y3075776D1*
X3308212D1*
X3313021Y3078208D1*
X3317774Y3082961D1*
X3333213Y3126016D2*
Y3075776D1*
X3377337Y3109270D2*
Y3075776D1*
Y3102085D2*
X3372584Y3106893D1*
X3367776Y3109270D1*
X3360646D1*
X3355837Y3106893D1*
X3351084Y3102085D1*
X3348652Y3094900D1*
Y3090146D1*
X3351084Y3082961D1*
X3355837Y3078208D1*
X3360646Y3075776D1*
X3367776D1*
X3372584Y3078208D1*
X3377337Y3082961D1*
X3395208Y3109270D2*
X3409523Y3075776D1*
X3404770Y3066215D1*
X3399962Y3061406D1*
X3395208Y3059030D1*
X3392776D1*
X3423893Y3109270D2*
X3409523Y3075776D1*
X822388Y3234075D2*
X872628Y3267568D1*
X822388D2*
X872628Y3234075D1*
X1020518Y3228762D2*
X1044450Y3247885D1*
X1070758D1*
X1020518Y3267008D2*
X1044450Y3247885D1*
X1168141Y3231138D2*
Y3264631D1*
X1218381Y3231138D1*
Y3264631D1*
X1497388Y3122588D2*
Y3144143D1*
X1495011Y3151273D1*
X1492579Y3153705D1*
X1487826Y3156082D1*
X1480641D1*
X1475888Y3153705D1*
X1473456Y3151273D1*
X1471079Y3144143D1*
Y3122588D1*
X1521319D1*
X1487826Y3171521D2*
X1521319D1*
X1502196D2*
X1495011Y3173953D1*
X1490203Y3178706D1*
X1487826Y3183514D1*
Y3190699D1*
X1471079Y3206139D2*
X1521319D1*
X1495011D2*
X1490203Y3210947D1*
X1487826Y3215700D1*
Y3222885D1*
X1490203Y3227638D1*
X1495011Y3232447D1*
X1502196Y3234823D1*
X1506949D1*
X1514134Y3232447D1*
X1518888Y3227638D1*
X1521319Y3222885D1*
Y3215700D1*
X1518888Y3210947D1*
X1514134Y3206139D1*
X1578278Y3142511D2*
D123*
X1574475Y3140610D1*
X1570628Y3136763D1*
X1568727Y3132960D1*
Y3125311D1*
X1570628Y3121464D1*
X1574475Y3117662D1*
X1578278Y3115716D1*
X1584026Y3113815D1*
X1593620D1*
X1599324Y3115716D1*
X1603171Y3117662D1*
X1606974Y3121464D1*
X1608919Y3125311D1*
Y3132960D1*
X1606974Y3136763D1*
X1603171Y3140610D1*
X1599324Y3142511D1*
X1593621D1*
Y3132960D1*
X1582124Y3154862D2*
X1608919D1*
X1589774D2*
X1584026Y3160610D1*
X1582124Y3164457D1*
Y3170161D1*
X1584026Y3174008D1*
X1589774Y3175909D1*
X1608919D1*
X1568727Y3211208D2*
X1608919D1*
X1587872D2*
X1584026Y3207406D1*
X1582124Y3203559D1*
Y3197811D1*
X1584026Y3194008D1*
X1587872Y3190162D1*
X1593621Y3188260D1*
X1597423D1*
X1603171Y3190162D1*
X1606974Y3194008D1*
X1608919Y3197811D1*
Y3203559D1*
X1606974Y3207406D1*
X1603171Y3211208D1*
X1684982Y3120118D2*
D126*
Y3141618D1*
X1682550Y3148803D1*
X1680174Y3151235D1*
X1675421Y3153612D1*
X1670612D1*
X1665859Y3151235D1*
X1663427Y3148803D1*
X1661051Y3141618D1*
Y3120118D1*
X1711291D1*
X1684982Y3136865D2*
X1711291Y3153612D1*
X1684982Y3195359D2*
X1680174Y3192983D1*
X1677797Y3185798D1*
Y3178613D1*
X1680174Y3171428D1*
X1684982Y3169051D1*
X1689736Y3171428D1*
X1692167Y3176236D1*
X1694544Y3188174D1*
X1696921Y3192983D1*
X1701729Y3195359D1*
X1704106D1*
X1708859Y3192983D1*
X1711291Y3185798D1*
Y3178613D1*
X1708859Y3171428D1*
X1704106Y3169051D1*
X1661051Y3217984D2*
X1701729D1*
X1708859Y3220360D1*
X1711291Y3225169D1*
Y3229922D1*
X1677797Y3210799D2*
Y3227545D1*
X1778276Y3142511D2*
D123*
X1774474Y3140610D1*
X1770627Y3136763D1*
X1768726Y3132960D1*
Y3125311D1*
X1770627Y3121464D1*
X1774474Y3117662D1*
X1778276Y3115716D1*
X1784024Y3113815D1*
X1793619D1*
X1799323Y3115716D1*
X1803170Y3117662D1*
X1806972Y3121464D1*
X1808918Y3125311D1*
Y3132960D1*
X1806972Y3136763D1*
X1803170Y3140610D1*
X1799323Y3142511D1*
X1793619D1*
Y3132960D1*
X1782123Y3154862D2*
X1808918D1*
X1789772D2*
X1784024Y3160610D1*
X1782123Y3164457D1*
Y3170161D1*
X1784024Y3174008D1*
X1789772Y3175909D1*
X1808918D1*
X1768726Y3211208D2*
X1808918D1*
X1787871D2*
X1784024Y3207406D1*
X1782123Y3203559D1*
Y3197811D1*
X1784024Y3194008D1*
X1787871Y3190162D1*
X1793619Y3188260D1*
X1797422D1*
X1803170Y3190162D1*
X1806972Y3194008D1*
X1808918Y3197811D1*
Y3203559D1*
X1806972Y3207406D1*
X1803170Y3211208D1*
X1870547Y3151301D2*
D126*
X1865738Y3146548D1*
X1863362Y3139363D1*
Y3129801D1*
X1865738Y3122616D1*
X1870547Y3117807D1*
X1875300D1*
X1880108Y3120239D1*
X1882485Y3122616D1*
X1884861Y3127369D1*
X1889670Y3141739D1*
X1892047Y3146548D1*
X1894478Y3148924D1*
X1899232Y3151301D1*
X1906417D1*
X1911170Y3146548D1*
X1913602Y3139362D1*
Y3129801D1*
X1911170Y3122616D1*
X1906417Y3117807D1*
X1880108Y3166740D2*
X1913602D1*
X1894478D2*
X1887293Y3169172D1*
X1882485Y3173925D1*
X1880108Y3178733D1*
Y3185918D1*
X1863362Y3208543D2*
X1904040D1*
X1911170Y3210919D1*
X1913602Y3215728D1*
Y3220481D1*
X1880108Y3201358D2*
Y3218104D1*
X1990778Y3142511D2*
D123*
X1986975Y3140610D1*
X1983128Y3136763D1*
X1981227Y3132960D1*
Y3125311D1*
X1983128Y3121464D1*
X1986975Y3117662D1*
X1990778Y3115716D1*
X1996526Y3113815D1*
X2006120D1*
X2011824Y3115716D1*
X2015671Y3117662D1*
X2019474Y3121464D1*
X2021419Y3125311D1*
Y3132960D1*
X2019474Y3136763D1*
X2015671Y3140610D1*
X2011824Y3142511D1*
X2006121D1*
Y3132960D1*
X1994624Y3154862D2*
X2021419D1*
X2002274D2*
X1996526Y3160610D1*
X1994624Y3164457D1*
Y3170161D1*
X1996526Y3174008D1*
X2002274Y3175909D1*
X2021419D1*
X1981227Y3211208D2*
X2021419D1*
X2000372D2*
X1996526Y3207406D1*
X1994624Y3203559D1*
Y3197811D1*
X1996526Y3194008D1*
X2000372Y3190162D1*
X2006121Y3188260D1*
X2009923D1*
X2015671Y3190162D1*
X2019474Y3194008D1*
X2021419Y3197811D1*
Y3203559D1*
X2019474Y3207406D1*
X2015671Y3211208D1*
X2069330Y3111838D2*
D126*
X2119570D1*
X2069330Y3145331D2*
X2119570D1*
X2093262Y3111838D2*
Y3145331D1*
X2086077Y3172708D2*
X2088453Y3167955D1*
X2093262Y3163147D1*
X2100447Y3160770D1*
X2105200D1*
X2112385Y3163147D1*
X2117138Y3167955D1*
X2119570Y3172708D1*
Y3179893D1*
X2117138Y3184702D1*
X2112385Y3189455D1*
X2105200Y3191887D1*
X2100447D1*
X2093262Y3189455D1*
X2088453Y3184702D1*
X2086077Y3179893D1*
Y3172708D1*
X2069330Y3207326D2*
X2119570D1*
X2069330Y3251450D2*
X2119570D1*
X2093262D2*
X2088453Y3246697D1*
X2086077Y3241889D1*
Y3234704D1*
X2088453Y3229950D1*
X2093262Y3225142D1*
X2100447Y3222765D1*
X2105200D1*
X2112385Y3225142D1*
X2117138Y3229950D1*
X2119570Y3234704D1*
Y3241889D1*
X2117138Y3246697D1*
X2112385Y3251450D1*
X2178278Y3142511D2*
D123*
X2174475Y3140610D1*
X2170628Y3136763D1*
X2168727Y3132960D1*
Y3125311D1*
X2170628Y3121464D1*
X2174475Y3117662D1*
X2178278Y3115716D1*
X2184026Y3113815D1*
X2193620D1*
X2199324Y3115716D1*
X2203171Y3117662D1*
X2206974Y3121464D1*
X2208919Y3125311D1*
Y3132960D1*
X2206974Y3136763D1*
X2203171Y3140610D1*
X2199324Y3142511D1*
X2193621D1*
Y3132960D1*
X2182124Y3154862D2*
X2208919D1*
X2189774D2*
X2184026Y3160610D1*
X2182124Y3164457D1*
Y3170161D1*
X2184026Y3174008D1*
X2189774Y3175909D1*
X2208919D1*
X2168727Y3211208D2*
X2208919D1*
X2187872D2*
X2184026Y3207406D1*
X2182124Y3203559D1*
Y3197811D1*
X2184026Y3194008D1*
X2187872Y3190162D1*
X2193621Y3188260D1*
X2197423D1*
X2203171Y3190162D1*
X2206974Y3194008D1*
X2208919Y3197811D1*
Y3203559D1*
X2206974Y3207406D1*
X2203171Y3211208D1*
X2793791Y3116046D2*
Y3133290D1*
X2791890Y3138994D1*
X2789944Y3140939D1*
X2786142Y3142841D1*
X2780393D1*
X2776591Y3140939D1*
X2774645Y3138994D1*
X2772744Y3133290D1*
Y3116046D1*
X2812936D1*
X2786142Y3155192D2*
X2812936Y3162841D1*
X2786142Y3170491D1*
X2812936Y3178140D1*
X2786142Y3185789D1*
Y3198141D2*
X2812936D1*
X2793791D2*
X2788043Y3203889D1*
X2786142Y3207735D1*
Y3213439D1*
X2788043Y3217286D1*
X2793791Y3219187D1*
X2812936D1*
X2793791D2*
X2788043Y3224935D1*
X2786141Y3228782D1*
Y3234486D1*
X2788043Y3238333D1*
X2793791Y3240278D1*
X2812936D1*
X2878276Y3142511D2*
X2874474Y3140610D1*
X2870627Y3136763D1*
X2868726Y3132960D1*
Y3125311D1*
X2870627Y3121464D1*
X2874474Y3117662D1*
X2878276Y3115716D1*
X2884024Y3113815D1*
X2893619D1*
X2899323Y3115716D1*
X2903170Y3117662D1*
X2906972Y3121464D1*
X2908918Y3125311D1*
Y3132960D1*
X2906972Y3136763D1*
X2903170Y3140610D1*
X2899323Y3142511D1*
X2893619D1*
Y3132960D1*
X2882123Y3154862D2*
X2908918D1*
X2889772D2*
X2884024Y3160610D1*
X2882123Y3164457D1*
Y3170161D1*
X2884024Y3174008D1*
X2889772Y3175909D1*
X2908918D1*
X2868726Y3211208D2*
X2908918D1*
X2887871D2*
X2884024Y3207406D1*
X2882123Y3203559D1*
Y3197811D1*
X2884024Y3194008D1*
X2887871Y3190162D1*
X2893619Y3188260D1*
X2897422D1*
X2903170Y3190162D1*
X2906972Y3194008D1*
X2908918Y3197811D1*
Y3203559D1*
X2906972Y3207406D1*
X2903170Y3211208D1*
X3583019Y2136452D2*
D126*
Y2105335D1*
X3633259D1*
X3606951D2*
Y2124458D1*
X3599766Y2180576D2*
X3633259D1*
X3606951D2*
X3602142Y2175823D1*
X3599766Y2171014D1*
Y2163884D1*
X3602142Y2159076D1*
X3606951Y2154323D1*
X3614136Y2151891D1*
X3618889D1*
X3626074Y2154323D1*
X3630827Y2159076D1*
X3633259Y2163884D1*
Y2171014D1*
X3630827Y2175823D1*
X3626074Y2180576D1*
X3599766Y2196015D2*
X3633259D1*
X3609327D2*
X3602142Y2203200D1*
X3599766Y2208009D1*
Y2215138D1*
X3602142Y2219947D1*
X3609327Y2222323D1*
X3633259D1*
X3489751Y1687301D2*
D125*
X3570135D1*
X3516545Y1712003D2*
X3570135D1*
X3531844D2*
X3520348Y1723499D1*
X3516545Y1731193D1*
Y1742600D1*
X3520348Y1750294D1*
X3531844Y1754097D1*
X3570135Y1754096D1*
X3516545Y1778799D2*
X3596929D1*
X3528042D2*
X3520436Y1786493D1*
X3516545Y1794098D1*
Y1805594D1*
X3520436Y1813287D1*
X3528041Y1820893D1*
X3539538Y1824784D1*
X3547231D1*
X3558639Y1820893D1*
X3566332Y1813287D1*
X3570135Y1805594D1*
Y1794098D1*
X3566332Y1786493D1*
X3558639Y1778799D1*
X3516545Y1849486D2*
X3554836D1*
X3566244Y1853289D1*
X3570135Y1860982D1*
Y1872478D1*
X3566244Y1880084D1*
X3554836Y1891580D1*
X3516545D2*
X3570135D1*
X3489751Y1927778D2*
X3554836D1*
X3566244Y1931581D1*
X3570135Y1939274D1*
Y1946880D1*
X3516545Y1916282D2*
Y1943077D1*
X2469982Y2672976D2*
D123*
Y2713168D1*
X2454683Y2672976D1*
X2439384Y2713168D1*
Y2672976D1*
X2482333Y2692121D2*
X2499577D1*
X2505281Y2694023D1*
X2507226Y2695968D1*
X2509128Y2699771D1*
Y2705519D1*
X2507226Y2709321D1*
X2505281Y2711267D1*
X2499577Y2713168D1*
X2482333D1*
Y2672976D1*
X2550175Y2703617D2*
X2548274Y2707420D1*
X2544427Y2711267D1*
X2540624Y2713168D1*
X2532975D1*
X2529128Y2711267D1*
X2525326Y2707420D1*
X2523380Y2703617D1*
X2521479Y2697869D1*
Y2688275D1*
X2523380Y2682571D1*
X2525326Y2678724D1*
X2529128Y2674921D1*
X2532975Y2672976D1*
X2540624D1*
X2544427Y2674921D1*
X2548274Y2678724D1*
X2550175Y2682571D1*
X2589321Y2713168D2*
Y2672976D1*
X2562526Y2713168D1*
Y2672976D1*
X2630368Y2703617D2*
X2628467Y2707420D1*
X2624620Y2711267D1*
X2620818Y2713168D1*
X2613169D1*
X2609322Y2711267D1*
X2605519Y2707420D1*
X2603574Y2703617D1*
X2601673Y2697869D1*
Y2688275D1*
X2603574Y2682571D1*
X2605519Y2678724D1*
X2609322Y2674921D1*
X2613169Y2672976D1*
X2620818D1*
X2624620Y2674921D1*
X2628467Y2678724D1*
X2630368Y2682571D1*
X2768080Y2703617D2*
X2766179Y2707420D1*
X2762332Y2711267D1*
X2758530Y2713168D1*
X2750881D1*
X2747034Y2711267D1*
X2743231Y2707420D1*
X2741286Y2703617D1*
X2739384Y2697869D1*
Y2688275D1*
X2741286Y2682571D1*
X2743231Y2678724D1*
X2747034Y2674921D1*
X2750881Y2672976D1*
X2758530D1*
X2762332Y2674921D1*
X2766179Y2678724D1*
X2768080Y2682571D1*
Y2688275D1*
X2758530D1*
X2780432Y2699771D2*
Y2672976D1*
Y2688275D2*
X2782377Y2694023D1*
X2786180Y2697869D1*
X2790027Y2699771D1*
X2795775D1*
X2808126Y2713168D2*
Y2672976D1*
Y2694023D2*
X2811973Y2697869D1*
X2815775Y2699771D1*
X2821523D1*
X2825326Y2697869D1*
X2829173Y2694023D1*
X2831074Y2688275D1*
Y2684472D1*
X2829173Y2678724D1*
X2825326Y2674921D1*
X2821523Y2672976D1*
X2815775D1*
X2811973Y2674921D1*
X2808126Y2678724D1*
X2843425Y2713168D2*
Y2672976D1*
X2855777Y2666344D2*
X2892122D1*
X2929323Y2713168D2*
X2904473D1*
Y2672976D1*
X2929323D1*
X2904473Y2694023D2*
X2919772D1*
X2968469Y2707420D2*
X2964666Y2711267D1*
X2958918Y2713168D1*
X2951269D1*
X2945521Y2711267D1*
X2941674Y2707420D1*
Y2703617D1*
X2943619Y2699771D1*
X2945521Y2697869D1*
X2949323Y2695968D1*
X2960819Y2692121D1*
X2964666Y2690220D1*
X2966567Y2688275D1*
X2968469Y2684472D1*
Y2678724D1*
X2964666Y2674921D1*
X2958918Y2672976D1*
X2951269D1*
X2945521Y2674921D1*
X2941674Y2678724D1*
X2980820Y2692121D2*
X2998064D1*
X3003768Y2694023D1*
X3005713Y2695968D1*
X3007615Y2699771D1*
Y2705519D1*
X3005713Y2709321D1*
X3003768Y2711267D1*
X2998064Y2713168D1*
X2980820D1*
Y2672976D1*
X3023813Y2713124D2*
X3044815D1*
X3033363Y2697825D1*
X3039111D1*
X3042914Y2695924D1*
X3044815Y2694023D1*
X3046761Y2688275D1*
Y2684472D1*
X3044815Y2678724D1*
X3041013Y2674877D1*
X3035265Y2672976D1*
X3029517D1*
X3023813Y2674877D1*
X3021912Y2676823D1*
X3019966Y2680625D1*
X3061058Y2703573D2*
Y2705474D1*
X3062959Y2709321D1*
X3064860Y2711222D1*
X3068707Y2713124D1*
X3076356D1*
X3080159Y2711222D1*
X3082060Y2709321D1*
X3084006Y2705474D1*
Y2701672D1*
X3082060Y2697825D1*
X3078257Y2692121D1*
X3059112Y2672976D1*
X3085907D1*
X2468080Y2628617D2*
X2466179Y2632420D1*
X2462332Y2636267D1*
X2458530Y2638168D1*
X2450881D1*
X2447034Y2636267D1*
X2443231Y2632420D1*
X2441286Y2628617D1*
X2439384Y2622869D1*
Y2613275D1*
X2441286Y2607571D1*
X2443231Y2603724D1*
X2447034Y2599921D1*
X2450881Y2597976D1*
X2458530D1*
X2462332Y2599921D1*
X2466179Y2603724D1*
X2468080Y2607571D1*
X2489982Y2624771D2*
X2486180Y2622869D1*
X2482333Y2619023D1*
X2480432Y2613275D1*
Y2609472D1*
X2482333Y2603724D1*
X2486180Y2599921D1*
X2489982Y2597976D1*
X2495730D1*
X2499577Y2599921D1*
X2503380Y2603724D1*
X2505325Y2609472D1*
Y2613275D1*
X2503380Y2619023D1*
X2499577Y2622869D1*
X2495730Y2624771D1*
X2489982D1*
X2517677D2*
Y2597976D1*
Y2617121D2*
X2523425Y2622869D1*
X2527271Y2624771D1*
X2532975D1*
X2536822Y2622869D1*
X2538723Y2617121D1*
Y2597976D1*
X2556823Y2638168D2*
Y2605625D1*
X2558724Y2599921D1*
X2562571Y2597976D1*
X2566373D1*
X2551075Y2624771D2*
X2564472D1*
X2578725D2*
Y2597976D1*
Y2613275D2*
X2580670Y2619023D1*
X2584473Y2622869D1*
X2588319Y2624771D1*
X2594067D1*
X2615969D2*
X2612167Y2622869D1*
X2608320Y2619023D1*
X2606419Y2613275D1*
Y2609472D1*
X2608320Y2603724D1*
X2612167Y2599921D1*
X2615969Y2597976D1*
X2621717D1*
X2625564Y2599921D1*
X2629367Y2603724D1*
X2631312Y2609472D1*
Y2613275D1*
X2629367Y2619023D1*
X2625564Y2622869D1*
X2621717Y2624771D1*
X2615969D1*
X2643664Y2638168D2*
Y2597976D1*
X2656015Y2638168D2*
Y2597976D1*
X2668366Y2613275D2*
X2691314D1*
Y2617121D1*
X2689413Y2620968D1*
X2687512Y2622869D1*
X2683665Y2624771D1*
X2677917D1*
X2674114Y2622869D1*
X2670268Y2619023D1*
X2668366Y2613275D1*
Y2609472D1*
X2670268Y2603724D1*
X2674114Y2599921D1*
X2677917Y2597976D1*
X2683665D1*
X2687512Y2599921D1*
X2691314Y2603724D1*
X2703666Y2624771D2*
Y2597976D1*
Y2613275D2*
X2705611Y2619023D1*
X2709414Y2622869D1*
X2713261Y2624771D1*
X2719009D1*
X2770241Y2638168D2*
X2785539Y2597976D1*
X2800838Y2638168D1*
X2813189Y2630474D2*
X2817036Y2632420D1*
X2822784Y2638124D1*
Y2597976D1*
X2837037Y2601823D2*
X2835136Y2599877D1*
X2837037Y2597976D1*
X2838982Y2599877D1*
X2837037Y2601823D1*
X2862830Y2638124D2*
X2857082Y2636222D1*
X2853235Y2630474D1*
X2851334Y2620924D1*
Y2615176D1*
X2853235Y2605625D1*
X2857082Y2599877D1*
X2862830Y2597976D1*
X2866632D1*
X2872380Y2599877D1*
X2876183Y2605625D1*
X2878128Y2615176D1*
Y2620924D1*
X2876183Y2630474D1*
X2872380Y2636222D1*
X2866632Y2638124D1*
X2862830D1*
X2876183Y2630474D2*
X2853235Y2605625D1*
X2439384Y2562271D2*
X2447034Y2535476D1*
X2454683Y2562271D1*
X2462332Y2535476D1*
X2469982Y2562271D1*
X2482333D2*
X2489982Y2535476D1*
X2497632Y2562271D1*
X2505281Y2535476D1*
X2512930Y2562271D1*
X2525282D2*
X2532931Y2535476D1*
X2540580Y2562271D1*
X2548230Y2535476D1*
X2555879Y2562271D1*
X2570132Y2539323D2*
X2568230Y2537377D1*
X2570132Y2535476D1*
X2572077Y2537377D1*
X2570132Y2539323D1*
X2584428Y2575668D2*
Y2535476D1*
Y2556523D2*
X2588275Y2560369D1*
X2592078Y2562271D1*
X2597826D1*
X2601628Y2560369D1*
X2605475Y2556523D1*
X2607376Y2550775D1*
Y2546972D1*
X2605475Y2541224D1*
X2601628Y2537421D1*
X2597826Y2535476D1*
X2592078D1*
X2588275Y2537421D1*
X2584428Y2541224D1*
X2619728Y2562271D2*
Y2543125D1*
X2621629Y2537421D1*
X2625476Y2535476D1*
X2631224D1*
X2635026Y2537421D1*
X2640774Y2543125D1*
Y2562271D2*
Y2535476D1*
X2653126Y2575668D2*
X2655027Y2573767D1*
X2656973Y2575668D1*
X2655027Y2577613D1*
X2653126Y2575668D1*
X2655027Y2562271D2*
Y2535476D1*
X2669324Y2575668D2*
Y2535476D1*
X2704623Y2575668D2*
Y2535476D1*
Y2556523D2*
X2700821Y2560369D1*
X2696974Y2562271D1*
X2691226D1*
X2687423Y2560369D1*
X2683577Y2556523D1*
X2681675Y2550775D1*
Y2546972D1*
X2683577Y2541224D1*
X2687423Y2537421D1*
X2691226Y2535476D1*
X2696974D1*
X2700821Y2537421D1*
X2704623Y2541224D1*
X2716975Y2575668D2*
Y2535476D1*
X2738877Y2562271D2*
X2735074Y2560369D1*
X2731227Y2556523D1*
X2729326Y2550775D1*
Y2546972D1*
X2731227Y2541224D1*
X2735074Y2537421D1*
X2738877Y2535476D1*
X2744625D1*
X2748471Y2537421D1*
X2752274Y2541224D1*
X2754219Y2546972D1*
Y2550775D1*
X2752274Y2556523D1*
X2748471Y2560369D1*
X2744625Y2562271D1*
X2738877D1*
X2789519Y2560369D2*
Y2529728D1*
X2787617Y2524024D1*
X2785716Y2522079D1*
X2781869Y2520177D1*
X2776121D1*
X2772319Y2522079D1*
X2789519Y2554621D2*
X2785716Y2558424D1*
X2781869Y2560369D1*
X2776121D1*
X2772319Y2558424D1*
X2768472Y2554621D1*
X2766571Y2548873D1*
Y2545027D1*
X2768472Y2539323D1*
X2772319Y2535476D1*
X2776121Y2533575D1*
X2781869D1*
X2785716Y2535476D1*
X2789519Y2539323D1*
X2803771D2*
X2801870Y2537377D1*
X2803771Y2535476D1*
X2805717Y2537377D1*
X2803771Y2539323D1*
X2818068Y2562271D2*
Y2535476D1*
Y2554621D2*
X2823816Y2560369D1*
X2827663Y2562271D1*
X2833367D1*
X2837214Y2560369D1*
X2839115Y2554621D1*
Y2535476D1*
X2851466Y2550775D2*
X2874414D1*
Y2554621D1*
X2872513Y2558468D1*
X2870612Y2560369D1*
X2866765Y2562271D1*
X2861017D1*
X2857214Y2560369D1*
X2853368Y2556523D1*
X2851466Y2550775D1*
Y2546972D1*
X2853368Y2541224D1*
X2857214Y2537421D1*
X2861017Y2535476D1*
X2866765D1*
X2870612Y2537421D1*
X2874414Y2541224D1*
X2892514Y2575668D2*
Y2543125D1*
X2894415Y2537421D1*
X2898262Y2535476D1*
X2902064D1*
X2886766Y2562271D2*
X2900163D1*
X2914416Y2535476D2*
X2941210Y2575624D1*
X2953562Y2575668D2*
Y2535476D1*
Y2556523D2*
X2957408Y2560369D1*
X2961211Y2562271D1*
X2966959D1*
X2970762Y2560369D1*
X2974608Y2556523D1*
X2976510Y2550775D1*
Y2546972D1*
X2974608Y2541224D1*
X2970762Y2537421D1*
X2966959Y2535476D1*
X2961211D1*
X2957408Y2537421D1*
X2953562Y2541224D1*
X2988861Y2575668D2*
Y2535476D1*
X3010763Y2562271D2*
X3006960Y2560369D1*
X3003114Y2556523D1*
X3001212Y2550775D1*
Y2546972D1*
X3003114Y2541224D1*
X3006960Y2537421D1*
X3010763Y2535476D1*
X3016511D1*
X3020358Y2537421D1*
X3024160Y2541224D1*
X3026106Y2546972D1*
Y2550775D1*
X3024160Y2556523D1*
X3020358Y2560369D1*
X3016511Y2562271D1*
X3010763D1*
X3061405Y2560369D2*
Y2529728D1*
X3059504Y2524024D1*
X3057603Y2522079D1*
X3053756Y2520177D1*
X3048008D1*
X3044205Y2522079D1*
X3061405Y2554621D2*
X3057603Y2558424D1*
X3053756Y2560369D1*
X3048008D1*
X3044205Y2558424D1*
X3040358Y2554621D1*
X3038457Y2548873D1*
Y2545027D1*
X3040358Y2539323D1*
X3044205Y2535476D1*
X3048008Y2533575D1*
X3053756D1*
X3057603Y2535476D1*
X3061405Y2539323D1*
X2460431Y2491073D2*
X2454683D1*
X2450881Y2489172D1*
X2448935Y2487271D1*
X2447034Y2483424D1*
Y2475775D1*
X2448935Y2473873D1*
X2452782D1*
X2460431Y2475775D1*
X2462332Y2471972D1*
X2464234D1*
X2468080Y2475775D1*
X2469982Y2485325D1*
X2468080Y2491073D1*
X2466179Y2494920D1*
X2462332Y2498722D1*
X2458530Y2500624D1*
X2450881D1*
X2447034Y2498722D1*
X2443231Y2494920D1*
X2441286Y2491073D1*
X2439384Y2485325D1*
Y2475775D1*
X2441286Y2470027D1*
X2443231Y2466224D1*
X2447034Y2462377D1*
X2450881Y2460476D1*
X2458530D1*
X2462332Y2462377D1*
X2466179Y2466224D1*
X2460431Y2492974D2*
Y2475775D1*
X2482333Y2500668D2*
Y2460476D1*
Y2481523D2*
X2486180Y2485369D1*
X2489982Y2487271D1*
X2495730D1*
X2499533Y2485369D1*
X2503380Y2481523D1*
X2505281Y2475775D1*
Y2471972D1*
X2503380Y2466224D1*
X2499533Y2462421D1*
X2495730Y2460476D1*
X2489982D1*
X2486180Y2462421D1*
X2482333Y2466224D1*
X2517632Y2487271D2*
Y2468125D1*
X2519534Y2462421D1*
X2523380Y2460476D1*
X2529128D1*
X2532931Y2462421D1*
X2538679Y2468125D1*
Y2487271D2*
Y2460476D1*
X2551030Y2500668D2*
X2552932Y2498767D1*
X2554877Y2500668D1*
X2552932Y2502613D1*
X2551030Y2500668D1*
X2552932Y2487271D2*
Y2460476D1*
X2567229Y2500668D2*
Y2460476D1*
X2602528Y2500668D2*
Y2460476D1*
Y2481523D2*
X2598725Y2485369D1*
X2594879Y2487271D1*
X2589131D1*
X2585328Y2485369D1*
X2581481Y2481523D1*
X2579580Y2475775D1*
Y2471972D1*
X2581481Y2466224D1*
X2585328Y2462421D1*
X2589131Y2460476D1*
X2594879D1*
X2598725Y2462421D1*
X2602528Y2466224D1*
X2614879Y2500668D2*
Y2460476D1*
X2636781Y2487271D2*
X2632979Y2485369D1*
X2629132Y2481523D1*
X2627231Y2475775D1*
Y2471972D1*
X2629132Y2466224D1*
X2632979Y2462421D1*
X2636781Y2460476D1*
X2642529D1*
X2646376Y2462421D1*
X2650179Y2466224D1*
X2652124Y2471972D1*
Y2475775D1*
X2650179Y2481523D1*
X2646376Y2485369D1*
X2642529Y2487271D1*
X2636781D1*
X2687423Y2485369D2*
Y2454728D1*
X2685522Y2449024D1*
X2683621Y2447079D1*
X2679774Y2445177D1*
X2674026D1*
X2670223Y2447079D1*
X2687423Y2479621D2*
X2683621Y2483424D1*
X2679774Y2485369D1*
X2674026D1*
X2670223Y2483424D1*
X2666377Y2479621D1*
X2664475Y2473873D1*
Y2470027D1*
X2666377Y2464323D1*
X2670223Y2460476D1*
X2674026Y2458575D1*
X2679774D1*
X2683621Y2460476D1*
X2687423Y2464323D1*
X1293080Y3153617D2*
X1291179Y3157420D1*
X1287332Y3161267D1*
X1283530Y3163168D1*
X1275881D1*
X1272034Y3161267D1*
X1268231Y3157420D1*
X1266286Y3153617D1*
X1264384Y3147869D1*
Y3138275D1*
X1266286Y3132571D1*
X1268231Y3128724D1*
X1272034Y3124921D1*
X1275881Y3122976D1*
X1283530D1*
X1287332Y3124921D1*
X1291179Y3128724D1*
X1293080Y3132571D1*
Y3138275D1*
X1283530D1*
X718080Y3153617D2*
X716179Y3157420D1*
X712332Y3161267D1*
X708530Y3163168D1*
X700881D1*
X697034Y3161267D1*
X693231Y3157420D1*
X691286Y3153617D1*
X689384Y3147869D1*
Y3138275D1*
X691286Y3132571D1*
X693231Y3128724D1*
X697034Y3124921D1*
X700881Y3122976D1*
X708530D1*
X712332Y3124921D1*
X716179Y3128724D1*
X718080Y3132571D1*
Y3138275D1*
X708530D1*
X2568726Y3113815D2*
X2608918D1*
X2582123Y3126166D2*
X2608918D1*
X2589772D2*
X2584024Y3131914D1*
X2582123Y3135761D1*
Y3141465D1*
X2584024Y3145312D1*
X2589772Y3147213D1*
X2608918D1*
X2568726Y3165312D2*
X2601268D1*
X2606972Y3167214D1*
X2608918Y3171060D1*
Y3174863D1*
X2582123Y3159564D2*
Y3172962D1*
X2568726Y3187214D2*
X2608918D1*
X2568726Y3199566D2*
X2608918D1*
X2582123Y3218711D2*
X2601268Y3199566D1*
X2593619Y3207215D2*
X2608918Y3220612D1*
X2668726Y3113815D2*
X2708918D1*
X2682123Y3126166D2*
X2708918D1*
X2689772D2*
X2684024Y3131914D1*
X2682123Y3135761D1*
Y3141465D1*
X2684024Y3145312D1*
X2689772Y3147213D1*
X2708918D1*
X2668726Y3165312D2*
X2701268D1*
X2706972Y3167214D1*
X2708918Y3171060D1*
Y3174863D1*
X2682123Y3159564D2*
Y3172962D1*
X2668726Y3187214D2*
X2708918D1*
X2668726Y3199566D2*
X2708918D1*
X2682123Y3218711D2*
X2701268Y3199566D1*
X2693619Y3207215D2*
X2708918Y3220612D1*
X1659976Y1837427D2*
X1656173Y1835526D1*
X1652327Y1831679D1*
X1650425Y1827876D1*
Y1820227D1*
X1652327Y1816380D1*
X1656173Y1812578D1*
X1659976Y1810632D1*
X1665724Y1808731D1*
X1675319D1*
X1681022Y1810632D1*
X1684869Y1812578D1*
X1688672Y1816380D1*
X1690617Y1820227D1*
Y1827876D1*
X1688672Y1831679D1*
X1684869Y1835526D1*
X1681022Y1837427D1*
X1675319D1*
Y1827876D1*
X1663823Y1872726D2*
X1690617D1*
X1669571D2*
X1665724Y1868924D1*
X1663823Y1865077D1*
Y1859373D1*
X1665724Y1855526D1*
X1669571Y1851724D1*
X1675319Y1849778D1*
X1679121D1*
X1684869Y1851724D1*
X1688672Y1855526D1*
X1690617Y1859373D1*
Y1865077D1*
X1688672Y1868924D1*
X1684869Y1872726D1*
X1663823Y1885078D2*
X1690617D1*
X1671472D2*
X1665724Y1890826D1*
X1663823Y1894672D1*
Y1900376D1*
X1665724Y1904223D1*
X1671472Y1906124D1*
X1690617D1*
X1665724Y1941423D2*
X1696365D1*
X1702069Y1939522D1*
X1704015Y1937621D1*
X1705916Y1933774D1*
Y1928026D1*
X1704015Y1924224D1*
X1671472Y1941423D2*
X1667669Y1937621D1*
X1665724Y1933774D1*
Y1928026D1*
X1667669Y1924224D1*
X1671472Y1920377D1*
X1677220Y1918476D1*
X1681067D1*
X1686770Y1920377D1*
X1690617Y1924224D1*
X1692519Y1928026D1*
Y1933774D1*
X1690617Y1937621D1*
X1686770Y1941423D1*
X1650425Y1953775D2*
X1669571Y1969073D1*
X1690617D1*
X1650425Y1984372D2*
X1669571Y1969073D1*
X1950628Y1840930D2*
X1946826Y1839028D1*
X1942979Y1835182D1*
X1941077Y1831379D1*
Y1823730D1*
X1942979Y1819883D1*
X1946825Y1816080D1*
X1950628Y1814135D1*
X1956376Y1812234D1*
X1965971D1*
X1971675Y1814135D1*
X1975521Y1816080D1*
X1979324Y1819883D1*
X1981270Y1823730D1*
Y1831379D1*
X1979324Y1835181D1*
X1975521Y1839028D1*
X1971675Y1840930D1*
X1965971D1*
Y1831379D1*
X1954475Y1876229D2*
X1981269D1*
X1960223D2*
X1956376Y1872426D1*
X1954475Y1868580D1*
Y1862876D1*
X1956376Y1859029D1*
X1960223Y1855226D1*
X1965971Y1853281D1*
X1969773D1*
X1975521Y1855226D1*
X1979324Y1859029D1*
X1981269Y1862876D1*
Y1868579D1*
X1979324Y1872426D1*
X1975521Y1876229D1*
X1954475Y1888580D2*
X1981269D1*
X1962124D2*
X1956376Y1894328D1*
X1954475Y1898175D1*
Y1903879D1*
X1956376Y1907726D1*
X1962124Y1909627D1*
X1981269D1*
X1956376Y1944926D2*
X1987017D1*
X1992721Y1943025D1*
X1994667Y1941124D1*
X1996568Y1937277D1*
Y1931529D1*
X1994667Y1927726D1*
X1962124Y1944926D2*
X1958322Y1941124D1*
X1956376Y1937277D1*
Y1931529D1*
X1958322Y1927726D1*
X1962124Y1923879D1*
X1967872Y1921978D1*
X1971719D1*
X1977423Y1923879D1*
X1981269Y1927726D1*
X1983171Y1931529D1*
Y1937277D1*
X1981269Y1941124D1*
X1977423Y1944926D1*
X1941077Y1957278D2*
X1981269Y1984072D1*
X1941077D2*
X1981269Y1957278D1*
X1197412Y2290356D2*
Y2261660D1*
X1199313Y2255912D1*
X1203160Y2252109D1*
X1208908Y2250164D1*
X1212711D1*
X1218459Y2252109D1*
X1222305Y2255912D1*
X1224207Y2261660D1*
Y2290356D1*
X1263353Y2284608D2*
X1259550Y2288454D1*
X1253802Y2290356D1*
X1246153D1*
X1240405Y2288454D1*
X1236558Y2284608D1*
Y2280805D1*
X1238504Y2276958D1*
X1240405Y2275057D1*
X1244207Y2273156D1*
X1255703Y2269309D1*
X1259550Y2267408D1*
X1261451Y2265462D1*
X1263353Y2261660D1*
Y2255912D1*
X1259550Y2252109D1*
X1253802Y2250164D1*
X1246153D1*
X1240405Y2252109D1*
X1236558Y2255912D1*
X1275704Y2290356D2*
Y2250164D1*
X1292948D1*
X1298696Y2252109D1*
X1300598Y2254010D1*
X1302499Y2257813D1*
Y2263561D1*
X1300598Y2267408D1*
X1298696Y2269309D1*
X1292948Y2271210D1*
X1298696Y2273156D1*
X1300598Y2275057D1*
X1302499Y2278860D1*
Y2282706D1*
X1300598Y2286509D1*
X1298696Y2288454D1*
X1292948Y2290356D1*
X1275704D1*
Y2271210D2*
X1292948D1*
X1378580Y2290356D2*
X1353731D1*
Y2250164D1*
X1378580D1*
X1353731Y2271210D2*
X1369030D1*
X1390932Y2276958D2*
Y2250164D1*
Y2269309D2*
X1396680Y2275057D1*
X1400526Y2276958D1*
X1406230D1*
X1410077Y2275057D1*
X1411978Y2269309D1*
Y2250164D1*
X1447277Y2290356D2*
Y2250164D1*
Y2271210D2*
X1443475Y2275057D1*
X1439628Y2276958D1*
X1433880D1*
X1430078Y2275057D1*
X1426231Y2271210D1*
X1424330Y2265462D1*
Y2261660D1*
X1426231Y2255912D1*
X1430078Y2252109D1*
X1433880Y2250164D1*
X1439628D1*
X1443475Y2252109D1*
X1447277Y2255912D1*
X1204489Y1969947D2*
Y1941252D1*
X1206391Y1935504D1*
X1210237Y1931701D1*
X1215985Y1929755D1*
X1219788D1*
X1225536Y1931701D1*
X1229383Y1935504D1*
X1231284Y1941252D1*
Y1969947D1*
X1270430Y1964199D2*
X1266628Y1968046D1*
X1260880Y1969947D1*
X1253230D1*
X1247482Y1968046D1*
X1243635Y1964199D1*
Y1960397D1*
X1245581Y1956550D1*
X1247482Y1954649D1*
X1251285Y1952748D1*
X1262781Y1948901D1*
X1266628Y1947000D1*
X1268529Y1945054D1*
X1270430Y1941252D1*
Y1935504D1*
X1266628Y1931701D1*
X1260880Y1929755D1*
X1253230D1*
X1247482Y1931701D1*
X1243635Y1935504D1*
X1282782Y1969947D2*
Y1929755D1*
X1300026D1*
X1305774Y1931701D1*
X1307675Y1933602D1*
X1309576Y1937405D1*
Y1943153D1*
X1307675Y1947000D1*
X1305774Y1948901D1*
X1300026Y1950802D1*
X1305774Y1952748D1*
X1307675Y1954649D1*
X1309576Y1958451D1*
Y1962298D1*
X1307675Y1966101D1*
X1305774Y1968046D1*
X1300026Y1969947D1*
X1282782D1*
Y1950802D2*
X1300026D1*
X1385658Y1969947D2*
X1360808D1*
Y1929755D1*
X1385658D1*
X1360808Y1950802D2*
X1376107D1*
X1398009Y1956550D2*
Y1929755D1*
Y1948901D2*
X1403757Y1954649D1*
X1407604Y1956550D1*
X1413308D1*
X1417154Y1954649D1*
X1419056Y1948901D1*
Y1929755D1*
X1454355Y1969947D2*
Y1929755D1*
Y1950802D2*
X1450552Y1954649D1*
X1446706Y1956550D1*
X1440958D1*
X1437155Y1954649D1*
X1433308Y1950802D1*
X1431407Y1945054D1*
Y1941252D1*
X1433308Y1935504D1*
X1437155Y1931701D1*
X1440958Y1929755D1*
X1446706D1*
X1450552Y1931701D1*
X1454355Y1935504D1*
X557834Y2232212D2*
D127*
X507616D1*
X497557Y2228885D1*
X490902Y2222153D1*
X487498Y2212094D1*
Y2205439D1*
X490902Y2195380D1*
X497557Y2188649D1*
X507616Y2185321D1*
X557834D1*
X547774Y2116816D2*
X554506Y2123470D1*
X557834Y2133529D1*
Y2146915D1*
X554506Y2156974D1*
X547774Y2163706D1*
X541120D1*
X534388Y2160302D1*
X531061Y2156975D1*
X527734Y2150320D1*
X521002Y2130202D1*
X517675Y2123470D1*
X514270Y2120143D1*
X507616Y2116816D1*
X497557D1*
X490902Y2123470D1*
X487498Y2133529D1*
Y2146915D1*
X490902Y2156975D1*
X497557Y2163706D1*
X557834Y2095201D2*
X487498D1*
Y2065024D1*
X490902Y2054965D1*
X494229Y2051637D1*
X500884Y2048310D1*
X510943D1*
X517675Y2051637D1*
X521002Y2054965D1*
X524329Y2065024D1*
X527734Y2054965D1*
X531061Y2051637D1*
X537715Y2048310D1*
X544447D1*
X551102Y2051637D1*
X554506Y2054965D1*
X557834Y2065024D1*
Y2095201D1*
X524329D2*
Y2065024D1*
X2261155Y2424192D2*
D128*
X2200867D1*
X2261155Y2464384D1*
X2200867D1*
X2261155Y2388421D2*
X2258303Y2394191D1*
X2252533Y2399895D1*
X2246829Y2402813D1*
X2238207Y2405665D1*
X2223815D1*
X2215259Y2402813D1*
X2209489Y2399895D1*
X2203786Y2394191D1*
X2200867Y2388421D1*
Y2376947D1*
X2203786Y2371243D1*
X2209489Y2365473D1*
X2215259Y2362621D1*
X2223815Y2359769D1*
X2238207D1*
X2246829Y2362621D1*
X2252533Y2365473D1*
X2258303Y2371243D1*
X2261155Y2376947D1*
Y2388421D1*
Y2341242D2*
X2200867D1*
Y2321146D1*
X2203786Y2312524D1*
X2209489Y2306754D1*
X2215259Y2303902D1*
X2223815Y2301050D1*
X2238207D1*
X2246829Y2303902D1*
X2252533Y2306754D1*
X2258303Y2312524D1*
X2261155Y2321146D1*
Y2341242D1*
Y2245249D2*
Y2282523D1*
X2200867D1*
Y2245249D1*
X2232437Y2282523D2*
Y2259575D1*
X2200867Y2180826D2*
X2261155D1*
X2200867Y2203774D1*
X2261155Y2226722D1*
X2200867D1*
X2246829Y2119255D2*
X2252533Y2122107D1*
X2258303Y2127877D1*
X2261155Y2133581D1*
Y2145055D1*
X2258303Y2150825D1*
X2252533Y2156529D1*
X2246829Y2159447D1*
X2238207Y2162299D1*
X2223815D1*
X2215259Y2159447D1*
X2209489Y2156529D1*
X2203786Y2150825D1*
X2200867Y2145055D1*
Y2133581D1*
X2203786Y2127877D1*
X2209489Y2122107D1*
X2215259Y2119255D1*
X2261155Y2100728D2*
X2218111D1*
X2209489Y2097876D1*
X2203786Y2092106D1*
X2200867Y2083484D1*
Y2077780D1*
X2203786Y2069158D1*
X2209489Y2063388D1*
X2218111Y2060536D1*
X2261155D1*
X2261089Y1977918D2*
Y1946414D1*
X2238141Y1963592D1*
Y1954970D1*
X2235289Y1949266D1*
X2232437Y1946414D1*
X2223815Y1943496D1*
X2218111D1*
X2209489Y1946414D1*
X2203719Y1952118D1*
X2200867Y1960740D1*
Y1969362D1*
X2203719Y1977918D1*
X2206637Y1980770D1*
X2212341Y1983688D1*
X2246763Y1922050D2*
X2249615D1*
X2255385Y1919199D1*
X2258237Y1916347D1*
X2261089Y1910577D1*
Y1899103D1*
X2258237Y1893399D1*
X2255385Y1890547D1*
X2249615Y1887629D1*
X2243911D1*
X2238141Y1890547D1*
X2229585Y1896251D1*
X2200867Y1924969D1*
Y1884777D1*
X2252533Y1826058D2*
X2258303Y1831761D1*
X2261155Y1840383D1*
Y1851857D1*
X2258303Y1860479D1*
X2252533Y1866250D1*
X2246829D1*
X2241059Y1863331D1*
X2238207Y1860479D1*
X2235355Y1854776D1*
X2229585Y1837532D1*
X2226733Y1831761D1*
X2223815Y1828910D1*
X2218111Y1826058D1*
X2209489D1*
X2203786Y1831761D1*
X2200867Y1840383D1*
Y1851857D1*
X2203786Y1860479D1*
X2209489Y1866250D1*
X972124Y1417969D2*
D123*
X987422Y1377777D1*
X1002721Y1417969D1*
X1045669Y1377777D2*
Y1417969D1*
X1030371Y1377777D1*
X1015072Y1417969D1*
Y1377777D1*
X1067571Y1404571D2*
X1063769Y1402670D1*
X1059922Y1398823D1*
X1058021Y1393075D1*
Y1389273D1*
X1059922Y1383525D1*
X1063769Y1379722D1*
X1067571Y1377777D1*
X1073319D1*
X1077166Y1379722D1*
X1080969Y1383525D1*
X1082914Y1389273D1*
Y1393075D1*
X1080969Y1398823D1*
X1077166Y1402670D1*
X1073319Y1404571D1*
X1067571D1*
X1101014Y1417969D2*
Y1385426D1*
X1102915Y1379722D1*
X1106762Y1377777D1*
X1110564D1*
X1095266Y1404571D2*
X1108663D1*
X1050800Y708418D2*
X1048898Y712221D1*
X1045052Y716068D1*
X1041249Y717969D1*
X1033600D1*
X1029753Y716068D1*
X1025950Y712221D1*
X1024005Y708418D1*
X1022104Y702670D1*
Y693075D1*
X1024005Y687372D1*
X1025950Y683525D1*
X1029753Y679722D1*
X1033600Y677777D1*
X1041249D1*
X1045052Y679722D1*
X1048898Y683525D1*
X1050800Y687372D1*
Y693075D1*
X1041249D1*
X1063151Y704571D2*
Y677777D1*
Y696922D2*
X1068899Y702670D1*
X1072746Y704571D1*
X1078450D1*
X1082296Y702670D1*
X1084198Y696922D1*
Y677777D1*
X1119497Y717969D2*
Y677777D1*
Y698823D2*
X1115694Y702670D1*
X1111848Y704571D1*
X1106100D1*
X1102297Y702670D1*
X1098450Y698823D1*
X1096549Y693075D1*
Y689273D1*
X1098450Y683525D1*
X1102297Y679722D1*
X1106100Y677777D1*
X1111848D1*
X1115694Y679722D1*
X1119497Y683525D1*
X796933Y1417969D2*
X772084D1*
Y1377777D1*
X796933D1*
X772084Y1398823D2*
X787382D1*
X809284Y1404571D2*
Y1377777D1*
Y1396922D2*
X815032Y1402670D1*
X818879Y1404571D1*
X824583D1*
X828430Y1402670D1*
X830331Y1396922D1*
Y1377777D1*
X772084Y717969D2*
Y677777D1*
X785481D1*
X791229Y679722D1*
X795076Y683525D1*
X796977Y687372D1*
X798878Y693075D1*
Y702670D1*
X796977Y708418D1*
X795076Y712221D1*
X791229Y716068D1*
X785481Y717969D1*
X772084D1*
X811230D2*
X813131Y716068D1*
X815076Y717969D1*
X813131Y719914D1*
X811230Y717969D1*
X813131Y704571D2*
Y677777D1*
X827428Y704571D2*
Y677777D1*
Y693075D2*
X829373Y698823D1*
X833176Y702670D1*
X837023Y704571D1*
X842771D1*
X1672124Y1417969D2*
X1687422Y1377777D1*
X1702721Y1417969D1*
X1745669Y1377777D2*
Y1417969D1*
X1730371Y1377777D1*
X1715072Y1417969D1*
Y1377777D1*
X1767571Y1404571D2*
X1763769Y1402670D1*
X1759922Y1398823D1*
X1758021Y1393075D1*
Y1389273D1*
X1759922Y1383525D1*
X1763769Y1379722D1*
X1767571Y1377777D1*
X1773319D1*
X1777166Y1379722D1*
X1780969Y1383525D1*
X1782914Y1389273D1*
Y1393075D1*
X1780969Y1398823D1*
X1777166Y1402670D1*
X1773319Y1404571D1*
X1767571D1*
X1801014Y1417969D2*
Y1385426D1*
X1802915Y1379722D1*
X1806762Y1377777D1*
X1810564D1*
X1795266Y1404571D2*
X1808663D1*
X1750800Y708418D2*
X1748898Y712221D1*
X1745052Y716068D1*
X1741249Y717969D1*
X1733600D1*
X1729753Y716068D1*
X1725950Y712221D1*
X1724005Y708418D1*
X1722104Y702670D1*
Y693075D1*
X1724005Y687372D1*
X1725950Y683525D1*
X1729753Y679722D1*
X1733600Y677777D1*
X1741249D1*
X1745052Y679722D1*
X1748898Y683525D1*
X1750800Y687372D1*
Y693075D1*
X1741249D1*
X1763151Y704571D2*
Y677777D1*
Y696922D2*
X1768899Y702670D1*
X1772746Y704571D1*
X1778450D1*
X1782296Y702670D1*
X1784198Y696922D1*
Y677777D1*
X1819497Y717969D2*
Y677777D1*
Y698823D2*
X1815694Y702670D1*
X1811848Y704571D1*
X1806100D1*
X1802297Y702670D1*
X1798450Y698823D1*
X1796549Y693075D1*
Y689273D1*
X1798450Y683525D1*
X1802297Y679722D1*
X1806100Y677777D1*
X1811848D1*
X1815694Y679722D1*
X1819497Y683525D1*
X1496933Y1417969D2*
X1472084D1*
Y1377777D1*
X1496933D1*
X1472084Y1398823D2*
X1487382D1*
X1509284Y1404571D2*
Y1377777D1*
Y1396922D2*
X1515032Y1402670D1*
X1518879Y1404571D1*
X1524583D1*
X1528430Y1402670D1*
X1530331Y1396922D1*
Y1377777D1*
X1472084Y717969D2*
Y677777D1*
X1485481D1*
X1491229Y679722D1*
X1495076Y683525D1*
X1496977Y687372D1*
X1498878Y693075D1*
Y702670D1*
X1496977Y708418D1*
X1495076Y712221D1*
X1491229Y716068D1*
X1485481Y717969D1*
X1472084D1*
X1511230D2*
X1513131Y716068D1*
X1515076Y717969D1*
X1513131Y719914D1*
X1511230Y717969D1*
X1513131Y704571D2*
Y677777D1*
X1527428Y704571D2*
Y677777D1*
Y693075D2*
X1529373Y698823D1*
X1533176Y702670D1*
X1537023Y704571D1*
X1542771D1*
X2422124Y1417969D2*
X2437422Y1377777D1*
X2452721Y1417969D1*
X2495669Y1377777D2*
Y1417969D1*
X2480371Y1377777D1*
X2465072Y1417969D1*
Y1377777D1*
X2517571Y1404571D2*
X2513769Y1402670D1*
X2509922Y1398823D1*
X2508021Y1393075D1*
Y1389273D1*
X2509922Y1383525D1*
X2513769Y1379722D1*
X2517571Y1377777D1*
X2523319D1*
X2527166Y1379722D1*
X2530969Y1383525D1*
X2532914Y1389273D1*
Y1393075D1*
X2530969Y1398823D1*
X2527166Y1402670D1*
X2523319Y1404571D1*
X2517571D1*
X2551014Y1417969D2*
Y1385426D1*
X2552915Y1379722D1*
X2556762Y1377777D1*
X2560564D1*
X2545266Y1404571D2*
X2558663D1*
X2500800Y708418D2*
X2498898Y712221D1*
X2495052Y716068D1*
X2491249Y717969D1*
X2483600D1*
X2479753Y716068D1*
X2475950Y712221D1*
X2474005Y708418D1*
X2472104Y702670D1*
Y693075D1*
X2474005Y687372D1*
X2475950Y683525D1*
X2479753Y679722D1*
X2483600Y677777D1*
X2491249D1*
X2495052Y679722D1*
X2498898Y683525D1*
X2500800Y687372D1*
Y693075D1*
X2491249D1*
X2513151Y704571D2*
Y677777D1*
Y696922D2*
X2518899Y702670D1*
X2522746Y704571D1*
X2528450D1*
X2532296Y702670D1*
X2534198Y696922D1*
Y677777D1*
X2569497Y717969D2*
Y677777D1*
Y698823D2*
X2565694Y702670D1*
X2561848Y704571D1*
X2556100D1*
X2552297Y702670D1*
X2548450Y698823D1*
X2546549Y693075D1*
Y689273D1*
X2548450Y683525D1*
X2552297Y679722D1*
X2556100Y677777D1*
X2561848D1*
X2565694Y679722D1*
X2569497Y683525D1*
X2246933Y1417969D2*
X2222084D1*
Y1377777D1*
X2246933D1*
X2222084Y1398823D2*
X2237382D1*
X2259284Y1404571D2*
Y1377777D1*
Y1396922D2*
X2265032Y1402670D1*
X2268879Y1404571D1*
X2274583D1*
X2278430Y1402670D1*
X2280331Y1396922D1*
Y1377777D1*
X2222084Y717969D2*
Y677777D1*
X2235481D1*
X2241229Y679722D1*
X2245076Y683525D1*
X2246977Y687372D1*
X2248878Y693075D1*
Y702670D1*
X2246977Y708418D1*
X2245076Y712221D1*
X2241229Y716068D1*
X2235481Y717969D1*
X2222084D1*
X2261230D2*
X2263131Y716068D1*
X2265076Y717969D1*
X2263131Y719914D1*
X2261230Y717969D1*
X2263131Y704571D2*
Y677777D1*
X2277428Y704571D2*
Y677777D1*
Y693075D2*
X2279373Y698823D1*
X2283176Y702670D1*
X2287023Y704571D1*
X2292771D1*
X3122124Y1417969D2*
X3137422Y1377777D1*
X3152721Y1417969D1*
X3195669Y1377777D2*
Y1417969D1*
X3180371Y1377777D1*
X3165072Y1417969D1*
Y1377777D1*
X3217571Y1404571D2*
X3213769Y1402670D1*
X3209922Y1398823D1*
X3208021Y1393075D1*
Y1389273D1*
X3209922Y1383525D1*
X3213769Y1379722D1*
X3217571Y1377777D1*
X3223319D1*
X3227166Y1379722D1*
X3230969Y1383525D1*
X3232914Y1389273D1*
Y1393075D1*
X3230969Y1398823D1*
X3227166Y1402670D1*
X3223319Y1404571D1*
X3217571D1*
X3251014Y1417969D2*
Y1385426D1*
X3252915Y1379722D1*
X3256762Y1377777D1*
X3260564D1*
X3245266Y1404571D2*
X3258663D1*
X3200800Y708418D2*
X3198898Y712221D1*
X3195052Y716068D1*
X3191249Y717969D1*
X3183600D1*
X3179753Y716068D1*
X3175950Y712221D1*
X3174005Y708418D1*
X3172104Y702670D1*
Y693075D1*
X3174005Y687372D1*
X3175950Y683525D1*
X3179753Y679722D1*
X3183600Y677777D1*
X3191249D1*
X3195052Y679722D1*
X3198898Y683525D1*
X3200800Y687372D1*
Y693075D1*
X3191249D1*
X3213151Y704571D2*
Y677777D1*
Y696922D2*
X3218899Y702670D1*
X3222746Y704571D1*
X3228450D1*
X3232296Y702670D1*
X3234198Y696922D1*
Y677777D1*
X3269497Y717969D2*
Y677777D1*
Y698823D2*
X3265694Y702670D1*
X3261848Y704571D1*
X3256100D1*
X3252297Y702670D1*
X3248450Y698823D1*
X3246549Y693075D1*
Y689273D1*
X3248450Y683525D1*
X3252297Y679722D1*
X3256100Y677777D1*
X3261848D1*
X3265694Y679722D1*
X3269497Y683525D1*
X2946933Y1417969D2*
X2922084D1*
Y1377777D1*
X2946933D1*
X2922084Y1398823D2*
X2937382D1*
X2959284Y1404571D2*
Y1377777D1*
Y1396922D2*
X2965032Y1402670D1*
X2968879Y1404571D1*
X2974583D1*
X2978430Y1402670D1*
X2980331Y1396922D1*
Y1377777D1*
X2922084Y717969D2*
Y677777D1*
X2935481D1*
X2941229Y679722D1*
X2945076Y683525D1*
X2946977Y687372D1*
X2948878Y693075D1*
Y702670D1*
X2946977Y708418D1*
X2945076Y712221D1*
X2941229Y716068D1*
X2935481Y717969D1*
X2922084D1*
X2961230D2*
X2963131Y716068D1*
X2965076Y717969D1*
X2963131Y719914D1*
X2961230Y717969D1*
X2963131Y704571D2*
Y677777D1*
X2977428Y704571D2*
Y677777D1*
Y693075D2*
X2979373Y698823D1*
X2983176Y702670D1*
X2987023Y704571D1*
X2992771D1*
X3872124Y1467969D2*
X3887422Y1427777D1*
X3902721Y1467969D1*
X3945669Y1427777D2*
Y1467969D1*
X3930371Y1427777D1*
X3915072Y1467969D1*
Y1427777D1*
X3967571Y1454571D2*
X3963769Y1452670D1*
X3959922Y1448823D1*
X3958021Y1443075D1*
Y1439273D1*
X3959922Y1433525D1*
X3963769Y1429722D1*
X3967571Y1427777D1*
X3973319D1*
X3977166Y1429722D1*
X3980969Y1433525D1*
X3982914Y1439273D1*
Y1443075D1*
X3980969Y1448823D1*
X3977166Y1452670D1*
X3973319Y1454571D1*
X3967571D1*
X4001014Y1467969D2*
Y1435426D1*
X4002915Y1429722D1*
X4006762Y1427777D1*
X4010564D1*
X3995266Y1454571D2*
X4008663D1*
X3950800Y758418D2*
X3948898Y762221D1*
X3945052Y766068D1*
X3941249Y767969D1*
X3933600D1*
X3929753Y766068D1*
X3925950Y762221D1*
X3924005Y758418D1*
X3922104Y752670D1*
Y743075D1*
X3924005Y737372D1*
X3925950Y733525D1*
X3929753Y729722D1*
X3933600Y727777D1*
X3941249D1*
X3945052Y729722D1*
X3948898Y733525D1*
X3950800Y737372D1*
Y743075D1*
X3941249D1*
X3963151Y754571D2*
Y727777D1*
Y746922D2*
X3968899Y752670D1*
X3972746Y754571D1*
X3978450D1*
X3982296Y752670D1*
X3984198Y746922D1*
Y727777D1*
X4019497Y767969D2*
Y727777D1*
Y748823D2*
X4015694Y752670D1*
X4011848Y754571D1*
X4006100D1*
X4002297Y752670D1*
X3998450Y748823D1*
X3996549Y743075D1*
Y739273D1*
X3998450Y733525D1*
X4002297Y729722D1*
X4006100Y727777D1*
X4011848D1*
X4015694Y729722D1*
X4019497Y733525D1*
X3696933Y1467969D2*
X3672084D1*
Y1427777D1*
X3696933D1*
X3672084Y1448823D2*
X3687382D1*
X3709284Y1454571D2*
Y1427777D1*
Y1446922D2*
X3715032Y1452670D1*
X3718879Y1454571D1*
X3724583D1*
X3728430Y1452670D1*
X3730331Y1446922D1*
Y1427777D1*
X3672084Y767969D2*
Y727777D1*
X3685481D1*
X3691229Y729722D1*
X3695076Y733525D1*
X3696977Y737372D1*
X3698878Y743075D1*
Y752670D1*
X3696977Y758418D1*
X3695076Y762221D1*
X3691229Y766068D1*
X3685481Y767969D1*
X3672084D1*
X3711230D2*
X3713131Y766068D1*
X3715076Y767969D1*
X3713131Y769914D1*
X3711230Y767969D1*
X3713131Y754571D2*
Y727777D1*
X3727428Y754571D2*
Y727777D1*
Y743075D2*
X3729373Y748823D1*
X3733176Y752670D1*
X3737023Y754571D1*
X3742771D1*
M02*
